<svg width="191" height="147" viewBox="0 0 191 147" fill="none" xmlns="http://www.w3.org/2000/svg">
<path d="M113.789 0.946289C135.505 0.946289 153.603 8.02891 168.081 22.1942C182.731 36.1867 190.056 53.2886 190.056 73.5V142.167H130.593L125.423 126.62C125.078 127.138 124.647 127.829 124.13 128.693C123.613 129.556 122.32 131.111 120.252 133.357C118.184 135.603 115.943 137.589 113.53 139.317C111.289 141.044 108.187 142.599 104.223 143.981C100.259 145.363 96.1222 146.054 91.8133 146.054C77.8525 146.054 66.5632 142.081 57.9455 134.134C49.5 126.015 45.2773 115.737 45.2773 103.299C45.2773 90.3429 50.3618 79.9781 60.5308 72.2045C70.6998 64.4308 86.2979 60.544 107.325 60.544H128.008C128.008 60.1985 127.836 59.6803 127.491 58.9893C127.318 58.2983 126.715 57.1755 125.681 55.6207C124.647 53.8933 123.354 52.4249 121.803 51.2157C120.424 50.0064 118.184 48.8836 115.081 47.8471C111.979 46.8106 108.532 46.2924 104.74 46.2924C100.948 46.2924 97.0701 47.1561 93.106 48.8836C89.3141 50.6111 86.4703 52.3385 84.5744 54.066L81.472 56.6572L59.4967 21.6759C60.0137 21.1577 60.7893 20.4667 61.8235 19.603C62.8576 18.5665 65.0982 16.839 68.5453 14.4206C71.9924 12.0021 75.6119 9.92913 79.4037 8.20166C83.3679 6.30145 88.4524 4.66035 94.6571 3.27837C100.862 1.72365 107.239 0.946289 113.789 0.946289ZM115.081 104.595C118.701 104.595 121.717 102.781 124.13 99.153C126.715 95.3525 128.008 89.8246 128.008 82.5693C121.286 82.5693 116.115 83.9512 112.496 86.7152C109.049 89.3064 107.325 92.675 107.325 96.8209C107.325 98.7211 108.101 100.535 109.652 102.262C111.376 103.817 113.185 104.595 115.081 104.595Z" fill="#F1EEE7"/>
<path fill-rule="evenodd" clip-rule="evenodd" d="M113.789 1.89247C107.315 1.89247 101.014 2.66079 94.8864 4.1963C94.8783 4.19832 94.8703 4.20022 94.8622 4.20202C88.6992 5.57469 83.6892 7.19639 79.8113 9.05524L79.7946 9.06303C76.0561 10.7662 72.4871 12.8102 69.087 15.1957C65.6305 17.6207 63.4578 19.3033 62.4913 20.272C62.4711 20.2922 62.45 20.3115 62.4281 20.3298C61.7265 20.9158 61.1543 21.4139 60.707 21.8262L81.6964 55.2382L83.9549 53.3519C85.9541 51.5348 88.8926 49.7638 92.7155 48.0221L92.7298 48.0158C96.7961 46.2438 100.802 45.3461 104.74 45.3461C108.618 45.3461 112.167 45.8761 115.38 46.9494C118.508 47.9945 120.883 49.1596 122.404 50.4853C124.034 51.7601 125.393 53.3053 126.479 55.1144C127.458 56.5882 128.135 57.792 128.379 58.6533C128.706 59.322 128.952 59.9818 128.952 60.544C128.952 61.0666 128.53 61.4902 128.008 61.4902H107.326C86.3828 61.4902 71.0319 65.3671 61.1036 72.9568C51.1717 80.5491 46.2217 90.6342 46.2217 103.299C46.2217 115.493 50.3492 125.517 58.5921 133.445C67.0022 141.196 78.0453 145.108 91.8135 145.108C96.0197 145.108 100.051 144.433 103.913 143.087C107.823 141.724 110.823 140.21 112.955 138.567C112.964 138.56 112.972 138.553 112.982 138.547C115.34 136.858 117.533 134.915 119.558 132.715C121.639 130.456 122.862 128.972 123.321 128.206C123.841 127.336 124.281 126.631 124.637 126.095C124.837 125.794 125.191 125.634 125.548 125.682C125.906 125.73 126.204 125.978 126.318 126.321L131.274 141.221H189.112V73.5C189.112 53.5485 181.893 36.6938 167.429 22.8791L167.421 22.8712C153.134 8.89197 135.279 1.89247 113.789 1.89247ZM94.4404 2.35733C100.718 0.785402 107.168 0 113.789 0C135.73 0 154.069 7.1644 168.736 21.513C183.57 35.6826 191 53.0305 191 73.5V142.167C191 142.69 190.577 143.113 190.056 143.113H130.593C130.187 143.113 129.826 142.853 129.698 142.466L125.158 128.816C125.087 128.934 125.014 129.055 124.94 129.18C124.364 130.141 123.002 131.766 120.946 133.999C118.839 136.286 116.554 138.313 114.092 140.077C111.744 141.884 108.544 143.476 104.533 144.875C100.467 146.292 96.2251 147 91.8135 147C77.6642 147 66.131 142.968 57.3065 134.831L57.2922 134.817C48.649 126.508 44.3335 115.977 44.3335 103.299C44.3335 90.0514 49.5524 79.4069 59.9585 71.452C70.3681 63.4945 86.2135 59.5977 107.326 59.5977H126.737C126.709 59.539 126.679 59.4772 126.647 59.4124C126.616 59.3507 126.592 59.2857 126.575 59.2187C126.448 58.7076 125.937 57.7109 124.896 56.1455C124.888 56.1331 124.88 56.1204 124.872 56.1075C123.896 54.4779 122.681 53.0984 121.224 51.9625C121.217 51.9572 121.21 51.9517 121.203 51.9461C121.196 51.9401 121.189 51.934 121.182 51.9277C119.944 50.8425 117.845 49.7678 114.783 48.7447C111.791 47.7451 108.446 47.2386 104.74 47.2386C101.097 47.2386 97.3492 48.0674 93.4897 49.7482C89.7424 51.456 87.0008 53.1341 85.2097 54.7661C85.1996 54.7753 85.1894 54.7842 85.179 54.7929L82.0766 57.3841C81.8675 57.5587 81.5934 57.6344 81.3245 57.5917C81.0557 57.5491 80.8183 57.3922 80.6733 57.1613L58.698 22.18C58.4631 21.8062 58.5176 21.3192 58.8293 21.0068C59.3711 20.4638 60.1617 19.7603 61.1872 18.9029C62.3009 17.7966 64.5984 16.0348 68.0042 13.6453C71.4957 11.1957 75.1628 9.09504 79.0048 7.34405C83.0514 5.40543 88.2035 3.74713 94.4404 2.35733ZM111.927 85.9602C115.773 83.0249 121.176 81.623 128.008 81.623C128.53 81.623 128.952 82.0466 128.952 82.5692C128.952 89.9111 127.649 95.6578 124.913 99.682C122.366 103.509 119.082 105.541 115.082 105.541C112.903 105.541 110.877 104.64 109.021 102.966C108.996 102.944 108.973 102.92 108.951 102.895C107.28 101.035 106.381 99.0042 106.381 96.8209C106.381 92.3639 108.256 88.7211 111.927 85.9602ZM127.056 83.5251C120.922 83.6507 116.296 85.0027 113.068 87.4678L113.063 87.4721C109.842 89.8934 108.27 92.987 108.27 96.8209C108.27 98.4254 108.912 100.01 110.321 101.592C111.899 103.004 113.481 103.648 115.082 103.648C118.319 103.648 121.066 102.054 123.345 98.6281L123.35 98.6199C125.674 95.2043 126.946 90.2097 127.056 83.5251Z" fill="#EC1D23"/>
<path fill-rule="evenodd" clip-rule="evenodd" d="M5.18002 78.1052C5.07712 78.0361 4.97487 77.9689 4.87406 77.9039C3.96767 77.3191 2.93244 76.7554 2.16675 76.4897C2.10449 76.4681 1.97033 76.4231 1.81013 76.3983C1.74088 76.3876 1.55534 76.3617 1.3246 76.3963C1.13081 76.4253 0.489242 76.5667 0.156062 77.2551C-0.154351 77.8964 0.0835709 78.4558 0.14594 78.5906C0.23319 78.7792 0.338848 78.908 0.382018 78.959C0.479316 79.0737 0.57764 79.1579 0.622233 79.1954C0.808732 79.352 1.08332 79.534 1.30539 79.6755C1.55275 79.8331 1.8324 80.0016 2.08048 80.1427C2.28355 80.2581 2.58904 80.4273 2.82774 80.5143C3.13014 80.6245 3.43161 80.7377 3.73218 80.8536C4.1452 81.1442 4.48302 81.4141 4.71305 81.6296C4.62121 81.8636 4.44944 82.1826 4.18991 82.5993C4.04845 82.8264 3.89747 83.0571 3.73795 83.3008L3.73 83.313C3.57172 83.5548 3.40325 83.8124 3.24924 84.0622C2.98155 84.4965 2.60147 85.1432 2.48406 85.7904C2.23613 87.1571 2.88163 88.2023 3.60405 88.8545C4.29068 89.4744 5.14914 89.8546 5.80429 90.0735C7.24925 90.5562 8.26516 89.5431 8.68078 89.0091C8.75591 88.9125 8.8278 88.812 8.89646 88.7091C8.98629 88.6635 9.07477 88.612 9.16137 88.5542C9.40651 88.3907 9.61614 88.1906 9.78727 87.9616C9.91457 87.9833 10.0508 87.9908 10.194 87.9788C10.5512 87.9487 10.8329 87.8071 11.0272 87.6635C11.3688 87.4111 11.5305 87.0888 11.5898 86.9631C11.6674 86.7987 11.7179 86.639 11.7509 86.5186C11.8723 86.0764 11.9259 85.5323 11.9259 85.2637C11.9259 85.0924 11.924 84.9043 11.9134 84.7062C12.3478 84.943 12.781 85.1834 13.2131 85.4271C15.166 86.528 17.2301 87.3877 19.1949 88.206C19.3403 88.2665 19.4851 88.3268 19.6293 88.387C21.7559 89.2744 23.7619 90.1361 25.6039 91.2644C30.7011 94.3864 36.5082 98.1851 43.6683 102.969C44.3761 103.442 45.3323 103.251 45.8042 102.541C46.276 101.832 46.0847 100.873 45.377 100.4C38.2099 95.6115 32.3614 91.7851 27.2102 88.63C25.1397 87.3618 22.9274 86.419 20.8133 85.5368C20.68 85.4812 20.5471 85.4258 20.4147 85.3706C18.4134 84.5367 16.5101 83.7436 14.7233 82.7362C11.6601 81.0092 8.48949 79.4064 5.18002 78.1052ZM7.04227 83.8383C7.03859 83.8446 7.0349 83.8509 7.03121 83.8572C7.03796 83.8562 7.04471 83.8553 7.05145 83.8543C7.04836 83.849 7.0453 83.8437 7.04227 83.8383ZM4.78003 81.4096C4.78039 81.4093 4.77997 81.4146 4.77768 81.4261C4.77852 81.4156 4.77967 81.4098 4.78003 81.4096Z" fill="#EC1D23"/>
<path d="M110.647 81.0415C110.647 96.7377 97.9832 109.462 82.3612 109.462C66.7393 109.462 54.0752 96.7377 54.0752 81.0415C54.0752 65.3454 66.7393 52.6211 82.3612 52.6211C97.9832 52.6211 110.647 65.3454 110.647 81.0415Z" fill="#F1EEE7"/>
<path fill-rule="evenodd" clip-rule="evenodd" d="M112.637 81.0418C112.637 97.8348 99.0865 111.457 82.3609 111.457C65.6353 111.457 52.085 97.8348 52.085 81.0418C52.085 64.2488 65.6353 50.627 82.3609 50.627C99.0865 50.627 112.637 64.2488 112.637 81.0418ZM82.3609 109.462C97.9828 109.462 110.647 96.738 110.647 81.0418C110.647 65.3456 97.9828 52.6214 82.3609 52.6214C66.7389 52.6214 54.0749 65.3456 54.0749 81.0418C54.0749 96.738 66.7389 109.462 82.3609 109.462Z" fill="#EC1D23"/>
<path d="M154.565 81.0415C154.565 96.7377 141.901 109.462 126.279 109.462C110.657 109.462 97.9927 96.7377 97.9927 81.0415C97.9927 65.3454 110.657 52.6211 126.279 52.6211C141.901 52.6211 154.565 65.3454 154.565 81.0415Z" fill="#F1EEE7"/>
<path fill-rule="evenodd" clip-rule="evenodd" d="M156.554 81.0418C156.554 97.8348 143.004 111.457 126.278 111.457C109.553 111.457 96.0024 97.8348 96.0024 81.0418C96.0024 64.2488 109.553 50.627 126.278 50.627C143.004 50.627 156.554 64.2488 156.554 81.0418ZM126.278 109.462C141.9 109.462 154.564 96.738 154.564 81.0418C154.564 65.3456 141.9 52.6214 126.278 52.6214C110.656 52.6214 97.9923 65.3456 97.9923 81.0418C97.9923 96.738 110.656 109.462 126.278 109.462Z" fill="#EC1D23"/>
<path d="M81.3974 68.7069C81.3974 74.7382 76.7807 79.6276 71.0856 79.6276C65.3906 79.6276 60.7739 74.7382 60.7739 68.7069C60.7739 62.6755 65.3906 57.7861 71.0856 57.7861C76.7807 57.7861 81.3974 62.6755 81.3974 68.7069Z" fill="#EC1D23"/>
<path d="M123.913 70.0135C123.913 76.0449 119.296 80.9343 113.601 80.9343C107.906 80.9343 103.29 76.0449 103.29 70.0135C103.29 63.9822 107.906 59.0928 113.601 59.0928C119.296 59.0928 123.913 63.9822 123.913 70.0135Z" fill="#EC1D23"/>
</svg>
