<svg width="33" height="32" viewBox="0 0 33 32" fill="none" xmlns="http://www.w3.org/2000/svg">
<path d="M9.34615 9.75H23.6538M9.34615 14.75H16.5M1 17.2656C1 19.934 2.78594 22.2567 5.30417 22.6449C7.0982 22.9215 8.91253 23.1326 10.7449 23.2758C11.3016 23.3194 11.8105 23.6254 12.1202 24.1124L16.5 31L20.8797 24.1125C21.1894 23.6255 21.6983 23.3195 22.2551 23.2759C24.0874 23.1327 25.9017 22.9216 27.6958 22.6451C30.214 22.257 32 19.9343 32 17.2658V7.23426C32 4.56577 30.214 2.24304 27.6958 1.85489C24.0418 1.29169 20.3036 1 16.5005 1C12.697 1 8.95844 1.29174 5.30418 1.85504C2.78594 2.24322 1 4.56593 1 7.2344V17.2656Z" stroke="#F1EEE7" stroke-width="2" stroke-linecap="round" stroke-linejoin="round"/>
</svg>
