<svg width="31" height="23" viewBox="0 0 31 23" fill="none" xmlns="http://www.w3.org/2000/svg">
<path d="M1.07507 11.9514C0.975068 11.6612 0.974973 11.347 1.0748 11.0568C3.08466 5.21361 8.78415 1 15.5013 1C22.2153 1 27.9126 5.20969 29.9249 11.0486C30.0249 11.3388 30.025 11.653 29.9252 11.9432C27.9153 17.7864 22.2159 22 15.4987 22C8.78474 22 3.08743 17.7903 1.07507 11.9514Z" stroke="#F1EEE7" stroke-width="2" stroke-linecap="round" stroke-linejoin="round"/>
<path d="M19.843 11.5C19.843 13.8196 17.8986 15.7 15.5001 15.7C13.1016 15.7 11.1571 13.8196 11.1571 11.5C11.1571 9.1804 13.1016 7.3 15.5001 7.3C17.8986 7.3 19.843 9.1804 19.843 11.5Z" stroke="#F1EEE7" stroke-width="2" stroke-linecap="round" stroke-linejoin="round"/>
</svg>
