<svg width="105" height="61" viewBox="0 0 105 61" fill="none" xmlns="http://www.w3.org/2000/svg">
<path d="M74.5703 1C58.3144 1 45.1406 14.2099 45.1406 30.5C45.1406 46.7901 58.3144 60 74.5703 60C90.8262 60 104 46.7901 104 30.5C104 14.2099 90.8262 1 74.5703 1Z" fill="#F1EEE7" stroke="#EC1D23" stroke-width="2"/>
<path d="M30.4297 1C14.1738 1 0.999958 14.2099 0.999958 30.5C0.999958 46.7901 14.1738 60 30.4297 60C46.6856 60 59.8594 46.7901 59.8594 30.5C59.8594 14.2099 46.6856 1 30.4297 1Z" fill="#F1EEE7" stroke="#EC1D23" stroke-width="2"/>
<ellipse cx="85.903" cy="42.869" rx="10.3641" ry="10.9513" transform="rotate(-180 85.903 42.869)" fill="#EC1D23"/>
<ellipse cx="43.1716" cy="41.5594" rx="10.3641" ry="10.9513" transform="rotate(-180 43.1716 41.5594)" fill="#EC1D23"/>
</svg>
