<svg width="16" height="16" viewBox="0 0 16 16" fill="none" xmlns="http://www.w3.org/2000/svg">
<rect width="16" height="16" rx="8" fill="#EC1D23"/>
<path d="M5.56 4.46667C6.43111 4.40444 7.36444 4.37333 8.36 4.37333C9.35556 4.37333 10.1022 4.57867 10.6 4.98933C11.0978 5.4 11.3467 5.95689 11.3467 6.66C11.3467 7.34444 11.1227 7.89822 10.6747 8.32133C10.2267 8.73822 9.61067 8.94667 8.82667 8.94667L7.98667 8.9V11H5.56V4.46667ZM7.98667 7.17333H8.36C8.52178 7.17333 8.65556 7.12356 8.76133 7.024C8.86711 6.92444 8.92 6.80311 8.92 6.66C8.92 6.51689 8.86711 6.39555 8.76133 6.296C8.65556 6.19644 8.52178 6.14667 8.36 6.14667H7.98667V7.17333Z" fill="white"/>
</svg>
