<svg width="663" height="947" viewBox="0 0 663 947" fill="none" xmlns="http://www.w3.org/2000/svg">
<g clip-path="url(#clip0_279_6198)">
<path d="M7.41811 279.605C3.32012 279.605 -0.00195312 276.283 -0.00195312 272.185L-0.00195312 262.644C-0.00195312 258.546 3.32012 255.223 7.41811 255.223H16.9582C21.0562 255.223 24.3782 258.546 24.3782 262.644V272.185C24.3782 276.283 21.0562 279.605 16.9582 279.605H7.41811Z" fill="#EC1D23"/>
<path d="M645.543 279.605C641.445 279.605 638.123 276.283 638.123 272.185V262.644C638.123 258.546 641.445 255.223 645.543 255.223H655.083C659.181 255.223 662.503 258.546 662.503 262.644V272.185C662.503 276.283 659.181 279.605 655.083 279.605H645.543Z" fill="#EC1D23"/>
<path d="M56.1785 272.185C56.1785 276.283 52.8564 279.605 48.7584 279.605H39.2184C35.1204 279.605 31.7983 276.283 31.7983 272.185V262.644C31.7983 258.546 35.1204 255.223 39.2184 255.223H48.7584C52.8564 255.223 56.1785 258.546 56.1785 262.644V272.185Z" fill="#EC1D23"/>
<path d="M56.1785 17.7604C56.1785 21.8587 52.8564 25.1811 48.7584 25.1811H39.2184C35.1204 25.1811 31.7983 21.8587 31.7983 17.7604V8.21949C31.7983 4.12115 35.1204 0.798776 39.2184 0.798776H48.7584C52.8564 0.798776 56.1785 4.12115 56.1785 8.21949V17.7604Z" fill="#EC1D23"/>
<path d="M342.381 272.185C342.381 276.283 339.059 279.605 334.961 279.605H325.421C321.323 279.605 318.001 276.283 318.001 272.185V262.644C318.001 258.546 321.323 255.223 325.421 255.223H334.961C339.059 255.223 342.381 258.546 342.381 262.644V272.185Z" fill="#EC1D23"/>
<path d="M342.381 17.7604C342.381 21.8587 339.059 25.1811 334.961 25.1811H325.421C321.323 25.1811 318.001 21.8587 318.001 17.7604V8.21949C318.001 4.12115 321.323 0.798776 325.421 0.798776H334.961C339.059 0.798776 342.381 4.12115 342.381 8.21949V17.7604Z" fill="#EC1D23"/>
<path d="M7.41811 247.802C3.32012 247.802 -0.00195312 244.48 -0.00195312 240.382L-0.00195312 230.841C-0.00195312 226.742 3.32012 223.42 7.41811 223.42H16.9582C21.0562 223.42 24.3782 226.742 24.3782 230.841V240.382C24.3782 244.48 21.0562 247.802 16.9582 247.802H7.41811Z" fill="#EC1D23"/>
<path d="M87.9756 272.185C87.9756 276.283 84.6536 279.605 80.5556 279.605H71.0155C66.9175 279.605 63.5955 276.283 63.5955 272.185V262.644C63.5955 258.546 66.9175 255.223 71.0155 255.223H80.5556C84.6536 255.223 87.9756 258.546 87.9756 262.644V272.185Z" fill="#EC1D23"/>
<path d="M87.9756 17.7604C87.9756 21.8587 84.6536 25.1811 80.5556 25.1811H71.0155C66.9175 25.1811 63.5955 21.8587 63.5955 17.7604V8.21949C63.5955 4.12115 66.9175 0.798776 71.0155 0.798776H80.5556C84.6536 0.798776 87.9756 4.12115 87.9756 8.21949V17.7604Z" fill="#EC1D23"/>
<path d="M645.543 247.802C641.445 247.802 638.123 244.48 638.123 240.382V230.841C638.123 226.742 641.445 223.42 645.543 223.42H655.083C659.181 223.42 662.503 226.742 662.503 230.841V240.382C662.503 244.48 659.181 247.802 655.083 247.802H645.543Z" fill="#EC1D23"/>
<path d="M374.178 272.185C374.178 276.283 370.856 279.605 366.758 279.605H357.218C353.12 279.605 349.798 276.283 349.798 272.185V262.644C349.798 258.546 353.12 255.223 357.218 255.223H366.758C370.856 255.223 374.178 258.546 374.178 262.644V272.185Z" fill="#EC1D23"/>
<path d="M374.178 17.7604C374.178 21.8587 370.856 25.1811 366.758 25.1811H357.218C353.12 25.1811 349.798 21.8587 349.798 17.7604V8.21949C349.798 4.12115 353.12 0.798776 357.218 0.798776H366.758C370.856 0.798776 374.178 4.12115 374.178 8.21949V17.7604Z" fill="#EC1D23"/>
<path d="M119.772 272.185C119.772 276.283 116.45 279.605 112.352 279.605H102.812C98.7142 279.605 95.3921 276.283 95.3921 272.185V262.644C95.3921 258.546 98.7142 255.223 102.812 255.223H112.352C116.45 255.223 119.772 258.546 119.772 262.644V272.185Z" fill="#EC1D23"/>
<path d="M119.772 17.7604C119.772 21.8587 116.45 25.1811 112.352 25.1811H102.812C98.7142 25.1811 95.3921 21.8587 95.3921 17.7604V8.21949C95.3921 4.12115 98.7142 0.798776 102.812 0.798776H112.352C116.45 0.798776 119.772 4.12115 119.772 8.21949V17.7604Z" fill="#EC1D23"/>
<path d="M7.41811 215.999C3.32012 215.999 -0.00195312 212.677 -0.00195312 208.579L-0.00195312 199.038C-0.00195312 194.939 3.32012 191.617 7.41811 191.617H16.9582C21.0562 191.617 24.3782 194.939 24.3782 199.038V208.579C24.3782 212.677 21.0562 215.999 16.9582 215.999H7.41811Z" fill="#EC1D23"/>
<path d="M645.543 215.999C641.445 215.999 638.123 212.677 638.123 208.579V199.038C638.123 194.939 641.445 191.617 645.543 191.617H655.083C659.181 191.617 662.503 194.939 662.503 199.038V208.579C662.503 212.677 659.181 215.999 655.083 215.999H645.543Z" fill="#EC1D23"/>
<path d="M151.569 272.185C151.569 276.283 148.247 279.605 144.149 279.605H134.609C130.511 279.605 127.189 276.283 127.189 272.185V262.644C127.189 258.546 130.511 255.223 134.609 255.223H144.149C148.247 255.223 151.569 258.546 151.569 262.644V272.185Z" fill="#EC1D23"/>
<path d="M151.569 17.7604C151.569 21.8587 148.247 25.1811 144.149 25.1811H134.609C130.511 25.1811 127.189 21.8587 127.189 17.7604V8.21949C127.189 4.12115 130.511 0.798776 134.609 0.798776H144.149C148.247 0.798776 151.569 4.12115 151.569 8.21949V17.7604Z" fill="#EC1D23"/>
<path d="M405.975 272.185C405.975 276.283 402.653 279.605 398.555 279.605H389.015C384.917 279.605 381.595 276.283 381.595 272.185V262.644C381.595 258.546 384.917 255.223 389.015 255.223H398.555C402.653 255.223 405.975 258.546 405.975 262.644V272.185Z" fill="#EC1D23"/>
<path d="M405.975 17.7604C405.975 21.8587 402.653 25.1811 398.555 25.1811H389.015C384.917 25.1811 381.595 21.8587 381.595 17.7604V8.21949C381.595 4.12115 384.917 0.798776 389.015 0.798776H398.555C402.653 0.798776 405.975 4.12115 405.975 8.21949V17.7604Z" fill="#EC1D23"/>
<path d="M7.41811 184.196C3.32012 184.196 -0.00195312 180.874 -0.00195312 176.776L-0.00195312 167.235C-0.00195312 163.136 3.32012 159.814 7.41811 159.814H16.9582C21.0562 159.814 24.3782 163.136 24.3782 167.235V176.776C24.3782 180.874 21.0562 184.196 16.9582 184.196H7.41811Z" fill="#EC1D23"/>
<path d="M246.961 272.185C246.961 276.283 243.639 279.605 239.541 279.605H230.001C225.903 279.605 222.581 276.283 222.581 272.185V262.644C222.581 258.546 225.903 255.223 230.001 255.223H239.541C243.639 255.223 246.961 258.546 246.961 262.644V272.185Z" fill="#EC1D23"/>
<path d="M246.961 17.7604C246.961 21.8587 243.639 25.1811 239.541 25.1811H230.001C225.903 25.1811 222.581 21.8587 222.581 17.7604V8.21949C222.581 4.12115 225.903 0.798776 230.001 0.798776H239.541C243.639 0.798776 246.961 4.12115 246.961 8.21949V17.7604Z" fill="#EC1D23"/>
<path d="M645.543 184.196C641.445 184.196 638.123 180.874 638.123 176.776V167.235C638.123 163.136 641.445 159.814 645.543 159.814H655.083C659.181 159.814 662.503 163.136 662.503 167.235V176.776C662.503 180.874 659.181 184.196 655.083 184.196H645.543Z" fill="#EC1D23"/>
<path d="M437.771 272.185C437.771 276.283 434.449 279.605 430.351 279.605H420.811C416.713 279.605 413.391 276.283 413.391 272.185V262.644C413.391 258.546 416.713 255.223 420.811 255.223H430.351C434.449 255.223 437.771 258.546 437.771 262.644V272.185Z" fill="#EC1D23"/>
<path d="M437.771 17.7604C437.771 21.8587 434.449 25.1811 430.351 25.1811H420.811C416.713 25.1811 413.391 21.8587 413.391 17.7604V8.21949C413.391 4.12115 416.713 0.798776 420.811 0.798776H430.351C434.449 0.798776 437.771 4.12115 437.771 8.21949V17.7604Z" fill="#EC1D23"/>
<path d="M183.367 272.185C183.367 276.283 180.045 279.605 175.947 279.605H166.407C162.309 279.605 158.987 276.283 158.987 272.185V262.644C158.987 258.546 162.309 255.223 166.407 255.223H175.947C180.045 255.223 183.367 258.546 183.367 262.644V272.185Z" fill="#EC1D23"/>
<path d="M183.367 17.7604C183.367 21.8587 180.045 25.1811 175.947 25.1811H166.407C162.309 25.1811 158.987 21.8587 158.987 17.7604V8.21949C158.987 4.12115 162.309 0.798776 166.407 0.798776H175.947C180.045 0.798776 183.367 4.12115 183.367 8.21949V17.7604Z" fill="#EC1D23"/>
<path d="M7.41811 88.7872C3.32012 88.7872 -0.00195312 85.4648 -0.00195312 81.3665L-0.00195312 71.8256C-0.00195312 67.7272 3.32012 64.4049 7.41811 64.4049H16.9582C21.0562 64.4049 24.3782 67.7272 24.3782 71.8256V81.3665C24.3782 85.4648 21.0562 88.7872 16.9582 88.7872H7.41811Z" fill="#EC1D23"/>
<path d="M645.543 88.7872C641.445 88.7872 638.123 85.4648 638.123 81.3665V71.8256C638.123 67.7272 641.445 64.4049 645.543 64.4049H655.083C659.181 64.4049 662.503 67.7272 662.503 71.8256V81.3665C662.503 85.4648 659.181 88.7872 655.083 88.7872H645.543Z" fill="#EC1D23"/>
<path d="M278.76 272.185C278.76 276.283 275.438 279.605 271.34 279.605H261.799C257.701 279.605 254.379 276.283 254.379 272.185V262.644C254.379 258.546 257.701 255.223 261.799 255.223H271.34C275.438 255.223 278.76 258.546 278.76 262.644V272.185Z" fill="#EC1D23"/>
<path d="M278.76 17.7604C278.76 21.8587 275.438 25.1811 271.34 25.1811H261.799C257.701 25.1811 254.379 21.8587 254.379 17.7604V8.21949C254.379 4.12115 257.701 0.798776 261.799 0.798776H271.34C275.438 0.798776 278.76 4.12115 278.76 8.21949V17.7604Z" fill="#EC1D23"/>
<path d="M533.164 272.185C533.164 276.283 529.842 279.605 525.744 279.605H516.204C512.106 279.605 508.783 276.283 508.783 272.185V262.644C508.783 258.546 512.106 255.223 516.204 255.223H525.744C529.842 255.223 533.164 258.546 533.164 262.644V272.185Z" fill="#EC1D23"/>
<path d="M533.164 17.7604C533.164 21.8587 529.842 25.1811 525.744 25.1811H516.204C512.106 25.1811 508.783 21.8587 508.783 17.7604V8.21949C508.783 4.12115 512.106 0.798776 516.204 0.798776H525.744C529.842 0.798776 533.164 4.12115 533.164 8.21949V17.7604Z" fill="#EC1D23"/>
<path d="M7.41811 152.393C3.32012 152.393 -0.00195312 149.071 -0.00195312 144.973L-0.00195312 135.432C-0.00195312 131.333 3.32012 128.011 7.41811 128.011H16.9582C21.0562 128.011 24.3782 131.333 24.3782 135.432V144.973C24.3782 149.071 21.0562 152.393 16.9582 152.393H7.41811Z" fill="#EC1D23"/>
<path d="M215.165 272.185C215.165 276.283 211.843 279.605 207.745 279.605H198.205C194.107 279.605 190.785 276.283 190.785 272.185V262.644C190.785 258.546 194.107 255.223 198.205 255.223H207.745C211.843 255.223 215.165 258.546 215.165 262.644V272.185Z" fill="#EC1D23"/>
<path d="M215.165 17.7604C215.165 21.8587 211.843 25.1811 207.745 25.1811H198.205C194.107 25.1811 190.785 21.8587 190.785 17.7604V8.21949C190.785 4.12115 194.107 0.798776 198.205 0.798776H207.745C211.843 0.798776 215.165 4.12115 215.165 8.21949V17.7604Z" fill="#EC1D23"/>
<path d="M645.543 152.393C641.445 152.393 638.123 149.071 638.123 144.973V135.432C638.123 131.333 641.445 128.011 645.543 128.011H655.083C659.181 128.011 662.503 131.333 662.503 135.432V144.973C662.503 149.071 659.181 152.393 655.083 152.393H645.543Z" fill="#EC1D23"/>
<path d="M469.569 272.185C469.569 276.283 466.247 279.605 462.149 279.605H452.609C448.511 279.605 445.189 276.283 445.189 272.185V262.644C445.189 258.546 448.511 255.223 452.609 255.223H462.149C466.247 255.223 469.569 258.546 469.569 262.644V272.185Z" fill="#EC1D23"/>
<path d="M469.569 17.7604C469.569 21.8587 466.247 25.1811 462.149 25.1811H452.609C448.511 25.1811 445.189 21.8587 445.189 17.7604V8.21949C445.189 4.12115 448.511 0.798776 452.609 0.798776H462.149C466.247 0.798776 469.569 4.12115 469.569 8.21949V17.7604Z" fill="#EC1D23"/>
<path d="M310.556 272.185C310.556 276.283 307.234 279.605 303.136 279.605H293.596C289.498 279.605 286.175 276.283 286.175 272.185V262.644C286.175 258.546 289.498 255.223 293.596 255.223H303.136C307.234 255.223 310.556 258.546 310.556 262.644V272.185Z" fill="#EC1D23"/>
<path d="M310.556 17.7604C310.556 21.8587 307.234 25.1811 303.136 25.1811H293.596C289.498 25.1811 286.175 21.8587 286.175 17.7604V8.21949C286.175 4.12115 289.498 0.798776 293.596 0.798776H303.136C307.234 0.798776 310.556 4.12115 310.556 8.21949V17.7604Z" fill="#EC1D23"/>
<path d="M7.41811 56.9842C3.32012 56.9842 -0.00195312 53.6618 -0.00195312 49.5635L-0.00195312 40.0225C-0.00195312 35.9242 3.32012 32.6018 7.41811 32.6018H16.9582C21.0562 32.6018 24.3782 35.9242 24.3782 40.0225V49.5635C24.3782 53.6618 21.0562 56.9842 16.9582 56.9842H7.41811Z" fill="#EC1D23"/>
<path d="M645.543 56.9842C641.445 56.9842 638.123 53.6618 638.123 49.5635V40.0225C638.123 35.9242 641.445 32.6018 645.543 32.6018H655.083C659.181 32.6018 662.503 35.9242 662.503 40.0225V49.5635C662.503 53.6618 659.181 56.9842 655.083 56.9842H645.543Z" fill="#EC1D23"/>
<path d="M564.962 272.185C564.962 276.283 561.64 279.605 557.542 279.605H548.002C543.904 279.605 540.582 276.283 540.582 272.185V262.644C540.582 258.546 543.904 255.223 548.002 255.223H557.542C561.64 255.223 564.962 258.546 564.962 262.644V272.185Z" fill="#EC1D23"/>
<path d="M564.962 17.7604C564.962 21.8587 561.64 25.1811 557.542 25.1811H548.002C543.904 25.1811 540.582 21.8587 540.582 17.7604V8.21949C540.582 4.12115 543.904 0.798776 548.002 0.798776H557.542C561.64 0.798776 564.962 4.12115 564.962 8.21949V17.7604Z" fill="#EC1D23"/>
<path d="M7.41811 120.59C3.32012 120.59 -0.00195312 117.268 -0.00195312 113.17L-0.00195312 103.629C-0.00195312 99.5303 3.32012 96.2079 7.41811 96.2079H16.9582C21.0562 96.2079 24.3782 99.5303 24.3782 103.629V113.17C24.3782 117.268 21.0562 120.59 16.9582 120.59H7.41811Z" fill="#EC1D23"/>
<path d="M645.543 120.59C641.445 120.59 638.123 117.268 638.123 113.17V103.629C638.123 99.5303 641.445 96.2079 645.543 96.2079H655.083C659.181 96.2079 662.503 99.5303 662.503 103.629V113.17C662.503 117.268 659.181 120.59 655.083 120.59H645.543Z" fill="#EC1D23"/>
<path d="M501.368 272.185C501.368 276.283 498.045 279.605 493.947 279.605H484.407C480.309 279.605 476.987 276.283 476.987 272.185V262.644C476.987 258.546 480.309 255.223 484.407 255.223H493.947C498.045 255.223 501.368 258.546 501.368 262.644V272.185Z" fill="#EC1D23"/>
<path d="M501.368 17.7604C501.368 21.8587 498.045 25.1811 493.947 25.1811H484.407C480.309 25.1811 476.987 21.8587 476.987 17.7604V8.21949C476.987 4.12115 480.309 0.798776 484.407 0.798776H493.947C498.045 0.798776 501.368 4.12115 501.368 8.21949V17.7604Z" fill="#EC1D23"/>
<path d="M7.41811 25.1811C3.32012 25.1811 -0.00195312 21.8587 -0.00195312 17.7604L-0.00195312 8.21949C-0.00195312 4.12115 3.32012 0.798776 7.41811 0.798776H16.9582C21.0562 0.798776 24.3782 4.12115 24.3782 8.21949V17.7604C24.3782 21.8587 21.0562 25.1811 16.9582 25.1811H7.41811Z" fill="#EC1D23"/>
<path d="M645.543 25.1811C641.445 25.1811 638.123 21.8587 638.123 17.7604V8.21949C638.123 4.12115 641.445 0.798776 645.543 0.798776H655.083C659.181 0.798776 662.503 4.12115 662.503 8.21949V17.7604C662.503 21.8587 659.181 25.1811 655.083 25.1811H645.543Z" fill="#EC1D23"/>
<path d="M596.758 272.185C596.758 276.283 593.436 279.605 589.338 279.605H579.798C575.7 279.605 572.378 276.283 572.378 272.185V262.644C572.378 258.546 575.7 255.223 579.798 255.223H589.338C593.436 255.223 596.758 258.546 596.758 262.644V272.185Z" fill="#EC1D23"/>
<path d="M596.758 17.7604C596.758 21.8587 593.436 25.1811 589.338 25.1811H579.798C575.7 25.1811 572.378 21.8587 572.378 17.7604V8.21949C572.378 4.12115 575.7 0.798776 579.798 0.798776H589.338C593.436 0.798776 596.758 4.12115 596.758 8.21949V17.7604Z" fill="#EC1D23"/>
<path d="M630.703 272.185C630.703 276.283 627.381 279.605 623.283 279.605H613.743C609.645 279.605 606.323 276.283 606.323 272.185V262.644C606.323 258.546 609.645 255.223 613.743 255.223H623.283C627.381 255.223 630.703 258.546 630.703 262.644V272.185Z" fill="#EC1D23"/>
<path d="M630.703 17.7604C630.703 21.8587 627.381 25.1811 623.283 25.1811H613.743C609.645 25.1811 606.323 21.8587 606.323 17.7604V8.21949C606.323 4.12115 609.645 0.798776 613.743 0.798776H623.283C627.381 0.798776 630.703 4.12115 630.703 8.21949V17.7604Z" fill="#EC1D23"/>
<path d="M12.7181 266.884L12.7181 12.4599H650.843V266.884H12.7181Z" fill="#EC1D23"/>
<path d="M7.41811 534.021C3.32012 534.021 -0.00195312 530.698 -0.00195312 526.6L-0.00195312 517.059C-0.00195312 512.961 3.32012 509.638 7.41811 509.638H16.9582C21.0562 509.638 24.3782 512.961 24.3782 517.059V526.6C24.3782 530.698 21.0562 534.021 16.9582 534.021H7.41811Z" fill="#EC1D23"/>
<path d="M645.543 534.021C641.445 534.021 638.123 530.698 638.123 526.6V517.059C638.123 512.961 641.445 509.638 645.543 509.638H655.083C659.181 509.638 662.503 512.961 662.503 517.059V526.6C662.503 530.698 659.181 534.021 655.083 534.021H645.543Z" fill="#EC1D23"/>
<path d="M56.1785 526.6C56.1785 530.698 52.8564 534.021 48.7584 534.021H39.2184C35.1204 534.021 31.7983 530.698 31.7983 526.6V517.059C31.7983 512.961 35.1204 509.638 39.2184 509.638H48.7584C52.8564 509.638 56.1785 512.961 56.1785 517.059V526.6Z" fill="#EC1D23"/>
<path d="M56.1785 272.175C56.1785 276.274 52.8564 279.596 48.7584 279.596H39.2184C35.1204 279.596 31.7983 276.274 31.7983 272.175V262.635C31.7983 258.536 35.1204 255.214 39.2184 255.214H48.7584C52.8564 255.214 56.1785 258.536 56.1785 262.635V272.175Z" fill="#EC1D23"/>
<path d="M342.381 526.6C342.381 530.698 339.059 534.021 334.961 534.021H325.421C321.323 534.021 318.001 530.698 318.001 526.6V517.059C318.001 512.961 321.323 509.638 325.421 509.638H334.961C339.059 509.638 342.381 512.961 342.381 517.059V526.6Z" fill="#EC1D23"/>
<path d="M342.381 272.175C342.381 276.274 339.059 279.596 334.961 279.596H325.421C321.323 279.596 318.001 276.274 318.001 272.175V262.635C318.001 258.536 321.323 255.214 325.421 255.214H334.961C339.059 255.214 342.381 258.536 342.381 262.635V272.175Z" fill="#EC1D23"/>
<path d="M7.41811 502.217C3.32012 502.217 -0.00195312 498.895 -0.00195312 494.797L-0.00195312 485.256C-0.00195312 481.157 3.32012 477.835 7.41811 477.835H16.9582C21.0562 477.835 24.3782 481.157 24.3782 485.256V494.797C24.3782 498.895 21.0562 502.217 16.9582 502.217H7.41811Z" fill="#EC1D23"/>
<path d="M87.9756 526.6C87.9756 530.698 84.6536 534.021 80.5556 534.021H71.0155C66.9175 534.021 63.5955 530.698 63.5955 526.6V517.059C63.5955 512.961 66.9175 509.638 71.0155 509.638H80.5556C84.6536 509.638 87.9756 512.961 87.9756 517.059V526.6Z" fill="#EC1D23"/>
<path d="M87.9756 272.175C87.9756 276.274 84.6536 279.596 80.5556 279.596H71.0155C66.9175 279.596 63.5955 276.274 63.5955 272.175V262.635C63.5955 258.536 66.9175 255.214 71.0155 255.214H80.5556C84.6536 255.214 87.9756 258.536 87.9756 262.635V272.175Z" fill="#EC1D23"/>
<path d="M645.543 502.217C641.445 502.217 638.123 498.895 638.123 494.797V485.256C638.123 481.157 641.445 477.835 645.543 477.835H655.083C659.181 477.835 662.503 481.157 662.503 485.256V494.797C662.503 498.895 659.181 502.217 655.083 502.217H645.543Z" fill="#EC1D23"/>
<path d="M374.178 526.6C374.178 530.698 370.856 534.021 366.758 534.021H357.218C353.12 534.021 349.798 530.698 349.798 526.6V517.059C349.798 512.961 353.12 509.638 357.218 509.638H366.758C370.856 509.638 374.178 512.961 374.178 517.059V526.6Z" fill="#EC1D23"/>
<path d="M374.178 272.175C374.178 276.274 370.856 279.596 366.758 279.596H357.218C353.12 279.596 349.798 276.274 349.798 272.175V262.635C349.798 258.536 353.12 255.214 357.218 255.214H366.758C370.856 255.214 374.178 258.536 374.178 262.635V272.175Z" fill="#EC1D23"/>
<path d="M119.772 526.6C119.772 530.698 116.45 534.021 112.352 534.021H102.812C98.7142 534.021 95.3921 530.698 95.3921 526.6V517.059C95.3921 512.961 98.7142 509.638 102.812 509.638H112.352C116.45 509.638 119.772 512.961 119.772 517.059V526.6Z" fill="#EC1D23"/>
<path d="M119.772 272.175C119.772 276.274 116.45 279.596 112.352 279.596H102.812C98.7142 279.596 95.3921 276.274 95.3921 272.175V262.635C95.3921 258.536 98.7142 255.214 102.812 255.214H112.352C116.45 255.214 119.772 258.536 119.772 262.635V272.175Z" fill="#EC1D23"/>
<path d="M7.41811 470.414C3.32012 470.414 -0.00195312 467.092 -0.00195312 462.994L-0.00195312 453.453C-0.00195312 449.354 3.32012 446.032 7.41811 446.032H16.9582C21.0562 446.032 24.3782 449.354 24.3782 453.453V462.994C24.3782 467.092 21.0562 470.414 16.9582 470.414H7.41811Z" fill="#EC1D23"/>
<path d="M645.543 470.414C641.445 470.414 638.123 467.092 638.123 462.994V453.453C638.123 449.354 641.445 446.032 645.543 446.032H655.083C659.181 446.032 662.503 449.354 662.503 453.453V462.994C662.503 467.092 659.181 470.414 655.083 470.414H645.543Z" fill="#EC1D23"/>
<path d="M151.569 526.6C151.569 530.698 148.247 534.021 144.149 534.021H134.609C130.511 534.021 127.189 530.698 127.189 526.6V517.059C127.189 512.961 130.511 509.638 134.609 509.638H144.149C148.247 509.638 151.569 512.961 151.569 517.059V526.6Z" fill="#EC1D23"/>
<path d="M151.569 272.175C151.569 276.274 148.247 279.596 144.149 279.596H134.609C130.511 279.596 127.189 276.274 127.189 272.175V262.635C127.189 258.536 130.511 255.214 134.609 255.214H144.149C148.247 255.214 151.569 258.536 151.569 262.635V272.175Z" fill="#EC1D23"/>
<path d="M405.975 526.6C405.975 530.698 402.653 534.021 398.555 534.021H389.015C384.917 534.021 381.595 530.698 381.595 526.6V517.059C381.595 512.961 384.917 509.638 389.015 509.638H398.555C402.653 509.638 405.975 512.961 405.975 517.059V526.6Z" fill="#EC1D23"/>
<path d="M405.975 272.175C405.975 276.274 402.653 279.596 398.555 279.596H389.015C384.917 279.596 381.595 276.274 381.595 272.175V262.635C381.595 258.536 384.917 255.214 389.015 255.214H398.555C402.653 255.214 405.975 258.536 405.975 262.635V272.175Z" fill="#EC1D23"/>
<path d="M7.41811 438.611C3.32012 438.611 -0.00195312 435.289 -0.00195312 431.191L-0.00195312 421.65C-0.00195312 417.551 3.32012 414.229 7.41811 414.229H16.9582C21.0562 414.229 24.3782 417.551 24.3782 421.65V431.191C24.3782 435.289 21.0562 438.611 16.9582 438.611H7.41811Z" fill="#EC1D23"/>
<path d="M246.961 526.6C246.961 530.698 243.639 534.021 239.541 534.021H230.001C225.903 534.021 222.581 530.698 222.581 526.6V517.059C222.581 512.961 225.903 509.638 230.001 509.638H239.541C243.639 509.638 246.961 512.961 246.961 517.059V526.6Z" fill="#EC1D23"/>
<path d="M246.961 272.175C246.961 276.274 243.639 279.596 239.541 279.596H230.001C225.903 279.596 222.581 276.274 222.581 272.175V262.635C222.581 258.536 225.903 255.214 230.001 255.214H239.541C243.639 255.214 246.961 258.536 246.961 262.635V272.175Z" fill="#EC1D23"/>
<path d="M645.543 438.611C641.445 438.611 638.123 435.289 638.123 431.191V421.65C638.123 417.551 641.445 414.229 645.543 414.229H655.083C659.181 414.229 662.503 417.551 662.503 421.65V431.191C662.503 435.289 659.181 438.611 655.083 438.611H645.543Z" fill="#EC1D23"/>
<path d="M437.771 526.6C437.771 530.698 434.449 534.021 430.351 534.021H420.811C416.713 534.021 413.391 530.698 413.391 526.6V517.059C413.391 512.961 416.713 509.638 420.811 509.638H430.351C434.449 509.638 437.771 512.961 437.771 517.059V526.6Z" fill="#EC1D23"/>
<path d="M437.771 272.175C437.771 276.274 434.449 279.596 430.351 279.596H420.811C416.713 279.596 413.391 276.274 413.391 272.175V262.635C413.391 258.536 416.713 255.214 420.811 255.214H430.351C434.449 255.214 437.771 258.536 437.771 262.635V272.175Z" fill="#EC1D23"/>
<path d="M183.367 526.6C183.367 530.698 180.045 534.021 175.947 534.021H166.407C162.309 534.021 158.987 530.698 158.987 526.6V517.059C158.987 512.961 162.309 509.638 166.407 509.638H175.947C180.045 509.638 183.367 512.961 183.367 517.059V526.6Z" fill="#EC1D23"/>
<path d="M183.367 272.175C183.367 276.274 180.045 279.596 175.947 279.596H166.407C162.309 279.596 158.987 276.274 158.987 272.175V262.635C158.987 258.536 162.309 255.214 166.407 255.214H175.947C180.045 255.214 183.367 258.536 183.367 262.635V272.175Z" fill="#EC1D23"/>
<path d="M7.41811 343.202C3.32012 343.202 -0.00195312 339.88 -0.00195312 335.782L-0.00195312 326.241C-0.00195312 322.142 3.32012 318.82 7.41811 318.82H16.9582C21.0562 318.82 24.3782 322.142 24.3782 326.241V335.782C24.3782 339.88 21.0562 343.202 16.9582 343.202H7.41811Z" fill="#EC1D23"/>
<path d="M645.543 343.202C641.445 343.202 638.123 339.88 638.123 335.782V326.241C638.123 322.142 641.445 318.82 645.543 318.82H655.083C659.181 318.82 662.503 322.142 662.503 326.241V335.782C662.503 339.88 659.181 343.202 655.083 343.202H645.543Z" fill="#EC1D23"/>
<path d="M278.76 526.6C278.76 530.698 275.438 534.021 271.34 534.021H261.799C257.701 534.021 254.379 530.698 254.379 526.6V517.059C254.379 512.961 257.701 509.638 261.799 509.638H271.34C275.438 509.638 278.76 512.961 278.76 517.059V526.6Z" fill="#EC1D23"/>
<path d="M278.76 272.175C278.76 276.274 275.438 279.596 271.34 279.596H261.799C257.701 279.596 254.379 276.274 254.379 272.175V262.635C254.379 258.536 257.701 255.214 261.799 255.214H271.34C275.438 255.214 278.76 258.536 278.76 262.635V272.175Z" fill="#EC1D23"/>
<path d="M533.164 526.6C533.164 530.698 529.842 534.021 525.744 534.021H516.204C512.106 534.021 508.783 530.698 508.783 526.6V517.059C508.783 512.961 512.106 509.638 516.204 509.638H525.744C529.842 509.638 533.164 512.961 533.164 517.059V526.6Z" fill="#EC1D23"/>
<path d="M533.164 272.175C533.164 276.274 529.842 279.596 525.744 279.596H516.204C512.106 279.596 508.783 276.274 508.783 272.175V262.635C508.783 258.536 512.106 255.214 516.204 255.214H525.744C529.842 255.214 533.164 258.536 533.164 262.635V272.175Z" fill="#EC1D23"/>
<path d="M7.41811 406.808C3.32012 406.808 -0.00195312 403.486 -0.00195312 399.388L-0.00195312 389.847C-0.00195312 385.748 3.32012 382.426 7.41811 382.426H16.9582C21.0562 382.426 24.3782 385.748 24.3782 389.847V399.388C24.3782 403.486 21.0562 406.808 16.9582 406.808H7.41811Z" fill="#EC1D23"/>
<path d="M215.165 526.6C215.165 530.698 211.843 534.021 207.745 534.021H198.205C194.107 534.021 190.785 530.698 190.785 526.6V517.059C190.785 512.961 194.107 509.638 198.205 509.638H207.745C211.843 509.638 215.165 512.961 215.165 517.059V526.6Z" fill="#EC1D23"/>
<path d="M215.165 272.175C215.165 276.274 211.843 279.596 207.745 279.596H198.205C194.107 279.596 190.785 276.274 190.785 272.175V262.635C190.785 258.536 194.107 255.214 198.205 255.214H207.745C211.843 255.214 215.165 258.536 215.165 262.635V272.175Z" fill="#EC1D23"/>
<path d="M645.543 406.808C641.445 406.808 638.123 403.486 638.123 399.388V389.847C638.123 385.748 641.445 382.426 645.543 382.426H655.083C659.181 382.426 662.503 385.748 662.503 389.847V399.388C662.503 403.486 659.181 406.808 655.083 406.808H645.543Z" fill="#EC1D23"/>
<path d="M469.569 526.6C469.569 530.698 466.247 534.021 462.149 534.021H452.609C448.511 534.021 445.189 530.698 445.189 526.6V517.059C445.189 512.961 448.511 509.638 452.609 509.638H462.149C466.247 509.638 469.569 512.961 469.569 517.059V526.6Z" fill="#EC1D23"/>
<path d="M469.569 272.175C469.569 276.274 466.247 279.596 462.149 279.596H452.609C448.511 279.596 445.189 276.274 445.189 272.175V262.635C445.189 258.536 448.511 255.214 452.609 255.214H462.149C466.247 255.214 469.569 258.536 469.569 262.635V272.175Z" fill="#EC1D23"/>
<path d="M310.556 526.6C310.556 530.698 307.234 534.021 303.136 534.021H293.596C289.498 534.021 286.175 530.698 286.175 526.6V517.059C286.175 512.961 289.498 509.638 293.596 509.638H303.136C307.234 509.638 310.556 512.961 310.556 517.059V526.6Z" fill="#EC1D23"/>
<path d="M310.556 272.175C310.556 276.274 307.234 279.596 303.136 279.596H293.596C289.498 279.596 286.175 276.274 286.175 272.175V262.635C286.175 258.536 289.498 255.214 293.596 255.214H303.136C307.234 255.214 310.556 258.536 310.556 262.635V272.175Z" fill="#EC1D23"/>
<path d="M7.41811 311.399C3.32012 311.399 -0.00195312 308.077 -0.00195312 303.978L-0.00195312 294.438C-0.00195312 290.339 3.32012 287.017 7.41811 287.017H16.9582C21.0562 287.017 24.3782 290.339 24.3782 294.438V303.978C24.3782 308.077 21.0562 311.399 16.9582 311.399H7.41811Z" fill="#EC1D23"/>
<path d="M645.543 311.399C641.445 311.399 638.123 308.077 638.123 303.978V294.438C638.123 290.339 641.445 287.017 645.543 287.017H655.083C659.181 287.017 662.503 290.339 662.503 294.438V303.978C662.503 308.077 659.181 311.399 655.083 311.399H645.543Z" fill="#EC1D23"/>
<path d="M564.962 526.6C564.962 530.698 561.64 534.021 557.542 534.021H548.002C543.904 534.021 540.582 530.698 540.582 526.6V517.059C540.582 512.961 543.904 509.638 548.002 509.638H557.542C561.64 509.638 564.962 512.961 564.962 517.059V526.6Z" fill="#EC1D23"/>
<path d="M564.962 272.175C564.962 276.274 561.64 279.596 557.542 279.596H548.002C543.904 279.596 540.582 276.274 540.582 272.175V262.635C540.582 258.536 543.904 255.214 548.002 255.214H557.542C561.64 255.214 564.962 258.536 564.962 262.635V272.175Z" fill="#EC1D23"/>
<path d="M7.41811 375.005C3.32012 375.005 -0.00195312 371.683 -0.00195312 367.585L-0.00195312 358.044C-0.00195312 353.945 3.32012 350.623 7.41811 350.623H16.9582C21.0562 350.623 24.3782 353.945 24.3782 358.044V367.585C24.3782 371.683 21.0562 375.005 16.9582 375.005H7.41811Z" fill="#EC1D23"/>
<path d="M645.543 375.005C641.445 375.005 638.123 371.683 638.123 367.585V358.044C638.123 353.945 641.445 350.623 645.543 350.623H655.083C659.181 350.623 662.503 353.945 662.503 358.044V367.585C662.503 371.683 659.181 375.005 655.083 375.005H645.543Z" fill="#EC1D23"/>
<path d="M501.368 526.6C501.368 530.698 498.045 534.021 493.947 534.021H484.407C480.309 534.021 476.987 530.698 476.987 526.6V517.059C476.987 512.961 480.309 509.638 484.407 509.638H493.947C498.045 509.638 501.368 512.961 501.368 517.059V526.6Z" fill="#EC1D23"/>
<path d="M501.368 272.175C501.368 276.274 498.045 279.596 493.947 279.596H484.407C480.309 279.596 476.987 276.274 476.987 272.175V262.635C476.987 258.536 480.309 255.214 484.407 255.214H493.947C498.045 255.214 501.368 258.536 501.368 262.635V272.175Z" fill="#EC1D23"/>
<path d="M7.41811 279.596C3.32012 279.596 -0.00195312 276.274 -0.00195312 272.175L-0.00195312 262.635C-0.00195312 258.536 3.32012 255.214 7.41811 255.214H16.9582C21.0562 255.214 24.3782 258.536 24.3782 262.635V272.175C24.3782 276.274 21.0562 279.596 16.9582 279.596H7.41811Z" fill="#EC1D23"/>
<path d="M645.543 279.596C641.445 279.596 638.123 276.274 638.123 272.175V262.635C638.123 258.536 641.445 255.214 645.543 255.214H655.083C659.181 255.214 662.503 258.536 662.503 262.635V272.175C662.503 276.274 659.181 279.596 655.083 279.596H645.543Z" fill="#EC1D23"/>
<path d="M596.758 526.6C596.758 530.698 593.436 534.021 589.338 534.021H579.798C575.7 534.021 572.378 530.698 572.378 526.6V517.059C572.378 512.961 575.7 509.638 579.798 509.638H589.338C593.436 509.638 596.758 512.961 596.758 517.059V526.6Z" fill="#EC1D23"/>
<path d="M596.758 272.175C596.758 276.274 593.436 279.596 589.338 279.596H579.798C575.7 279.596 572.378 276.274 572.378 272.175V262.635C572.378 258.536 575.7 255.214 579.798 255.214H589.338C593.436 255.214 596.758 258.536 596.758 262.635V272.175Z" fill="#EC1D23"/>
<path d="M630.703 526.6C630.703 530.698 627.381 534.021 623.283 534.021H613.743C609.645 534.021 606.323 530.698 606.323 526.6V517.059C606.323 512.961 609.645 509.638 613.743 509.638H623.283C627.381 509.638 630.703 512.961 630.703 517.059V526.6Z" fill="#EC1D23"/>
<path d="M630.703 272.175C630.703 276.274 627.381 279.596 623.283 279.596H613.743C609.645 279.596 606.323 276.274 606.323 272.175V262.635C606.323 258.536 609.645 255.214 613.743 255.214H623.283C627.381 255.214 630.703 258.536 630.703 262.635V272.175Z" fill="#EC1D23"/>
<path d="M12.7181 521.299L12.7181 266.875H650.843V521.299H12.7181Z" fill="#EC1D23"/>
<path d="M7.41811 660.612C3.32012 660.612 -0.00195312 657.29 -0.00195312 653.192L-0.00195312 643.651C-0.00195312 639.552 3.32012 636.23 7.41811 636.23H16.9582C21.0562 636.23 24.3782 639.552 24.3782 643.651V653.192C24.3782 657.29 21.0562 660.612 16.9582 660.612H7.41811Z" fill="#EC1D23"/>
<path d="M645.543 660.612C641.445 660.612 638.123 657.29 638.123 653.192V643.651C638.123 639.552 641.445 636.23 645.543 636.23H655.083C659.181 636.23 662.503 639.552 662.503 643.651V653.192C662.503 657.29 659.181 660.612 655.083 660.612H645.543Z" fill="#EC1D23"/>
<path d="M56.1785 653.192C56.1785 657.29 52.8564 660.612 48.7584 660.612H39.2184C35.1204 660.612 31.7983 657.29 31.7983 653.192V643.651C31.7983 639.552 35.1204 636.23 39.2184 636.23H48.7584C52.8564 636.23 56.1785 639.552 56.1785 643.651V653.192Z" fill="#EC1D23"/>
<path d="M56.1785 398.767C56.1785 402.866 52.8564 406.188 48.7584 406.188H39.2184C35.1204 406.188 31.7983 402.866 31.7983 398.767V389.226C31.7983 385.128 35.1204 381.806 39.2184 381.806H48.7584C52.8564 381.806 56.1785 385.128 56.1785 389.226V398.767Z" fill="#EC1D23"/>
<path d="M342.381 653.192C342.381 657.29 339.059 660.612 334.961 660.612H325.421C321.323 660.612 318.001 657.29 318.001 653.192V643.651C318.001 639.552 321.323 636.23 325.421 636.23H334.961C339.059 636.23 342.381 639.552 342.381 643.651V653.192Z" fill="#EC1D23"/>
<path d="M342.381 398.767C342.381 402.866 339.059 406.188 334.961 406.188H325.421C321.323 406.188 318.001 402.866 318.001 398.767V389.226C318.001 385.128 321.323 381.806 325.421 381.806H334.961C339.059 381.806 342.381 385.128 342.381 389.226V398.767Z" fill="#EC1D23"/>
<path d="M7.41811 628.809C3.32012 628.809 -0.00195312 625.487 -0.00195312 621.389L-0.00195312 611.848C-0.00195312 607.749 3.32012 604.427 7.41811 604.427H16.9582C21.0562 604.427 24.3782 607.749 24.3782 611.848V621.389C24.3782 625.487 21.0562 628.809 16.9582 628.809H7.41811Z" fill="#EC1D23"/>
<path d="M87.9756 653.192C87.9756 657.29 84.6536 660.612 80.5556 660.612H71.0155C66.9175 660.612 63.5955 657.29 63.5955 653.192V643.651C63.5955 639.552 66.9175 636.23 71.0155 636.23H80.5556C84.6536 636.23 87.9756 639.552 87.9756 643.651V653.192Z" fill="#EC1D23"/>
<path d="M87.9756 398.767C87.9756 402.866 84.6536 406.188 80.5556 406.188H71.0155C66.9175 406.188 63.5955 402.866 63.5955 398.767V389.226C63.5955 385.128 66.9175 381.806 71.0155 381.806H80.5556C84.6536 381.806 87.9756 385.128 87.9756 389.226V398.767Z" fill="#EC1D23"/>
<path d="M645.543 628.809C641.445 628.809 638.123 625.487 638.123 621.389V611.848C638.123 607.749 641.445 604.427 645.543 604.427H655.083C659.181 604.427 662.503 607.749 662.503 611.848V621.389C662.503 625.487 659.181 628.809 655.083 628.809H645.543Z" fill="#EC1D23"/>
<path d="M374.178 653.192C374.178 657.29 370.856 660.612 366.758 660.612H357.218C353.12 660.612 349.798 657.29 349.798 653.192V643.651C349.798 639.552 353.12 636.23 357.218 636.23H366.758C370.856 636.23 374.178 639.552 374.178 643.651V653.192Z" fill="#EC1D23"/>
<path d="M374.178 398.767C374.178 402.866 370.856 406.188 366.758 406.188H357.218C353.12 406.188 349.798 402.866 349.798 398.767V389.226C349.798 385.128 353.12 381.806 357.218 381.806H366.758C370.856 381.806 374.178 385.128 374.178 389.226V398.767Z" fill="#EC1D23"/>
<path d="M119.772 653.192C119.772 657.29 116.45 660.612 112.352 660.612H102.812C98.7142 660.612 95.3921 657.29 95.3921 653.192V643.651C95.3921 639.552 98.7142 636.23 102.812 636.23H112.352C116.45 636.23 119.772 639.552 119.772 643.651V653.192Z" fill="#EC1D23"/>
<path d="M119.772 398.767C119.772 402.866 116.45 406.188 112.352 406.188H102.812C98.7142 406.188 95.3921 402.866 95.3921 398.767V389.226C95.3921 385.128 98.7142 381.806 102.812 381.806H112.352C116.45 381.806 119.772 385.128 119.772 389.226V398.767Z" fill="#EC1D23"/>
<path d="M7.41811 597.006C3.32012 597.006 -0.00195312 593.684 -0.00195312 589.586L-0.00195312 580.045C-0.00195312 575.946 3.32012 572.624 7.41811 572.624H16.9582C21.0562 572.624 24.3782 575.946 24.3782 580.045V589.586C24.3782 593.684 21.0562 597.006 16.9582 597.006H7.41811Z" fill="#EC1D23"/>
<path d="M645.543 597.006C641.445 597.006 638.123 593.684 638.123 589.586V580.045C638.123 575.946 641.445 572.624 645.543 572.624H655.083C659.181 572.624 662.503 575.946 662.503 580.045V589.586C662.503 593.684 659.181 597.006 655.083 597.006H645.543Z" fill="#EC1D23"/>
<path d="M151.569 653.192C151.569 657.29 148.247 660.612 144.149 660.612H134.609C130.511 660.612 127.189 657.29 127.189 653.192V643.651C127.189 639.552 130.511 636.23 134.609 636.23H144.149C148.247 636.23 151.569 639.552 151.569 643.651V653.192Z" fill="#EC1D23"/>
<path d="M151.569 398.767C151.569 402.866 148.247 406.188 144.149 406.188H134.609C130.511 406.188 127.189 402.866 127.189 398.767V389.226C127.189 385.128 130.511 381.806 134.609 381.806H144.149C148.247 381.806 151.569 385.128 151.569 389.226V398.767Z" fill="#EC1D23"/>
<path d="M405.975 653.192C405.975 657.29 402.653 660.612 398.555 660.612H389.015C384.917 660.612 381.595 657.29 381.595 653.192V643.651C381.595 639.552 384.917 636.23 389.015 636.23H398.555C402.653 636.23 405.975 639.552 405.975 643.651V653.192Z" fill="#EC1D23"/>
<path d="M405.975 398.767C405.975 402.866 402.653 406.188 398.555 406.188H389.015C384.917 406.188 381.595 402.866 381.595 398.767V389.226C381.595 385.128 384.917 381.806 389.015 381.806H398.555C402.653 381.806 405.975 385.128 405.975 389.226V398.767Z" fill="#EC1D23"/>
<path d="M7.41811 565.203C3.32012 565.203 -0.00195312 561.881 -0.00195312 557.782L-0.00195312 548.242C-0.00195312 544.143 3.32012 540.821 7.41811 540.821H16.9582C21.0562 540.821 24.3782 544.143 24.3782 548.242V557.782C24.3782 561.881 21.0562 565.203 16.9582 565.203H7.41811Z" fill="#EC1D23"/>
<path d="M246.961 653.192C246.961 657.29 243.639 660.612 239.541 660.612H230.001C225.903 660.612 222.581 657.29 222.581 653.192V643.651C222.581 639.552 225.903 636.23 230.001 636.23H239.541C243.639 636.23 246.961 639.552 246.961 643.651V653.192Z" fill="#EC1D23"/>
<path d="M246.961 398.767C246.961 402.866 243.639 406.188 239.541 406.188H230.001C225.903 406.188 222.581 402.866 222.581 398.767V389.226C222.581 385.128 225.903 381.806 230.001 381.806H239.541C243.639 381.806 246.961 385.128 246.961 389.226V398.767Z" fill="#EC1D23"/>
<path d="M645.543 565.203C641.445 565.203 638.123 561.881 638.123 557.782V548.242C638.123 544.143 641.445 540.821 645.543 540.821H655.083C659.181 540.821 662.503 544.143 662.503 548.242V557.782C662.503 561.881 659.181 565.203 655.083 565.203H645.543Z" fill="#EC1D23"/>
<path d="M437.771 653.192C437.771 657.29 434.449 660.612 430.351 660.612H420.811C416.713 660.612 413.391 657.29 413.391 653.192V643.651C413.391 639.552 416.713 636.23 420.811 636.23H430.351C434.449 636.23 437.771 639.552 437.771 643.651V653.192Z" fill="#EC1D23"/>
<path d="M437.771 398.767C437.771 402.866 434.449 406.188 430.351 406.188H420.811C416.713 406.188 413.391 402.866 413.391 398.767V389.226C413.391 385.128 416.713 381.806 420.811 381.806H430.351C434.449 381.806 437.771 385.128 437.771 389.226V398.767Z" fill="#EC1D23"/>
<path d="M183.367 653.192C183.367 657.29 180.045 660.612 175.947 660.612H166.407C162.309 660.612 158.987 657.29 158.987 653.192V643.651C158.987 639.552 162.309 636.23 166.407 636.23H175.947C180.045 636.23 183.367 639.552 183.367 643.651V653.192Z" fill="#EC1D23"/>
<path d="M183.367 398.767C183.367 402.866 180.045 406.188 175.947 406.188H166.407C162.309 406.188 158.987 402.866 158.987 398.767V389.226C158.987 385.128 162.309 381.806 166.407 381.806H175.947C180.045 381.806 183.367 385.128 183.367 389.226V398.767Z" fill="#EC1D23"/>
<path d="M7.41811 469.794C3.32012 469.794 -0.00195312 466.472 -0.00195312 462.373L-0.00195312 452.832C-0.00195312 448.734 3.32012 445.412 7.41811 445.412H16.9582C21.0562 445.412 24.3782 448.734 24.3782 452.832V462.373C24.3782 466.472 21.0562 469.794 16.9582 469.794H7.41811Z" fill="#EC1D23"/>
<path d="M645.543 469.794C641.445 469.794 638.123 466.472 638.123 462.373V452.832C638.123 448.734 641.445 445.412 645.543 445.412H655.083C659.181 445.412 662.503 448.734 662.503 452.832V462.373C662.503 466.472 659.181 469.794 655.083 469.794H645.543Z" fill="#EC1D23"/>
<path d="M278.76 653.192C278.76 657.29 275.438 660.612 271.34 660.612H261.799C257.701 660.612 254.379 657.29 254.379 653.192V643.651C254.379 639.552 257.701 636.23 261.799 636.23H271.34C275.438 636.23 278.76 639.552 278.76 643.651V653.192Z" fill="#EC1D23"/>
<path d="M278.76 398.767C278.76 402.866 275.438 406.188 271.34 406.188H261.799C257.701 406.188 254.379 402.866 254.379 398.767V389.226C254.379 385.128 257.701 381.806 261.799 381.806H271.34C275.438 381.806 278.76 385.128 278.76 389.226V398.767Z" fill="#EC1D23"/>
<path d="M533.164 653.192C533.164 657.29 529.842 660.612 525.744 660.612H516.204C512.106 660.612 508.783 657.29 508.783 653.192V643.651C508.783 639.552 512.106 636.23 516.204 636.23H525.744C529.842 636.23 533.164 639.552 533.164 643.651V653.192Z" fill="#EC1D23"/>
<path d="M533.164 398.767C533.164 402.866 529.842 406.188 525.744 406.188H516.204C512.106 406.188 508.783 402.866 508.783 398.767V389.226C508.783 385.128 512.106 381.806 516.204 381.806H525.744C529.842 381.806 533.164 385.128 533.164 389.226V398.767Z" fill="#EC1D23"/>
<path d="M7.41811 533.4C3.32012 533.4 -0.00195312 530.078 -0.00195312 525.979L-0.00195312 516.439C-0.00195312 512.34 3.32012 509.018 7.41811 509.018H16.9582C21.0562 509.018 24.3782 512.34 24.3782 516.439V525.979C24.3782 530.078 21.0562 533.4 16.9582 533.4H7.41811Z" fill="#EC1D23"/>
<path d="M215.165 653.192C215.165 657.29 211.843 660.612 207.745 660.612H198.205C194.107 660.612 190.785 657.29 190.785 653.192V643.651C190.785 639.552 194.107 636.23 198.205 636.23H207.745C211.843 636.23 215.165 639.552 215.165 643.651V653.192Z" fill="#EC1D23"/>
<path d="M215.165 398.767C215.165 402.866 211.843 406.188 207.745 406.188H198.205C194.107 406.188 190.785 402.866 190.785 398.767V389.226C190.785 385.128 194.107 381.806 198.205 381.806H207.745C211.843 381.806 215.165 385.128 215.165 389.226V398.767Z" fill="#EC1D23"/>
<path d="M645.543 533.4C641.445 533.4 638.123 530.078 638.123 525.979V516.439C638.123 512.34 641.445 509.018 645.543 509.018H655.083C659.181 509.018 662.503 512.34 662.503 516.439V525.979C662.503 530.078 659.181 533.4 655.083 533.4H645.543Z" fill="#EC1D23"/>
<path d="M469.569 653.192C469.569 657.29 466.247 660.612 462.149 660.612H452.609C448.511 660.612 445.189 657.29 445.189 653.192V643.651C445.189 639.552 448.511 636.23 452.609 636.23H462.149C466.247 636.23 469.569 639.552 469.569 643.651V653.192Z" fill="#EC1D23"/>
<path d="M469.569 398.767C469.569 402.866 466.247 406.188 462.149 406.188H452.609C448.511 406.188 445.189 402.866 445.189 398.767V389.226C445.189 385.128 448.511 381.806 452.609 381.806H462.149C466.247 381.806 469.569 385.128 469.569 389.226V398.767Z" fill="#EC1D23"/>
<path d="M310.556 653.192C310.556 657.29 307.234 660.612 303.136 660.612H293.596C289.498 660.612 286.175 657.29 286.175 653.192V643.651C286.175 639.552 289.498 636.23 293.596 636.23H303.136C307.234 636.23 310.556 639.552 310.556 643.651V653.192Z" fill="#EC1D23"/>
<path d="M310.556 398.767C310.556 402.866 307.234 406.188 303.136 406.188H293.596C289.498 406.188 286.175 402.866 286.175 398.767V389.226C286.175 385.128 289.498 381.806 293.596 381.806H303.136C307.234 381.806 310.556 385.128 310.556 389.226V398.767Z" fill="#EC1D23"/>
<path d="M7.41811 437.991C3.32012 437.991 -0.00195312 434.669 -0.00195312 430.57L-0.00195312 421.029C-0.00195312 416.931 3.32012 413.609 7.41811 413.609H16.9582C21.0562 413.609 24.3782 416.931 24.3782 421.029V430.57C24.3782 434.669 21.0562 437.991 16.9582 437.991H7.41811Z" fill="#EC1D23"/>
<path d="M645.543 437.991C641.445 437.991 638.123 434.669 638.123 430.57V421.029C638.123 416.931 641.445 413.609 645.543 413.609H655.083C659.181 413.609 662.503 416.931 662.503 421.029V430.57C662.503 434.669 659.181 437.991 655.083 437.991H645.543Z" fill="#EC1D23"/>
<path d="M564.962 653.192C564.962 657.29 561.64 660.612 557.542 660.612H548.002C543.904 660.612 540.582 657.29 540.582 653.192V643.651C540.582 639.552 543.904 636.23 548.002 636.23H557.542C561.64 636.23 564.962 639.552 564.962 643.651V653.192Z" fill="#EC1D23"/>
<path d="M564.962 398.767C564.962 402.866 561.64 406.188 557.542 406.188H548.002C543.904 406.188 540.582 402.866 540.582 398.767V389.226C540.582 385.128 543.904 381.806 548.002 381.806H557.542C561.64 381.806 564.962 385.128 564.962 389.226V398.767Z" fill="#EC1D23"/>
<path d="M7.41811 501.597C3.32012 501.597 -0.00195312 498.275 -0.00195312 494.176L-0.00195312 484.635C-0.00195312 480.537 3.32012 477.215 7.41811 477.215H16.9582C21.0562 477.215 24.3782 480.537 24.3782 484.635V494.176C24.3782 498.275 21.0562 501.597 16.9582 501.597H7.41811Z" fill="#EC1D23"/>
<path d="M645.543 501.597C641.445 501.597 638.123 498.275 638.123 494.176V484.635C638.123 480.537 641.445 477.215 645.543 477.215H655.083C659.181 477.215 662.503 480.537 662.503 484.635V494.176C662.503 498.275 659.181 501.597 655.083 501.597H645.543Z" fill="#EC1D23"/>
<path d="M501.368 653.192C501.368 657.29 498.045 660.612 493.947 660.612H484.407C480.309 660.612 476.987 657.29 476.987 653.192V643.651C476.987 639.552 480.309 636.23 484.407 636.23H493.947C498.045 636.23 501.368 639.552 501.368 643.651V653.192Z" fill="#EC1D23"/>
<path d="M501.368 398.767C501.368 402.866 498.045 406.188 493.947 406.188H484.407C480.309 406.188 476.987 402.866 476.987 398.767V389.226C476.987 385.128 480.309 381.806 484.407 381.806H493.947C498.045 381.806 501.368 385.128 501.368 389.226V398.767Z" fill="#EC1D23"/>
<path d="M7.41811 406.188C3.32012 406.188 -0.00195312 402.866 -0.00195312 398.767L-0.00195312 389.226C-0.00195312 385.128 3.32012 381.806 7.41811 381.806H16.9582C21.0562 381.806 24.3782 385.128 24.3782 389.226V398.767C24.3782 402.866 21.0562 406.188 16.9582 406.188H7.41811Z" fill="#EC1D23"/>
<path d="M645.543 406.188C641.445 406.188 638.123 402.866 638.123 398.767V389.226C638.123 385.128 641.445 381.806 645.543 381.806H655.083C659.181 381.806 662.503 385.128 662.503 389.226V398.767C662.503 402.866 659.181 406.188 655.083 406.188H645.543Z" fill="#EC1D23"/>
<path d="M596.758 653.192C596.758 657.29 593.436 660.612 589.338 660.612H579.798C575.7 660.612 572.378 657.29 572.378 653.192V643.651C572.378 639.552 575.7 636.23 579.798 636.23H589.338C593.436 636.23 596.758 639.552 596.758 643.651V653.192Z" fill="#EC1D23"/>
<path d="M596.758 398.767C596.758 402.866 593.436 406.188 589.338 406.188H579.798C575.7 406.188 572.378 402.866 572.378 398.767V389.226C572.378 385.128 575.7 381.806 579.798 381.806H589.338C593.436 381.806 596.758 385.128 596.758 389.226V398.767Z" fill="#EC1D23"/>
<path d="M630.703 653.192C630.703 657.29 627.381 660.612 623.283 660.612H613.743C609.645 660.612 606.323 657.29 606.323 653.192V643.651C606.323 639.552 609.645 636.23 613.743 636.23H623.283C627.381 636.23 630.703 639.552 630.703 643.651V653.192Z" fill="#EC1D23"/>
<path d="M630.703 398.767C630.703 402.866 627.381 406.188 623.283 406.188H613.743C609.645 406.188 606.323 402.866 606.323 398.767V389.226C606.323 385.128 609.645 381.806 613.743 381.806H623.283C627.381 381.806 630.703 385.128 630.703 389.226V398.767Z" fill="#EC1D23"/>
<path d="M12.7181 647.891L12.7181 393.467H650.843V647.891H12.7181Z" fill="#EC1D23"/>
<path d="M7.41811 915.081C3.32012 915.081 -0.00195312 911.759 -0.00195312 907.66L-0.00195312 898.119C-0.00195312 894.021 3.32012 890.699 7.41811 890.699H16.9582C21.0562 890.699 24.3782 894.021 24.3782 898.119V907.66C24.3782 911.759 21.0562 915.081 16.9582 915.081H7.41811Z" fill="#EC1D23"/>
<path d="M645.543 915.081C641.445 915.081 638.123 911.759 638.123 907.66V898.119C638.123 894.021 641.445 890.699 645.543 890.699H655.083C659.181 890.699 662.503 894.021 662.503 898.119V907.66C662.503 911.759 659.181 915.081 655.083 915.081H645.543Z" fill="#EC1D23"/>
<path d="M56.1785 907.66C56.1785 911.759 52.8564 915.081 48.7584 915.081H39.2184C35.1204 915.081 31.7983 911.759 31.7983 907.66V898.119C31.7983 894.021 35.1204 890.699 39.2184 890.699H48.7584C52.8564 890.699 56.1785 894.021 56.1785 898.119V907.66Z" fill="#EC1D23"/>
<path d="M56.1785 653.236C56.1785 657.334 52.8564 660.657 48.7584 660.657H39.2184C35.1204 660.657 31.7983 657.334 31.7983 653.236V643.695C31.7983 639.597 35.1204 636.274 39.2184 636.274H48.7584C52.8564 636.274 56.1785 639.597 56.1785 643.695V653.236Z" fill="#EC1D23"/>
<path d="M342.381 907.66C342.381 911.759 339.059 915.081 334.961 915.081H325.421C321.323 915.081 318.001 911.759 318.001 907.66V898.119C318.001 894.021 321.323 890.699 325.421 890.699H334.961C339.059 890.699 342.381 894.021 342.381 898.119V907.66Z" fill="#EC1D23"/>
<path d="M342.381 653.236C342.381 657.334 339.059 660.657 334.961 660.657H325.421C321.323 660.657 318.001 657.334 318.001 653.236V643.695C318.001 639.597 321.323 636.274 325.421 636.274H334.961C339.059 636.274 342.381 639.597 342.381 643.695V653.236Z" fill="#EC1D23"/>
<path d="M7.41811 883.278C3.32012 883.278 -0.00195312 879.956 -0.00195312 875.857L-0.00195312 866.316C-0.00195312 862.218 3.32012 858.896 7.41811 858.896H16.9582C21.0562 858.896 24.3782 862.218 24.3782 866.316V875.857C24.3782 879.956 21.0562 883.278 16.9582 883.278H7.41811Z" fill="#EC1D23"/>
<path d="M87.9756 907.66C87.9756 911.759 84.6536 915.081 80.5556 915.081H71.0155C66.9175 915.081 63.5955 911.759 63.5955 907.66V898.119C63.5955 894.021 66.9175 890.699 71.0155 890.699H80.5556C84.6536 890.699 87.9756 894.021 87.9756 898.119V907.66Z" fill="#EC1D23"/>
<path d="M87.9756 653.236C87.9756 657.334 84.6536 660.657 80.5556 660.657H71.0155C66.9175 660.657 63.5955 657.334 63.5955 653.236V643.695C63.5955 639.597 66.9175 636.274 71.0155 636.274H80.5556C84.6536 636.274 87.9756 639.597 87.9756 643.695V653.236Z" fill="#EC1D23"/>
<path d="M645.543 883.278C641.445 883.278 638.123 879.956 638.123 875.857V866.316C638.123 862.218 641.445 858.896 645.543 858.896H655.083C659.181 858.896 662.503 862.218 662.503 866.316V875.857C662.503 879.956 659.181 883.278 655.083 883.278H645.543Z" fill="#EC1D23"/>
<path d="M374.178 907.66C374.178 911.759 370.856 915.081 366.758 915.081H357.218C353.12 915.081 349.798 911.759 349.798 907.66V898.119C349.798 894.021 353.12 890.699 357.218 890.699H366.758C370.856 890.699 374.178 894.021 374.178 898.119V907.66Z" fill="#EC1D23"/>
<path d="M374.178 653.236C374.178 657.334 370.856 660.657 366.758 660.657H357.218C353.12 660.657 349.798 657.334 349.798 653.236V643.695C349.798 639.597 353.12 636.274 357.218 636.274H366.758C370.856 636.274 374.178 639.597 374.178 643.695V653.236Z" fill="#EC1D23"/>
<path d="M119.772 907.66C119.772 911.759 116.45 915.081 112.352 915.081H102.812C98.7142 915.081 95.3921 911.759 95.3921 907.66V898.119C95.3921 894.021 98.7142 890.699 102.812 890.699H112.352C116.45 890.699 119.772 894.021 119.772 898.119V907.66Z" fill="#EC1D23"/>
<path d="M119.772 653.236C119.772 657.334 116.45 660.657 112.352 660.657H102.812C98.7142 660.657 95.3921 657.334 95.3921 653.236V643.695C95.3921 639.597 98.7142 636.274 102.812 636.274H112.352C116.45 636.274 119.772 639.597 119.772 643.695V653.236Z" fill="#EC1D23"/>
<path d="M7.41811 851.475C3.32012 851.475 -0.00195312 848.153 -0.00195312 844.054L-0.00195312 834.513C-0.00195312 830.415 3.32012 827.093 7.41811 827.093H16.9582C21.0562 827.093 24.3782 830.415 24.3782 834.513V844.054C24.3782 848.153 21.0562 851.475 16.9582 851.475H7.41811Z" fill="#EC1D23"/>
<path d="M645.543 851.475C641.445 851.475 638.123 848.153 638.123 844.054V834.513C638.123 830.415 641.445 827.093 645.543 827.093H655.083C659.181 827.093 662.503 830.415 662.503 834.513V844.054C662.503 848.153 659.181 851.475 655.083 851.475H645.543Z" fill="#EC1D23"/>
<path d="M151.569 907.66C151.569 911.759 148.247 915.081 144.149 915.081H134.609C130.511 915.081 127.189 911.759 127.189 907.66V898.119C127.189 894.021 130.511 890.699 134.609 890.699H144.149C148.247 890.699 151.569 894.021 151.569 898.119V907.66Z" fill="#EC1D23"/>
<path d="M151.569 653.236C151.569 657.334 148.247 660.657 144.149 660.657H134.609C130.511 660.657 127.189 657.334 127.189 653.236V643.695C127.189 639.597 130.511 636.274 134.609 636.274H144.149C148.247 636.274 151.569 639.597 151.569 643.695V653.236Z" fill="#EC1D23"/>
<path d="M405.975 907.66C405.975 911.759 402.653 915.081 398.555 915.081H389.015C384.917 915.081 381.595 911.759 381.595 907.66V898.119C381.595 894.021 384.917 890.699 389.015 890.699H398.555C402.653 890.699 405.975 894.021 405.975 898.119V907.66Z" fill="#EC1D23"/>
<path d="M405.975 653.236C405.975 657.334 402.653 660.657 398.555 660.657H389.015C384.917 660.657 381.595 657.334 381.595 653.236V643.695C381.595 639.597 384.917 636.274 389.015 636.274H398.555C402.653 636.274 405.975 639.597 405.975 643.695V653.236Z" fill="#EC1D23"/>
<path d="M7.41811 819.672C3.32012 819.672 -0.00195312 816.35 -0.00195312 812.251L-0.00195312 802.71C-0.00195312 798.612 3.32012 795.29 7.41811 795.29H16.9582C21.0562 795.29 24.3782 798.612 24.3782 802.71V812.251C24.3782 816.35 21.0562 819.672 16.9582 819.672H7.41811Z" fill="#EC1D23"/>
<path d="M246.961 907.66C246.961 911.759 243.639 915.081 239.541 915.081H230.001C225.903 915.081 222.581 911.759 222.581 907.66V898.119C222.581 894.021 225.903 890.699 230.001 890.699H239.541C243.639 890.699 246.961 894.021 246.961 898.119V907.66Z" fill="#EC1D23"/>
<path d="M246.961 653.236C246.961 657.334 243.639 660.657 239.541 660.657H230.001C225.903 660.657 222.581 657.334 222.581 653.236V643.695C222.581 639.597 225.903 636.274 230.001 636.274H239.541C243.639 636.274 246.961 639.597 246.961 643.695V653.236Z" fill="#EC1D23"/>
<path d="M645.543 819.672C641.445 819.672 638.123 816.35 638.123 812.251V802.71C638.123 798.612 641.445 795.29 645.543 795.29H655.083C659.181 795.29 662.503 798.612 662.503 802.71V812.251C662.503 816.35 659.181 819.672 655.083 819.672H645.543Z" fill="#EC1D23"/>
<path d="M437.771 907.66C437.771 911.759 434.449 915.081 430.351 915.081H420.811C416.713 915.081 413.391 911.759 413.391 907.66V898.119C413.391 894.021 416.713 890.699 420.811 890.699H430.351C434.449 890.699 437.771 894.021 437.771 898.119V907.66Z" fill="#EC1D23"/>
<path d="M437.771 653.236C437.771 657.334 434.449 660.657 430.351 660.657H420.811C416.713 660.657 413.391 657.334 413.391 653.236V643.695C413.391 639.597 416.713 636.274 420.811 636.274H430.351C434.449 636.274 437.771 639.597 437.771 643.695V653.236Z" fill="#EC1D23"/>
<path d="M183.367 907.66C183.367 911.759 180.045 915.081 175.947 915.081H166.407C162.309 915.081 158.987 911.759 158.987 907.66V898.119C158.987 894.021 162.309 890.699 166.407 890.699H175.947C180.045 890.699 183.367 894.021 183.367 898.119V907.66Z" fill="#EC1D23"/>
<path d="M183.367 653.236C183.367 657.334 180.045 660.657 175.947 660.657H166.407C162.309 660.657 158.987 657.334 158.987 653.236V643.695C158.987 639.597 162.309 636.274 166.407 636.274H175.947C180.045 636.274 183.367 639.597 183.367 643.695V653.236Z" fill="#EC1D23"/>
<path d="M7.41811 724.263C3.32012 724.263 -0.00195312 720.94 -0.00195312 716.842L-0.00195312 707.301C-0.00195312 703.203 3.32012 699.88 7.41811 699.88H16.9582C21.0562 699.88 24.3782 703.203 24.3782 707.301V716.842C24.3782 720.94 21.0562 724.263 16.9582 724.263H7.41811Z" fill="#EC1D23"/>
<path d="M645.543 724.263C641.445 724.263 638.123 720.94 638.123 716.842V707.301C638.123 703.203 641.445 699.88 645.543 699.88H655.083C659.181 699.88 662.503 703.203 662.503 707.301V716.842C662.503 720.94 659.181 724.263 655.083 724.263H645.543Z" fill="#EC1D23"/>
<path d="M278.76 907.66C278.76 911.759 275.438 915.081 271.34 915.081H261.799C257.701 915.081 254.379 911.759 254.379 907.66V898.119C254.379 894.021 257.701 890.699 261.799 890.699H271.34C275.438 890.699 278.76 894.021 278.76 898.119V907.66Z" fill="#EC1D23"/>
<path d="M278.76 653.236C278.76 657.334 275.438 660.657 271.34 660.657H261.799C257.701 660.657 254.379 657.334 254.379 653.236V643.695C254.379 639.597 257.701 636.274 261.799 636.274H271.34C275.438 636.274 278.76 639.597 278.76 643.695V653.236Z" fill="#EC1D23"/>
<path d="M533.164 907.66C533.164 911.759 529.842 915.081 525.744 915.081H516.204C512.106 915.081 508.783 911.759 508.783 907.66V898.119C508.783 894.021 512.106 890.699 516.204 890.699H525.744C529.842 890.699 533.164 894.021 533.164 898.119V907.66Z" fill="#EC1D23"/>
<path d="M533.164 653.236C533.164 657.334 529.842 660.657 525.744 660.657H516.204C512.106 660.657 508.783 657.334 508.783 653.236V643.695C508.783 639.597 512.106 636.274 516.204 636.274H525.744C529.842 636.274 533.164 639.597 533.164 643.695V653.236Z" fill="#EC1D23"/>
<path d="M7.41811 787.869C3.32012 787.869 -0.00195312 784.547 -0.00195312 780.448L-0.00195312 770.907C-0.00195312 766.809 3.32012 763.487 7.41811 763.487H16.9582C21.0562 763.487 24.3782 766.809 24.3782 770.907V780.448C24.3782 784.547 21.0562 787.869 16.9582 787.869H7.41811Z" fill="#EC1D23"/>
<path d="M215.165 907.66C215.165 911.759 211.843 915.081 207.745 915.081H198.205C194.107 915.081 190.785 911.759 190.785 907.66V898.119C190.785 894.021 194.107 890.699 198.205 890.699H207.745C211.843 890.699 215.165 894.021 215.165 898.119V907.66Z" fill="#EC1D23"/>
<path d="M215.165 653.236C215.165 657.334 211.843 660.657 207.745 660.657H198.205C194.107 660.657 190.785 657.334 190.785 653.236V643.695C190.785 639.597 194.107 636.274 198.205 636.274H207.745C211.843 636.274 215.165 639.597 215.165 643.695V653.236Z" fill="#EC1D23"/>
<path d="M645.543 787.869C641.445 787.869 638.123 784.547 638.123 780.448V770.907C638.123 766.809 641.445 763.487 645.543 763.487H655.083C659.181 763.487 662.503 766.809 662.503 770.907V780.448C662.503 784.547 659.181 787.869 655.083 787.869H645.543Z" fill="#EC1D23"/>
<path d="M469.569 907.66C469.569 911.759 466.247 915.081 462.149 915.081H452.609C448.511 915.081 445.189 911.759 445.189 907.66V898.119C445.189 894.021 448.511 890.699 452.609 890.699H462.149C466.247 890.699 469.569 894.021 469.569 898.119V907.66Z" fill="#EC1D23"/>
<path d="M469.569 653.236C469.569 657.334 466.247 660.657 462.149 660.657H452.609C448.511 660.657 445.189 657.334 445.189 653.236V643.695C445.189 639.597 448.511 636.274 452.609 636.274H462.149C466.247 636.274 469.569 639.597 469.569 643.695V653.236Z" fill="#EC1D23"/>
<path d="M310.556 907.66C310.556 911.759 307.234 915.081 303.136 915.081H293.596C289.498 915.081 286.175 911.759 286.175 907.66V898.119C286.175 894.021 289.498 890.699 293.596 890.699H303.136C307.234 890.699 310.556 894.021 310.556 898.119V907.66Z" fill="#EC1D23"/>
<path d="M310.556 653.236C310.556 657.334 307.234 660.657 303.136 660.657H293.596C289.498 660.657 286.175 657.334 286.175 653.236V643.695C286.175 639.597 289.498 636.274 293.596 636.274H303.136C307.234 636.274 310.556 639.597 310.556 643.695V653.236Z" fill="#EC1D23"/>
<path d="M7.41811 692.46C3.32012 692.46 -0.00195312 689.137 -0.00195312 685.039L-0.00195312 675.498C-0.00195312 671.4 3.32012 668.077 7.41811 668.077H16.9582C21.0562 668.077 24.3782 671.4 24.3782 675.498V685.039C24.3782 689.137 21.0562 692.46 16.9582 692.46H7.41811Z" fill="#EC1D23"/>
<path d="M645.543 692.46C641.445 692.46 638.123 689.137 638.123 685.039V675.498C638.123 671.4 641.445 668.077 645.543 668.077H655.083C659.181 668.077 662.503 671.4 662.503 675.498V685.039C662.503 689.137 659.181 692.46 655.083 692.46H645.543Z" fill="#EC1D23"/>
<path d="M564.962 907.66C564.962 911.759 561.64 915.081 557.542 915.081H548.002C543.904 915.081 540.582 911.759 540.582 907.66V898.119C540.582 894.021 543.904 890.699 548.002 890.699H557.542C561.64 890.699 564.962 894.021 564.962 898.119V907.66Z" fill="#EC1D23"/>
<path d="M564.962 653.236C564.962 657.334 561.64 660.657 557.542 660.657H548.002C543.904 660.657 540.582 657.334 540.582 653.236V643.695C540.582 639.597 543.904 636.274 548.002 636.274H557.542C561.64 636.274 564.962 639.597 564.962 643.695V653.236Z" fill="#EC1D23"/>
<path d="M7.41811 756.066C3.32012 756.066 -0.00195312 752.743 -0.00195312 748.645L-0.00195312 739.104C-0.00195312 735.006 3.32012 731.684 7.41811 731.684H16.9582C21.0562 731.684 24.3782 735.006 24.3782 739.104V748.645C24.3782 752.743 21.0562 756.066 16.9582 756.066H7.41811Z" fill="#EC1D23"/>
<path d="M645.543 756.066C641.445 756.066 638.123 752.743 638.123 748.645V739.104C638.123 735.006 641.445 731.684 645.543 731.684H655.083C659.181 731.684 662.503 735.006 662.503 739.104V748.645C662.503 752.743 659.181 756.066 655.083 756.066H645.543Z" fill="#EC1D23"/>
<path d="M501.368 907.66C501.368 911.759 498.045 915.081 493.947 915.081H484.407C480.309 915.081 476.987 911.759 476.987 907.66V898.119C476.987 894.021 480.309 890.699 484.407 890.699H493.947C498.045 890.699 501.368 894.021 501.368 898.119V907.66Z" fill="#EC1D23"/>
<path d="M501.368 653.236C501.368 657.334 498.045 660.657 493.947 660.657H484.407C480.309 660.657 476.987 657.334 476.987 653.236V643.695C476.987 639.597 480.309 636.274 484.407 636.274H493.947C498.045 636.274 501.368 639.597 501.368 643.695V653.236Z" fill="#EC1D23"/>
<path d="M7.41811 660.657C3.32012 660.657 -0.00195312 657.334 -0.00195312 653.236L-0.00195312 643.695C-0.00195312 639.597 3.32012 636.274 7.41811 636.274H16.9582C21.0562 636.274 24.3782 639.597 24.3782 643.695V653.236C24.3782 657.334 21.0562 660.657 16.9582 660.657H7.41811Z" fill="#EC1D23"/>
<path d="M645.543 660.657C641.445 660.657 638.123 657.334 638.123 653.236V643.695C638.123 639.597 641.445 636.274 645.543 636.274H655.083C659.181 636.274 662.503 639.597 662.503 643.695V653.236C662.503 657.334 659.181 660.657 655.083 660.657H645.543Z" fill="#EC1D23"/>
<path d="M596.758 907.66C596.758 911.759 593.436 915.081 589.338 915.081H579.798C575.7 915.081 572.378 911.759 572.378 907.66V898.119C572.378 894.021 575.7 890.699 579.798 890.699H589.338C593.436 890.699 596.758 894.021 596.758 898.119V907.66Z" fill="#EC1D23"/>
<path d="M596.758 653.236C596.758 657.334 593.436 660.657 589.338 660.657H579.798C575.7 660.657 572.378 657.334 572.378 653.236V643.695C572.378 639.597 575.7 636.274 579.798 636.274H589.338C593.436 636.274 596.758 639.597 596.758 643.695V653.236Z" fill="#EC1D23"/>
<path d="M630.703 907.66C630.703 911.759 627.381 915.081 623.283 915.081H613.743C609.645 915.081 606.323 911.759 606.323 907.66V898.119C606.323 894.021 609.645 890.699 613.743 890.699H623.283C627.381 890.699 630.703 894.021 630.703 898.119V907.66Z" fill="#EC1D23"/>
<path d="M630.703 653.236C630.703 657.334 627.381 660.657 623.283 660.657H613.743C609.645 660.657 606.323 657.334 606.323 653.236V643.695C606.323 639.597 609.645 636.274 613.743 636.274H623.283C627.381 636.274 630.703 639.597 630.703 643.695V653.236Z" fill="#EC1D23"/>
<path d="M12.7181 902.36L12.7181 647.935H650.843V902.36H12.7181Z" fill="#EC1D23"/>
<path d="M7.41811 946.363C3.32012 946.363 -0.00195312 943.041 -0.00195312 938.943L-0.00195312 929.402C-0.00195312 925.303 3.32012 921.981 7.41811 921.981H16.9582C21.0562 921.981 24.3782 925.303 24.3782 929.402V938.943C24.3782 943.041 21.0562 946.363 16.9582 946.363H7.41811Z" fill="#EC1D23"/>
<path d="M645.543 946.363C641.445 946.363 638.123 943.041 638.123 938.943V929.402C638.123 925.303 641.445 921.981 645.543 921.981H655.083C659.181 921.981 662.503 925.303 662.503 929.402V938.943C662.503 943.041 659.181 946.363 655.083 946.363H645.543Z" fill="#EC1D23"/>
<path d="M56.1785 938.943C56.1785 943.041 52.8564 946.363 48.7584 946.363H39.2184C35.1204 946.363 31.7983 943.041 31.7983 938.943V929.402C31.7983 925.303 35.1204 921.981 39.2184 921.981H48.7584C52.8564 921.981 56.1785 925.303 56.1785 929.402V938.943Z" fill="#EC1D23"/>
<path d="M56.1785 684.518C56.1785 688.617 52.8564 691.939 48.7584 691.939H39.2184C35.1204 691.939 31.7983 688.617 31.7983 684.518V674.977C31.7983 670.879 35.1204 667.557 39.2184 667.557H48.7584C52.8564 667.557 56.1785 670.879 56.1785 674.977V684.518Z" fill="#EC1D23"/>
<path d="M342.381 938.943C342.381 943.041 339.059 946.363 334.961 946.363H325.421C321.323 946.363 318.001 943.041 318.001 938.943V929.402C318.001 925.303 321.323 921.981 325.421 921.981H334.961C339.059 921.981 342.381 925.303 342.381 929.402V938.943Z" fill="#EC1D23"/>
<path d="M342.381 684.518C342.381 688.617 339.059 691.939 334.961 691.939H325.421C321.323 691.939 318.001 688.617 318.001 684.518V674.977C318.001 670.879 321.323 667.557 325.421 667.557H334.961C339.059 667.557 342.381 670.879 342.381 674.977V684.518Z" fill="#EC1D23"/>
<path d="M7.41811 914.56C3.32012 914.56 -0.00195312 911.238 -0.00195312 907.14L-0.00195312 897.599C-0.00195312 893.5 3.32012 890.178 7.41811 890.178H16.9582C21.0562 890.178 24.3782 893.5 24.3782 897.599V907.14C24.3782 911.238 21.0562 914.56 16.9582 914.56H7.41811Z" fill="#EC1D23"/>
<path d="M87.9756 938.943C87.9756 943.041 84.6536 946.363 80.5556 946.363H71.0155C66.9175 946.363 63.5955 943.041 63.5955 938.943V929.402C63.5955 925.303 66.9175 921.981 71.0155 921.981H80.5556C84.6536 921.981 87.9756 925.303 87.9756 929.402V938.943Z" fill="#EC1D23"/>
<path d="M87.9756 684.518C87.9756 688.617 84.6536 691.939 80.5556 691.939H71.0155C66.9175 691.939 63.5955 688.617 63.5955 684.518V674.977C63.5955 670.879 66.9175 667.557 71.0155 667.557H80.5556C84.6536 667.557 87.9756 670.879 87.9756 674.977V684.518Z" fill="#EC1D23"/>
<path d="M645.543 914.56C641.445 914.56 638.123 911.238 638.123 907.14V897.599C638.123 893.5 641.445 890.178 645.543 890.178H655.083C659.181 890.178 662.503 893.5 662.503 897.599V907.14C662.503 911.238 659.181 914.56 655.083 914.56H645.543Z" fill="#EC1D23"/>
<path d="M374.178 938.943C374.178 943.041 370.856 946.363 366.758 946.363H357.218C353.12 946.363 349.798 943.041 349.798 938.943V929.402C349.798 925.303 353.12 921.981 357.218 921.981H366.758C370.856 921.981 374.178 925.303 374.178 929.402V938.943Z" fill="#EC1D23"/>
<path d="M374.178 684.518C374.178 688.617 370.856 691.939 366.758 691.939H357.218C353.12 691.939 349.798 688.617 349.798 684.518V674.977C349.798 670.879 353.12 667.557 357.218 667.557H366.758C370.856 667.557 374.178 670.879 374.178 674.977V684.518Z" fill="#EC1D23"/>
<path d="M119.772 938.943C119.772 943.041 116.45 946.363 112.352 946.363H102.812C98.7142 946.363 95.3921 943.041 95.3921 938.943V929.402C95.3921 925.303 98.7142 921.981 102.812 921.981H112.352C116.45 921.981 119.772 925.303 119.772 929.402V938.943Z" fill="#EC1D23"/>
<path d="M119.772 684.518C119.772 688.617 116.45 691.939 112.352 691.939H102.812C98.7142 691.939 95.3921 688.617 95.3921 684.518V674.977C95.3921 670.879 98.7142 667.557 102.812 667.557H112.352C116.45 667.557 119.772 670.879 119.772 674.977V684.518Z" fill="#EC1D23"/>
<path d="M7.41811 882.757C3.32012 882.757 -0.00195312 879.435 -0.00195312 875.336L-0.00195312 865.796C-0.00195312 861.697 3.32012 858.375 7.41811 858.375H16.9582C21.0562 858.375 24.3782 861.697 24.3782 865.796V875.336C24.3782 879.435 21.0562 882.757 16.9582 882.757H7.41811Z" fill="#EC1D23"/>
<path d="M645.543 882.757C641.445 882.757 638.123 879.435 638.123 875.336V865.796C638.123 861.697 641.445 858.375 645.543 858.375H655.083C659.181 858.375 662.503 861.697 662.503 865.796V875.336C662.503 879.435 659.181 882.757 655.083 882.757H645.543Z" fill="#EC1D23"/>
<path d="M151.569 938.943C151.569 943.041 148.247 946.363 144.149 946.363H134.609C130.511 946.363 127.189 943.041 127.189 938.943V929.402C127.189 925.303 130.511 921.981 134.609 921.981H144.149C148.247 921.981 151.569 925.303 151.569 929.402V938.943Z" fill="#EC1D23"/>
<path d="M151.569 684.518C151.569 688.617 148.247 691.939 144.149 691.939H134.609C130.511 691.939 127.189 688.617 127.189 684.518V674.977C127.189 670.879 130.511 667.557 134.609 667.557H144.149C148.247 667.557 151.569 670.879 151.569 674.977V684.518Z" fill="#EC1D23"/>
<path d="M405.975 938.943C405.975 943.041 402.653 946.363 398.555 946.363H389.015C384.917 946.363 381.595 943.041 381.595 938.943V929.402C381.595 925.303 384.917 921.981 389.015 921.981H398.555C402.653 921.981 405.975 925.303 405.975 929.402V938.943Z" fill="#EC1D23"/>
<path d="M405.975 684.518C405.975 688.617 402.653 691.939 398.555 691.939H389.015C384.917 691.939 381.595 688.617 381.595 684.518V674.977C381.595 670.879 384.917 667.557 389.015 667.557H398.555C402.653 667.557 405.975 670.879 405.975 674.977V684.518Z" fill="#EC1D23"/>
<path d="M7.41811 850.954C3.32012 850.954 -0.00195312 847.632 -0.00195312 843.533L-0.00195312 833.993C-0.00195312 829.894 3.32012 826.572 7.41811 826.572H16.9582C21.0562 826.572 24.3782 829.894 24.3782 833.993V843.533C24.3782 847.632 21.0562 850.954 16.9582 850.954H7.41811Z" fill="#EC1D23"/>
<path d="M246.961 938.943C246.961 943.041 243.639 946.363 239.541 946.363H230.001C225.903 946.363 222.581 943.041 222.581 938.943V929.402C222.581 925.303 225.903 921.981 230.001 921.981H239.541C243.639 921.981 246.961 925.303 246.961 929.402V938.943Z" fill="#EC1D23"/>
<path d="M246.961 684.518C246.961 688.617 243.639 691.939 239.541 691.939H230.001C225.903 691.939 222.581 688.617 222.581 684.518V674.977C222.581 670.879 225.903 667.557 230.001 667.557H239.541C243.639 667.557 246.961 670.879 246.961 674.977V684.518Z" fill="#EC1D23"/>
<path d="M645.543 850.954C641.445 850.954 638.123 847.632 638.123 843.533V833.993C638.123 829.894 641.445 826.572 645.543 826.572H655.083C659.181 826.572 662.503 829.894 662.503 833.993V843.533C662.503 847.632 659.181 850.954 655.083 850.954H645.543Z" fill="#EC1D23"/>
<path d="M437.771 938.943C437.771 943.041 434.449 946.363 430.351 946.363H420.811C416.713 946.363 413.391 943.041 413.391 938.943V929.402C413.391 925.303 416.713 921.981 420.811 921.981H430.351C434.449 921.981 437.771 925.303 437.771 929.402V938.943Z" fill="#EC1D23"/>
<path d="M437.771 684.518C437.771 688.617 434.449 691.939 430.351 691.939H420.811C416.713 691.939 413.391 688.617 413.391 684.518V674.977C413.391 670.879 416.713 667.557 420.811 667.557H430.351C434.449 667.557 437.771 670.879 437.771 674.977V684.518Z" fill="#EC1D23"/>
<path d="M183.367 938.943C183.367 943.041 180.045 946.363 175.947 946.363H166.407C162.309 946.363 158.987 943.041 158.987 938.943V929.402C158.987 925.303 162.309 921.981 166.407 921.981H175.947C180.045 921.981 183.367 925.303 183.367 929.402V938.943Z" fill="#EC1D23"/>
<path d="M183.367 684.518C183.367 688.617 180.045 691.939 175.947 691.939H166.407C162.309 691.939 158.987 688.617 158.987 684.518V674.977C158.987 670.879 162.309 667.557 166.407 667.557H175.947C180.045 667.557 183.367 670.879 183.367 674.977V684.518Z" fill="#EC1D23"/>
<path d="M7.41811 755.545C3.32012 755.545 -0.00195312 752.223 -0.00195312 748.124L-0.00195312 738.583C-0.00195312 734.485 3.32012 731.163 7.41811 731.163H16.9582C21.0562 731.163 24.3782 734.485 24.3782 738.583V748.124C24.3782 752.223 21.0562 755.545 16.9582 755.545H7.41811Z" fill="#EC1D23"/>
<path d="M645.543 755.545C641.445 755.545 638.123 752.223 638.123 748.124V738.583C638.123 734.485 641.445 731.163 645.543 731.163H655.083C659.181 731.163 662.503 734.485 662.503 738.583V748.124C662.503 752.223 659.181 755.545 655.083 755.545H645.543Z" fill="#EC1D23"/>
<path d="M278.76 938.943C278.76 943.041 275.438 946.363 271.34 946.363H261.799C257.701 946.363 254.379 943.041 254.379 938.943V929.402C254.379 925.303 257.701 921.981 261.799 921.981H271.34C275.438 921.981 278.76 925.303 278.76 929.402V938.943Z" fill="#EC1D23"/>
<path d="M278.76 684.518C278.76 688.617 275.438 691.939 271.34 691.939H261.799C257.701 691.939 254.379 688.617 254.379 684.518V674.977C254.379 670.879 257.701 667.557 261.799 667.557H271.34C275.438 667.557 278.76 670.879 278.76 674.977V684.518Z" fill="#EC1D23"/>
<path d="M533.164 938.943C533.164 943.041 529.842 946.363 525.744 946.363H516.204C512.106 946.363 508.783 943.041 508.783 938.943V929.402C508.783 925.303 512.106 921.981 516.204 921.981H525.744C529.842 921.981 533.164 925.303 533.164 929.402V938.943Z" fill="#EC1D23"/>
<path d="M533.164 684.518C533.164 688.617 529.842 691.939 525.744 691.939H516.204C512.106 691.939 508.783 688.617 508.783 684.518V674.977C508.783 670.879 512.106 667.557 516.204 667.557H525.744C529.842 667.557 533.164 670.879 533.164 674.977V684.518Z" fill="#EC1D23"/>
<path d="M7.41811 819.151C3.32012 819.151 -0.00195312 815.829 -0.00195312 811.73L-0.00195312 802.189C-0.00195312 798.091 3.32012 794.769 7.41811 794.769H16.9582C21.0562 794.769 24.3782 798.091 24.3782 802.189V811.73C24.3782 815.829 21.0562 819.151 16.9582 819.151H7.41811Z" fill="#EC1D23"/>
<path d="M215.165 938.943C215.165 943.041 211.843 946.363 207.745 946.363H198.205C194.107 946.363 190.785 943.041 190.785 938.943V929.402C190.785 925.303 194.107 921.981 198.205 921.981H207.745C211.843 921.981 215.165 925.303 215.165 929.402V938.943Z" fill="#EC1D23"/>
<path d="M215.165 684.518C215.165 688.617 211.843 691.939 207.745 691.939H198.205C194.107 691.939 190.785 688.617 190.785 684.518V674.977C190.785 670.879 194.107 667.557 198.205 667.557H207.745C211.843 667.557 215.165 670.879 215.165 674.977V684.518Z" fill="#EC1D23"/>
<path d="M645.543 819.151C641.445 819.151 638.123 815.829 638.123 811.73V802.189C638.123 798.091 641.445 794.769 645.543 794.769H655.083C659.181 794.769 662.503 798.091 662.503 802.189V811.73C662.503 815.829 659.181 819.151 655.083 819.151H645.543Z" fill="#EC1D23"/>
<path d="M469.569 938.943C469.569 943.041 466.247 946.363 462.149 946.363H452.609C448.511 946.363 445.189 943.041 445.189 938.943V929.402C445.189 925.303 448.511 921.981 452.609 921.981H462.149C466.247 921.981 469.569 925.303 469.569 929.402V938.943Z" fill="#EC1D23"/>
<path d="M469.569 684.518C469.569 688.617 466.247 691.939 462.149 691.939H452.609C448.511 691.939 445.189 688.617 445.189 684.518V674.977C445.189 670.879 448.511 667.557 452.609 667.557H462.149C466.247 667.557 469.569 670.879 469.569 674.977V684.518Z" fill="#EC1D23"/>
<path d="M310.556 938.943C310.556 943.041 307.234 946.363 303.136 946.363H293.596C289.498 946.363 286.175 943.041 286.175 938.943V929.402C286.175 925.303 289.498 921.981 293.596 921.981H303.136C307.234 921.981 310.556 925.303 310.556 929.402V938.943Z" fill="#EC1D23"/>
<path d="M310.556 684.518C310.556 688.617 307.234 691.939 303.136 691.939H293.596C289.498 691.939 286.175 688.617 286.175 684.518V674.977C286.175 670.879 289.498 667.557 293.596 667.557H303.136C307.234 667.557 310.556 670.879 310.556 674.977V684.518Z" fill="#EC1D23"/>
<path d="M7.41811 723.742C3.32012 723.742 -0.00195312 720.42 -0.00195312 716.321L-0.00195312 706.78C-0.00195312 702.682 3.32012 699.36 7.41811 699.36H16.9582C21.0562 699.36 24.3782 702.682 24.3782 706.78V716.321C24.3782 720.42 21.0562 723.742 16.9582 723.742H7.41811Z" fill="#EC1D23"/>
<path d="M645.543 723.742C641.445 723.742 638.123 720.42 638.123 716.321V706.78C638.123 702.682 641.445 699.36 645.543 699.36H655.083C659.181 699.36 662.503 702.682 662.503 706.78V716.321C662.503 720.42 659.181 723.742 655.083 723.742H645.543Z" fill="#EC1D23"/>
<path d="M564.962 938.943C564.962 943.041 561.64 946.363 557.542 946.363H548.002C543.904 946.363 540.582 943.041 540.582 938.943V929.402C540.582 925.303 543.904 921.981 548.002 921.981H557.542C561.64 921.981 564.962 925.303 564.962 929.402V938.943Z" fill="#EC1D23"/>
<path d="M564.962 684.518C564.962 688.617 561.64 691.939 557.542 691.939H548.002C543.904 691.939 540.582 688.617 540.582 684.518V674.977C540.582 670.879 543.904 667.557 548.002 667.557H557.542C561.64 667.557 564.962 670.879 564.962 674.977V684.518Z" fill="#EC1D23"/>
<path d="M7.41811 787.348C3.32012 787.348 -0.00195312 784.026 -0.00195312 779.927L-0.00195312 770.386C-0.00195312 766.288 3.32012 762.966 7.41811 762.966H16.9582C21.0562 762.966 24.3782 766.288 24.3782 770.386V779.927C24.3782 784.026 21.0562 787.348 16.9582 787.348H7.41811Z" fill="#EC1D23"/>
<path d="M645.543 787.348C641.445 787.348 638.123 784.026 638.123 779.927V770.386C638.123 766.288 641.445 762.966 645.543 762.966H655.083C659.181 762.966 662.503 766.288 662.503 770.386V779.927C662.503 784.026 659.181 787.348 655.083 787.348H645.543Z" fill="#EC1D23"/>
<path d="M501.368 938.943C501.368 943.041 498.045 946.363 493.947 946.363H484.407C480.309 946.363 476.987 943.041 476.987 938.943V929.402C476.987 925.303 480.309 921.981 484.407 921.981H493.947C498.045 921.981 501.368 925.303 501.368 929.402V938.943Z" fill="#EC1D23"/>
<path d="M501.368 684.518C501.368 688.617 498.045 691.939 493.947 691.939H484.407C480.309 691.939 476.987 688.617 476.987 684.518V674.977C476.987 670.879 480.309 667.557 484.407 667.557H493.947C498.045 667.557 501.368 670.879 501.368 674.977V684.518Z" fill="#EC1D23"/>
<path d="M7.41811 691.939C3.32012 691.939 -0.00195312 688.617 -0.00195312 684.518L-0.00195312 674.977C-0.00195312 670.879 3.32012 667.557 7.41811 667.557H16.9582C21.0562 667.557 24.3782 670.879 24.3782 674.977V684.518C24.3782 688.617 21.0562 691.939 16.9582 691.939H7.41811Z" fill="#EC1D23"/>
<path d="M645.543 691.939C641.445 691.939 638.123 688.617 638.123 684.518V674.977C638.123 670.879 641.445 667.557 645.543 667.557H655.083C659.181 667.557 662.503 670.879 662.503 674.977V684.518C662.503 688.617 659.181 691.939 655.083 691.939H645.543Z" fill="#EC1D23"/>
<path d="M596.758 938.943C596.758 943.041 593.436 946.363 589.338 946.363H579.798C575.7 946.363 572.378 943.041 572.378 938.943V929.402C572.378 925.303 575.7 921.981 579.798 921.981H589.338C593.436 921.981 596.758 925.303 596.758 929.402V938.943Z" fill="#EC1D23"/>
<path d="M596.758 684.518C596.758 688.617 593.436 691.939 589.338 691.939H579.798C575.7 691.939 572.378 688.617 572.378 684.518V674.977C572.378 670.879 575.7 667.557 579.798 667.557H589.338C593.436 667.557 596.758 670.879 596.758 674.977V684.518Z" fill="#EC1D23"/>
<path d="M630.703 938.943C630.703 943.041 627.381 946.363 623.283 946.363H613.743C609.645 946.363 606.323 943.041 606.323 938.943V929.402C606.323 925.303 609.645 921.981 613.743 921.981H623.283C627.381 921.981 630.703 925.303 630.703 929.402V938.943Z" fill="#EC1D23"/>
<path d="M630.703 684.518C630.703 688.617 627.381 691.939 623.283 691.939H613.743C609.645 691.939 606.323 688.617 606.323 684.518V674.977C606.323 670.879 609.645 667.557 613.743 667.557H623.283C627.381 667.557 630.703 670.879 630.703 674.977V684.518Z" fill="#EC1D23"/>
<path d="M12.7181 933.642L12.7181 679.218H650.843V933.642H12.7181Z" fill="#EC1D23"/>
<rect x="45.9341" y="32.7881" width="10.2602" height="10.2602" fill="#F1EEE7"/>
<rect x="25.5933" y="32.7881" width="10.2602" height="10.2602" fill="#F1EEE7"/>
<rect x="35.855" y="22.5264" width="10.2602" height="10.2602" fill="#F1EEE7"/>
<rect x="622.819" y="32.7881" width="10.2602" height="10.2602" fill="#F1EEE7"/>
<rect x="612.74" y="22.5264" width="10.2602" height="10.2602" fill="#F1EEE7"/>
<rect x="522.156" y="864.487" width="17.513" height="17.4736" fill="#F1EEE7"/>
<rect x="487.436" y="864.487" width="17.513" height="17.4736" fill="#F1EEE7"/>
<rect x="452.714" y="864.487" width="17.513" height="17.4736" fill="#F1EEE7"/>
<rect x="417.996" y="864.487" width="17.513" height="17.4736" fill="#F1EEE7"/>
<rect x="383.277" y="864.487" width="17.513" height="17.4736" fill="#F1EEE7"/>
<rect x="348.557" y="864.487" width="17.513" height="17.4736" fill="#F1EEE7"/>
<rect x="313.836" y="864.487" width="17.513" height="17.4736" fill="#F1EEE7"/>
<rect x="279.116" y="864.487" width="17.513" height="17.4736" fill="#F1EEE7"/>
<rect x="244.398" y="864.487" width="17.513" height="17.4736" fill="#F1EEE7"/>
<rect x="209.678" y="864.487" width="17.513" height="17.4736" fill="#F1EEE7"/>
<rect x="174.958" y="864.487" width="17.513" height="17.4736" fill="#F1EEE7"/>
<rect x="140.239" y="864.487" width="17.513" height="17.4736" fill="#F1EEE7"/>
<rect x="105.519" y="864.487" width="17.513" height="17.4736" fill="#F1EEE7"/>
<rect x="70.7993" y="864.487" width="17.513" height="17.4736" fill="#F1EEE7"/>
<rect x="557.18" y="864.487" width="17.513" height="17.4736" fill="#F1EEE7"/>
<rect x="539.667" y="847.012" width="17.513" height="17.4736" fill="#F1EEE7"/>
<rect x="504.948" y="847.012" width="17.513" height="17.4736" fill="#F1EEE7"/>
<rect x="470.228" y="847.012" width="17.513" height="17.4736" fill="#F1EEE7"/>
<rect x="435.507" y="847.012" width="17.513" height="17.4736" fill="#F1EEE7"/>
<rect x="400.789" y="847.012" width="17.513" height="17.4736" fill="#F1EEE7"/>
<rect x="366.07" y="847.012" width="17.513" height="17.4736" fill="#F1EEE7"/>
<rect x="331.349" y="847.012" width="17.513" height="17.4736" fill="#F1EEE7"/>
<rect x="296.631" y="847.012" width="17.513" height="17.4736" fill="#F1EEE7"/>
<rect x="261.911" y="847.012" width="17.513" height="17.4736" fill="#F1EEE7"/>
<rect x="227.191" y="847.012" width="17.513" height="17.4736" fill="#F1EEE7"/>
<rect x="192.471" y="847.012" width="17.513" height="17.4736" fill="#F1EEE7"/>
<rect x="157.752" y="847.012" width="17.513" height="17.4736" fill="#F1EEE7"/>
<rect x="123.032" y="847.012" width="17.513" height="17.4736" fill="#F1EEE7"/>
<rect x="88.3125" y="847.012" width="17.513" height="17.4736" fill="#F1EEE7"/>
<rect x="574.694" y="847.012" width="17.513" height="17.4736" fill="#F1EEE7"/>
</g>
<defs>
<clipPath id="clip0_279_6198">
<rect width="662.4" height="945.6" fill="white" transform="translate(0 0.799805)"/>
</clipPath>
</defs>
</svg>
