<svg width="447" height="479" viewBox="0 0 447 479" fill="none" xmlns="http://www.w3.org/2000/svg">
<path d="M345.182 9.15014C352.141 11.5241 359.122 13.4381 365.699 16.2721C373.316 19.5586 380.693 23.4385 387.92 27.5114C390.76 29.1138 393.137 31.7178 395.335 34.2105C399.251 38.6543 401.307 43.8548 400.522 49.9232C398.489 65.6138 396.844 81.3636 394.385 96.98C390.603 121.039 386.717 145.09 382.068 168.993C375.976 200.293 369.429 231.518 362.463 262.639C356.17 290.741 349.136 318.68 342.26 346.648C340.07 355.551 337.417 364.379 330.787 371.264C321.624 380.774 309.777 385.025 297.101 386.45C261.008 390.493 229.145 380.478 201.782 356.686C197.462 352.925 194.823 348.251 193.702 342.472C188.821 317.181 186.37 291.617 184.651 265.963C182.468 233.38 182.237 200.76 183.298 168.147C184.785 122.441 186.803 76.7492 188.373 31.0501C188.642 23.1418 192.177 17.6742 198.665 13.7646C209.884 7.00614 222.448 4.42444 235.214 2.79975C267.615 -1.32504 299.844 0.344162 331.863 6.39781M192.708 116.461C192.581 116.461 192.454 116.461 192.319 116.454C192.416 111.936 192.454 107.418 192.618 102.9C193.127 89.0716 193.216 75.2061 194.39 61.4296C195.145 52.4901 197.379 43.6767 195.04 35.1452C198.314 38.2536 201.386 42.1633 205.347 44.7079C212.111 49.0404 219.107 53.3507 226.574 56.1995C252.278 66.007 279.192 70.2059 306.615 70.9701C319.045 71.3187 331.512 70.8736 343.942 70.4211C357.179 69.9463 370.191 67.9877 382.546 62.8985C384.093 62.2605 385.581 61.4593 387.091 60.7323C384.609 60.7026 382.569 61.5557 380.468 62.1863C367.508 66.0811 354.167 67.4981 340.713 68.2474C304.941 70.2356 269.805 66.734 235.618 55.7766C222.769 51.6592 209.966 46.8222 200.728 36.5919C195.929 31.2727 193.874 22.9415 202.223 19.2692C208.979 16.2943 216.08 13.4827 223.315 12.2808C260.462 6.13074 297.714 5.90076 334.719 13.2601C357.141 17.7187 379.37 23.1789 396.007 41.5253C395.671 40.5609 395.566 39.9748 395.282 39.4852C392.36 34.3811 387.83 30.9759 382.912 27.9343C370.281 20.1224 356.274 15.7157 342.073 11.9841C320.787 6.39039 299.022 3.88288 277.04 3.43775C258.586 3.06682 240.169 3.80127 222.134 8.20797C214.032 10.1888 205.952 12.4515 199.098 17.4887C195.444 20.1669 192.334 23.2605 192.005 28.2607C191.587 34.5443 190.593 40.7983 190.376 47.0745C188.694 96.3494 187.005 145.632 185.607 194.914C184.718 226.191 186.071 257.424 188.904 288.582C188.978 289.428 188.911 290.444 189.352 291.075C192.252 295.2 195.003 299.48 198.314 303.264C205.818 311.825 215.258 317.834 225.894 321.751C252.547 331.559 280.015 333.161 307.931 328.895C319.464 327.13 330.496 323.658 338.493 314.8C342.798 310.03 348.21 306.009 349.764 298.813C358.345 259.071 367.598 219.462 376.074 179.698C384.609 139.66 391.067 99.2575 396 58.6179C396.471 54.7676 396.8 50.8951 397.188 47.03L396.104 46.4439C391.919 54.9976 383.563 57.6609 375.76 61.0958C375.909 61.437 376.066 61.7709 376.216 62.1121C380.752 60.3836 385.282 58.655 389.34 57.1045C389.677 58.0096 390.133 59.2263 390.574 60.4133C390.005 63.7739 389.4 67.3572 388.795 70.9404C388.735 70.9255 388.668 70.9107 388.608 70.8959C388.727 68.0397 388.847 65.1835 388.974 62.3273C388.6 62.305 388.219 62.2828 387.845 62.2679L385.94 80.9779C385.693 80.9482 385.439 80.9259 385.192 80.8963C385.775 75.1468 386.366 69.3973 386.881 64.3303C377.165 66.3556 367.62 69.1228 357.881 70.2208C328.433 73.5443 298.954 73.0399 269.633 68.6035C252.487 66.007 235.505 62.4089 219.869 54.6267C212.171 50.7912 205.018 45.8801 197.424 41.3398C195.87 66.0366 194.285 91.2453 192.693 116.454L192.708 116.461ZM201.699 22.0512C201.221 21.9103 200.743 21.7767 200.264 21.6358C199.562 23.446 197.977 25.4416 198.314 27.0292C199.255 31.4136 201.423 35.39 205.467 37.905C209.988 40.7167 214.421 43.7583 219.189 46.0878C235.662 54.1296 253.376 58.2841 271.329 61.2961C299.986 66.1034 328.777 67.1939 357.612 62.765C368.749 61.0513 379.444 57.9948 388.563 51.0064C395.14 45.9617 395.275 41.6069 389.056 36.2729C379.377 27.9713 367.762 23.3347 355.811 19.5734C350.863 18.0155 345.437 18.0081 340.332 16.8433C335.586 15.7676 331.064 13.5643 326.288 12.763C294.978 7.49578 263.549 7.67382 232.164 11.8283C223.958 12.9114 215.93 15.4115 207.881 17.5184C204.727 18.3419 202.424 20.3524 202.17 24.0394C202.066 25.5306 201.423 26.9847 201.027 28.4536C200.93 28.4313 200.84 28.4091 200.743 28.3794C201.057 26.2725 201.378 24.1656 201.692 22.0512H201.699ZM198.358 348.407C198.187 348.592 198.022 348.778 197.85 348.963C202.155 352.754 206.177 356.931 210.811 360.277C232.755 376.13 257.398 383.92 284.559 383.683C297.893 383.564 310.487 380.819 321.698 373.185C328.492 368.556 333.732 362.799 335.832 354.727C338.284 345.283 340.541 335.787 342.895 326.314C344.114 321.395 345.369 316.484 346.692 311.224C345.803 311.506 345.526 311.521 345.362 311.669C344.988 311.996 344.637 312.352 344.345 312.752C335.959 324.118 324.225 330.127 310.599 331.967C298.805 333.554 286.816 334.489 274.925 334.385C255.858 334.215 237.202 330.795 219.959 322.33C212.492 318.665 205.743 313.554 199.711 309.748C210.915 322.263 226.544 329.519 243.764 334.348C237.92 333.554 232.12 332.531 226.716 330.468C221.289 328.398 216.259 325.297 210.796 322.515C210.893 324.133 211.169 325.186 210.96 326.143C210.504 328.235 211.999 334.816 213.636 336.062C215.669 337.612 217.889 338.918 219.324 339.86C209.749 342.145 202.282 336.425 194.823 330.721C194.606 330.95 194.397 331.173 194.18 331.403C194.696 334.096 195.204 336.789 195.586 338.77C197.678 338.978 199.427 338.659 200.556 339.348C207.492 343.599 214.279 348.073 221.118 352.472C220.908 352.821 220.706 353.162 220.497 353.511C218.599 352.546 216.79 351.293 214.779 350.736C213.591 350.41 211.864 350.87 210.833 351.604C210.295 351.99 210.37 353.911 210.811 354.824C211.767 356.805 213.143 358.585 214.346 360.447L213.935 361.026C208.74 356.827 203.553 352.628 198.358 348.421V348.407ZM189.771 300.986C192.656 302.834 194.644 304.11 196.019 304.985C194.412 302.849 192.349 300.118 190.294 297.388C190.07 297.477 189.845 297.574 189.621 297.663C189.688 299.095 189.756 300.519 189.778 300.979L189.771 300.986Z" fill="#EC1D23"/>
<path d="M192.707 116.463C194.292 91.2546 195.884 66.0459 197.439 41.3491C205.032 45.8894 212.185 50.8005 219.884 54.636C235.52 62.4182 252.501 66.0163 269.647 68.6128C298.969 73.0492 328.447 73.5537 357.896 70.2301C367.634 69.1321 377.172 66.3649 386.896 64.3396C386.38 69.414 385.797 75.1561 385.206 80.9056C385.453 80.9352 385.707 80.9575 385.954 80.9872L387.86 62.2773C388.233 62.2995 388.615 62.3218 388.988 62.3366C388.869 65.1928 388.749 68.049 388.622 70.9052C388.682 70.92 388.749 70.9349 388.809 70.9497C389.414 67.3665 390.02 63.7832 390.588 60.4226C390.147 59.2356 389.698 58.0189 389.355 57.1139C385.296 58.6644 380.759 60.3929 376.23 62.1215C376.08 61.7802 375.923 61.4464 375.774 61.1051C383.577 57.6628 391.933 54.9995 396.119 46.4532L397.203 47.0393C396.806 50.9044 396.478 54.7695 396.014 58.6273C391.089 99.2668 384.623 139.669 376.088 179.708C367.612 219.472 358.359 259.073 349.778 298.822C348.224 306.018 342.812 310.032 338.507 314.809C330.51 323.667 319.485 327.147 307.945 328.905C280.021 333.17 252.561 331.568 225.908 321.761C215.272 317.851 205.832 311.834 198.328 303.273C195.009 299.49 192.266 295.209 189.366 291.084C188.925 290.454 188.993 289.437 188.918 288.592C186.078 257.426 184.732 226.2 185.622 194.923C187.019 145.634 188.709 96.3587 190.39 47.0838C190.607 40.8002 191.601 34.5462 192.02 28.27C192.349 23.2698 195.458 20.1762 199.113 17.4981C205.974 12.4682 214.046 10.1981 222.148 8.21731C240.184 3.81061 258.593 3.07616 277.054 3.4471C299.036 3.89222 320.801 6.39973 342.087 11.9934C356.289 15.725 370.295 20.1317 382.927 27.9436C387.837 30.9852 392.367 34.3904 395.297 39.4945C395.581 39.9841 395.685 40.5702 396.022 41.5346C379.384 23.1882 357.148 17.7281 334.733 13.2694C297.72 5.9101 260.476 6.14008 223.329 12.2902C216.094 13.4846 208.994 16.3037 202.237 19.2786C193.888 22.9582 195.944 31.2894 200.742 36.6012C209.98 46.8316 222.776 51.6685 235.632 55.7859C269.819 66.7433 304.955 70.2375 340.727 68.2567C354.173 67.5074 367.522 66.0905 380.483 62.1956C382.583 61.5651 384.623 60.7119 387.105 60.7416C385.595 61.4686 384.108 62.2698 382.56 62.9078C370.206 68.0045 357.193 69.9556 343.956 70.4304C331.519 70.8755 319.059 71.328 306.63 70.9794C279.207 70.2152 252.292 66.0163 226.588 56.2088C219.121 53.36 212.118 49.0497 205.361 44.7172C201.4 42.18 198.328 38.263 195.054 35.1545C197.386 43.686 195.159 52.4994 194.404 61.4389C193.238 75.2154 193.141 89.081 192.633 102.909C192.468 107.427 192.431 111.945 192.334 116.463C192.461 116.463 192.588 116.463 192.722 116.471L192.707 116.463ZM273.691 94.1628C273.96 94.1034 274.236 94.0366 274.505 93.9773C275.313 100.038 276.112 106.107 276.92 112.168C277.727 107.086 278.011 102.034 278.213 96.9893C278.736 84.0437 270.813 77.2036 259.998 74.8371C256.627 74.0952 253.002 73.4795 249.631 73.9023C234.339 75.8163 219.061 77.9381 203.844 80.3714C198.746 81.1875 196.691 84.1327 196.646 89.2293C196.527 103.191 196.557 117.153 196.586 131.115C196.601 138.46 196.721 145.804 196.796 153.149C196.534 153.208 196.265 153.267 196.003 153.327C194.86 149.773 193.716 146.22 192.573 142.666C192.281 145.329 192.834 147.8 193.208 150.293C193.44 151.843 193.671 153.475 193.455 155.003C192.79 159.618 191.325 164.188 191.19 168.802C190.061 206.496 191.07 244.169 193.044 281.811C193.148 283.799 193.941 285.891 194.897 287.679C202.857 302.613 215.765 311.656 231.476 316.968C253.465 324.402 276.18 326.605 299.268 324.98C310.524 324.186 321.444 321.894 331.272 315.907C337.737 311.968 342.102 306.767 343.381 299.022C344.546 291.96 346.535 285.038 347.947 278.013C353.904 248.457 359.786 218.886 365.661 189.307C365.908 188.068 365.811 186.755 365.871 185.479C365.549 185.398 365.22 185.324 364.899 185.242C364.032 187.208 363.113 189.144 362.305 191.132C358.538 200.465 352.357 207.409 342.401 210.295C325.622 215.169 308.595 216.044 291.457 212.454C286.247 211.363 281.277 208.952 276.038 208.188C260.813 205.977 245.924 202.72 231.7 196.756C230.736 196.355 229.697 196.125 227.896 195.576C226.312 219.739 224.667 243.39 223.247 267.055C222.754 275.312 222.858 283.606 222.559 291.878C222.53 292.768 221.625 293.629 221.124 294.497C220.691 293.621 220.033 292.783 219.876 291.863C219.674 290.669 219.809 289.4 219.891 288.169C222.118 253.256 224.361 218.344 226.61 183.439C226.693 182.178 226.984 180.932 227.171 179.76C232.926 181.191 238.285 182.312 243.517 183.862C269.199 191.474 295.381 194.552 322.131 192.839C325.353 192.631 328.686 193.032 331.803 192.379C339.965 190.665 348.037 188.514 356.348 186.488C355.182 189.849 353.994 193.269 352.813 196.689C354.211 196.407 355.055 195.725 355.444 194.849C356.558 192.371 357.275 189.701 358.546 187.319C359.772 185.034 361.326 182.868 363.045 180.917C365.243 178.417 367.747 176.191 370.116 173.847C369.847 173.587 369.585 173.328 369.316 173.068C367.074 175.026 364.839 176.978 362.597 178.936C362.35 178.736 362.111 178.535 361.864 178.335C366.259 164.136 370.654 149.929 375.049 135.73C375.251 135.789 375.453 135.841 375.654 135.9C374.772 144.558 373.89 153.223 373.008 161.88C375.415 147.889 377.627 133.86 379.444 119.779C379.758 117.346 379.1 114.171 377.657 112.257C375.288 109.126 372.313 105.929 368.86 104.208C358.897 99.2371 348.904 93.7918 338.276 90.7947C328.238 87.9682 323.237 90.2457 319.157 99.8455C315.816 107.694 312.355 115.499 308.969 123.333C306.667 128.652 302.915 131.041 296.308 130.959C298.528 123.867 300.703 116.923 302.885 109.972C296.106 113.852 292.653 120.076 289.708 127.287C286.315 119.779 287.75 111.686 284.85 104.705C284.469 104.742 284.08 104.786 283.699 104.823C282.114 111.196 280.53 117.569 278.885 124.156C275.156 119.127 274.939 112.22 269.266 108.459C270.723 117.732 272.188 127.005 273.713 136.672C270.357 135.641 267.285 134.698 264.221 133.756L263.802 134.417C266.657 136.59 269.513 138.764 272.338 140.915C270.91 140.886 269.453 140.856 267.995 140.826C268.414 142.206 268.922 142.748 269.55 142.985C277.286 145.901 285.246 146.739 293.4 145.277C294.267 145.122 295.254 144.528 295.777 143.831C298.281 140.544 300.658 137.161 303.042 133.786C303.789 132.725 304.417 131.575 305.097 130.47C304.088 135.641 302.758 140.641 300.807 145.389C298.236 151.643 296.061 157.518 304.529 160.983C299.94 165.063 299.26 169.967 298.415 174.789C299.066 175.056 299.185 175.153 299.29 175.138C299.529 175.108 299.828 175.108 300 174.967C302.84 172.667 305.097 171.77 307.175 176.139C308.162 178.209 310.001 177.23 310.427 176.147C309.178 173.417 308.057 171.562 307.482 169.559C306.241 165.211 305.643 160.694 302.145 157.229C301.353 156.443 301.263 154.365 301.629 153.104C303.012 148.371 304.529 143.66 306.323 139.061C311.316 126.286 316.526 113.6 321.533 100.832C323.499 95.8245 327.146 93.3244 332.371 93.4951C336.175 93.6212 340.249 93.7696 343.687 95.1643C351.849 98.4656 359.854 102.234 367.657 106.315C377.112 111.255 378.749 114.646 375.729 124.869C370.519 142.518 364.615 159.966 359.233 177.571C357.798 182.267 354.853 184.923 350.339 186.021C344.076 187.542 337.82 189.293 331.444 190.116C296.756 194.589 263.227 188.855 230.265 178.357C227.47 177.467 226.648 175.969 226.865 173.201C227.261 168.083 227.35 162.941 227.567 157.808L226.984 157.771L225.108 176.221C222.163 174.974 219.63 173.773 217.006 172.816C211.079 170.664 207.162 167.289 208.657 160.3C208.687 160.152 208.508 159.952 208.186 159.262L207.432 166.651C203.298 164.032 200.241 161.391 200.211 156.368C200.144 145.99 199.905 135.618 199.673 125.247C199.442 114.876 198.53 104.475 199.045 94.1405C199.486 85.29 201.086 83.7098 208.373 83.2128C208.986 83.1683 209.577 82.8938 210.19 82.8047C224.712 80.7275 239.197 78.3164 253.772 76.7288C261.164 75.9202 267.098 79.5702 271.643 86.0912C269.52 86.2693 267.906 86.336 266.321 86.5586C256.492 87.9533 246.432 88.5171 237.635 93.866C236.708 94.4298 235.453 95.4833 235.438 96.329C235.296 102.286 235.438 108.243 235.497 114.201C236.409 110.165 236.611 106.122 236.641 102.071C236.656 99.9048 237.164 98.6362 239.705 98.4804C242.067 98.3321 244.392 97.6347 246.731 97.1822C243.193 96.6826 240.911 95.5674 239.885 93.8363C250.812 90.8763 261.597 88.161 272.278 87.575C272.315 91.4994 272.338 94.5263 272.368 97.5605C272.697 97.5605 273.018 97.5605 273.347 97.5679L273.698 94.1479L273.691 94.1628ZM261.567 158.26C265.148 153.141 263.361 146.442 258.107 143.675C257.546 146.027 256.904 148.208 256.537 150.433C256.141 152.837 256.007 155.278 255.738 157.956C253.959 157.904 252.554 157.86 250.266 157.785C253.234 153.141 248.607 146.902 255.513 144.105C255.386 143.742 255.259 143.386 255.132 143.022C251.866 143.267 248.6 143.504 245.745 143.712C247.987 150.582 250.139 156.391 244.579 162.192C246.724 162.133 248.749 162.697 249.751 161.94C253.391 159.195 255.05 161.517 257.636 164.855C256.238 165.397 255.013 165.879 253.787 166.354L254.175 167.341C256.276 167.304 258.383 167.266 260.678 167.229C260.603 167.927 260.387 168.557 260.514 169.114C260.828 170.464 261.306 171.784 261.717 173.12C262.472 171.888 263.6 170.731 263.899 169.403C264.445 166.955 264.49 164.403 264.744 161.94C269.102 162.133 271.8 163.253 270.514 167.897C270.357 168.468 270.484 169.129 270.552 169.744C271.007 174.003 273.31 176.614 276.538 176.562C279.394 176.51 281.8 173.661 282.241 169.789C282.443 168.008 282.607 166.22 282.787 164.433C283.168 164.358 283.557 164.277 283.938 164.203C284.222 165.397 284.76 166.591 284.738 167.778C284.693 170.241 284.207 172.697 284.222 175.16C284.222 175.983 285.029 177.274 285.762 177.541C289.932 179.07 294.619 175.612 294.91 171.184C295.007 169.685 295.852 168.238 296.368 166.725C295.448 166.243 294.08 165.523 292.989 164.944C294.2 162.919 295.224 161.22 296.293 159.44C293.505 158.446 291.539 157.748 289.573 157.044C289.551 156.584 289.529 156.116 289.506 155.656C291.988 154.336 294.477 153.015 296.906 151.724C296.106 150.5 290.485 149.246 288.101 150.871C283.22 154.195 286.18 158.104 288.52 162.007C286.173 162.674 284.379 163.186 281.367 164.047C282.017 159.744 281.673 155.975 283.228 153.297C284.939 150.352 288.176 148.297 292.406 148.534C294.686 148.66 297.048 147.421 299.372 146.798C299.268 146.502 299.163 146.205 299.058 145.908C291.816 146.405 284.573 146.91 277.204 147.414C278.392 148.149 279.513 148.831 280.373 149.365C279.409 153.816 278.504 157.963 277.6 162.118C276.86 161.087 276.822 160.137 277.069 159.262C278.138 155.448 277.794 151.902 274.976 148.942C274.132 148.059 272.689 146.924 271.792 147.125C270.791 147.347 269.587 148.853 269.363 149.974C268.758 153.06 268.623 156.227 268.279 159.61C264.438 159.225 260.977 158.876 257.389 158.52C258.152 155.975 258.78 153.853 259.677 150.864C260.387 153.653 260.865 155.552 261.56 158.268L261.567 158.26ZM341.385 114.557C341.078 114.824 340.779 115.091 340.473 115.358C341.564 116.463 342.528 117.739 343.769 118.63C346.445 120.558 348.68 122.584 347.551 126.315C347.544 126.345 347.88 126.486 348.059 126.575C348.426 125.692 348.799 124.802 349.166 123.919C349.39 123.993 349.607 124.067 349.831 124.149C349.622 125.432 349.42 126.709 349.143 128.385C350.645 124.861 351.968 121.768 353.448 118.303C350.309 116.73 346.707 114.935 343.111 113.14C343.022 113.303 342.925 113.466 342.835 113.629C344.539 114.802 346.236 115.974 347.94 117.146C347.835 117.302 347.731 117.45 347.626 117.606L341.377 114.557H341.385ZM206.609 91.9446C206.497 92.1894 206.393 92.4342 206.281 92.679C215.018 94.5782 223.755 96.4774 232.493 98.3766C232.538 98.1763 232.582 97.976 232.627 97.7757C223.957 95.832 215.28 93.8883 206.609 91.9446Z" fill="#F1EEE7"/>
<path d="M201.699 22.0532C201.386 24.1601 201.064 26.267 200.75 28.3814C200.847 28.4036 200.937 28.4259 201.034 28.4555C201.43 26.9866 202.073 25.5326 202.178 24.0414C202.432 20.3543 204.734 18.3513 207.888 17.5204C215.93 15.4135 223.965 12.9208 232.172 11.8303C263.556 7.67581 294.993 7.49776 326.295 12.765C331.071 13.5662 335.593 15.7622 340.339 16.8453C345.444 18.0026 350.87 18.0175 355.818 19.5754C367.77 23.3367 379.385 27.9733 389.064 36.2748C395.282 41.6089 395.148 45.9636 388.57 51.0083C379.452 57.9968 368.764 61.0607 357.62 62.767C328.784 67.1959 299.993 66.1054 271.337 61.2981C253.384 58.2861 235.67 54.1316 219.197 46.0898C214.428 43.7603 209.996 40.7186 205.474 37.9069C201.43 35.3994 199.27 31.423 198.321 27.0312C197.977 25.4436 199.562 23.4479 200.272 21.6378C200.75 21.7787 201.229 21.9123 201.707 22.0532H201.699Z" fill="#F1EEE7"/>
<path d="M198.359 348.406C203.553 352.605 208.74 356.804 213.935 361.01L214.346 360.432C213.143 358.57 211.768 356.789 210.811 354.808C210.37 353.888 210.295 351.974 210.833 351.589C211.865 350.854 213.591 350.394 214.78 350.721C216.79 351.277 218.599 352.538 220.497 353.495C220.707 353.147 220.909 352.805 221.118 352.457C214.279 348.057 207.485 343.584 200.556 339.333C199.435 338.643 197.679 338.962 195.586 338.754C195.205 336.774 194.696 334.081 194.181 331.388C194.397 331.158 194.607 330.935 194.823 330.705C202.29 336.41 209.75 342.13 219.324 339.845C217.889 338.895 215.669 337.59 213.636 336.047C211.999 334.8 210.512 328.22 210.96 326.128C211.17 325.178 210.886 324.117 210.796 322.5C216.26 325.282 221.29 328.383 226.716 330.453C232.12 332.515 237.927 333.539 243.765 334.333C226.552 329.503 210.915 322.248 199.712 309.732C205.743 313.531 212.493 318.642 219.959 322.315C237.195 330.779 255.858 334.199 274.925 334.37C286.816 334.481 298.805 333.539 310.599 331.951C324.225 330.112 335.959 324.102 344.346 312.737C344.637 312.344 344.988 311.98 345.362 311.654C345.526 311.513 345.811 311.498 346.692 311.209C345.37 316.469 344.121 321.38 342.896 326.298C340.541 335.772 338.284 345.268 335.832 354.712C333.74 362.783 328.493 368.54 321.699 373.17C310.48 380.811 297.893 383.556 284.559 383.667C257.398 383.904 232.755 376.115 210.811 360.261C206.177 356.915 202.156 352.739 197.851 348.948C198.022 348.762 198.187 348.577 198.359 348.391V348.406ZM230.363 354.808L229.908 355.869C236.649 358.421 240.469 363.592 240.469 370.269C240.469 374.423 242.322 375.239 245.192 375.581C257.159 377.012 269.147 378.244 281.128 379.572C283.468 379.832 284.492 378.659 284.985 376.56C285.994 372.294 287.108 368.058 288.334 363.214C269.035 360.417 249.699 357.613 230.363 354.808ZM336.176 343.814C295.808 361.315 255.836 355.402 215.699 344.622C222.127 347.115 228.525 349.949 235.222 351.514C257.024 356.626 279.125 358.896 301.488 356.233C312.012 354.979 322.371 352.805 331.639 347.271C333.261 346.299 334.674 344.979 336.176 343.814ZM291.48 360.862C303.932 362.553 315.644 360.039 327.76 354.927C315.106 356.997 303.29 358.926 291.48 360.862ZM339.39 325.059C337.723 326.002 335.496 327.255 333.269 328.517C337.32 329.184 339.36 328.032 339.39 325.059ZM330.503 360.958C330.077 360.602 329.644 360.239 329.218 359.883C326.639 363.117 324.053 366.359 321.474 369.594C321.856 369.905 322.229 370.21 322.61 370.521C325.241 367.331 327.872 364.148 330.503 360.958Z" fill="#F1EEE7"/>
<path d="M189.77 300.988C189.748 300.528 189.681 299.104 189.613 297.672C189.838 297.583 190.062 297.486 190.286 297.397C192.341 300.128 194.404 302.858 196.011 304.994C194.643 304.119 192.648 302.843 189.763 300.996L189.77 300.988Z" fill="#F1EEE7"/>
<path d="M273.691 94.163L273.34 97.583C273.011 97.583 272.69 97.583 272.361 97.5756C272.331 94.5487 272.309 91.5145 272.271 87.59C261.59 88.1835 250.805 90.8913 239.878 93.8514C240.904 95.5824 243.186 96.6977 246.724 97.1972C244.385 97.6498 242.06 98.3471 239.698 98.4955C237.165 98.6513 236.649 99.9199 236.634 102.086C236.604 106.129 236.402 110.172 235.49 114.216C235.438 108.258 235.296 102.294 235.431 96.3441C235.453 95.4909 236.701 94.4449 237.628 93.8811C246.425 88.5322 256.486 87.9684 266.314 86.5737C267.899 86.3511 269.513 86.2843 271.636 86.1063C267.084 79.5853 261.157 75.9353 253.765 76.7439C239.19 78.3315 224.705 80.7426 210.183 82.8198C209.57 82.9088 208.979 83.1833 208.366 83.2278C201.079 83.7249 199.48 85.2977 199.039 94.1556C198.523 104.49 199.435 114.891 199.666 125.262C199.898 135.633 200.137 146.012 200.205 156.383C200.234 161.406 203.291 164.047 207.425 166.666L208.18 159.277C208.508 159.967 208.688 160.167 208.65 160.315C207.148 167.311 211.072 170.687 216.999 172.831C219.623 173.78 222.156 174.99 225.101 176.236L226.977 157.786L227.56 157.823C227.344 162.956 227.246 168.098 226.858 173.216C226.648 175.991 227.463 177.482 230.258 178.372C263.22 188.87 296.749 194.605 331.437 190.131C337.805 189.308 344.069 187.557 350.332 186.036C354.839 184.938 357.784 182.282 359.226 177.586C364.608 159.982 370.513 142.54 375.722 124.884C378.742 114.661 377.097 111.27 367.65 106.33C359.847 102.249 351.842 98.4807 343.68 95.1793C340.242 93.792 336.168 93.6437 332.364 93.5101C327.147 93.3321 323.492 95.8396 321.526 100.847C316.519 113.615 311.309 126.301 306.316 139.076C304.523 143.668 302.998 148.379 301.623 153.119C301.256 154.38 301.338 156.458 302.138 157.244C305.636 160.709 306.234 165.227 307.475 169.574C308.05 171.584 309.179 173.432 310.42 176.162C309.994 177.245 308.148 178.224 307.168 176.154C305.091 171.785 302.833 172.682 299.993 174.982C299.821 175.123 299.522 175.123 299.283 175.153C299.178 175.168 299.066 175.071 298.409 174.804C299.253 169.982 299.933 165.078 304.523 160.998C296.054 157.533 298.229 151.658 300.8 145.404C302.751 140.656 304.074 135.656 305.091 130.485C304.41 131.59 303.79 132.74 303.035 133.801C300.651 137.177 298.267 140.559 295.77 143.846C295.24 144.536 294.253 145.137 293.393 145.293C285.239 146.754 277.279 145.916 269.543 143C268.915 142.763 268.407 142.221 267.988 140.841C269.446 140.871 270.903 140.901 272.331 140.93C269.513 138.786 266.651 136.605 263.795 134.432L264.214 133.771C267.286 134.714 270.35 135.656 273.706 136.687C272.181 127.02 270.724 117.747 269.259 108.474C274.932 112.235 275.149 119.149 278.878 124.172C280.515 117.591 282.1 111.211 283.692 104.838C284.073 104.801 284.462 104.757 284.843 104.72C287.743 111.701 286.308 119.795 289.701 127.302C292.646 120.091 296.099 113.867 302.878 109.987C300.703 116.931 298.528 123.882 296.301 130.975C302.908 131.049 306.66 128.667 308.962 123.348C312.348 115.514 315.809 107.709 319.15 99.8605C323.238 90.2682 328.231 87.9832 338.269 90.8097C348.897 93.8069 358.89 99.2522 368.853 104.223C372.306 105.944 375.281 109.141 377.65 112.272C379.093 114.179 379.751 117.354 379.437 119.795C377.621 133.875 375.408 147.904 373.001 161.896C373.883 153.238 374.765 144.573 375.647 135.915C375.446 135.856 375.244 135.804 375.042 135.745C370.647 149.944 366.252 164.151 361.857 178.35C362.104 178.551 362.343 178.751 362.59 178.951C364.832 176.993 367.067 175.041 369.309 173.083C369.578 173.343 369.84 173.602 370.109 173.862C367.74 176.206 365.236 178.439 363.038 180.932C361.319 182.883 359.765 185.049 358.539 187.334C357.261 189.716 356.551 192.386 355.437 194.864C355.041 195.74 354.196 196.422 352.806 196.704C353.995 193.284 355.175 189.864 356.341 186.503C348.03 188.529 339.958 190.673 331.796 192.394C328.679 193.047 325.346 192.646 322.124 192.854C295.374 194.567 269.184 191.489 243.51 183.877C238.278 182.327 232.919 181.206 227.164 179.775C226.985 180.947 226.686 182.193 226.604 183.454C224.346 218.367 222.112 253.279 219.884 288.184C219.802 289.415 219.667 290.684 219.869 291.878C220.026 292.798 220.684 293.637 221.117 294.512C221.618 293.637 222.523 292.783 222.553 291.893C222.852 283.621 222.747 275.327 223.24 267.07C224.66 243.405 226.297 219.754 227.889 195.591C229.69 196.14 230.729 196.363 231.694 196.771C245.91 202.728 260.806 205.985 276.031 208.203C281.263 208.967 286.233 211.378 291.45 212.469C308.589 216.059 325.615 215.184 342.394 210.31C352.35 207.417 358.531 200.48 362.298 191.147C363.098 189.159 364.025 187.216 364.892 185.257C365.213 185.339 365.542 185.413 365.864 185.494C365.804 186.77 365.901 188.084 365.654 189.322C359.78 218.893 353.89 248.464 347.94 278.028C346.528 285.053 344.532 291.975 343.374 299.037C342.096 306.782 337.738 311.983 331.265 315.922C321.437 321.909 310.517 324.202 299.261 324.995C276.173 326.62 253.459 324.424 231.469 316.983C215.758 311.671 202.85 302.628 194.89 287.694C193.934 285.906 193.141 283.814 193.037 281.826C191.064 244.176 190.055 206.512 191.183 168.817C191.325 164.203 192.783 159.633 193.448 155.018C193.672 153.49 193.44 151.858 193.201 150.308C192.827 147.815 192.274 145.344 192.566 142.681C193.709 146.235 194.853 149.788 195.997 153.342C196.258 153.282 196.527 153.223 196.789 153.164C196.714 145.819 196.587 138.475 196.58 131.13C196.557 117.168 196.52 103.206 196.639 89.2444C196.684 84.1403 198.74 81.2025 203.837 80.3865C219.055 77.9457 234.332 75.824 249.624 73.9174C252.995 73.4945 256.62 74.1103 259.991 74.8521C270.814 77.2187 278.729 84.0587 278.206 97.0043C278.004 102.056 277.72 107.101 276.913 112.183C276.105 106.114 275.306 100.053 274.498 93.9923C274.229 94.0517 273.953 94.1185 273.684 94.1778L273.691 94.163ZM207.126 283.888C207.268 283.681 207.402 283.473 207.544 283.265C208.389 261.224 209.226 239.191 210.071 217.15C210.467 224.583 209.884 231.98 209.794 239.391C209.615 254.459 209.57 269.533 209.742 284.593C209.809 290.662 211.857 292.628 217.777 293.703C217.836 293.088 217.926 292.494 217.956 291.893C218.883 273.502 219.585 255.097 220.789 236.728C221.977 218.597 223.696 200.495 225.086 182.379C225.198 180.925 225.012 178.528 224.145 178.061C219.062 175.323 213.733 173.031 208.157 170.427C208.12 182.631 208.082 194.523 208.045 206.415C207.2 194.694 207.238 182.987 207.23 171.273C207.23 170.457 207.178 169.381 206.677 168.862C202.813 164.848 198.844 160.939 194.793 156.888C194.143 162.341 195.234 167.652 197.648 172.341C202.484 181.763 202.589 191.874 203.09 201.964C203.456 209.435 203.561 216.927 203.785 224.405C204.076 224.42 204.368 224.435 204.659 224.443L205.422 216.957C205.818 229.851 205.623 242.685 205.407 255.527C205.28 263.057 204.951 270.587 205.055 278.109C205.085 280.038 206.401 281.952 207.133 283.874L207.126 283.888Z" fill="#EC1D23"/>
<path d="M261.569 158.257C260.881 155.542 260.395 153.643 259.685 150.853C258.796 153.843 258.161 155.965 257.398 158.509C260.986 158.873 264.446 159.214 268.288 159.6C268.632 156.217 268.767 153.049 269.372 149.963C269.589 148.843 270.792 147.337 271.801 147.114C272.698 146.914 274.148 148.042 274.985 148.932C277.803 151.892 278.147 155.438 277.078 159.251C276.831 160.127 276.869 161.084 277.609 162.107C278.513 157.953 279.417 153.798 280.382 149.355C279.515 148.821 278.393 148.131 277.212 147.404C284.582 146.899 291.825 146.395 299.067 145.898C299.172 146.194 299.276 146.491 299.381 146.788C297.057 147.411 294.695 148.657 292.415 148.524C288.185 148.286 284.956 150.341 283.237 153.287C281.675 155.965 282.018 159.733 281.376 164.036C284.388 163.176 286.182 162.664 288.528 161.996C286.189 158.094 283.229 154.184 288.11 150.861C290.494 149.236 296.115 150.49 296.915 151.714C294.485 153.005 291.997 154.325 289.515 155.646C289.537 156.106 289.56 156.573 289.582 157.033C291.548 157.73 293.514 158.435 296.302 159.429C295.233 161.21 294.216 162.909 292.998 164.934C294.089 165.513 295.465 166.232 296.376 166.714C295.861 168.22 295.016 169.674 294.919 171.173C294.627 175.602 289.941 179.059 285.77 177.531C285.031 177.264 284.231 175.973 284.231 175.149C284.216 172.694 284.709 170.231 284.746 167.768C284.769 166.581 284.231 165.386 283.947 164.192C283.566 164.266 283.177 164.348 282.796 164.422C282.616 166.21 282.444 167.998 282.25 169.778C281.817 173.651 279.41 176.507 276.547 176.552C273.318 176.604 271.016 173.992 270.56 169.734C270.493 169.125 270.366 168.458 270.523 167.887C271.809 163.242 269.11 162.115 264.753 161.929C264.499 164.392 264.454 166.944 263.908 169.393C263.609 170.728 262.481 171.878 261.726 173.109C261.315 171.774 260.836 170.461 260.522 169.103C260.395 168.554 260.612 167.916 260.687 167.219C258.392 167.256 256.285 167.293 254.184 167.33L253.796 166.343C255.021 165.869 256.247 165.386 257.645 164.845C255.051 161.506 253.4 159.184 249.76 161.929C248.751 162.686 246.733 162.122 244.587 162.182C250.141 156.38 247.996 150.579 245.753 143.702C248.609 143.494 251.875 143.249 255.141 143.012C255.268 143.375 255.395 143.731 255.522 144.095C248.616 146.892 253.243 153.131 250.275 157.775C252.562 157.849 253.968 157.886 255.746 157.946C256.016 155.267 256.15 152.827 256.546 150.423C256.912 148.197 257.555 146.009 258.116 143.665C263.378 146.439 265.164 153.138 261.576 158.25L261.569 158.257ZM278.446 168.317C278.453 167.627 278.603 166.974 278.438 166.41C278.124 165.364 277.631 164.363 277.205 163.346C276.301 164.192 275.052 164.882 274.596 165.913C274.081 167.078 274.066 168.584 274.238 169.89C274.357 170.795 275.164 171.618 275.665 172.471C276.428 171.781 277.317 171.18 277.9 170.372C278.304 169.823 278.281 168.97 278.438 168.317H278.446ZM288.768 164.993C288.461 164.867 288.162 164.741 287.856 164.615C287.452 166.878 286.772 169.148 286.794 171.41C286.794 172.137 288.633 172.85 289.627 173.562C290.016 172.449 290.875 171.255 290.703 170.231C290.39 168.428 289.448 166.729 288.768 164.993ZM274.664 157.552C273.976 155.69 273.475 154.325 272.967 152.96C272.16 154.028 270.882 155.015 270.687 156.18C270.493 157.352 271.383 158.702 271.801 159.971C272.676 159.229 273.55 158.495 274.664 157.552Z" fill="#F1EEE7"/>
<path d="M341.385 114.556L347.634 117.605C347.738 117.449 347.843 117.301 347.948 117.145C346.244 115.973 344.547 114.8 342.843 113.628C342.933 113.465 343.03 113.302 343.119 113.139C346.714 114.934 350.317 116.729 353.456 118.302C351.976 121.767 350.653 124.86 349.151 128.384C349.42 126.707 349.629 125.431 349.839 124.148C349.614 124.074 349.398 124 349.174 123.918C348.807 124.801 348.434 125.691 348.067 126.574C347.888 126.485 347.544 126.351 347.559 126.314C348.688 122.583 346.453 120.557 343.777 118.628C342.536 117.731 341.572 116.455 340.481 115.357C340.787 115.09 341.086 114.823 341.393 114.556H341.385Z" fill="#EC1D23"/>
<path d="M206.61 91.9443C215.28 93.888 223.958 95.8317 232.628 97.7754C232.583 97.9757 232.538 98.176 232.493 98.3763C223.756 96.4772 215.019 94.578 206.281 92.6788C206.393 92.434 206.498 92.1892 206.61 91.9443Z" fill="#EC1D23"/>
<path d="M230.363 354.811C249.699 357.615 269.034 360.419 288.333 363.216C287.115 368.06 285.993 372.296 284.984 376.562C284.491 378.662 283.467 379.834 281.128 379.574C269.147 378.246 257.158 377.015 245.192 375.583C242.321 375.242 240.475 374.426 240.468 370.271C240.468 363.594 236.649 358.431 229.907 355.871L230.363 354.811Z" fill="#EC1D23"/>
<path d="M336.176 343.813C334.666 344.971 333.261 346.299 331.639 347.271C322.371 352.805 312.012 354.979 301.488 356.232C279.118 358.896 257.016 356.633 235.221 351.514C228.525 349.941 222.119 347.107 215.699 344.622C255.835 355.401 295.815 361.314 336.176 343.813Z" fill="#EC1D23"/>
<path d="M291.48 360.863C303.297 358.934 315.107 356.998 327.76 354.928C315.645 360.039 303.933 362.547 291.48 360.863Z" fill="#EC1D23"/>
<path d="M339.39 325.061C339.366 328.028 337.325 329.18 333.269 328.518C335.496 327.264 337.724 326.003 339.39 325.061Z" fill="#EC1D23"/>
<path d="M330.503 360.959C327.872 364.15 325.241 367.332 322.61 370.522C322.229 370.211 321.855 369.906 321.474 369.595C324.052 366.36 326.638 363.118 329.217 359.884C329.643 360.24 330.076 360.603 330.503 360.959Z" fill="#EC1D23"/>
<path d="M207.126 283.886C206.401 281.965 205.078 280.051 205.049 278.122C204.944 270.599 205.273 263.069 205.4 255.539C205.617 242.705 205.811 229.863 205.415 216.969L204.652 224.455C204.361 224.44 204.069 224.425 203.778 224.418C203.554 216.94 203.449 209.447 203.083 201.976C202.582 191.887 202.485 181.775 197.642 172.354C195.235 167.665 194.144 162.353 194.786 156.9C198.837 160.951 202.814 164.861 206.67 168.874C207.164 169.386 207.216 170.469 207.224 171.285C207.231 182.999 207.201 194.706 208.038 206.428C208.076 194.535 208.113 182.636 208.15 170.439C213.726 173.036 219.055 175.336 224.138 178.073C225.005 178.541 225.192 180.93 225.08 182.391C223.689 200.515 221.97 218.609 220.782 236.74C219.578 255.116 218.876 273.515 217.949 291.906C217.919 292.507 217.83 293.107 217.77 293.716C211.85 292.64 209.802 290.674 209.735 284.606C209.563 269.538 209.608 254.471 209.787 239.404C209.877 232 210.46 224.596 210.064 217.162C209.219 239.203 208.382 261.237 207.537 283.278C207.395 283.485 207.261 283.693 207.119 283.901L207.126 283.886Z" fill="#F1EEE7"/>
<path d="M278.445 168.318C278.288 168.971 278.303 169.824 277.907 170.373C277.316 171.189 276.427 171.783 275.672 172.473C275.171 171.612 274.364 170.796 274.244 169.891C274.072 168.585 274.087 167.079 274.603 165.915C275.059 164.876 276.315 164.186 277.212 163.348C277.63 164.364 278.131 165.358 278.445 166.412C278.609 166.975 278.46 167.636 278.452 168.318H278.445Z" fill="#F1EEE7"/>
<path d="M288.766 164.996C289.447 166.739 290.388 168.43 290.702 170.233C290.882 171.249 290.022 172.444 289.626 173.564C288.632 172.845 286.793 172.132 286.793 171.413C286.778 169.15 287.451 166.887 287.855 164.617C288.161 164.743 288.46 164.869 288.766 164.996Z" fill="#F1EEE7"/>
<path d="M274.663 157.554C273.549 158.496 272.675 159.238 271.8 159.973C271.382 158.704 270.492 157.354 270.687 156.182C270.881 155.017 272.159 154.03 272.966 152.962C273.467 154.327 273.975 155.685 274.663 157.554Z" fill="#F1EEE7"/>
<path d="M137.854 20.3601C137.854 13.5571 131.517 34.6052 131.398 27.8023C131.346 24.6049 141.068 23.3453 144.058 23.2044C147.212 23.0486 140.628 21.2164 140.605 24.3545C140.486 37.8268 146.771 26.7031 146.487 40.1754C146.412 43.7067 147.429 44.9085 150.994 44.9975C165.98 45.3611 180.891 46.6519 195.084 51.8005C200.757 53.8555 206.229 56.7191 211.371 59.8943C218.285 64.1674 221.708 70.7997 221.857 78.9009C222.448 109.8 223.636 140.699 223.352 171.59C222.971 212.007 222.007 252.439 220.138 292.811C218.748 322.916 215.713 352.947 213.045 382.985C211.431 401.169 200.907 413.387 184.785 421.103C164.425 430.843 142.705 434.508 120.275 434.486C103.577 434.471 87.2985 431.949 71.6175 426.051C63.2688 422.913 57.0727 417.994 54.7781 408.795C48.7464 384.588 41.3693 360.67 36.3989 336.262C28.536 297.648 21.5626 258.834 15.4337 219.915C10.8669 190.886 8.13883 161.56 4.77542 132.345C3.12361 117.983 2.13701 103.546 0.365618 89.1981C-0.620982 81.1933 2.07722 75.3029 8.25094 70.4436C19.0437 61.9567 31.6677 57.5203 44.6879 53.9519C73.5459 46.051 103.054 44.2854 132.809 44.8566C138.026 44.9605 138.064 44.9085 138.101 39.6487C138.138 33.2167 138.108 26.7921 138.108 20.3601C138.026 20.3601 137.944 20.3601 137.862 20.3601H137.854ZM23.9618 149.638C23.6404 151.634 23.1845 153.622 23.0275 155.632C22.8631 157.702 22.9901 159.794 22.9901 161.872C22.5865 153.983 21.5775 149.764 19.9631 149.215C19.8584 149.838 19.6267 150.439 19.6791 151.025C20.0976 155.291 20.5909 159.549 21.0394 163.808C21.8242 171.293 22.026 178.897 23.5059 186.249C25.3221 195.256 27.9306 204.136 30.7484 212.897C31.8994 216.466 34.351 219.678 36.5335 222.838C37.8788 224.789 39.5456 226.815 41.5561 227.987C54.9649 235.814 69.6294 239.679 85.0637 240.821C108.69 242.572 132.084 240.443 155.314 236.259C161.189 235.198 166.937 233.44 173.103 231.911C172.236 230.85 171.892 230.428 171.503 229.953C179.418 230.754 186.086 227.267 192.909 224.329C195.623 223.165 196.99 221.206 197.603 218.246C199.285 210.145 201.445 202.14 203.149 194.046C205.003 185.233 206.998 176.405 208.09 167.48C209.129 159.008 206.976 155.944 199.068 152.487C191.22 149.052 183.365 145.543 175.248 142.835C171.04 141.426 166.279 141.344 161.749 141.262C156.622 141.173 153.812 144.393 152.549 149.126C148.385 164.757 144.148 180.359 140.089 196.02C139.491 198.334 138.953 201.131 139.723 203.223C140.799 206.139 142.182 208.713 140.709 211.814C140.672 211.903 141.001 212.155 141.315 212.519C144.275 210.219 146.838 211.065 149.514 215.012V201.888C150 201.888 150.493 201.873 150.979 201.873C150.979 207.4 150.822 212.934 151.076 218.446C151.151 220.019 152.287 221.614 153.199 223.046C153.655 223.758 154.686 224.114 155.531 224.678C152.668 227.304 149.671 227.282 148.154 224.567C147.279 223.009 147.175 221.043 146.651 219.277C146.255 217.949 145.732 216.651 145.269 215.338C144.813 215.434 144.357 215.523 143.901 215.62C143.811 216.859 143.565 218.113 143.654 219.344C143.781 221.065 144.402 222.772 144.342 224.47C144.312 225.398 143.325 226.303 142.772 227.215C142.234 226.414 141.322 225.657 141.218 224.804C140.358 217.816 140.239 210.746 137.339 204.062C136.457 202.036 136.868 199.247 137.301 196.917C138.445 190.745 139.925 184.632 141.27 178.497C141.016 178.393 140.754 178.289 140.5 178.185C138.191 182.725 135.889 187.266 133.631 191.695C134.446 191.613 135.717 191.479 137.279 191.316C137.69 196.465 132.66 193.52 131.322 195.901C131.935 196.331 132.607 196.799 133.28 197.266C133.235 197.548 133.19 197.837 133.145 198.119C127.129 198.572 121.112 199.024 115.813 199.417C115.506 200.604 115.559 201.843 114.976 202.385C112.218 204.93 110.753 209.959 112.277 213.179C112.614 213.891 113.802 214.707 114.475 214.618C115.103 214.529 116.104 213.209 116 212.593C115.828 211.584 114.856 210.724 114.288 209.767C113.892 209.099 113.152 208.216 113.339 207.712C113.645 206.903 114.505 205.931 115.282 205.768C115.902 205.634 116.814 206.547 117.487 207.118C117.823 207.407 118.025 207.979 118.085 208.446C118.944 214.73 119.826 221.013 120.551 227.312C120.649 228.18 120.215 229.53 119.565 229.968C118.137 230.917 116.269 232.156 114.834 231.889C113.473 231.637 111.814 229.804 111.395 228.35C110.588 225.539 110.581 222.504 110.215 219.567C110.087 218.558 109.886 217.564 109.676 216.347C105.775 218.899 105.117 220.42 105.364 225.568C105.476 227.861 106.014 230.361 102.195 231.31V222.2C99.4217 223.135 96.9477 223.973 94.4663 224.812C94.3168 224.389 94.1673 223.966 94.0178 223.543C95.3333 223.039 96.6413 222.542 97.9418 222.044C97.8745 219.359 96.4544 218.298 94.1225 218.298C92.2539 218.298 90.3928 218.446 88.9802 218.513C88.2029 212.252 91.0281 205.968 83.666 201.242C88.0609 200.404 91.6111 199.722 95.1614 199.039C95.4155 199.373 95.6696 199.714 95.9163 200.048C91.925 203.008 92.3212 206.866 93.1284 210.768C94.1673 215.813 94.3841 216.02 99.4292 215.813C101.657 215.724 103.869 215.286 106.096 215.056C108.555 214.804 109.519 213.387 109.497 211.05C109.467 207.385 109.49 203.72 109.49 199.87C108.01 199.328 106.119 198.639 104.22 197.941C104.325 197.6 104.422 197.251 104.527 196.91H120.29C114.101 195.063 106.41 197.481 103.308 190.211L103.832 189.016C105.409 189.514 106.993 190.011 108.57 190.5L109.572 189.944C107.337 184.246 105.102 178.556 102.867 172.859C103.084 172.673 103.301 172.488 103.518 172.302C105.917 175.032 108.316 177.762 110.708 180.492C111.029 180.314 111.358 180.129 111.679 179.951C111.455 178.601 111.373 177.206 110.984 175.908C110.11 173.007 108.794 170.21 108.196 167.257C107.464 163.637 107.382 159.891 106.851 156.226C106.007 150.387 105.184 144.512 100.715 140.053C99.3544 140.743 98.2109 141.641 96.9403 141.915C90.6395 143.251 84.3462 144.838 77.9557 145.513C73.0974 146.025 71.3111 149.742 68.426 152.242C68.1046 146.27 68.1943 146.582 74.1887 144.883C82.4552 142.531 90.5647 139.653 98.749 136.997C90.4601 130.787 81.6928 128.888 72.2678 130.602C62.7307 132.338 53.2234 134.259 43.761 136.374C39.3961 137.345 35.1806 138.977 30.8979 140.313C30.9652 140.684 31.0324 141.062 31.0997 141.433C33.8278 142.071 36.5634 142.702 39.7623 143.451C33.4092 144.156 27.527 144.816 21.0468 145.536C22.1381 147.168 22.9976 148.451 23.8497 149.727L23.9394 149.638H23.9618ZM146.958 154.178C147.249 154.23 147.548 154.29 147.84 154.342C148.916 151.656 150.202 149.03 151.031 146.27C153.161 139.193 157.003 137.701 163.999 137.687C167.183 137.687 170.606 137.954 173.521 139.096C182.887 142.768 192.125 146.76 201.296 150.907C208.725 154.267 211.902 160.098 210.96 168.311C210.153 175.336 209.039 182.154 209.525 189.528C210.907 210.345 210.878 231.288 210.571 252.164C210.175 279.228 209.054 306.284 208.075 333.332C207.798 340.959 204.128 347.257 198.829 352.621C190.764 360.781 180.667 365.596 169.956 369.105C146.039 376.932 121.426 378.504 96.4993 376.168C84.249 375.018 72.3351 372.265 61.8412 365.559C54.0904 360.611 47.1095 354.609 45.2634 345.039C38.5739 310.475 31.7948 275.926 25.6734 241.266C22.2577 221.926 20.0303 202.385 17.3321 182.918C14.8357 164.898 12.4216 146.864 10.0074 128.829C9.8579 127.723 9.98496 126.588 9.98496 125.461C10.3736 125.424 10.7623 125.379 11.1509 125.342C11.6592 127.738 12.429 130.105 12.6234 132.523C13.154 139.037 13.0718 145.617 13.9089 152.086C15.5682 164.943 17.519 177.77 19.6342 190.56C22.736 209.381 30.7185 225.895 44.5159 239.315C47.0871 241.815 48.694 244.419 49.2247 247.758C51.2951 260.933 53.3654 274.109 55.2789 287.307C57.3866 301.847 59.1954 316.425 61.4227 330.951C62.0954 335.335 63.7472 339.579 64.943 343.881C65.5111 343.778 66.0791 343.681 66.6546 343.577C64.0835 320.602 61.5049 297.619 58.9338 274.643C59.3448 274.598 59.7634 274.554 60.1745 274.502C63.5753 300.668 66.976 326.833 70.3768 352.999C70.7804 352.94 71.1766 352.888 71.5802 352.828C69.8536 339.26 68.1345 325.691 66.408 312.122C69.2332 325.572 71.4606 339.096 73.815 352.598C73.9794 353.548 75.0258 354.342 75.6611 355.202C76.6327 354.401 78.0977 353.763 78.449 352.754C78.9498 351.315 78.748 349.579 78.6508 347.991C78.2098 340.84 77.724 333.681 77.2157 326.537C75.7882 306.321 74.3531 286.105 72.8956 265.896C72.6266 262.165 72.2304 258.433 71.8567 254.316C73.2619 254.746 74.1289 254.902 74.8912 255.265C91.6634 263.151 109.549 265.162 127.742 264.227C142.511 263.47 157.25 261.794 171.959 260.125C180.405 259.168 188.836 257.283 195.615 251.808C207.469 242.238 208.568 228.885 207.806 215.056C207.806 214.96 207.41 214.878 207.432 214.885C201.206 219.492 197.521 225.405 196.265 233.046C195.817 235.762 193.777 238.373 191.998 240.673C190.129 243.091 187.528 244.085 184.576 242.06C187.364 239.82 190.832 238.069 192.67 235.265C194.531 232.423 194.786 228.543 195.63 225.494C150.045 242.928 103.981 248.626 56.0711 237.327C56.3701 242.757 56.684 248.425 56.9979 254.101C55.9665 248.974 55.6526 243.803 55.1368 238.655C55.0322 237.609 54.4417 236.162 53.6196 235.702C49.419 233.328 45.069 231.229 40.7788 229.018C39.5306 228.373 37.7817 228.017 37.1463 226.985C34.0819 222.052 30.7036 217.185 28.5584 211.851C20.6358 192.132 18.1169 171.308 16.779 150.298C16.4427 145.09 19.9182 142.687 23.887 140.632C37.3706 133.666 52.1322 131.314 66.8789 128.844C74.9436 127.493 82.8289 127.167 90.8786 129.467C100.677 132.264 106.485 138.443 108.256 148.147C109.654 155.788 110.349 163.563 111.373 171.271C111.485 172.102 111.732 172.918 111.919 173.741C112.218 173.719 112.524 173.697 112.823 173.675C113.346 169.431 113.862 165.188 114.385 160.944C114.654 160.944 114.923 160.959 115.192 160.966C117.442 167.74 119.699 174.52 121.949 181.294C123.399 173.957 122.741 166.59 124.7 159.594C125.156 159.594 125.619 159.594 126.075 159.594C127.181 165.714 128.287 171.827 129.461 178.319C134.528 174.335 139.506 171.761 138.916 163.637C137.862 149.126 138.49 134.482 138.676 119.889C138.721 116.358 137.481 115.586 134.319 116.165C131.382 116.707 128.407 117.018 125.44 117.337C124.61 117.426 123.75 117.189 122.906 117.1C122.921 116.877 122.943 116.655 122.958 116.432L131.591 115.149C130.821 114.778 130.088 114.741 129.356 114.785C106.679 116.017 84.0397 115.883 61.5348 112.433C45.9734 110.052 30.6961 106.743 16.9211 98.5901C11.3004 95.2666 7.52594 90.6224 4.96227 83.8195C18.386 99.0872 25.8378 101.936 40.6443 105.697C71.1242 113.442 102.135 114.659 133.355 111.484C138.505 110.957 138.512 110.809 138.482 105.519C138.4 89.1981 138.318 72.877 138.191 56.5633C138.176 54.5083 137.929 52.4533 137.765 50.1461C108.428 50.1313 79.7944 52.98 51.4371 58.7815C54.9649 57.7354 58.5227 56.9045 62.1103 56.2294C86.14 51.7114 110.364 49.1891 134.85 49.1743C135.776 49.1743 136.703 48.195 137.623 47.6757C136.741 47.238 135.851 46.4145 134.969 46.4071C102.703 46.3032 70.7729 49.0481 39.71 58.3363C29.4105 61.4151 19.6865 65.8811 10.9865 72.2464C5.14166 76.5269 1.92773 81.8832 2.80969 89.6951C6.01614 118.057 8.10145 146.567 11.9507 174.839C17.377 214.626 23.5059 254.331 30.2925 293.909C34.4855 318.361 40.2631 342.561 45.7043 366.79C48.6268 379.795 52.4685 392.6 55.6301 405.56C58.1041 415.702 64.8982 421.11 74.4577 424.152C91.0356 429.434 108.069 431.199 125.335 430.628C146.562 429.931 167.191 426.325 186.1 415.999C196.953 410.071 204.539 401.265 208.022 389.477C209.831 383.349 210.437 376.88 211.588 370.559C211.191 370.44 210.788 370.322 210.392 370.203C209.682 370.834 208.889 371.383 208.277 372.095C201.146 380.396 191.616 384.966 181.608 388.535C151.936 399.128 121.396 402.949 90.0864 398.631C81.5882 397.459 73.3067 394.751 64.9281 392.756C73.0227 393.572 80.8333 395.723 88.7859 396.725C121.702 400.872 153.617 396.205 184.479 384.521C190.637 382.192 196.25 378.274 201.819 374.639C204.696 372.762 206.176 369.684 205.474 365.893C205.272 364.817 205.788 363.482 206.296 362.421C208.396 358.036 210.646 353.719 212.761 349.342C213.12 348.592 213.172 347.672 213.239 346.819C214.45 330.921 216.087 315.045 216.737 299.125C217.941 269.732 219.047 240.317 219.308 210.902C219.675 169.491 219.256 128.079 219.099 86.6683C219.084 83.5895 218.516 80.5108 218.202 77.432C210.444 89.9622 198.254 95.6078 185.906 100.964C173.551 106.32 160.74 110.304 147.526 113.027C168.999 112.649 188.253 104.673 207.267 95.8601C188.888 107.789 168.252 112.953 146.943 115.549V154.178H146.958ZM146.913 50.3093V108.865C147.526 109.058 147.773 109.229 147.982 109.191C166.817 106.135 184.822 100.645 200.967 90.3034C206.139 86.9947 211.072 83.0702 213.912 77.2985C215.938 73.1811 216.005 69.2418 212.686 65.6586C207.761 60.3394 201.438 57.2161 194.793 54.7457C180.405 49.4042 165.247 48.1876 150.112 47.0154C148.953 46.9264 147.75 47.3493 146.569 47.5347L146.524 49.0852C160.763 50.1906 175.188 50.2722 188.731 55.3614C175.091 51.6447 161.122 50.8286 146.92 50.3019L146.913 50.3093ZM208.03 189.18L207.088 189.098C204.652 199.121 202.215 209.136 199.778 219.159C200.07 219.344 200.354 219.53 200.645 219.715C203.104 216.599 207.148 213.728 207.701 210.308C208.815 203.424 208.03 196.242 208.03 189.18ZM117.106 229.367C116.994 226.807 116.896 224.596 116.792 222.393C116.777 222.022 116.837 221.577 116.65 221.303C116.201 220.65 115.73 219.811 115.065 219.552C114.572 219.359 113.533 219.745 113.137 220.212C110.88 222.816 113.182 228.662 117.106 229.359V229.367ZM136.718 174.728C134.648 178.452 132.779 181.813 130.911 185.181C131.21 185.344 131.509 185.507 131.808 185.663C135.881 182.703 138.467 177.696 136.718 174.721V174.728ZM145 165.017C142.369 168.014 138.736 170.87 141.539 176.739C142.869 172.228 143.938 168.623 145 165.017Z" fill="#EC1D23"/>
<path d="M367.435 374.428C368.272 368.767 369.116 362.543 370.125 356.349C371.829 345.933 381.254 338.544 392.496 339.434C405.127 340.435 417.744 341.971 430.271 343.9C434.12 344.494 437.894 346.771 441.265 348.945C444.778 351.222 446.437 355.05 446.131 359.234C445.084 373.642 444.158 388.078 442.528 402.426C441.736 409.392 437.102 414.118 430.495 417.004C417.579 422.634 404.903 421.18 392.264 416.24C388.684 414.837 385.156 413.28 381.583 411.87C375.29 409.385 371.306 405.015 370.387 398.257C369.34 390.556 368.466 382.833 367.435 374.42V374.428ZM426.077 351.623C427.004 350.569 427.595 349.894 428.193 349.212C427.438 348.826 426.713 348.203 425.92 348.106C418.618 347.216 411.727 344.36 403.931 345.413C398.475 346.155 392.66 344.108 386.987 343.522C385.477 343.366 383.452 343.499 382.42 344.382C379.446 346.897 376.366 349.553 374.311 352.78C373.115 354.657 372.756 358.433 373.892 360.095C376.135 363.381 377.629 367.84 382.585 368.716C384.483 369.049 386.27 370.014 388.101 370.689C384.984 370.644 381.905 370.184 379.289 368.834C376.516 367.41 374.184 365.14 371.568 363.166C367.905 372.618 371.545 400.712 376.747 404.088C376.904 402.93 377.054 401.818 377.106 401.432C378.706 402.226 380.245 402.99 381.456 403.598C383.437 405.319 385.223 406.862 386.815 408.242C386.03 408.294 384.909 408.361 382.727 408.502C395.373 414.815 407.691 418.139 420.711 416.499C425.764 415.861 430.667 413.005 435.308 410.535C438.896 408.628 440.338 404.919 440.63 400.853C440.959 396.291 441.482 391.751 441.803 387.188C442.446 378.07 443.014 368.945 443.567 359.828C443.605 359.205 443.253 358.552 442.835 357.001C442.199 358.693 441.9 359.494 441.654 360.162C441.512 359.709 441.34 359.16 440.861 357.61C435.674 362.795 431.048 367.573 426.212 372.121C425.285 372.996 423.417 373.515 422.146 373.285C416.862 372.358 411.63 371.075 406.831 370.029C412.31 368.174 417.975 369.049 423.559 371.438C424.082 371.661 425.233 371.186 425.704 370.681C430.39 365.659 435.002 360.555 439.823 355.273C435.936 351.816 430.876 352.135 426.085 351.645L426.077 351.623ZM412.863 344.315C421.077 346.133 429.291 347.951 437.087 349.679C432.528 346.252 423.432 344.063 412.863 344.315Z" fill="#EC1D23"/>
<path d="M362.328 441.184C361.992 445.449 361.67 450.012 361.259 454.56C360.445 463.536 355.257 469.241 346.744 471.126C336.093 473.477 325.226 474.857 314.463 476.675C311.899 477.112 309.351 477.647 306.794 478.136C298.408 479.724 292.123 476.393 286.883 470.094C282.63 464.975 280.291 459.122 279.058 452.727C276.277 438.313 273.467 423.898 270.754 409.469C269.917 405.01 271.045 402.592 275.298 400.945C280.246 399.031 285.381 397.547 290.501 396.115C300.404 393.341 310.322 390.618 320.293 388.096C328.186 386.1 335.615 387.287 342.252 392.22C345.339 394.513 348.389 396.85 351.453 399.172C356.977 403.356 359.391 409.461 360.355 415.782C361.611 424.054 361.708 432.504 362.328 441.184ZM353.688 405.856C351.139 403.245 349.084 400.982 346.864 398.89C337.686 390.247 327.341 387.443 315.024 391.82C307.093 394.639 298.797 396.405 290.68 398.704C286.494 399.891 282.279 401.004 278.213 402.51C272.899 404.476 271.965 407.77 273.915 412.978C276.105 418.824 277.645 424.907 279.484 430.887C279.521 431.013 279.753 431.08 279.902 431.176C280.082 430.716 280.246 430.293 280.41 429.87C280.739 429.93 281.076 429.989 281.404 430.041C281.12 432.207 280.829 434.381 280.545 436.547C280.231 436.51 279.925 436.465 279.611 436.428C279.035 433.951 278.46 431.48 277.892 429.002C278.564 437.044 279.865 444.938 281.173 452.839C282.466 460.636 286.734 466.763 292.317 472.09C293.303 473.032 294.813 473.425 296.061 474.101C300.157 476.304 304.164 476.341 308.827 475.243C321.025 472.357 333.433 470.347 345.713 467.809C354.525 465.992 358.277 459.812 359.495 451.481C361.229 439.693 359.174 428.075 358.24 416.398C357.956 412.867 356.7 410.478 352.365 411.613C350.339 412.14 348.194 412.184 346.109 412.488C343.456 412.874 340.802 413.297 338.156 413.705C338.156 413.527 338.156 413.349 338.164 413.171L352.963 408.378C352.925 408.252 352.888 408.126 352.851 408H349.555C350.982 407.258 352.328 406.553 353.68 405.849L353.688 405.856Z" fill="#EC1D23"/>
<path d="M146.958 154.18V115.551C168.267 112.947 188.911 107.784 207.283 95.862C188.268 104.683 169.014 112.651 147.541 113.029C160.755 110.306 173.566 106.33 185.921 100.966C198.269 95.6098 210.459 89.9642 218.217 77.434C218.531 80.5128 219.099 83.5915 219.114 86.6703C219.271 128.081 219.69 169.5 219.324 210.904C219.062 240.319 217.956 269.734 216.752 299.127C216.102 315.047 214.465 330.923 213.254 346.821C213.187 347.674 213.142 348.594 212.776 349.344C210.661 353.721 208.404 358.038 206.311 362.423C205.803 363.484 205.287 364.819 205.489 365.895C206.191 369.686 204.711 372.764 201.834 374.641C196.266 378.277 190.652 382.194 184.494 384.523C153.632 396.208 121.717 400.866 88.8009 396.727C80.8409 395.725 73.0303 393.574 64.9431 392.758C73.3218 394.761 81.6032 397.461 90.1014 398.633C121.411 402.951 151.951 399.123 181.623 388.537C191.631 384.968 201.161 380.391 208.292 372.097C208.904 371.385 209.697 370.828 210.407 370.205C210.803 370.324 211.207 370.442 211.603 370.561C210.452 376.874 209.846 383.351 208.037 389.479C204.554 401.267 196.968 410.073 186.116 416.001C167.206 426.327 146.577 429.933 125.35 430.63C108.084 431.201 91.0507 429.436 74.4728 424.154C64.9132 421.112 58.1192 415.704 55.6452 405.563C52.4836 392.602 48.6418 379.805 45.7194 366.792C40.2782 342.563 34.5006 318.363 30.3075 293.911C23.5209 254.333 17.392 214.628 11.9657 174.841C8.10903 146.569 6.02371 118.066 2.82474 89.6971C1.94278 81.8852 5.16418 76.5289 11.0016 72.2484C19.7016 65.8757 29.4256 61.4171 39.7251 58.3383C70.788 49.0501 102.718 46.3052 134.984 46.4091C135.874 46.4091 136.756 47.2325 137.638 47.6777C136.711 48.197 135.784 49.1762 134.865 49.1762C110.387 49.1911 86.1625 51.7134 62.1254 56.2314C58.5377 56.9065 54.98 57.7374 51.4521 58.7834C79.8094 52.9894 108.436 50.1407 137.78 50.1481C137.937 52.4553 138.183 54.5103 138.206 56.5652C138.325 72.8864 138.415 89.2075 138.497 105.521C138.52 110.811 138.512 110.959 133.37 111.486C102.15 114.661 71.1318 113.437 40.6593 105.699C25.8529 101.938 18.4011 99.0892 4.97732 83.8215C7.54846 90.617 11.323 95.2611 16.9361 98.5921C30.7111 106.745 45.9885 110.054 61.5498 112.435C84.0622 115.885 106.694 116.019 129.371 114.787C130.104 114.75 130.836 114.787 131.606 115.151L122.973 116.434C122.958 116.657 122.936 116.879 122.921 117.102C123.765 117.191 124.632 117.428 125.455 117.339C128.422 117.02 131.404 116.701 134.334 116.167C137.496 115.588 138.736 116.36 138.691 119.891C138.505 134.476 137.877 149.121 138.931 163.639C139.521 171.755 134.543 174.337 129.476 178.321C128.302 171.829 127.196 165.716 126.09 159.596C125.634 159.596 125.171 159.596 124.715 159.596C122.749 166.592 123.414 173.959 121.964 181.296C119.714 174.522 117.457 167.742 115.207 160.968C114.938 160.968 114.669 160.954 114.4 160.946C113.877 165.19 113.361 169.433 112.838 173.677C112.539 173.699 112.233 173.721 111.934 173.743C111.747 172.92 111.5 172.111 111.388 171.273C110.364 163.558 109.669 155.79 108.271 148.149C106.492 138.438 100.685 132.258 90.8937 129.469C82.8439 127.176 74.9586 127.495 66.8939 128.846C52.1472 131.316 37.3856 133.668 23.9021 140.634C19.9333 142.681 16.4578 145.085 16.7941 150.3C18.1395 171.31 20.6583 192.127 28.5735 211.853C30.7186 217.187 34.097 222.061 37.1614 226.987C37.8042 228.018 39.5457 228.375 40.7939 229.02C45.0841 231.231 49.4341 233.338 53.6346 235.704C54.4568 236.172 55.0473 237.611 55.1519 238.657C55.6676 243.805 55.9815 248.969 57.013 254.103C56.6991 248.427 56.3851 242.759 56.0862 237.329C103.996 248.635 150.06 242.93 195.645 225.496C194.793 228.545 194.546 232.425 192.685 235.267C190.847 238.071 187.379 239.829 184.591 242.062C187.543 244.087 190.144 243.093 192.013 240.675C193.792 238.375 195.832 235.764 196.28 233.048C197.544 225.407 201.228 219.502 207.447 214.887C207.432 214.887 207.821 214.962 207.821 215.058C208.583 228.886 207.477 242.24 195.63 251.81C188.851 257.285 180.42 259.17 171.974 260.127C157.265 261.796 142.526 263.472 127.757 264.229C109.564 265.156 91.6785 263.146 74.9063 255.267C74.1365 254.904 73.2694 254.748 71.8718 254.318C72.2455 258.435 72.6416 262.159 72.9107 265.898C74.3682 286.107 75.8032 306.323 77.2308 326.539C77.739 333.69 78.2249 340.842 78.6658 347.994C78.763 349.589 78.9648 351.317 78.464 352.756C78.1128 353.773 76.6403 354.403 75.6762 355.204C75.0408 354.336 73.9944 353.543 73.83 352.6C71.4831 339.098 69.2483 325.574 66.423 312.124C68.1496 325.693 69.8687 339.262 71.5952 352.83C71.1916 352.89 70.7955 352.942 70.3919 353.001C66.9911 326.835 63.5903 300.67 60.1895 274.504C59.7784 274.549 59.3599 274.593 58.9488 274.645C61.5199 297.621 64.0986 320.604 66.6697 343.579C66.1017 343.683 65.5336 343.78 64.9581 343.884C63.7547 339.581 62.1104 335.337 61.4377 330.953C59.2104 316.434 57.4016 301.849 55.2939 287.309C53.3805 274.111 51.3101 260.935 49.2398 247.76C48.7166 244.421 47.1096 241.817 44.531 239.317C30.7261 225.897 22.7511 209.39 19.6493 190.562C17.5415 177.772 15.5833 164.945 13.924 152.088C13.0869 145.619 13.1766 139.039 12.6384 132.525C12.4441 130.107 11.6742 127.733 11.166 125.344C10.7773 125.381 10.3887 125.425 10 125.463C10 126.583 9.87295 127.725 10.0224 128.831C12.4366 146.865 14.8508 164.893 17.3472 182.92C20.0454 202.38 22.2727 221.928 25.6884 241.268C31.8098 275.928 38.589 310.485 45.2784 345.041C47.132 354.611 54.113 360.613 61.8563 365.561C72.3576 372.267 84.2641 375.027 96.5143 376.17C121.433 378.499 146.046 376.926 169.971 369.107C180.682 365.605 190.779 360.783 198.844 352.623C204.143 347.259 207.813 340.968 208.09 333.334C209.069 306.278 210.19 279.23 210.586 252.166C210.893 231.283 210.923 210.34 209.54 189.53C209.046 182.149 210.168 175.338 210.975 168.313C211.917 160.1 208.74 154.269 201.311 150.909C192.147 146.769 182.902 142.77 173.536 139.098C170.621 137.956 167.198 137.681 164.014 137.689C157.018 137.703 153.177 139.195 151.046 146.272C150.217 149.032 148.931 151.658 147.855 154.344C147.563 154.292 147.264 154.232 146.973 154.18H146.958ZM27.0712 108.006L12.5936 100.106C12.3768 100.558 12.1675 101.011 11.9508 101.471C17.0183 103.622 22.0859 105.773 27.1534 107.932C27.8186 108.4 28.4091 109.045 29.149 109.312C54.5689 118.459 80.9231 120.648 107.703 119.631C108.197 119.609 108.682 119.476 109.168 119.364C109.609 119.261 110.035 119.112 111.164 118.771C87.919 119.721 70.3171 118.526 48.171 113.964C41.0331 112.495 34.1119 110.024 27.0786 108.021L27.0712 108.006ZM196.901 385.302C199.696 383.255 202.484 381.207 205.279 379.159C204.995 378.788 204.711 378.425 204.42 378.054C201.527 380.369 198.635 382.683 195.772 385.035C195.772 385.035 196.206 385.569 196.437 385.858C193.537 387.424 190.75 389.271 187.708 390.495C180.487 393.403 173.148 396.022 165.86 398.752C180.084 395.176 195.286 393.841 206.401 380.74C202.619 382.55 199.756 383.922 196.893 385.302H196.901ZM55.7125 394.256C57.0578 400.266 57.9323 405.459 59.4795 410.437C60.1372 412.543 61.8189 414.984 63.7248 415.949C70.1377 419.183 76.73 422.18 83.5092 424.547C87.4854 425.934 91.9401 425.956 96.178 426.594C92.1569 424.844 91.9177 424.272 94.4514 421.446C93.8087 421.483 93.2032 421.52 92.8968 421.542C92.2316 419.599 91.5963 417.759 90.819 415.511C90.8937 415.511 90.1986 415.511 89.0476 415.511C90.0566 414.636 90.7517 414.027 91.4692 413.404C87.8741 413.463 89.2643 408.782 85.8336 407.966C82.8215 407.254 80.3999 404.376 77.5148 402.825C74.2411 401.067 70.7955 399.598 67.3349 398.233C63.9939 396.92 60.5408 395.896 55.705 394.271L55.7125 394.256ZM210.444 343.023C208.904 345.382 207.791 347.237 206.535 348.995C197.663 361.392 185.166 368.959 171.092 373.811C144.925 382.832 117.95 385.421 90.4901 381.622C73.5385 379.278 58.2686 373.224 46.5715 360.138C46.3472 359.886 45.8689 359.856 45.256 359.626C47.9691 365.798 52.521 369.775 57.6931 373.106C66.4903 378.774 76.2068 382.231 86.4839 383.9C116.747 388.819 146.495 387.157 175.36 376.14C188.769 371.021 200.212 363.18 208.673 351.451C210.332 349.151 211.558 346.68 210.444 343.023ZM212.26 155.419C213.77 138.668 214.398 121.916 212.26 105.217V155.419ZM9.26006 118.578H10.5531C9.89537 112.013 9.23764 105.447 8.58738 98.874C8.408 98.8814 8.22862 98.8889 8.04923 98.9037C8.45284 105.462 8.85645 112.02 9.25259 118.578H9.26006Z" fill="#F1EEE7"/>
<path d="M23.872 149.726C23.0199 148.45 22.1604 147.167 21.0691 145.534C27.5493 144.815 33.4315 144.155 39.7846 143.45C36.5857 142.708 33.8501 142.07 31.122 141.432C31.0547 141.061 30.9875 140.683 30.9202 140.312C35.2029 138.976 39.4184 137.352 43.7834 136.372C53.2457 134.258 62.753 132.337 72.2901 130.601C81.7151 128.887 90.4899 130.779 98.7713 136.996C90.5945 139.651 82.4775 142.537 74.211 144.882C68.2166 146.58 68.1269 146.269 68.4483 152.241C71.3259 149.741 73.1123 146.024 77.978 145.512C84.361 144.844 90.6543 143.249 96.9626 141.914C98.2407 141.647 99.3767 140.742 100.737 140.052C105.207 144.511 106.029 150.394 106.873 156.225C107.404 159.89 107.494 163.636 108.219 167.256C108.817 170.202 110.132 173.006 111.007 175.906C111.395 177.205 111.478 178.599 111.702 179.95C111.38 180.128 111.052 180.313 110.73 180.491C108.331 177.761 105.932 175.031 103.54 172.301C103.323 172.486 103.106 172.672 102.89 172.857C105.124 178.555 107.359 184.245 109.594 189.943L108.592 190.499C107.015 190.002 105.431 189.505 103.854 189.015L103.331 190.21C106.44 197.48 114.131 195.062 120.312 196.909H104.549C104.444 197.25 104.347 197.599 104.242 197.94C106.141 198.63 108.032 199.327 109.512 199.869C109.512 203.719 109.489 207.384 109.519 211.049C109.542 213.386 108.578 214.803 106.119 215.055C103.891 215.285 101.679 215.723 99.4515 215.812C94.4064 216.019 94.1971 215.812 93.1507 210.767C92.3435 206.857 91.9473 203.007 95.9386 200.047C95.6845 199.713 95.4303 199.372 95.1837 199.038C91.6334 199.72 88.0832 200.396 83.6883 201.241C91.0504 205.96 88.2252 212.243 89.0025 218.512C90.4151 218.445 92.2762 218.297 94.1448 218.297C96.4767 218.297 97.8894 219.358 97.9641 222.043C96.6711 222.54 95.3556 223.037 94.0401 223.542C94.1896 223.965 94.3391 224.388 94.4886 224.81C96.97 223.972 99.444 223.134 102.217 222.199V231.309C106.036 230.36 105.498 227.86 105.386 225.567C105.139 220.419 105.797 218.89 109.699 216.346C109.908 217.562 110.11 218.557 110.237 219.565C110.603 222.503 110.611 225.537 111.418 228.349C111.836 229.803 113.488 231.636 114.856 231.888C116.283 232.155 118.152 230.909 119.587 229.966C120.245 229.536 120.678 228.179 120.574 227.311C119.849 221.012 118.967 214.728 118.107 208.445C118.04 207.977 117.846 207.406 117.509 207.117C116.844 206.538 115.925 205.633 115.304 205.767C114.527 205.93 113.667 206.894 113.361 207.71C113.174 208.215 113.907 209.098 114.31 209.765C114.886 210.722 115.85 211.583 116.022 212.592C116.127 213.208 115.132 214.528 114.497 214.617C113.824 214.706 112.636 213.89 112.3 213.178C110.775 209.958 112.24 204.921 114.998 202.384C115.588 201.842 115.529 200.603 115.835 199.416C121.134 199.016 127.151 198.571 133.168 198.118C133.213 197.836 133.257 197.547 133.302 197.265C132.63 196.798 131.957 196.33 131.344 195.9C132.682 193.526 137.712 196.464 137.301 191.315C135.739 191.478 134.476 191.612 133.654 191.693C135.903 187.265 138.213 182.724 140.522 178.184C140.777 178.288 141.038 178.392 141.292 178.496C139.947 184.631 138.467 190.744 137.323 196.916C136.89 199.246 136.479 202.035 137.361 204.06C140.261 210.745 140.38 217.815 141.24 224.803C141.345 225.656 142.256 226.413 142.795 227.214C143.348 226.302 144.334 225.404 144.364 224.469C144.417 222.77 143.804 221.064 143.677 219.343C143.587 218.119 143.826 216.865 143.923 215.619C144.379 215.522 144.835 215.433 145.291 215.337C145.754 216.65 146.278 217.941 146.674 219.276C147.197 221.034 147.309 223.008 148.176 224.566C149.693 227.273 152.69 227.303 155.553 224.677C154.709 224.113 153.677 223.757 153.221 223.045C152.317 221.62 151.173 220.018 151.098 218.445C150.844 212.933 151.001 207.399 151.001 201.872C150.515 201.872 150.022 201.887 149.536 201.887V215.01C146.861 211.056 144.297 210.21 141.337 212.518C141.016 212.154 140.687 211.895 140.732 211.813C142.197 208.712 140.814 206.138 139.745 203.222C138.975 201.13 139.513 198.333 140.111 196.019C144.17 180.365 148.408 164.756 152.571 149.125C153.834 144.392 156.644 141.18 161.772 141.261C166.294 141.335 171.062 141.424 175.27 142.834C183.38 145.542 191.243 149.058 199.091 152.486C206.998 155.943 209.151 159.007 208.112 167.479C207.013 176.404 205.018 185.224 203.171 194.045C201.475 202.139 199.307 210.144 197.626 218.245C197.013 221.205 195.645 223.156 192.932 224.328C186.115 227.266 179.448 230.753 171.526 229.952C171.914 230.426 172.251 230.842 173.125 231.91C166.959 233.438 161.211 235.204 155.336 236.257C132.106 240.442 108.712 242.571 85.086 240.82C69.6592 239.678 54.9947 235.812 41.5784 227.986C39.5679 226.814 37.9011 224.796 36.5558 222.837C34.3733 219.677 31.9217 216.464 30.7707 212.896C27.9454 204.135 25.3369 195.254 23.5282 186.248C22.0483 178.896 21.8465 171.299 21.0617 163.807C20.6132 159.541 20.1274 155.29 19.7014 151.024C19.6416 150.446 19.8807 149.837 19.9854 149.214C21.5998 149.763 22.6088 153.982 23.0124 161.87C23.0124 159.786 22.8854 157.694 23.0498 155.631C23.2068 153.621 23.6627 151.633 23.9841 149.637C25.1426 152.115 26.3086 154.593 27.4671 157.07C27.1382 157.197 26.8094 157.323 26.488 157.449C26.7197 155.75 26.9514 154.051 27.1831 152.345C27.5344 152.33 27.8782 152.315 28.2295 152.3C28.7302 153.777 29.231 155.253 29.7467 156.789V151.21C27.6764 150.683 25.7854 150.208 23.8944 149.726H23.872ZM128.818 231.695C126.994 225.055 125.297 218.646 123.466 212.28C122.225 207.97 123.197 205.648 127.599 204.543C125.671 208.586 132.166 212.199 127.286 216.227C127.106 216.375 127.42 217.154 127.562 217.622C128.384 220.463 129.431 223.26 129.991 226.146C130.686 229.685 132.667 230.834 136.247 230.211C133.99 225.834 130.843 221.791 131.68 216.672C132.069 216.531 132.45 216.398 132.839 216.257C134.027 219.684 135.216 223.119 136.584 227.073C139.237 223.408 138.108 219.165 134.229 214.61C135.119 212.696 135.941 210.915 136.763 209.135C134.917 209.313 133.063 209.483 130.813 209.699C130.739 208.044 130.656 206.152 130.567 204.179C131.979 204.246 133.063 204.298 134.289 204.357V200.67H118.944C119.505 202.74 120.043 204.246 120.305 205.796C121.396 212.132 122.382 218.482 123.459 224.818C123.683 226.146 123.974 227.511 124.52 228.742C125.424 230.782 126.949 231.984 128.825 231.702L128.818 231.695ZM182.475 176.248C182.655 176.248 182.827 176.24 183.006 176.233C183.836 174.148 184.882 172.123 185.465 169.979C186.893 164.704 186.691 164.118 181.459 162.419C179.015 161.626 176.257 161.789 173.641 161.522C173.439 161.974 173.237 162.434 173.035 162.887C178.185 166.21 184.284 169.096 180.412 176.812C181.018 175.283 181.631 173.755 182.475 171.618V176.248ZM98.0164 199.031C97.7548 203.919 97.5231 208.245 97.2914 212.57C97.5904 212.866 97.8819 213.156 98.1809 213.452C100.61 205.67 103.353 212.54 105.932 212.725C106.253 208.066 103.166 202.421 98.0164 199.031ZM45.338 160.817C45.0764 160.839 44.8223 160.854 44.5607 160.876C45.9733 174.215 47.3934 187.546 48.806 200.885C49.1872 200.848 49.5609 200.804 49.9421 200.767C48.4099 187.45 46.8777 174.133 45.338 160.809V160.817ZM53.2906 229.885L54.1202 229.781C52.9318 221.198 51.7359 212.607 50.5475 204.023C50.3532 204.046 50.1589 204.075 49.9645 204.098C51.0707 212.696 52.1769 221.294 53.2831 229.892L53.2906 229.885ZM143.609 209.283C147.384 207.97 147.578 206.16 144.633 202.035C144.289 204.483 143.983 206.612 143.609 209.283Z" fill="#F1EEE7"/>
<path d="M79.6055 223.233L102.049 233.005L113.558 234.154H136.577H157.294V218.06L156.143 199.092L146.935 197.942L141.181 211.737L139.454 212.312L135.426 203.115L136.577 195.643L137.728 191.619L138.303 187.596L140.605 178.399C139.07 177.824 136.231 175.525 137.152 170.927C138.073 166.329 135.234 165.562 133.699 165.754L126.218 150.809L111.832 161.73V173.8L110.681 176.1L104.926 170.927H102.049V180.698L92.8412 195.643L80.7564 199.092L79.6055 223.233Z" fill="#F1EEE7"/>
<path d="M146.914 50.3104C161.115 50.8371 175.084 51.6531 188.725 55.3699C175.181 50.2807 160.763 50.1991 146.518 49.0937L146.562 47.5432C147.743 47.3577 148.947 46.9349 150.105 47.0239C165.248 48.196 180.398 49.4053 194.786 54.7541C201.438 57.2246 207.754 60.3478 212.68 65.667C215.998 69.2503 215.938 73.1896 213.905 77.307C211.065 83.0787 206.132 87.0032 200.96 90.3119C184.816 100.646 166.803 106.143 147.975 109.2C147.758 109.237 147.512 109.066 146.906 108.873V50.3178L146.914 50.3104Z" fill="#F1EEE7"/>
<path d="M208.03 189.179C208.03 196.242 208.815 203.423 207.701 210.308C207.148 213.735 203.112 216.599 200.645 219.715C200.354 219.529 200.07 219.344 199.778 219.158C202.215 209.136 204.652 199.12 207.088 189.098L208.03 189.179Z" fill="#F1EEE7"/>
<path d="M117.106 229.366C113.182 228.669 110.88 222.815 113.137 220.219C113.541 219.751 114.572 219.366 115.065 219.559C115.731 219.818 116.202 220.649 116.65 221.309C116.837 221.576 116.77 222.029 116.792 222.4C116.897 224.603 116.994 226.807 117.106 229.374V229.366Z" fill="#F1EEE7"/>
<path d="M136.718 174.728C138.467 177.702 135.881 182.703 131.808 185.67C131.509 185.507 131.21 185.344 130.911 185.188C132.779 181.82 134.655 178.452 136.718 174.735V174.728Z" fill="#F1EEE7"/>
<path d="M145 165.019C143.938 168.624 142.869 172.23 141.539 176.74C138.736 170.864 142.369 168.016 145 165.019Z" fill="#F1EEE7"/>
<path d="M426.077 351.621C430.868 352.111 435.92 351.799 439.814 355.249C434.994 360.531 430.389 365.635 425.696 370.657C425.225 371.162 424.074 371.637 423.551 371.414C417.975 369.025 412.302 368.15 406.823 370.004C411.622 371.058 416.846 372.334 422.138 373.261C423.408 373.484 425.27 372.964 426.204 372.097C431.04 367.549 435.659 362.779 440.853 357.586C441.332 359.136 441.504 359.685 441.646 360.138C441.9 359.47 442.199 358.669 442.827 356.977C443.245 358.535 443.596 359.181 443.559 359.804C443.006 368.929 442.43 378.046 441.795 387.164C441.474 391.726 440.951 396.267 440.622 400.829C440.33 404.902 438.888 408.604 435.3 410.51C430.666 412.981 425.755 415.837 420.703 416.475C407.683 418.115 395.358 414.791 382.719 408.478C384.901 408.337 386.03 408.27 386.807 408.218C385.215 406.838 383.429 405.288 381.448 403.574C380.237 402.973 378.698 402.209 377.098 401.408C377.046 401.801 376.896 402.906 376.739 404.064C371.537 400.688 367.897 372.601 371.56 363.142C374.176 365.116 376.508 367.386 379.281 368.81C381.897 370.16 384.983 370.62 388.093 370.665C386.254 369.99 384.475 369.025 382.577 368.691C377.621 367.823 376.126 363.357 373.884 360.071C372.748 358.409 373.114 354.633 374.303 352.756C376.358 349.536 379.438 346.88 382.412 344.358C383.451 343.483 385.477 343.342 386.979 343.497C392.659 344.084 398.474 346.131 403.923 345.389C411.719 344.336 418.603 347.185 425.912 348.082C426.705 348.179 427.43 348.809 428.185 349.188C427.587 349.87 426.989 350.545 426.069 351.599L426.077 351.621ZM407.287 377.809V377.527C409.484 377.69 411.681 377.853 414.731 378.083C413.318 378.87 412.661 379.241 412.04 379.582C412.87 379.879 413.983 379.923 414.424 380.494C417.369 384.285 417.324 384.322 419.372 381.822C421.181 390.25 423.154 399.397 425.12 408.545C425.494 408.463 425.868 408.389 426.234 408.307C425.449 397.35 421.503 386.556 424.597 375.368C418.707 376.199 412.997 377 407.287 377.809Z" fill="#F1EEE7"/>
<path d="M412.862 344.317C423.431 344.064 432.527 346.253 437.086 349.68C429.291 347.952 421.076 346.134 412.862 344.317Z" fill="#F1EEE7"/>
<path d="M353.688 405.859C352.336 406.564 350.99 407.268 349.563 408.01H352.859C352.896 408.136 352.934 408.263 352.971 408.389L338.172 413.181C338.172 413.359 338.172 413.537 338.164 413.715C340.818 413.307 343.464 412.884 346.117 412.499C348.202 412.194 350.355 412.157 352.373 411.623C356.708 410.488 357.964 412.877 358.248 416.408C359.182 428.085 361.23 439.703 359.503 451.491C358.278 459.822 354.533 465.995 345.721 467.82C333.433 470.357 321.034 472.367 308.836 475.253C304.172 476.359 300.165 476.314 296.07 474.111C294.814 473.436 293.312 473.043 292.325 472.1C286.749 466.774 282.474 460.646 281.181 452.849C279.873 444.955 278.572 437.054 277.9 429.013C278.475 431.49 279.051 433.961 279.619 436.439C279.933 436.476 280.239 436.52 280.553 436.557C280.837 434.391 281.129 432.218 281.413 430.051C281.084 429.992 280.747 429.933 280.419 429.881C280.254 430.303 280.09 430.719 279.91 431.186C279.761 431.09 279.529 431.023 279.492 430.897C277.653 424.925 276.113 418.834 273.923 412.988C271.973 407.78 272.899 404.494 278.221 402.52C282.287 401.015 286.51 399.902 290.688 398.715C298.805 396.415 307.109 394.642 315.032 391.83C327.349 387.453 337.694 390.25 346.872 398.9C349.092 400.992 351.147 403.255 353.696 405.866L353.688 405.859ZM301.451 466.915C301.892 466.885 302.333 466.855 302.781 466.826C301.989 453.813 301.204 440.808 300.412 427.796C299.949 427.818 299.485 427.848 299.022 427.87C299.837 440.883 300.644 453.902 301.458 466.915H301.451ZM295.09 420.043C299.896 424.435 301.272 424.472 308.26 420.696C304.209 416.831 299.724 421.49 295.09 420.043Z" fill="#F1EEE7"/>
<path d="M55.7129 394.253C60.5412 395.885 64.0018 396.902 67.3428 398.215C70.8034 399.58 74.249 401.049 77.5227 402.807C80.4078 404.357 82.8369 407.236 85.8415 407.948C89.2797 408.764 87.8895 413.445 91.4771 413.386C90.7596 414.009 90.057 414.617 89.0555 415.493C90.2065 415.493 90.9016 415.493 90.8269 415.493C91.5967 417.741 92.232 419.58 92.9047 421.524C93.2111 421.502 93.8166 421.472 94.4593 421.428C91.9256 424.254 92.1647 424.826 96.1859 426.576C91.948 425.938 87.4859 425.916 83.5171 424.529C76.7379 422.162 70.1456 419.165 63.7327 415.931C61.8343 414.974 60.1451 412.533 59.4874 410.418C57.9402 405.44 57.0657 400.247 55.7204 394.238L55.7129 394.253Z" fill="#EC1D23"/>
<path d="M210.445 343.02C211.558 346.677 210.332 349.155 208.673 351.447C200.205 363.169 188.762 371.01 175.36 376.137C146.502 387.161 116.755 388.815 86.4843 383.896C76.2072 382.227 66.4907 378.77 57.6935 373.102C52.5213 369.771 47.9695 365.795 45.2563 359.623C45.8692 359.853 46.3476 359.882 46.5718 360.134C58.269 373.221 73.5389 379.275 90.4904 381.619C117.951 385.417 144.925 382.836 171.093 373.807C185.167 368.955 197.664 361.388 206.535 348.992C207.791 347.233 208.912 345.371 210.445 343.02Z" fill="#EC1D23"/>
<path d="M196.901 385.299C199.764 383.926 202.626 382.554 206.408 380.736C195.294 393.838 180.092 395.173 165.868 398.749C173.156 396.011 180.495 393.4 187.715 390.492C190.757 389.268 193.545 387.421 196.445 385.87C196.595 385.692 196.752 385.492 196.909 385.291L196.901 385.299Z" fill="#EC1D23"/>
<path d="M27.0709 108.007C34.0967 110.018 41.0179 112.488 48.1558 113.957C70.302 118.52 87.9113 119.714 111.149 118.764C110.02 119.106 109.594 119.254 109.153 119.358C108.675 119.469 108.181 119.603 107.688 119.625C80.9079 120.649 54.5537 118.453 29.1338 109.306C28.4014 109.039 27.8034 108.393 27.1382 107.926L27.0635 108.007H27.0709Z" fill="#EC1D23"/>
<path d="M212.261 155.415V105.213C214.398 121.912 213.77 138.664 212.261 155.415Z" fill="#EC1D23"/>
<path d="M9.26048 118.574C8.85687 112.016 8.45326 105.458 8.05713 98.8998C8.23651 98.8924 8.41589 98.885 8.59527 98.8701C9.25301 105.436 9.91074 112.009 10.561 118.574H9.26796H9.26048Z" fill="#EC1D23"/>
<path d="M27.1469 107.925C22.0794 105.774 17.0119 103.623 11.9443 101.464C12.1611 101.011 12.3704 100.559 12.5871 100.099C17.4155 102.732 22.2364 105.366 27.0647 108L27.1395 107.918L27.1469 107.925Z" fill="#EC1D23"/>
<path d="M196.901 385.301C196.744 385.501 196.587 385.694 196.438 385.88C196.213 385.576 195.772 385.042 195.78 385.042C198.643 382.69 201.535 380.375 204.428 378.061C204.712 378.431 204.996 378.795 205.287 379.166C202.492 381.213 199.704 383.261 196.908 385.309L196.901 385.301Z" fill="#EC1D23"/>
<path d="M128.818 231.695C126.942 231.977 125.418 230.776 124.513 228.735C123.968 227.511 123.676 226.146 123.452 224.811C122.376 218.475 121.389 212.125 120.298 205.789C120.029 204.239 119.498 202.74 118.938 200.663H134.282V204.35C133.064 204.291 131.98 204.239 130.56 204.172C130.65 206.145 130.732 208.037 130.807 209.692C133.056 209.476 134.91 209.306 136.756 209.128C135.934 210.908 135.112 212.689 134.222 214.603C138.101 219.165 139.23 223.401 136.577 227.066C135.209 223.105 134.021 219.677 132.832 216.25C132.443 216.391 132.062 216.524 131.674 216.665C130.836 221.784 133.983 225.827 136.24 230.204C132.66 230.827 130.68 229.678 129.984 226.139C129.416 223.246 128.37 220.456 127.555 217.615C127.421 217.147 127.107 216.368 127.279 216.22C132.167 212.192 125.672 208.579 127.593 204.536C123.198 205.641 122.226 207.963 123.459 212.273C125.291 218.639 126.987 225.048 128.811 231.688L128.818 231.695Z" fill="#EC1D23"/>
<path d="M182.476 176.25V171.62C181.631 173.757 181.018 175.285 180.413 176.813C184.284 169.105 178.185 166.212 173.036 162.888C173.237 162.436 173.439 161.976 173.641 161.523C176.257 161.791 179.015 161.627 181.459 162.421C186.691 164.127 186.893 164.713 185.465 169.981C184.882 172.132 183.843 174.157 183.006 176.235C182.827 176.235 182.655 176.242 182.476 176.25Z" fill="#EC1D23"/>
<path d="M98.0175 199.031C103.175 202.422 106.254 208.067 105.933 212.726C103.354 212.541 100.611 205.671 98.1819 213.453C97.8829 213.156 97.5915 212.867 97.2925 212.57C97.5242 208.245 97.7559 203.92 98.0175 199.031Z" fill="#EC1D23"/>
<path d="M45.3379 160.816C46.8701 174.133 48.4023 187.449 49.942 200.773C49.5608 200.811 49.1871 200.855 48.8059 200.892C47.3933 187.553 45.9732 174.222 44.5605 160.883C44.8221 160.861 45.0763 160.846 45.3379 160.824V160.816Z" fill="#EC1D23"/>
<path d="M194.879 172.896C192.12 186.014 189.361 199.131 186.607 212.259C186.234 212.174 185.865 212.098 185.492 212.013C188.371 198.912 191.241 185.815 194.12 172.714C194.376 172.775 194.622 172.841 194.877 172.903L194.879 172.896Z" fill="#EC1D23"/>
<path d="M359.51 128.719C356.596 136.728 353.683 144.736 350.771 152.751C350.559 152.674 350.348 152.602 350.135 152.524C353.118 144.534 356.095 136.546 359.078 128.556C359.224 128.611 359.363 128.668 359.508 128.723L359.51 128.719Z" fill="#EC1D23"/>
<path d="M53.2912 229.887C52.185 221.288 51.0788 212.69 49.9727 204.092C50.167 204.07 50.3613 204.04 50.5556 204.018C51.7441 212.601 52.9399 221.192 54.1283 229.775L53.2987 229.879L53.2912 229.887Z" fill="#EC1D23"/>
<path d="M234.228 142.388C234.539 133.724 234.85 125.061 235.161 116.397C235.357 116.407 235.553 116.409 235.749 116.419C235.521 125.081 235.3 133.752 235.072 142.414L234.237 142.381L234.228 142.388Z" fill="#EC1D23"/>
<path d="M23.8721 149.727C25.7631 150.209 27.6466 150.684 29.7244 151.21V156.789C29.2012 155.254 28.7004 153.777 28.2071 152.301C27.8558 152.316 27.512 152.331 27.1607 152.346C26.929 154.044 26.6973 155.743 26.4656 157.45C26.7945 157.323 27.1234 157.197 27.4448 157.071C26.2862 154.593 25.1277 152.116 23.9618 149.638L23.8721 149.727Z" fill="#EC1D23"/>
<path d="M143.609 209.283C143.991 206.613 144.29 204.491 144.633 202.035C147.571 206.153 147.384 207.97 143.609 209.283Z" fill="#EC1D23"/>
<path d="M301.45 466.913C300.636 453.9 299.828 440.881 299.014 427.868C299.477 427.846 299.94 427.816 300.404 427.794C301.196 440.806 301.981 453.811 302.773 466.824C302.332 466.853 301.891 466.883 301.443 466.913H301.45Z" fill="#EC1D23"/>
<path d="M295.09 420.041C299.724 421.488 304.209 416.829 308.26 420.694C301.264 424.47 299.896 424.433 295.09 420.041Z" fill="#EC1D23"/>
<path d="M91.6904 215.185L103.2 216.334L116.436 220.933L122.766 233.003H134.851L146.935 228.98L149.813 216.334V205.988L145.784 201.39L142.332 202.539V212.886L140.03 214.035L135.426 207.712L134.851 198.516L130.247 197.366H111.832L91.6904 198.516V215.185Z" fill="#F1EEE7"/>
<path d="M99.7475 210.586C117.702 208.286 114.134 196.216 109.53 171.5L110.106 161.153C111.449 169.584 114.249 188.628 114.71 197.365C115.285 208.286 105.502 212.885 102.049 212.885C98.5966 212.885 91.6909 214.609 90.54 214.609C89.3891 214.609 80.7571 216.334 76.1533 216.334C72.4703 216.334 61.5748 217.866 56.5874 218.633C62.1119 215.874 87.6627 212.118 99.7475 210.586Z" fill="#EC1D23"/>
<path d="M140.03 166.246V163.62C132.664 162.569 117.779 166.683 111.257 168.872L110.106 170.185L110.681 171.498C118.968 167.297 133.7 166.246 140.03 166.246Z" fill="#EC1D23"/>
<path d="M137.728 208.288H135.426V210.587H137.728V208.288Z" fill="#F1EEE7"/>
<path d="M140.605 213.46C139.224 213.46 138.879 210.011 138.879 208.287C138.879 207.712 137.728 200.814 142.332 208.286C144.687 212.11 165.926 216.334 165.926 218.058C159.596 218.058 142.332 213.46 140.605 213.46Z" fill="#EC1D23"/>
<path d="M302.312 140.46L308.642 123.791L305.765 101.949L291.954 100.225H280.444L276.992 114.02L272.388 105.398H267.209V119.193L263.756 130.114V137.586L267.209 148.507H278.718L297.133 147.358L302.312 140.46Z" fill="#F1EEE7"/>
<path d="M273.539 144.483C268.935 146.208 259.727 149.082 272.963 143.334C279.293 141.609 276.416 123.791 276.416 104.248C277.567 101.949 278.143 108.846 278.143 111.145C278.143 112.984 277.951 119.384 278.143 122.066L278.142 131.263C278.142 133.608 277.951 137.969 277.567 139.885C276.991 141.226 275.316 143.817 273.539 144.483Z" fill="#EC1D23"/>
<path d="M273.539 147.359L291.954 143.91L295.982 145.634L300.586 144.485L297.708 150.807L297.133 157.705L301.161 162.303L311.519 156.555L315.548 153.681L323.029 161.728L327.057 182.996L306.34 184.72H282.746L257.425 176.673L243.614 168.051V155.406V140.461L246.492 141.611L252.246 139.312L260.303 143.91L265.482 147.359H273.539Z" fill="#F1EEE7"/>
<path d="M317.849 166.901C312.785 165.522 305.189 161.728 302.312 160.004C300.01 157.705 299.665 155.061 302.887 158.28C306.11 161.498 314.588 164.985 318.425 166.327C320.343 167.093 322.913 168.281 317.849 166.901Z" fill="#EC1D23"/>
<path d="M312.095 116.894C297.363 111.836 282.938 112.104 277.567 112.871V113.446C297.709 112.871 308.643 116.894 312.671 118.044L312.095 116.894Z" fill="#EC1D23"/>
</svg>
