<svg width="34" height="33" viewBox="0 0 34 33" fill="none" xmlns="http://www.w3.org/2000/svg">
<path d="M8.19191 15.2083C9.51516 15.2083 10.7091 14.4405 11.5257 13.3478C12.7945 11.6499 14.3936 10.237 16.2214 9.21537C17.4064 8.55303 18.4347 7.56904 18.9334 6.26076C19.2823 5.34533 19.4615 4.36844 19.4615 3.38249V2.29167C19.4615 1.5783 20.0126 1 20.6923 1C22.7315 1 24.3846 2.7349 24.3846 4.875C24.3846 6.85836 23.9587 8.73731 23.1975 10.4166C22.7617 11.3782 23.3731 12.625 24.3877 12.625M24.3877 12.625H29.5173C31.202 12.625 32.71 13.8202 32.8884 15.5784C32.9622 16.3055 33 17.044 33 17.7917C33 22.6959 31.3723 27.2012 28.6529 30.7449C28.0169 31.5738 27.0336 32 26.0195 32H19.4291C18.6354 32 17.8469 31.8657 17.0939 31.6023L11.983 29.8144C11.23 29.551 10.4415 29.4167 9.6478 29.4167H6.99665M24.3877 12.625H20.6923M6.99665 29.4167C7.13254 29.769 7.28043 30.1149 7.43976 30.4538C7.76327 31.1419 7.31171 32 6.58059 32H5.09089C3.63249 32 2.27986 31.1079 1.85425 29.6439C1.2988 27.7334 1 25.7054 1 23.6042C1 20.9305 1.48378 18.3754 2.36449 16.03C2.8651 14.6969 4.14639 13.9167 5.51177 13.9167H7.23937C8.0138 13.9167 8.46224 14.8741 8.06019 15.5687C6.70401 17.9119 5.92308 20.6623 5.92308 23.6042C5.92308 25.6597 6.30432 27.6217 6.99665 29.4167Z" stroke="#F1EEE7" stroke-width="2" stroke-linecap="round" stroke-linejoin="round"/>
</svg>
