<svg width="207" height="47" viewBox="0 0 207 47" fill="none" xmlns="http://www.w3.org/2000/svg">
<path fill-rule="evenodd" clip-rule="evenodd" d="M1.00008 0C0.4478 0 7.62939e-05 0.447715 7.62939e-05 1V3.22053C7.62939e-05 3.77281 0.4478 4.22053 1.00008 4.22053C1.55237 4.22053 2.00008 3.77281 2.00008 3.22053V1C2.00008 0.447715 1.55237 0 1.00008 0ZM1.00008 6.66158C0.4478 6.66158 7.62939e-05 7.1093 7.62939e-05 7.66158V12.1026C7.62939e-05 12.6549 0.4478 13.1026 1.00008 13.1026C1.55237 13.1026 2.00008 12.6549 2.00008 12.1026V7.66158C2.00008 7.1093 1.55237 6.66158 1.00008 6.66158ZM1.00008 15.5437C0.4478 15.5437 7.62939e-05 15.9914 7.62939e-05 16.5437V20.9847C7.62939e-05 21.537 0.4478 21.9847 1.00008 21.9847C1.55237 21.9847 2.00008 21.537 2.00008 20.9847V16.5437C2.00008 15.9914 1.55237 15.5437 1.00008 15.5437ZM1.00008 24.4258C0.4478 24.4258 7.62939e-05 24.8735 7.62939e-05 25.4258V29.8668C7.62939e-05 30.4191 0.4478 30.8668 1.00008 30.8668C1.55237 30.8668 2.00008 30.4191 2.00008 29.8668V25.4258C2.00008 24.8735 1.55237 24.4258 1.00008 24.4258ZM1.00008 33.3079C0.4478 33.3079 7.62939e-05 33.7556 7.62939e-05 34.3079V38.7489C7.62939e-05 39.3012 0.4478 39.7489 1.00008 39.7489C1.55237 39.7489 2.00008 39.3012 2.00008 38.7489V34.3079C2.00008 33.7556 1.55237 33.3079 1.00008 33.3079ZM1.00008 42.19C0.4478 42.19 7.62939e-05 42.6377 7.62939e-05 43.19V45.4105C7.62939e-05 45.9628 0.4478 46.4105 1.00008 46.4105H3.42943C3.98172 46.4105 4.42943 45.9628 4.42943 45.4105C4.42943 44.8582 3.98172 44.4105 3.42943 44.4105H2.00008V43.19C2.00008 42.6377 1.55237 42.19 1.00008 42.19ZM206.072 45.4105C206.072 44.8582 205.624 44.4105 205.072 44.4105H202.642C202.09 44.4105 201.642 44.8582 201.642 45.4105C201.642 45.9628 202.09 46.4105 202.642 46.4105H205.072C205.624 46.4105 206.072 45.9628 206.072 45.4105ZM198.784 45.4105C198.784 44.8582 198.336 44.4105 197.784 44.4105H192.925C192.372 44.4105 191.925 44.8582 191.925 45.4105C191.925 45.9628 192.372 46.4105 192.925 46.4105H197.784C198.336 46.4105 198.784 45.9628 198.784 45.4105ZM189.066 45.4105C189.066 44.8582 188.618 44.4105 188.066 44.4105H183.207C182.655 44.4105 182.207 44.8582 182.207 45.4105C182.207 45.9628 182.655 46.4105 183.207 46.4105H188.066C188.618 46.4105 189.066 45.9628 189.066 45.4105ZM179.348 45.4105C179.348 44.8582 178.9 44.4105 178.348 44.4105H173.489C172.937 44.4105 172.489 44.8582 172.489 45.4105C172.489 45.9628 172.937 46.4105 173.489 46.4105H178.348C178.9 46.4105 179.348 45.9628 179.348 45.4105ZM169.63 45.4105C169.63 44.8582 169.183 44.4105 168.63 44.4105H163.772C163.219 44.4105 162.772 44.8582 162.772 45.4105C162.772 45.9628 163.219 46.4105 163.772 46.4105H168.63C169.183 46.4105 169.63 45.9628 169.63 45.4105ZM159.913 45.4105C159.913 44.8582 159.465 44.4105 158.913 44.4105H154.054C153.502 44.4105 153.054 44.8582 153.054 45.4105C153.054 45.9628 153.502 46.4105 154.054 46.4105H158.913C159.465 46.4105 159.913 45.9628 159.913 45.4105ZM150.195 45.4105C150.195 44.8582 149.747 44.4105 149.195 44.4105H144.336C143.784 44.4105 143.336 44.8582 143.336 45.4105C143.336 45.9628 143.784 46.4105 144.336 46.4105H149.195C149.747 46.4105 150.195 45.9628 150.195 45.4105ZM140.477 45.4105C140.477 44.8582 140.03 44.4105 139.477 44.4105H134.618C134.066 44.4105 133.618 44.8582 133.618 45.4105C133.618 45.9628 134.066 46.4105 134.618 46.4105H139.477C140.03 46.4105 140.477 45.9628 140.477 45.4105ZM130.76 45.4105C130.76 44.8582 130.312 44.4105 129.76 44.4105H124.901C124.348 44.4105 123.901 44.8582 123.901 45.4105C123.901 45.9628 124.348 46.4105 124.901 46.4105H129.76C130.312 46.4105 130.76 45.9628 130.76 45.4105ZM121.042 45.4105C121.042 44.8582 120.594 44.4105 120.042 44.4105H115.183C114.631 44.4105 114.183 44.8582 114.183 45.4105C114.183 45.9628 114.631 46.4105 115.183 46.4105H120.042C120.594 46.4105 121.042 45.9628 121.042 45.4105ZM111.324 45.4105C111.324 44.8582 110.877 44.4105 110.324 44.4105H105.465C104.913 44.4105 104.465 44.8582 104.465 45.4105C104.465 45.9628 104.913 46.4105 105.465 46.4105H110.324C110.877 46.4105 111.324 45.9628 111.324 45.4105ZM101.607 45.4105C101.607 44.8582 101.159 44.4105 100.607 44.4105H95.7477C95.1954 44.4105 94.7477 44.8582 94.7477 45.4105C94.7477 45.9628 95.1954 46.4105 95.7477 46.4105H100.607C101.159 46.4105 101.607 45.9628 101.607 45.4105ZM91.8888 45.4105C91.8888 44.8582 91.4411 44.4105 90.8888 44.4105H86.03C85.4777 44.4105 85.03 44.8582 85.03 45.4105C85.03 45.9628 85.4777 46.4105 86.03 46.4105H90.8888C91.4411 46.4105 91.8888 45.9628 91.8888 45.4105ZM82.1711 45.4105C82.1711 44.8582 81.7234 44.4105 81.1711 44.4105H76.3123C75.76 44.4105 75.3123 44.8582 75.3123 45.4105C75.3123 45.9628 75.76 46.4105 76.3123 46.4105H81.1711C81.7234 46.4105 82.1711 45.9628 82.1711 45.4105ZM72.4534 45.4105C72.4534 44.8582 72.0057 44.4105 71.4534 44.4105H66.5946C66.0423 44.4105 65.5946 44.8582 65.5946 45.4105C65.5946 45.9628 66.0423 46.4105 66.5946 46.4105H71.4534C72.0057 46.4105 72.4534 45.9628 72.4534 45.4105ZM62.7357 45.4105C62.7357 44.8582 62.288 44.4105 61.7357 44.4105H56.8768C56.3246 44.4105 55.8768 44.8582 55.8768 45.4105C55.8768 45.9628 56.3246 46.4105 56.8768 46.4105H61.7357C62.288 46.4105 62.7357 45.9628 62.7357 45.4105ZM53.018 45.4105C53.018 44.8582 52.5703 44.4105 52.018 44.4105H47.1591C46.6069 44.4105 46.1591 44.8582 46.1591 45.4105C46.1591 45.9628 46.6069 46.4105 47.1591 46.4105H52.018C52.5703 46.4105 53.018 45.9628 53.018 45.4105ZM43.3003 45.4105C43.3003 44.8582 42.8526 44.4105 42.3003 44.4105H37.4414C36.8891 44.4105 36.4414 44.8582 36.4414 45.4105C36.4414 45.9628 36.8891 46.4105 37.4414 46.4105H42.3003C42.8526 46.4105 43.3003 45.9628 43.3003 45.4105ZM33.5826 45.4105C33.5826 44.8582 33.1349 44.4105 32.5826 44.4105H27.7237C27.1714 44.4105 26.7237 44.8582 26.7237 45.4105C26.7237 45.9628 27.1714 46.4105 27.7237 46.4105H32.5826C33.1349 46.4105 33.5826 45.9628 33.5826 45.4105ZM23.8649 45.4105C23.8649 44.8582 23.4171 44.4105 22.8649 44.4105H18.006C17.4537 44.4105 17.006 44.8582 17.006 45.4105C17.006 45.9628 17.4537 46.4105 18.006 46.4105H22.8649C23.4171 46.4105 23.8649 45.9628 23.8649 45.4105ZM14.1471 45.4105C14.1471 44.8582 13.6994 44.4105 13.1471 44.4105H8.28828C7.73601 44.4105 7.28828 44.8582 7.28828 45.4105C7.28828 45.9628 7.73601 46.4105 8.28828 46.4105H13.1471C13.6994 46.4105 14.1471 45.9628 14.1471 45.4105Z" fill="#EC1D23"/>
</svg>
