<svg width="663" height="945" viewBox="0 0 663 945" fill="none" xmlns="http://www.w3.org/2000/svg">
<path d="M7.81996 278.806C3.72198 278.806 0.399902 275.483 0.399902 271.385L0.399902 261.844C0.399902 257.746 3.72198 254.423 7.81996 254.423H17.36C21.458 254.423 24.7801 257.746 24.7801 261.844V271.385C24.7801 275.483 21.458 278.806 17.36 278.806H7.81996Z" fill="#EC1D23"/>
<path d="M645.945 278.806C641.847 278.806 638.525 275.483 638.525 271.385V261.844C638.525 257.746 641.847 254.423 645.945 254.423H655.485C659.583 254.423 662.905 257.746 662.905 261.844V271.385C662.905 275.483 659.583 278.806 655.485 278.806H645.945Z" fill="#EC1D23"/>
<path d="M56.5803 271.385C56.5803 275.483 53.2583 278.806 49.1603 278.806H39.6202C35.5222 278.806 32.2002 275.483 32.2002 271.385V261.844C32.2002 257.746 35.5222 254.423 39.6202 254.423H49.1603C53.2583 254.423 56.5803 257.746 56.5803 261.844V271.385Z" fill="#EC1D23"/>
<path d="M56.5803 16.9606C56.5803 21.0589 53.2583 24.3813 49.1603 24.3813H39.6202C35.5222 24.3813 32.2002 21.0589 32.2002 16.9606V7.41968C32.2002 3.32135 35.5222 -0.0010376 39.6202 -0.0010376H49.1603C53.2583 -0.0010376 56.5803 3.32135 56.5803 7.41968V16.9606Z" fill="#EC1D23"/>
<path d="M342.783 271.385C342.783 275.483 339.461 278.806 335.363 278.806H325.823C321.725 278.806 318.402 275.483 318.402 271.385V261.844C318.402 257.746 321.725 254.423 325.823 254.423H335.363C339.461 254.423 342.783 257.746 342.783 261.844V271.385Z" fill="#EC1D23"/>
<path d="M342.783 16.9606C342.783 21.0589 339.461 24.3813 335.363 24.3813H325.823C321.725 24.3813 318.402 21.0589 318.402 16.9606V7.41968C318.402 3.32135 321.725 -0.0010376 325.823 -0.0010376H335.363C339.461 -0.0010376 342.783 3.32135 342.783 7.41968V16.9606Z" fill="#EC1D23"/>
<path d="M7.81996 247.003C3.72198 247.003 0.399902 243.68 0.399902 239.582L0.399902 230.041C0.399902 225.943 3.72198 222.62 7.81996 222.62H17.36C21.458 222.62 24.7801 225.943 24.7801 230.041V239.582C24.7801 243.68 21.458 247.003 17.36 247.003H7.81996Z" fill="#EC1D23"/>
<path d="M88.3775 271.385C88.3775 275.483 85.0554 278.806 80.9574 278.806H71.4174C67.3194 278.806 63.9973 275.483 63.9973 271.385V261.844C63.9973 257.746 67.3194 254.423 71.4174 254.423H80.9574C85.0554 254.423 88.3775 257.746 88.3775 261.844V271.385Z" fill="#EC1D23"/>
<path d="M88.3775 16.9606C88.3775 21.0589 85.0554 24.3813 80.9574 24.3813H71.4174C67.3194 24.3813 63.9973 21.0589 63.9973 16.9606V7.41968C63.9973 3.32135 67.3194 -0.0010376 71.4174 -0.0010376H80.9574C85.0554 -0.0010376 88.3775 3.32135 88.3775 7.41968V16.9606Z" fill="#EC1D23"/>
<path d="M645.945 247.003C641.847 247.003 638.525 243.68 638.525 239.582V230.041C638.525 225.943 641.847 222.62 645.945 222.62H655.485C659.583 222.62 662.905 225.943 662.905 230.041V239.582C662.905 243.68 659.583 247.003 655.485 247.003H645.945Z" fill="#EC1D23"/>
<path d="M374.58 271.385C374.58 275.483 371.258 278.806 367.16 278.806H357.62C353.522 278.806 350.2 275.483 350.2 271.385V261.844C350.2 257.746 353.522 254.423 357.62 254.423H367.16C371.258 254.423 374.58 257.746 374.58 261.844V271.385Z" fill="#EC1D23"/>
<path d="M374.58 16.9606C374.58 21.0589 371.258 24.3813 367.16 24.3813H357.62C353.522 24.3813 350.2 21.0589 350.2 16.9606V7.41968C350.2 3.32135 353.522 -0.0010376 357.62 -0.0010376H367.16C371.258 -0.0010376 374.58 3.32135 374.58 7.41968V16.9606Z" fill="#EC1D23"/>
<path d="M120.174 271.385C120.174 275.483 116.852 278.806 112.754 278.806H103.214C99.116 278.806 95.7939 275.483 95.7939 271.385V261.844C95.7939 257.746 99.116 254.423 103.214 254.423H112.754C116.852 254.423 120.174 257.746 120.174 261.844V271.385Z" fill="#EC1D23"/>
<path d="M120.174 16.9606C120.174 21.0589 116.852 24.3813 112.754 24.3813H103.214C99.116 24.3813 95.7939 21.0589 95.7939 16.9606V7.41968C95.7939 3.32135 99.116 -0.0010376 103.214 -0.0010376H112.754C116.852 -0.0010376 120.174 3.32135 120.174 7.41968V16.9606Z" fill="#EC1D23"/>
<path d="M7.81996 215.2C3.72198 215.2 0.399902 211.877 0.399902 207.779L0.399902 198.238C0.399902 194.14 3.72198 190.817 7.81996 190.817H17.36C21.458 190.817 24.7801 194.14 24.7801 198.238V207.779C24.7801 211.877 21.458 215.2 17.36 215.2H7.81996Z" fill="#EC1D23"/>
<path d="M645.945 215.2C641.847 215.2 638.525 211.877 638.525 207.779V198.238C638.525 194.14 641.847 190.817 645.945 190.817H655.485C659.583 190.817 662.905 194.14 662.905 198.238V207.779C662.905 211.877 659.583 215.2 655.485 215.2H645.945Z" fill="#EC1D23"/>
<path d="M151.971 271.385C151.971 275.483 148.649 278.806 144.551 278.806H135.011C130.913 278.806 127.591 275.483 127.591 271.385V261.844C127.591 257.746 130.913 254.423 135.011 254.423H144.551C148.649 254.423 151.971 257.746 151.971 261.844V271.385Z" fill="#EC1D23"/>
<path d="M151.971 16.9606C151.971 21.0589 148.649 24.3813 144.551 24.3813H135.011C130.913 24.3813 127.591 21.0589 127.591 16.9606V7.41968C127.591 3.32135 130.913 -0.0010376 135.011 -0.0010376H144.551C148.649 -0.0010376 151.971 3.32135 151.971 7.41968V16.9606Z" fill="#EC1D23"/>
<path d="M406.377 271.385C406.377 275.483 403.055 278.806 398.957 278.806H389.417C385.319 278.806 381.997 275.483 381.997 271.385V261.844C381.997 257.746 385.319 254.423 389.417 254.423H398.957C403.055 254.423 406.377 257.746 406.377 261.844V271.385Z" fill="#EC1D23"/>
<path d="M406.377 16.9606C406.377 21.0589 403.055 24.3813 398.957 24.3813H389.417C385.319 24.3813 381.997 21.0589 381.997 16.9606V7.41968C381.997 3.32135 385.319 -0.0010376 389.417 -0.0010376H398.957C403.055 -0.0010376 406.377 3.32135 406.377 7.41968V16.9606Z" fill="#EC1D23"/>
<path d="M7.81996 183.397C3.72198 183.397 0.399902 180.074 0.399902 175.976L0.399902 166.435C0.399902 162.337 3.72198 159.014 7.81996 159.014H17.36C21.458 159.014 24.7801 162.337 24.7801 166.435V175.976C24.7801 180.074 21.458 183.397 17.36 183.397H7.81996Z" fill="#EC1D23"/>
<path d="M247.363 271.385C247.363 275.483 244.041 278.806 239.943 278.806H230.403C226.305 278.806 222.983 275.483 222.983 271.385V261.844C222.983 257.746 226.305 254.423 230.403 254.423H239.943C244.041 254.423 247.363 257.746 247.363 261.844V271.385Z" fill="#EC1D23"/>
<path d="M247.363 16.9606C247.363 21.0589 244.041 24.3813 239.943 24.3813H230.403C226.305 24.3813 222.983 21.0589 222.983 16.9606V7.41968C222.983 3.32135 226.305 -0.0010376 230.403 -0.0010376H239.943C244.041 -0.0010376 247.363 3.32135 247.363 7.41968V16.9606Z" fill="#EC1D23"/>
<path d="M645.945 183.397C641.847 183.397 638.525 180.074 638.525 175.976V166.435C638.525 162.337 641.847 159.014 645.945 159.014H655.485C659.583 159.014 662.905 162.337 662.905 166.435V175.976C662.905 180.074 659.583 183.397 655.485 183.397H645.945Z" fill="#EC1D23"/>
<path d="M438.173 271.385C438.173 275.483 434.851 278.806 430.753 278.806H421.213C417.115 278.806 413.793 275.483 413.793 271.385V261.844C413.793 257.746 417.115 254.423 421.213 254.423H430.753C434.851 254.423 438.173 257.746 438.173 261.844V271.385Z" fill="#EC1D23"/>
<path d="M438.173 16.9606C438.173 21.0589 434.851 24.3813 430.753 24.3813H421.213C417.115 24.3813 413.793 21.0589 413.793 16.9606V7.41968C413.793 3.32135 417.115 -0.0010376 421.213 -0.0010376H430.753C434.851 -0.0010376 438.173 3.32135 438.173 7.41968V16.9606Z" fill="#EC1D23"/>
<path d="M183.769 271.385C183.769 275.483 180.447 278.806 176.349 278.806H166.809C162.711 278.806 159.389 275.483 159.389 271.385V261.844C159.389 257.746 162.711 254.423 166.809 254.423H176.349C180.447 254.423 183.769 257.746 183.769 261.844V271.385Z" fill="#EC1D23"/>
<path d="M183.769 16.9606C183.769 21.0589 180.447 24.3813 176.349 24.3813H166.809C162.711 24.3813 159.389 21.0589 159.389 16.9606V7.41968C159.389 3.32135 162.711 -0.0010376 166.809 -0.0010376H176.349C180.447 -0.0010376 183.769 3.32135 183.769 7.41968V16.9606Z" fill="#EC1D23"/>
<path d="M7.81996 87.9874C3.72198 87.9874 0.399902 84.665 0.399902 80.5667L0.399902 71.0258C0.399902 66.9274 3.72198 63.6051 7.81996 63.6051H17.36C21.458 63.6051 24.7801 66.9274 24.7801 71.0258V80.5667C24.7801 84.665 21.458 87.9874 17.36 87.9874H7.81996Z" fill="#EC1D23"/>
<path d="M645.945 87.9874C641.847 87.9874 638.525 84.665 638.525 80.5667V71.0258C638.525 66.9274 641.847 63.6051 645.945 63.6051H655.485C659.583 63.6051 662.905 66.9274 662.905 71.0258V80.5667C662.905 84.665 659.583 87.9874 655.485 87.9874H645.945Z" fill="#EC1D23"/>
<path d="M279.161 271.385C279.161 275.483 275.839 278.806 271.741 278.806H262.201C258.103 278.806 254.781 275.483 254.781 271.385V261.844C254.781 257.746 258.103 254.423 262.201 254.423H271.741C275.839 254.423 279.161 257.746 279.161 261.844V271.385Z" fill="#EC1D23"/>
<path d="M279.161 16.9606C279.161 21.0589 275.839 24.3813 271.741 24.3813H262.201C258.103 24.3813 254.781 21.0589 254.781 16.9606V7.41968C254.781 3.32135 258.103 -0.0010376 262.201 -0.0010376H271.741C275.839 -0.0010376 279.161 3.32135 279.161 7.41968V16.9606Z" fill="#EC1D23"/>
<path d="M533.566 271.385C533.566 275.483 530.243 278.806 526.145 278.806H516.605C512.507 278.806 509.185 275.483 509.185 271.385V261.844C509.185 257.746 512.507 254.423 516.605 254.423H526.145C530.243 254.423 533.566 257.746 533.566 261.844V271.385Z" fill="#EC1D23"/>
<path d="M533.566 16.9606C533.566 21.0589 530.243 24.3813 526.145 24.3813H516.605C512.507 24.3813 509.185 21.0589 509.185 16.9606V7.41968C509.185 3.32135 512.507 -0.0010376 516.605 -0.0010376H526.145C530.243 -0.0010376 533.566 3.32135 533.566 7.41968V16.9606Z" fill="#EC1D23"/>
<path d="M7.81996 151.593C3.72198 151.593 0.399902 148.271 0.399902 144.173L0.399902 134.632C0.399902 130.534 3.72198 127.211 7.81996 127.211H17.36C21.458 127.211 24.7801 130.534 24.7801 134.632V144.173C24.7801 148.271 21.458 151.593 17.36 151.593H7.81996Z" fill="#EC1D23"/>
<path d="M215.567 271.385C215.567 275.483 212.245 278.806 208.147 278.806H198.607C194.509 278.806 191.187 275.483 191.187 271.385V261.844C191.187 257.746 194.509 254.423 198.607 254.423H208.147C212.245 254.423 215.567 257.746 215.567 261.844V271.385Z" fill="#EC1D23"/>
<path d="M215.567 16.9606C215.567 21.0589 212.245 24.3813 208.147 24.3813H198.607C194.509 24.3813 191.187 21.0589 191.187 16.9606V7.41968C191.187 3.32135 194.509 -0.0010376 198.607 -0.0010376H208.147C212.245 -0.0010376 215.567 3.32135 215.567 7.41968V16.9606Z" fill="#EC1D23"/>
<path d="M645.945 151.593C641.847 151.593 638.525 148.271 638.525 144.173V134.632C638.525 130.534 641.847 127.211 645.945 127.211H655.485C659.583 127.211 662.905 130.534 662.905 134.632V144.173C662.905 148.271 659.583 151.593 655.485 151.593H645.945Z" fill="#EC1D23"/>
<path d="M469.971 271.385C469.971 275.483 466.649 278.806 462.551 278.806H453.011C448.913 278.806 445.591 275.483 445.591 271.385V261.844C445.591 257.746 448.913 254.423 453.011 254.423H462.551C466.649 254.423 469.971 257.746 469.971 261.844V271.385Z" fill="#EC1D23"/>
<path d="M469.971 16.9606C469.971 21.0589 466.649 24.3813 462.551 24.3813H453.011C448.913 24.3813 445.591 21.0589 445.591 16.9606V7.41968C445.591 3.32135 448.913 -0.0010376 453.011 -0.0010376H462.551C466.649 -0.0010376 469.971 3.32135 469.971 7.41968V16.9606Z" fill="#EC1D23"/>
<path d="M310.958 271.385C310.958 275.483 307.635 278.806 303.537 278.806H293.997C289.899 278.806 286.577 275.483 286.577 271.385V261.844C286.577 257.746 289.899 254.423 293.997 254.423H303.537C307.635 254.423 310.958 257.746 310.958 261.844V271.385Z" fill="#EC1D23"/>
<path d="M310.958 16.9606C310.958 21.0589 307.635 24.3813 303.537 24.3813H293.997C289.899 24.3813 286.577 21.0589 286.577 16.9606V7.41968C286.577 3.32135 289.899 -0.0010376 293.997 -0.0010376H303.537C307.635 -0.0010376 310.958 3.32135 310.958 7.41968V16.9606Z" fill="#EC1D23"/>
<path d="M7.81996 56.1844C3.72198 56.1844 0.399902 52.862 0.399902 48.7636L0.399902 39.2227C0.399902 35.1244 3.72198 31.802 7.81996 31.802H17.36C21.458 31.802 24.7801 35.1244 24.7801 39.2227V48.7636C24.7801 52.862 21.458 56.1844 17.36 56.1844H7.81996Z" fill="#EC1D23"/>
<path d="M645.945 56.1844C641.847 56.1844 638.525 52.862 638.525 48.7636V39.2227C638.525 35.1244 641.847 31.802 645.945 31.802H655.485C659.583 31.802 662.905 35.1244 662.905 39.2227V48.7636C662.905 52.862 659.583 56.1844 655.485 56.1844H645.945Z" fill="#EC1D23"/>
<path d="M565.364 271.385C565.364 275.483 562.042 278.806 557.944 278.806H548.404C544.306 278.806 540.984 275.483 540.984 271.385V261.844C540.984 257.746 544.306 254.423 548.404 254.423H557.944C562.042 254.423 565.364 257.746 565.364 261.844V271.385Z" fill="#EC1D23"/>
<path d="M565.364 16.9606C565.364 21.0589 562.042 24.3813 557.944 24.3813H548.404C544.306 24.3813 540.984 21.0589 540.984 16.9606V7.41968C540.984 3.32135 544.306 -0.0010376 548.404 -0.0010376H557.944C562.042 -0.0010376 565.364 3.32135 565.364 7.41968V16.9606Z" fill="#EC1D23"/>
<path d="M7.81996 119.79C3.72198 119.79 0.399902 116.468 0.399902 112.37L0.399902 102.829C0.399902 98.7305 3.72198 95.4081 7.81996 95.4081H17.36C21.458 95.4081 24.7801 98.7305 24.7801 102.829V112.37C24.7801 116.468 21.458 119.79 17.36 119.79H7.81996Z" fill="#EC1D23"/>
<path d="M645.945 119.79C641.847 119.79 638.525 116.468 638.525 112.37V102.829C638.525 98.7305 641.847 95.4081 645.945 95.4081H655.485C659.583 95.4081 662.905 98.7305 662.905 102.829V112.37C662.905 116.468 659.583 119.79 655.485 119.79H645.945Z" fill="#EC1D23"/>
<path d="M501.769 271.385C501.769 275.483 498.447 278.806 494.349 278.806H484.809C480.711 278.806 477.389 275.483 477.389 271.385V261.844C477.389 257.746 480.711 254.423 484.809 254.423H494.349C498.447 254.423 501.769 257.746 501.769 261.844V271.385Z" fill="#EC1D23"/>
<path d="M501.769 16.9606C501.769 21.0589 498.447 24.3813 494.349 24.3813H484.809C480.711 24.3813 477.389 21.0589 477.389 16.9606V7.41968C477.389 3.32135 480.711 -0.0010376 484.809 -0.0010376H494.349C498.447 -0.0010376 501.769 3.32135 501.769 7.41968V16.9606Z" fill="#EC1D23"/>
<path d="M7.81996 24.3813C3.72198 24.3813 0.399902 21.0589 0.399902 16.9606L0.399902 7.41968C0.399902 3.32135 3.72198 -0.0010376 7.81996 -0.0010376H17.36C21.458 -0.0010376 24.7801 3.32135 24.7801 7.41968V16.9606C24.7801 21.0589 21.458 24.3813 17.36 24.3813H7.81996Z" fill="#EC1D23"/>
<path d="M645.945 24.3813C641.847 24.3813 638.525 21.0589 638.525 16.9606V7.41968C638.525 3.32135 641.847 -0.0010376 645.945 -0.0010376H655.485C659.583 -0.0010376 662.905 3.32135 662.905 7.41968V16.9606C662.905 21.0589 659.583 24.3813 655.485 24.3813H645.945Z" fill="#EC1D23"/>
<path d="M597.16 271.385C597.16 275.483 593.838 278.806 589.74 278.806H580.2C576.102 278.806 572.78 275.483 572.78 271.385V261.844C572.78 257.746 576.102 254.423 580.2 254.423H589.74C593.838 254.423 597.16 257.746 597.16 261.844V271.385Z" fill="#EC1D23"/>
<path d="M597.16 16.9606C597.16 21.0589 593.838 24.3813 589.74 24.3813H580.2C576.102 24.3813 572.78 21.0589 572.78 16.9606V7.41968C572.78 3.32135 576.102 -0.0010376 580.2 -0.0010376H589.74C593.838 -0.0010376 597.16 3.32135 597.16 7.41968V16.9606Z" fill="#EC1D23"/>
<path d="M631.105 271.385C631.105 275.483 627.783 278.806 623.685 278.806H614.145C610.047 278.806 606.725 275.483 606.725 271.385V261.844C606.725 257.746 610.047 254.423 614.145 254.423H623.685C627.783 254.423 631.105 257.746 631.105 261.844V271.385Z" fill="#EC1D23"/>
<path d="M631.105 16.9606C631.105 21.0589 627.783 24.3813 623.685 24.3813H614.145C610.047 24.3813 606.725 21.0589 606.725 16.9606V7.41968C606.725 3.32135 610.047 -0.0010376 614.145 -0.0010376H623.685C627.783 -0.0010376 631.105 3.32135 631.105 7.41968V16.9606Z" fill="#EC1D23"/>
<path d="M13.12 266.084L13.12 11.6601H651.245V266.084H13.12Z" fill="#EC1D23"/>
<path d="M7.81996 533.221C3.72198 533.221 0.399902 529.898 0.399902 525.8L0.399902 516.259C0.399902 512.161 3.72198 508.838 7.81996 508.838H17.36C21.458 508.838 24.7801 512.161 24.7801 516.259V525.8C24.7801 529.898 21.458 533.221 17.36 533.221H7.81996Z" fill="#EC1D23"/>
<path d="M645.945 533.221C641.847 533.221 638.525 529.898 638.525 525.8V516.259C638.525 512.161 641.847 508.838 645.945 508.838H655.485C659.583 508.838 662.905 512.161 662.905 516.259V525.8C662.905 529.898 659.583 533.221 655.485 533.221H645.945Z" fill="#EC1D23"/>
<path d="M56.5803 525.8C56.5803 529.898 53.2583 533.221 49.1603 533.221H39.6202C35.5222 533.221 32.2002 529.898 32.2002 525.8V516.259C32.2002 512.161 35.5222 508.838 39.6202 508.838H49.1603C53.2583 508.838 56.5803 512.161 56.5803 516.259V525.8Z" fill="#EC1D23"/>
<path d="M56.5803 271.376C56.5803 275.474 53.2583 278.796 49.1603 278.796H39.6202C35.5222 278.796 32.2002 275.474 32.2002 271.376V261.835C32.2002 257.736 35.5222 254.414 39.6202 254.414H49.1603C53.2583 254.414 56.5803 257.736 56.5803 261.835V271.376Z" fill="#EC1D23"/>
<path d="M342.783 525.8C342.783 529.898 339.461 533.221 335.363 533.221H325.823C321.725 533.221 318.402 529.898 318.402 525.8V516.259C318.402 512.161 321.725 508.838 325.823 508.838H335.363C339.461 508.838 342.783 512.161 342.783 516.259V525.8Z" fill="#EC1D23"/>
<path d="M342.783 271.376C342.783 275.474 339.461 278.796 335.363 278.796H325.823C321.725 278.796 318.402 275.474 318.402 271.376V261.835C318.402 257.736 321.725 254.414 325.823 254.414H335.363C339.461 254.414 342.783 257.736 342.783 261.835V271.376Z" fill="#EC1D23"/>
<path d="M7.81996 501.418C3.72198 501.418 0.399902 498.095 0.399902 493.997L0.399902 484.456C0.399902 480.358 3.72198 477.035 7.81996 477.035H17.36C21.458 477.035 24.7801 480.358 24.7801 484.456V493.997C24.7801 498.095 21.458 501.418 17.36 501.418H7.81996Z" fill="#EC1D23"/>
<path d="M88.3775 525.8C88.3775 529.898 85.0554 533.221 80.9574 533.221H71.4174C67.3194 533.221 63.9973 529.898 63.9973 525.8V516.259C63.9973 512.161 67.3194 508.838 71.4174 508.838H80.9574C85.0554 508.838 88.3775 512.161 88.3775 516.259V525.8Z" fill="#EC1D23"/>
<path d="M88.3775 271.376C88.3775 275.474 85.0554 278.796 80.9574 278.796H71.4174C67.3194 278.796 63.9973 275.474 63.9973 271.376V261.835C63.9973 257.736 67.3194 254.414 71.4174 254.414H80.9574C85.0554 254.414 88.3775 257.736 88.3775 261.835V271.376Z" fill="#EC1D23"/>
<path d="M645.945 501.418C641.847 501.418 638.525 498.095 638.525 493.997V484.456C638.525 480.358 641.847 477.035 645.945 477.035H655.485C659.583 477.035 662.905 480.358 662.905 484.456V493.997C662.905 498.095 659.583 501.418 655.485 501.418H645.945Z" fill="#EC1D23"/>
<path d="M374.58 525.8C374.58 529.898 371.258 533.221 367.16 533.221H357.62C353.522 533.221 350.2 529.898 350.2 525.8V516.259C350.2 512.161 353.522 508.838 357.62 508.838H367.16C371.258 508.838 374.58 512.161 374.58 516.259V525.8Z" fill="#EC1D23"/>
<path d="M374.58 271.376C374.58 275.474 371.258 278.796 367.16 278.796H357.62C353.522 278.796 350.2 275.474 350.2 271.376V261.835C350.2 257.736 353.522 254.414 357.62 254.414H367.16C371.258 254.414 374.58 257.736 374.58 261.835V271.376Z" fill="#EC1D23"/>
<path d="M120.174 525.8C120.174 529.898 116.852 533.221 112.754 533.221H103.214C99.116 533.221 95.7939 529.898 95.7939 525.8V516.259C95.7939 512.161 99.116 508.838 103.214 508.838H112.754C116.852 508.838 120.174 512.161 120.174 516.259V525.8Z" fill="#EC1D23"/>
<path d="M120.174 271.376C120.174 275.474 116.852 278.796 112.754 278.796H103.214C99.116 278.796 95.7939 275.474 95.7939 271.376V261.835C95.7939 257.736 99.116 254.414 103.214 254.414H112.754C116.852 254.414 120.174 257.736 120.174 261.835V271.376Z" fill="#EC1D23"/>
<path d="M7.81996 469.615C3.72198 469.615 0.399902 466.292 0.399902 462.194L0.399902 452.653C0.399902 448.555 3.72198 445.232 7.81996 445.232H17.36C21.458 445.232 24.7801 448.555 24.7801 452.653V462.194C24.7801 466.292 21.458 469.615 17.36 469.615H7.81996Z" fill="#EC1D23"/>
<path d="M645.945 469.615C641.847 469.615 638.525 466.292 638.525 462.194V452.653C638.525 448.555 641.847 445.232 645.945 445.232H655.485C659.583 445.232 662.905 448.555 662.905 452.653V462.194C662.905 466.292 659.583 469.615 655.485 469.615H645.945Z" fill="#EC1D23"/>
<path d="M151.971 525.8C151.971 529.898 148.649 533.221 144.551 533.221H135.011C130.913 533.221 127.591 529.898 127.591 525.8V516.259C127.591 512.161 130.913 508.838 135.011 508.838H144.551C148.649 508.838 151.971 512.161 151.971 516.259V525.8Z" fill="#EC1D23"/>
<path d="M151.971 271.376C151.971 275.474 148.649 278.796 144.551 278.796H135.011C130.913 278.796 127.591 275.474 127.591 271.376V261.835C127.591 257.736 130.913 254.414 135.011 254.414H144.551C148.649 254.414 151.971 257.736 151.971 261.835V271.376Z" fill="#EC1D23"/>
<path d="M406.377 525.8C406.377 529.898 403.055 533.221 398.957 533.221H389.417C385.319 533.221 381.997 529.898 381.997 525.8V516.259C381.997 512.161 385.319 508.838 389.417 508.838H398.957C403.055 508.838 406.377 512.161 406.377 516.259V525.8Z" fill="#EC1D23"/>
<path d="M406.377 271.376C406.377 275.474 403.055 278.796 398.957 278.796H389.417C385.319 278.796 381.997 275.474 381.997 271.376V261.835C381.997 257.736 385.319 254.414 389.417 254.414H398.957C403.055 254.414 406.377 257.736 406.377 261.835V271.376Z" fill="#EC1D23"/>
<path d="M7.81996 437.812C3.72198 437.812 0.399902 434.489 0.399902 430.391L0.399902 420.85C0.399902 416.752 3.72198 413.429 7.81996 413.429H17.36C21.458 413.429 24.7801 416.752 24.7801 420.85V430.391C24.7801 434.489 21.458 437.812 17.36 437.812H7.81996Z" fill="#EC1D23"/>
<path d="M247.363 525.8C247.363 529.898 244.041 533.221 239.943 533.221H230.403C226.305 533.221 222.983 529.898 222.983 525.8V516.259C222.983 512.161 226.305 508.838 230.403 508.838H239.943C244.041 508.838 247.363 512.161 247.363 516.259V525.8Z" fill="#EC1D23"/>
<path d="M247.363 271.376C247.363 275.474 244.041 278.796 239.943 278.796H230.403C226.305 278.796 222.983 275.474 222.983 271.376V261.835C222.983 257.736 226.305 254.414 230.403 254.414H239.943C244.041 254.414 247.363 257.736 247.363 261.835V271.376Z" fill="#EC1D23"/>
<path d="M645.945 437.812C641.847 437.812 638.525 434.489 638.525 430.391V420.85C638.525 416.752 641.847 413.429 645.945 413.429H655.485C659.583 413.429 662.905 416.752 662.905 420.85V430.391C662.905 434.489 659.583 437.812 655.485 437.812H645.945Z" fill="#EC1D23"/>
<path d="M438.173 525.8C438.173 529.898 434.851 533.221 430.753 533.221H421.213C417.115 533.221 413.793 529.898 413.793 525.8V516.259C413.793 512.161 417.115 508.838 421.213 508.838H430.753C434.851 508.838 438.173 512.161 438.173 516.259V525.8Z" fill="#EC1D23"/>
<path d="M438.173 271.376C438.173 275.474 434.851 278.796 430.753 278.796H421.213C417.115 278.796 413.793 275.474 413.793 271.376V261.835C413.793 257.736 417.115 254.414 421.213 254.414H430.753C434.851 254.414 438.173 257.736 438.173 261.835V271.376Z" fill="#EC1D23"/>
<path d="M183.769 525.8C183.769 529.898 180.447 533.221 176.349 533.221H166.809C162.711 533.221 159.389 529.898 159.389 525.8V516.259C159.389 512.161 162.711 508.838 166.809 508.838H176.349C180.447 508.838 183.769 512.161 183.769 516.259V525.8Z" fill="#EC1D23"/>
<path d="M183.769 271.376C183.769 275.474 180.447 278.796 176.349 278.796H166.809C162.711 278.796 159.389 275.474 159.389 271.376V261.835C159.389 257.736 162.711 254.414 166.809 254.414H176.349C180.447 254.414 183.769 257.736 183.769 261.835V271.376Z" fill="#EC1D23"/>
<path d="M7.81996 342.402C3.72198 342.402 0.399902 339.08 0.399902 334.982L0.399902 325.441C0.399902 321.342 3.72198 318.02 7.81996 318.02H17.36C21.458 318.02 24.7801 321.342 24.7801 325.441V334.982C24.7801 339.08 21.458 342.402 17.36 342.402H7.81996Z" fill="#EC1D23"/>
<path d="M645.945 342.402C641.847 342.402 638.525 339.08 638.525 334.982V325.441C638.525 321.342 641.847 318.02 645.945 318.02H655.485C659.583 318.02 662.905 321.342 662.905 325.441V334.982C662.905 339.08 659.583 342.402 655.485 342.402H645.945Z" fill="#EC1D23"/>
<path d="M279.161 525.8C279.161 529.898 275.839 533.221 271.741 533.221H262.201C258.103 533.221 254.781 529.898 254.781 525.8V516.259C254.781 512.161 258.103 508.838 262.201 508.838H271.741C275.839 508.838 279.161 512.161 279.161 516.259V525.8Z" fill="#EC1D23"/>
<path d="M279.161 271.376C279.161 275.474 275.839 278.796 271.741 278.796H262.201C258.103 278.796 254.781 275.474 254.781 271.376V261.835C254.781 257.736 258.103 254.414 262.201 254.414H271.741C275.839 254.414 279.161 257.736 279.161 261.835V271.376Z" fill="#EC1D23"/>
<path d="M533.566 525.8C533.566 529.898 530.243 533.221 526.145 533.221H516.605C512.507 533.221 509.185 529.898 509.185 525.8V516.259C509.185 512.161 512.507 508.838 516.605 508.838H526.145C530.243 508.838 533.566 512.161 533.566 516.259V525.8Z" fill="#EC1D23"/>
<path d="M533.566 271.376C533.566 275.474 530.243 278.796 526.145 278.796H516.605C512.507 278.796 509.185 275.474 509.185 271.376V261.835C509.185 257.736 512.507 254.414 516.605 254.414H526.145C530.243 254.414 533.566 257.736 533.566 261.835V271.376Z" fill="#EC1D23"/>
<path d="M7.81996 406.009C3.72198 406.009 0.399902 402.686 0.399902 398.588L0.399902 389.047C0.399902 384.949 3.72198 381.626 7.81996 381.626H17.36C21.458 381.626 24.7801 384.949 24.7801 389.047V398.588C24.7801 402.686 21.458 406.009 17.36 406.009H7.81996Z" fill="#EC1D23"/>
<path d="M215.567 525.8C215.567 529.898 212.245 533.221 208.147 533.221H198.607C194.509 533.221 191.187 529.898 191.187 525.8V516.259C191.187 512.161 194.509 508.838 198.607 508.838H208.147C212.245 508.838 215.567 512.161 215.567 516.259V525.8Z" fill="#EC1D23"/>
<path d="M215.567 271.376C215.567 275.474 212.245 278.796 208.147 278.796H198.607C194.509 278.796 191.187 275.474 191.187 271.376V261.835C191.187 257.736 194.509 254.414 198.607 254.414H208.147C212.245 254.414 215.567 257.736 215.567 261.835V271.376Z" fill="#EC1D23"/>
<path d="M645.945 406.009C641.847 406.009 638.525 402.686 638.525 398.588V389.047C638.525 384.949 641.847 381.626 645.945 381.626H655.485C659.583 381.626 662.905 384.949 662.905 389.047V398.588C662.905 402.686 659.583 406.009 655.485 406.009H645.945Z" fill="#EC1D23"/>
<path d="M469.971 525.8C469.971 529.898 466.649 533.221 462.551 533.221H453.011C448.913 533.221 445.591 529.898 445.591 525.8V516.259C445.591 512.161 448.913 508.838 453.011 508.838H462.551C466.649 508.838 469.971 512.161 469.971 516.259V525.8Z" fill="#EC1D23"/>
<path d="M469.971 271.376C469.971 275.474 466.649 278.796 462.551 278.796H453.011C448.913 278.796 445.591 275.474 445.591 271.376V261.835C445.591 257.736 448.913 254.414 453.011 254.414H462.551C466.649 254.414 469.971 257.736 469.971 261.835V271.376Z" fill="#EC1D23"/>
<path d="M310.958 525.8C310.958 529.898 307.635 533.221 303.537 533.221H293.997C289.899 533.221 286.577 529.898 286.577 525.8V516.259C286.577 512.161 289.899 508.838 293.997 508.838H303.537C307.635 508.838 310.958 512.161 310.958 516.259V525.8Z" fill="#EC1D23"/>
<path d="M310.958 271.376C310.958 275.474 307.635 278.796 303.537 278.796H293.997C289.899 278.796 286.577 275.474 286.577 271.376V261.835C286.577 257.736 289.899 254.414 293.997 254.414H303.537C307.635 254.414 310.958 257.736 310.958 261.835V271.376Z" fill="#EC1D23"/>
<path d="M7.81996 310.599C3.72198 310.599 0.399902 307.277 0.399902 303.179L0.399902 293.638C0.399902 289.539 3.72198 286.217 7.81996 286.217H17.36C21.458 286.217 24.7801 289.539 24.7801 293.638V303.179C24.7801 307.277 21.458 310.599 17.36 310.599H7.81996Z" fill="#EC1D23"/>
<path d="M645.945 310.599C641.847 310.599 638.525 307.277 638.525 303.179V293.638C638.525 289.539 641.847 286.217 645.945 286.217H655.485C659.583 286.217 662.905 289.539 662.905 293.638V303.179C662.905 307.277 659.583 310.599 655.485 310.599H645.945Z" fill="#EC1D23"/>
<path d="M565.364 525.8C565.364 529.898 562.042 533.221 557.944 533.221H548.404C544.306 533.221 540.984 529.898 540.984 525.8V516.259C540.984 512.161 544.306 508.838 548.404 508.838H557.944C562.042 508.838 565.364 512.161 565.364 516.259V525.8Z" fill="#EC1D23"/>
<path d="M565.364 271.376C565.364 275.474 562.042 278.796 557.944 278.796H548.404C544.306 278.796 540.984 275.474 540.984 271.376V261.835C540.984 257.736 544.306 254.414 548.404 254.414H557.944C562.042 254.414 565.364 257.736 565.364 261.835V271.376Z" fill="#EC1D23"/>
<path d="M7.81996 374.205C3.72198 374.205 0.399902 370.883 0.399902 366.785L0.399902 357.244C0.399902 353.146 3.72198 349.823 7.81996 349.823H17.36C21.458 349.823 24.7801 353.146 24.7801 357.244V366.785C24.7801 370.883 21.458 374.205 17.36 374.205H7.81996Z" fill="#EC1D23"/>
<path d="M645.945 374.205C641.847 374.205 638.525 370.883 638.525 366.785V357.244C638.525 353.146 641.847 349.823 645.945 349.823H655.485C659.583 349.823 662.905 353.146 662.905 357.244V366.785C662.905 370.883 659.583 374.205 655.485 374.205H645.945Z" fill="#EC1D23"/>
<path d="M501.769 525.8C501.769 529.898 498.447 533.221 494.349 533.221H484.809C480.711 533.221 477.389 529.898 477.389 525.8V516.259C477.389 512.161 480.711 508.838 484.809 508.838H494.349C498.447 508.838 501.769 512.161 501.769 516.259V525.8Z" fill="#EC1D23"/>
<path d="M501.769 271.376C501.769 275.474 498.447 278.796 494.349 278.796H484.809C480.711 278.796 477.389 275.474 477.389 271.376V261.835C477.389 257.736 480.711 254.414 484.809 254.414H494.349C498.447 254.414 501.769 257.736 501.769 261.835V271.376Z" fill="#EC1D23"/>
<path d="M7.81996 278.796C3.72198 278.796 0.399902 275.474 0.399902 271.376L0.399902 261.835C0.399902 257.736 3.72198 254.414 7.81996 254.414H17.36C21.458 254.414 24.7801 257.736 24.7801 261.835V271.376C24.7801 275.474 21.458 278.796 17.36 278.796H7.81996Z" fill="#EC1D23"/>
<path d="M645.945 278.796C641.847 278.796 638.525 275.474 638.525 271.376V261.835C638.525 257.736 641.847 254.414 645.945 254.414H655.485C659.583 254.414 662.905 257.736 662.905 261.835V271.376C662.905 275.474 659.583 278.796 655.485 278.796H645.945Z" fill="#EC1D23"/>
<path d="M597.16 525.8C597.16 529.898 593.838 533.221 589.74 533.221H580.2C576.102 533.221 572.78 529.898 572.78 525.8V516.259C572.78 512.161 576.102 508.838 580.2 508.838H589.74C593.838 508.838 597.16 512.161 597.16 516.259V525.8Z" fill="#EC1D23"/>
<path d="M597.16 271.376C597.16 275.474 593.838 278.796 589.74 278.796H580.2C576.102 278.796 572.78 275.474 572.78 271.376V261.835C572.78 257.736 576.102 254.414 580.2 254.414H589.74C593.838 254.414 597.16 257.736 597.16 261.835V271.376Z" fill="#EC1D23"/>
<path d="M631.105 525.8C631.105 529.898 627.783 533.221 623.685 533.221H614.145C610.047 533.221 606.725 529.898 606.725 525.8V516.259C606.725 512.161 610.047 508.838 614.145 508.838H623.685C627.783 508.838 631.105 512.161 631.105 516.259V525.8Z" fill="#EC1D23"/>
<path d="M631.105 271.376C631.105 275.474 627.783 278.796 623.685 278.796H614.145C610.047 278.796 606.725 275.474 606.725 271.376V261.835C606.725 257.736 610.047 254.414 614.145 254.414H623.685C627.783 254.414 631.105 257.736 631.105 261.835V271.376Z" fill="#EC1D23"/>
<path d="M13.12 520.499L13.12 266.075H651.245V520.499H13.12Z" fill="#EC1D23"/>
<path d="M7.81996 659.812C3.72198 659.812 0.399902 656.49 0.399902 652.392L0.399902 642.851C0.399902 638.753 3.72198 635.43 7.81996 635.43H17.36C21.458 635.43 24.7801 638.753 24.7801 642.851V652.392C24.7801 656.49 21.458 659.812 17.36 659.812H7.81996Z" fill="#EC1D23"/>
<path d="M645.945 659.812C641.847 659.812 638.525 656.49 638.525 652.392V642.851C638.525 638.753 641.847 635.43 645.945 635.43H655.485C659.583 635.43 662.905 638.753 662.905 642.851V652.392C662.905 656.49 659.583 659.812 655.485 659.812H645.945Z" fill="#EC1D23"/>
<path d="M56.5803 652.392C56.5803 656.49 53.2583 659.812 49.1603 659.812H39.6202C35.5222 659.812 32.2002 656.49 32.2002 652.392V642.851C32.2002 638.753 35.5222 635.43 39.6202 635.43H49.1603C53.2583 635.43 56.5803 638.753 56.5803 642.851V652.392Z" fill="#EC1D23"/>
<path d="M56.5803 397.967C56.5803 402.066 53.2583 405.388 49.1603 405.388H39.6202C35.5222 405.388 32.2002 402.066 32.2002 397.967V388.427C32.2002 384.328 35.5222 381.006 39.6202 381.006H49.1603C53.2583 381.006 56.5803 384.328 56.5803 388.427V397.967Z" fill="#EC1D23"/>
<path d="M342.783 652.392C342.783 656.49 339.461 659.812 335.363 659.812H325.823C321.725 659.812 318.402 656.49 318.402 652.392V642.851C318.402 638.753 321.725 635.43 325.823 635.43H335.363C339.461 635.43 342.783 638.753 342.783 642.851V652.392Z" fill="#EC1D23"/>
<path d="M342.783 397.967C342.783 402.066 339.461 405.388 335.363 405.388H325.823C321.725 405.388 318.402 402.066 318.402 397.967V388.427C318.402 384.328 321.725 381.006 325.823 381.006H335.363C339.461 381.006 342.783 384.328 342.783 388.427V397.967Z" fill="#EC1D23"/>
<path d="M7.81996 628.009C3.72198 628.009 0.399902 624.687 0.399902 620.589L0.399902 611.048C0.399902 606.949 3.72198 603.627 7.81996 603.627H17.36C21.458 603.627 24.7801 606.949 24.7801 611.048V620.589C24.7801 624.687 21.458 628.009 17.36 628.009H7.81996Z" fill="#EC1D23"/>
<path d="M88.3775 652.392C88.3775 656.49 85.0554 659.812 80.9574 659.812H71.4174C67.3194 659.812 63.9973 656.49 63.9973 652.392V642.851C63.9973 638.753 67.3194 635.43 71.4174 635.43H80.9574C85.0554 635.43 88.3775 638.753 88.3775 642.851V652.392Z" fill="#EC1D23"/>
<path d="M88.3775 397.967C88.3775 402.066 85.0554 405.388 80.9574 405.388H71.4174C67.3194 405.388 63.9973 402.066 63.9973 397.967V388.427C63.9973 384.328 67.3194 381.006 71.4174 381.006H80.9574C85.0554 381.006 88.3775 384.328 88.3775 388.427V397.967Z" fill="#EC1D23"/>
<path d="M645.945 628.009C641.847 628.009 638.525 624.687 638.525 620.589V611.048C638.525 606.949 641.847 603.627 645.945 603.627H655.485C659.583 603.627 662.905 606.949 662.905 611.048V620.589C662.905 624.687 659.583 628.009 655.485 628.009H645.945Z" fill="#EC1D23"/>
<path d="M374.58 652.392C374.58 656.49 371.258 659.812 367.16 659.812H357.62C353.522 659.812 350.2 656.49 350.2 652.392V642.851C350.2 638.753 353.522 635.43 357.62 635.43H367.16C371.258 635.43 374.58 638.753 374.58 642.851V652.392Z" fill="#EC1D23"/>
<path d="M374.58 397.967C374.58 402.066 371.258 405.388 367.16 405.388H357.62C353.522 405.388 350.2 402.066 350.2 397.967V388.427C350.2 384.328 353.522 381.006 357.62 381.006H367.16C371.258 381.006 374.58 384.328 374.58 388.427V397.967Z" fill="#EC1D23"/>
<path d="M120.174 652.392C120.174 656.49 116.852 659.812 112.754 659.812H103.214C99.116 659.812 95.7939 656.49 95.7939 652.392V642.851C95.7939 638.753 99.116 635.43 103.214 635.43H112.754C116.852 635.43 120.174 638.753 120.174 642.851V652.392Z" fill="#EC1D23"/>
<path d="M120.174 397.967C120.174 402.066 116.852 405.388 112.754 405.388H103.214C99.116 405.388 95.7939 402.066 95.7939 397.967V388.427C95.7939 384.328 99.116 381.006 103.214 381.006H112.754C116.852 381.006 120.174 384.328 120.174 388.427V397.967Z" fill="#EC1D23"/>
<path d="M7.81996 596.206C3.72198 596.206 0.399902 592.884 0.399902 588.786L0.399902 579.245C0.399902 575.146 3.72198 571.824 7.81996 571.824H17.36C21.458 571.824 24.7801 575.146 24.7801 579.245V588.786C24.7801 592.884 21.458 596.206 17.36 596.206H7.81996Z" fill="#EC1D23"/>
<path d="M645.945 596.206C641.847 596.206 638.525 592.884 638.525 588.786V579.245C638.525 575.146 641.847 571.824 645.945 571.824H655.485C659.583 571.824 662.905 575.146 662.905 579.245V588.786C662.905 592.884 659.583 596.206 655.485 596.206H645.945Z" fill="#EC1D23"/>
<path d="M151.971 652.392C151.971 656.49 148.649 659.812 144.551 659.812H135.011C130.913 659.812 127.591 656.49 127.591 652.392V642.851C127.591 638.753 130.913 635.43 135.011 635.43H144.551C148.649 635.43 151.971 638.753 151.971 642.851V652.392Z" fill="#EC1D23"/>
<path d="M151.971 397.967C151.971 402.066 148.649 405.388 144.551 405.388H135.011C130.913 405.388 127.591 402.066 127.591 397.967V388.427C127.591 384.328 130.913 381.006 135.011 381.006H144.551C148.649 381.006 151.971 384.328 151.971 388.427V397.967Z" fill="#EC1D23"/>
<path d="M406.377 652.392C406.377 656.49 403.055 659.812 398.957 659.812H389.417C385.319 659.812 381.997 656.49 381.997 652.392V642.851C381.997 638.753 385.319 635.43 389.417 635.43H398.957C403.055 635.43 406.377 638.753 406.377 642.851V652.392Z" fill="#EC1D23"/>
<path d="M406.377 397.967C406.377 402.066 403.055 405.388 398.957 405.388H389.417C385.319 405.388 381.997 402.066 381.997 397.967V388.427C381.997 384.328 385.319 381.006 389.417 381.006H398.957C403.055 381.006 406.377 384.328 406.377 388.427V397.967Z" fill="#EC1D23"/>
<path d="M7.81996 564.403C3.72198 564.403 0.399902 561.081 0.399902 556.983L0.399902 547.442C0.399902 543.343 3.72198 540.021 7.81996 540.021H17.36C21.458 540.021 24.7801 543.343 24.7801 547.442V556.983C24.7801 561.081 21.458 564.403 17.36 564.403H7.81996Z" fill="#EC1D23"/>
<path d="M247.363 652.392C247.363 656.49 244.041 659.812 239.943 659.812H230.403C226.305 659.812 222.983 656.49 222.983 652.392V642.851C222.983 638.753 226.305 635.43 230.403 635.43H239.943C244.041 635.43 247.363 638.753 247.363 642.851V652.392Z" fill="#EC1D23"/>
<path d="M247.363 397.967C247.363 402.066 244.041 405.388 239.943 405.388H230.403C226.305 405.388 222.983 402.066 222.983 397.967V388.427C222.983 384.328 226.305 381.006 230.403 381.006H239.943C244.041 381.006 247.363 384.328 247.363 388.427V397.967Z" fill="#EC1D23"/>
<path d="M645.945 564.403C641.847 564.403 638.525 561.081 638.525 556.983V547.442C638.525 543.343 641.847 540.021 645.945 540.021H655.485C659.583 540.021 662.905 543.343 662.905 547.442V556.983C662.905 561.081 659.583 564.403 655.485 564.403H645.945Z" fill="#EC1D23"/>
<path d="M438.173 652.392C438.173 656.49 434.851 659.812 430.753 659.812H421.213C417.115 659.812 413.793 656.49 413.793 652.392V642.851C413.793 638.753 417.115 635.43 421.213 635.43H430.753C434.851 635.43 438.173 638.753 438.173 642.851V652.392Z" fill="#EC1D23"/>
<path d="M438.173 397.967C438.173 402.066 434.851 405.388 430.753 405.388H421.213C417.115 405.388 413.793 402.066 413.793 397.967V388.427C413.793 384.328 417.115 381.006 421.213 381.006H430.753C434.851 381.006 438.173 384.328 438.173 388.427V397.967Z" fill="#EC1D23"/>
<path d="M183.769 652.392C183.769 656.49 180.447 659.812 176.349 659.812H166.809C162.711 659.812 159.389 656.49 159.389 652.392V642.851C159.389 638.753 162.711 635.43 166.809 635.43H176.349C180.447 635.43 183.769 638.753 183.769 642.851V652.392Z" fill="#EC1D23"/>
<path d="M183.769 397.967C183.769 402.066 180.447 405.388 176.349 405.388H166.809C162.711 405.388 159.389 402.066 159.389 397.967V388.427C159.389 384.328 162.711 381.006 166.809 381.006H176.349C180.447 381.006 183.769 384.328 183.769 388.427V397.967Z" fill="#EC1D23"/>
<path d="M7.81996 468.994C3.72198 468.994 0.399902 465.672 0.399902 461.574L0.399902 452.033C0.399902 447.934 3.72198 444.612 7.81996 444.612H17.36C21.458 444.612 24.7801 447.934 24.7801 452.033V461.574C24.7801 465.672 21.458 468.994 17.36 468.994H7.81996Z" fill="#EC1D23"/>
<path d="M645.945 468.994C641.847 468.994 638.525 465.672 638.525 461.574V452.033C638.525 447.934 641.847 444.612 645.945 444.612H655.485C659.583 444.612 662.905 447.934 662.905 452.033V461.574C662.905 465.672 659.583 468.994 655.485 468.994H645.945Z" fill="#EC1D23"/>
<path d="M279.161 652.392C279.161 656.49 275.839 659.812 271.741 659.812H262.201C258.103 659.812 254.781 656.49 254.781 652.392V642.851C254.781 638.753 258.103 635.43 262.201 635.43H271.741C275.839 635.43 279.161 638.753 279.161 642.851V652.392Z" fill="#EC1D23"/>
<path d="M279.161 397.967C279.161 402.066 275.839 405.388 271.741 405.388H262.201C258.103 405.388 254.781 402.066 254.781 397.967V388.427C254.781 384.328 258.103 381.006 262.201 381.006H271.741C275.839 381.006 279.161 384.328 279.161 388.427V397.967Z" fill="#EC1D23"/>
<path d="M533.566 652.392C533.566 656.49 530.243 659.812 526.145 659.812H516.605C512.507 659.812 509.185 656.49 509.185 652.392V642.851C509.185 638.753 512.507 635.43 516.605 635.43H526.145C530.243 635.43 533.566 638.753 533.566 642.851V652.392Z" fill="#EC1D23"/>
<path d="M533.566 397.967C533.566 402.066 530.243 405.388 526.145 405.388H516.605C512.507 405.388 509.185 402.066 509.185 397.967V388.427C509.185 384.328 512.507 381.006 516.605 381.006H526.145C530.243 381.006 533.566 384.328 533.566 388.427V397.967Z" fill="#EC1D23"/>
<path d="M7.81996 532.6C3.72198 532.6 0.399902 529.278 0.399902 525.18L0.399902 515.639C0.399902 511.54 3.72198 508.218 7.81996 508.218H17.36C21.458 508.218 24.7801 511.54 24.7801 515.639V525.18C24.7801 529.278 21.458 532.6 17.36 532.6H7.81996Z" fill="#EC1D23"/>
<path d="M215.567 652.392C215.567 656.49 212.245 659.812 208.147 659.812H198.607C194.509 659.812 191.187 656.49 191.187 652.392V642.851C191.187 638.753 194.509 635.43 198.607 635.43H208.147C212.245 635.43 215.567 638.753 215.567 642.851V652.392Z" fill="#EC1D23"/>
<path d="M215.567 397.967C215.567 402.066 212.245 405.388 208.147 405.388H198.607C194.509 405.388 191.187 402.066 191.187 397.967V388.427C191.187 384.328 194.509 381.006 198.607 381.006H208.147C212.245 381.006 215.567 384.328 215.567 388.427V397.967Z" fill="#EC1D23"/>
<path d="M645.945 532.6C641.847 532.6 638.525 529.278 638.525 525.18V515.639C638.525 511.54 641.847 508.218 645.945 508.218H655.485C659.583 508.218 662.905 511.54 662.905 515.639V525.18C662.905 529.278 659.583 532.6 655.485 532.6H645.945Z" fill="#EC1D23"/>
<path d="M469.971 652.392C469.971 656.49 466.649 659.812 462.551 659.812H453.011C448.913 659.812 445.591 656.49 445.591 652.392V642.851C445.591 638.753 448.913 635.43 453.011 635.43H462.551C466.649 635.43 469.971 638.753 469.971 642.851V652.392Z" fill="#EC1D23"/>
<path d="M469.971 397.967C469.971 402.066 466.649 405.388 462.551 405.388H453.011C448.913 405.388 445.591 402.066 445.591 397.967V388.427C445.591 384.328 448.913 381.006 453.011 381.006H462.551C466.649 381.006 469.971 384.328 469.971 388.427V397.967Z" fill="#EC1D23"/>
<path d="M310.958 652.392C310.958 656.49 307.635 659.812 303.537 659.812H293.997C289.899 659.812 286.577 656.49 286.577 652.392V642.851C286.577 638.753 289.899 635.43 293.997 635.43H303.537C307.635 635.43 310.958 638.753 310.958 642.851V652.392Z" fill="#EC1D23"/>
<path d="M310.958 397.967C310.958 402.066 307.635 405.388 303.537 405.388H293.997C289.899 405.388 286.577 402.066 286.577 397.967V388.427C286.577 384.328 289.899 381.006 293.997 381.006H303.537C307.635 381.006 310.958 384.328 310.958 388.427V397.967Z" fill="#EC1D23"/>
<path d="M7.81996 437.191C3.72198 437.191 0.399902 433.869 0.399902 429.77L0.399902 420.23C0.399902 416.131 3.72198 412.809 7.81996 412.809H17.36C21.458 412.809 24.7801 416.131 24.7801 420.23V429.77C24.7801 433.869 21.458 437.191 17.36 437.191H7.81996Z" fill="#EC1D23"/>
<path d="M645.945 437.191C641.847 437.191 638.525 433.869 638.525 429.77V420.23C638.525 416.131 641.847 412.809 645.945 412.809H655.485C659.583 412.809 662.905 416.131 662.905 420.23V429.77C662.905 433.869 659.583 437.191 655.485 437.191H645.945Z" fill="#EC1D23"/>
<path d="M565.364 652.392C565.364 656.49 562.042 659.812 557.944 659.812H548.404C544.306 659.812 540.984 656.49 540.984 652.392V642.851C540.984 638.753 544.306 635.43 548.404 635.43H557.944C562.042 635.43 565.364 638.753 565.364 642.851V652.392Z" fill="#EC1D23"/>
<path d="M565.364 397.967C565.364 402.066 562.042 405.388 557.944 405.388H548.404C544.306 405.388 540.984 402.066 540.984 397.967V388.427C540.984 384.328 544.306 381.006 548.404 381.006H557.944C562.042 381.006 565.364 384.328 565.364 388.427V397.967Z" fill="#EC1D23"/>
<path d="M7.81996 500.797C3.72198 500.797 0.399902 497.475 0.399902 493.377L0.399902 483.836C0.399902 479.737 3.72198 476.415 7.81996 476.415H17.36C21.458 476.415 24.7801 479.737 24.7801 483.836V493.377C24.7801 497.475 21.458 500.797 17.36 500.797H7.81996Z" fill="#EC1D23"/>
<path d="M645.945 500.797C641.847 500.797 638.525 497.475 638.525 493.377V483.836C638.525 479.737 641.847 476.415 645.945 476.415H655.485C659.583 476.415 662.905 479.737 662.905 483.836V493.377C662.905 497.475 659.583 500.797 655.485 500.797H645.945Z" fill="#EC1D23"/>
<path d="M501.769 652.392C501.769 656.49 498.447 659.812 494.349 659.812H484.809C480.711 659.812 477.389 656.49 477.389 652.392V642.851C477.389 638.753 480.711 635.43 484.809 635.43H494.349C498.447 635.43 501.769 638.753 501.769 642.851V652.392Z" fill="#EC1D23"/>
<path d="M501.769 397.967C501.769 402.066 498.447 405.388 494.349 405.388H484.809C480.711 405.388 477.389 402.066 477.389 397.967V388.427C477.389 384.328 480.711 381.006 484.809 381.006H494.349C498.447 381.006 501.769 384.328 501.769 388.427V397.967Z" fill="#EC1D23"/>
<path d="M7.81996 405.388C3.72198 405.388 0.399902 402.066 0.399902 397.967L0.399902 388.427C0.399902 384.328 3.72198 381.006 7.81996 381.006H17.36C21.458 381.006 24.7801 384.328 24.7801 388.427V397.967C24.7801 402.066 21.458 405.388 17.36 405.388H7.81996Z" fill="#EC1D23"/>
<path d="M645.945 405.388C641.847 405.388 638.525 402.066 638.525 397.967V388.427C638.525 384.328 641.847 381.006 645.945 381.006H655.485C659.583 381.006 662.905 384.328 662.905 388.427V397.967C662.905 402.066 659.583 405.388 655.485 405.388H645.945Z" fill="#EC1D23"/>
<path d="M597.16 652.392C597.16 656.49 593.838 659.812 589.74 659.812H580.2C576.102 659.812 572.78 656.49 572.78 652.392V642.851C572.78 638.753 576.102 635.43 580.2 635.43H589.74C593.838 635.43 597.16 638.753 597.16 642.851V652.392Z" fill="#EC1D23"/>
<path d="M597.16 397.967C597.16 402.066 593.838 405.388 589.74 405.388H580.2C576.102 405.388 572.78 402.066 572.78 397.967V388.427C572.78 384.328 576.102 381.006 580.2 381.006H589.74C593.838 381.006 597.16 384.328 597.16 388.427V397.967Z" fill="#EC1D23"/>
<path d="M631.105 652.392C631.105 656.49 627.783 659.812 623.685 659.812H614.145C610.047 659.812 606.725 656.49 606.725 652.392V642.851C606.725 638.753 610.047 635.43 614.145 635.43H623.685C627.783 635.43 631.105 638.753 631.105 642.851V652.392Z" fill="#EC1D23"/>
<path d="M631.105 397.967C631.105 402.066 627.783 405.388 623.685 405.388H614.145C610.047 405.388 606.725 402.066 606.725 397.967V388.427C606.725 384.328 610.047 381.006 614.145 381.006H623.685C627.783 381.006 631.105 384.328 631.105 388.427V397.967Z" fill="#EC1D23"/>
<path d="M13.12 647.091L13.12 392.667H651.245V647.091H13.12Z" fill="#EC1D23"/>
<path d="M7.81996 914.28C3.72198 914.28 0.399902 910.958 0.399902 906.86L0.399902 897.319C0.399902 893.22 3.72198 889.898 7.81996 889.898H17.36C21.458 889.898 24.7801 893.22 24.7801 897.319V906.86C24.7801 910.958 21.458 914.28 17.36 914.28H7.81996Z" fill="#EC1D23"/>
<path d="M645.945 914.28C641.847 914.28 638.525 910.958 638.525 906.86V897.319C638.525 893.22 641.847 889.898 645.945 889.898H655.485C659.583 889.898 662.905 893.22 662.905 897.319V906.86C662.905 910.958 659.583 914.28 655.485 914.28H645.945Z" fill="#EC1D23"/>
<path d="M56.5803 906.86C56.5803 910.958 53.2583 914.28 49.1603 914.28H39.6202C35.5222 914.28 32.2002 910.958 32.2002 906.86V897.319C32.2002 893.22 35.5222 889.898 39.6202 889.898H49.1603C53.2583 889.898 56.5803 893.22 56.5803 897.319V906.86Z" fill="#EC1D23"/>
<path d="M56.5803 652.435C56.5803 656.534 53.2583 659.856 49.1603 659.856H39.6202C35.5222 659.856 32.2002 656.534 32.2002 652.435V642.894C32.2002 638.796 35.5222 635.474 39.6202 635.474H49.1603C53.2583 635.474 56.5803 638.796 56.5803 642.894V652.435Z" fill="#EC1D23"/>
<path d="M342.783 906.86C342.783 910.958 339.461 914.28 335.363 914.28H325.823C321.725 914.28 318.402 910.958 318.402 906.86V897.319C318.402 893.22 321.725 889.898 325.823 889.898H335.363C339.461 889.898 342.783 893.22 342.783 897.319V906.86Z" fill="#EC1D23"/>
<path d="M342.783 652.435C342.783 656.534 339.461 659.856 335.363 659.856H325.823C321.725 659.856 318.402 656.534 318.402 652.435V642.894C318.402 638.796 321.725 635.474 325.823 635.474H335.363C339.461 635.474 342.783 638.796 342.783 642.894V652.435Z" fill="#EC1D23"/>
<path d="M7.81996 882.477C3.72198 882.477 0.399902 879.155 0.399902 875.057L0.399902 865.516C0.399902 861.417 3.72198 858.095 7.81996 858.095H17.36C21.458 858.095 24.7801 861.417 24.7801 865.516V875.057C24.7801 879.155 21.458 882.477 17.36 882.477H7.81996Z" fill="#EC1D23"/>
<path d="M88.3775 906.86C88.3775 910.958 85.0554 914.28 80.9574 914.28H71.4174C67.3194 914.28 63.9973 910.958 63.9973 906.86V897.319C63.9973 893.22 67.3194 889.898 71.4174 889.898H80.9574C85.0554 889.898 88.3775 893.22 88.3775 897.319V906.86Z" fill="#EC1D23"/>
<path d="M88.3775 652.435C88.3775 656.534 85.0554 659.856 80.9574 659.856H71.4174C67.3194 659.856 63.9973 656.534 63.9973 652.435V642.894C63.9973 638.796 67.3194 635.474 71.4174 635.474H80.9574C85.0554 635.474 88.3775 638.796 88.3775 642.894V652.435Z" fill="#EC1D23"/>
<path d="M645.945 882.477C641.847 882.477 638.525 879.155 638.525 875.057V865.516C638.525 861.417 641.847 858.095 645.945 858.095H655.485C659.583 858.095 662.905 861.417 662.905 865.516V875.057C662.905 879.155 659.583 882.477 655.485 882.477H645.945Z" fill="#EC1D23"/>
<path d="M374.58 906.86C374.58 910.958 371.258 914.28 367.16 914.28H357.62C353.522 914.28 350.2 910.958 350.2 906.86V897.319C350.2 893.22 353.522 889.898 357.62 889.898H367.16C371.258 889.898 374.58 893.22 374.58 897.319V906.86Z" fill="#EC1D23"/>
<path d="M374.58 652.435C374.58 656.534 371.258 659.856 367.16 659.856H357.62C353.522 659.856 350.2 656.534 350.2 652.435V642.894C350.2 638.796 353.522 635.474 357.62 635.474H367.16C371.258 635.474 374.58 638.796 374.58 642.894V652.435Z" fill="#EC1D23"/>
<path d="M120.174 906.86C120.174 910.958 116.852 914.28 112.754 914.28H103.214C99.116 914.28 95.7939 910.958 95.7939 906.86V897.319C95.7939 893.22 99.116 889.898 103.214 889.898H112.754C116.852 889.898 120.174 893.22 120.174 897.319V906.86Z" fill="#EC1D23"/>
<path d="M120.174 652.435C120.174 656.534 116.852 659.856 112.754 659.856H103.214C99.116 659.856 95.7939 656.534 95.7939 652.435V642.894C95.7939 638.796 99.116 635.474 103.214 635.474H112.754C116.852 635.474 120.174 638.796 120.174 642.894V652.435Z" fill="#EC1D23"/>
<path d="M7.81996 850.674C3.72198 850.674 0.399902 847.352 0.399902 843.253L0.399902 833.713C0.399902 829.614 3.72198 826.292 7.81996 826.292H17.36C21.458 826.292 24.7801 829.614 24.7801 833.713V843.253C24.7801 847.352 21.458 850.674 17.36 850.674H7.81996Z" fill="#EC1D23"/>
<path d="M645.945 850.674C641.847 850.674 638.525 847.352 638.525 843.253V833.713C638.525 829.614 641.847 826.292 645.945 826.292H655.485C659.583 826.292 662.905 829.614 662.905 833.713V843.253C662.905 847.352 659.583 850.674 655.485 850.674H645.945Z" fill="#EC1D23"/>
<path d="M151.971 906.86C151.971 910.958 148.649 914.28 144.551 914.28H135.011C130.913 914.28 127.591 910.958 127.591 906.86V897.319C127.591 893.22 130.913 889.898 135.011 889.898H144.551C148.649 889.898 151.971 893.22 151.971 897.319V906.86Z" fill="#EC1D23"/>
<path d="M151.971 652.435C151.971 656.534 148.649 659.856 144.551 659.856H135.011C130.913 659.856 127.591 656.534 127.591 652.435V642.894C127.591 638.796 130.913 635.474 135.011 635.474H144.551C148.649 635.474 151.971 638.796 151.971 642.894V652.435Z" fill="#EC1D23"/>
<path d="M406.377 906.86C406.377 910.958 403.055 914.28 398.957 914.28H389.417C385.319 914.28 381.997 910.958 381.997 906.86V897.319C381.997 893.22 385.319 889.898 389.417 889.898H398.957C403.055 889.898 406.377 893.22 406.377 897.319V906.86Z" fill="#EC1D23"/>
<path d="M406.377 652.435C406.377 656.534 403.055 659.856 398.957 659.856H389.417C385.319 659.856 381.997 656.534 381.997 652.435V642.894C381.997 638.796 385.319 635.474 389.417 635.474H398.957C403.055 635.474 406.377 638.796 406.377 642.894V652.435Z" fill="#EC1D23"/>
<path d="M7.81996 818.871C3.72198 818.871 0.399902 815.549 0.399902 811.45L0.399902 801.91C0.399902 797.811 3.72198 794.489 7.81996 794.489H17.36C21.458 794.489 24.7801 797.811 24.7801 801.91V811.45C24.7801 815.549 21.458 818.871 17.36 818.871H7.81996Z" fill="#EC1D23"/>
<path d="M247.363 906.86C247.363 910.958 244.041 914.28 239.943 914.28H230.403C226.305 914.28 222.983 910.958 222.983 906.86V897.319C222.983 893.22 226.305 889.898 230.403 889.898H239.943C244.041 889.898 247.363 893.22 247.363 897.319V906.86Z" fill="#EC1D23"/>
<path d="M247.363 652.435C247.363 656.534 244.041 659.856 239.943 659.856H230.403C226.305 659.856 222.983 656.534 222.983 652.435V642.894C222.983 638.796 226.305 635.474 230.403 635.474H239.943C244.041 635.474 247.363 638.796 247.363 642.894V652.435Z" fill="#EC1D23"/>
<path d="M645.945 818.871C641.847 818.871 638.525 815.549 638.525 811.45V801.91C638.525 797.811 641.847 794.489 645.945 794.489H655.485C659.583 794.489 662.905 797.811 662.905 801.91V811.45C662.905 815.549 659.583 818.871 655.485 818.871H645.945Z" fill="#EC1D23"/>
<path d="M438.173 906.86C438.173 910.958 434.851 914.28 430.753 914.28H421.213C417.115 914.28 413.793 910.958 413.793 906.86V897.319C413.793 893.22 417.115 889.898 421.213 889.898H430.753C434.851 889.898 438.173 893.22 438.173 897.319V906.86Z" fill="#EC1D23"/>
<path d="M438.173 652.435C438.173 656.534 434.851 659.856 430.753 659.856H421.213C417.115 659.856 413.793 656.534 413.793 652.435V642.894C413.793 638.796 417.115 635.474 421.213 635.474H430.753C434.851 635.474 438.173 638.796 438.173 642.894V652.435Z" fill="#EC1D23"/>
<path d="M183.769 906.86C183.769 910.958 180.447 914.28 176.349 914.28H166.809C162.711 914.28 159.389 910.958 159.389 906.86V897.319C159.389 893.22 162.711 889.898 166.809 889.898H176.349C180.447 889.898 183.769 893.22 183.769 897.319V906.86Z" fill="#EC1D23"/>
<path d="M183.769 652.435C183.769 656.534 180.447 659.856 176.349 659.856H166.809C162.711 659.856 159.389 656.534 159.389 652.435V642.894C159.389 638.796 162.711 635.474 166.809 635.474H176.349C180.447 635.474 183.769 638.796 183.769 642.894V652.435Z" fill="#EC1D23"/>
<path d="M7.81996 723.462C3.72198 723.462 0.399902 720.14 0.399902 716.041L0.399902 706.5C0.399902 702.402 3.72198 699.08 7.81996 699.08H17.36C21.458 699.08 24.7801 702.402 24.7801 706.5V716.041C24.7801 720.14 21.458 723.462 17.36 723.462H7.81996Z" fill="#EC1D23"/>
<path d="M645.945 723.462C641.847 723.462 638.525 720.14 638.525 716.041V706.5C638.525 702.402 641.847 699.08 645.945 699.08H655.485C659.583 699.08 662.905 702.402 662.905 706.5V716.041C662.905 720.14 659.583 723.462 655.485 723.462H645.945Z" fill="#EC1D23"/>
<path d="M279.161 906.86C279.161 910.958 275.839 914.28 271.741 914.28H262.201C258.103 914.28 254.781 910.958 254.781 906.86V897.319C254.781 893.22 258.103 889.898 262.201 889.898H271.741C275.839 889.898 279.161 893.22 279.161 897.319V906.86Z" fill="#EC1D23"/>
<path d="M279.161 652.435C279.161 656.534 275.839 659.856 271.741 659.856H262.201C258.103 659.856 254.781 656.534 254.781 652.435V642.894C254.781 638.796 258.103 635.474 262.201 635.474H271.741C275.839 635.474 279.161 638.796 279.161 642.894V652.435Z" fill="#EC1D23"/>
<path d="M533.566 906.86C533.566 910.958 530.243 914.28 526.145 914.28H516.605C512.507 914.28 509.185 910.958 509.185 906.86V897.319C509.185 893.22 512.507 889.898 516.605 889.898H526.145C530.243 889.898 533.566 893.22 533.566 897.319V906.86Z" fill="#EC1D23"/>
<path d="M533.566 652.435C533.566 656.534 530.243 659.856 526.145 659.856H516.605C512.507 659.856 509.185 656.534 509.185 652.435V642.894C509.185 638.796 512.507 635.474 516.605 635.474H526.145C530.243 635.474 533.566 638.796 533.566 642.894V652.435Z" fill="#EC1D23"/>
<path d="M7.81996 787.068C3.72198 787.068 0.399902 783.746 0.399902 779.647L0.399902 770.106C0.399902 766.008 3.72198 762.686 7.81996 762.686H17.36C21.458 762.686 24.7801 766.008 24.7801 770.106V779.647C24.7801 783.746 21.458 787.068 17.36 787.068H7.81996Z" fill="#EC1D23"/>
<path d="M215.567 906.86C215.567 910.958 212.245 914.28 208.147 914.28H198.607C194.509 914.28 191.187 910.958 191.187 906.86V897.319C191.187 893.22 194.509 889.898 198.607 889.898H208.147C212.245 889.898 215.567 893.22 215.567 897.319V906.86Z" fill="#EC1D23"/>
<path d="M215.567 652.435C215.567 656.534 212.245 659.856 208.147 659.856H198.607C194.509 659.856 191.187 656.534 191.187 652.435V642.894C191.187 638.796 194.509 635.474 198.607 635.474H208.147C212.245 635.474 215.567 638.796 215.567 642.894V652.435Z" fill="#EC1D23"/>
<path d="M645.945 787.068C641.847 787.068 638.525 783.746 638.525 779.647V770.106C638.525 766.008 641.847 762.686 645.945 762.686H655.485C659.583 762.686 662.905 766.008 662.905 770.106V779.647C662.905 783.746 659.583 787.068 655.485 787.068H645.945Z" fill="#EC1D23"/>
<path d="M469.971 906.86C469.971 910.958 466.649 914.28 462.551 914.28H453.011C448.913 914.28 445.591 910.958 445.591 906.86V897.319C445.591 893.22 448.913 889.898 453.011 889.898H462.551C466.649 889.898 469.971 893.22 469.971 897.319V906.86Z" fill="#EC1D23"/>
<path d="M469.971 652.435C469.971 656.534 466.649 659.856 462.551 659.856H453.011C448.913 659.856 445.591 656.534 445.591 652.435V642.894C445.591 638.796 448.913 635.474 453.011 635.474H462.551C466.649 635.474 469.971 638.796 469.971 642.894V652.435Z" fill="#EC1D23"/>
<path d="M310.958 906.86C310.958 910.958 307.635 914.28 303.537 914.28H293.997C289.899 914.28 286.577 910.958 286.577 906.86V897.319C286.577 893.22 289.899 889.898 293.997 889.898H303.537C307.635 889.898 310.958 893.22 310.958 897.319V906.86Z" fill="#EC1D23"/>
<path d="M310.958 652.435C310.958 656.534 307.635 659.856 303.537 659.856H293.997C289.899 659.856 286.577 656.534 286.577 652.435V642.894C286.577 638.796 289.899 635.474 293.997 635.474H303.537C307.635 635.474 310.958 638.796 310.958 642.894V652.435Z" fill="#EC1D23"/>
<path d="M7.81996 691.659C3.72198 691.659 0.399902 688.337 0.399902 684.238L0.399902 674.697C0.399902 670.599 3.72198 667.277 7.81996 667.277H17.36C21.458 667.277 24.7801 670.599 24.7801 674.697V684.238C24.7801 688.337 21.458 691.659 17.36 691.659H7.81996Z" fill="#EC1D23"/>
<path d="M645.945 691.659C641.847 691.659 638.525 688.337 638.525 684.238V674.697C638.525 670.599 641.847 667.277 645.945 667.277H655.485C659.583 667.277 662.905 670.599 662.905 674.697V684.238C662.905 688.337 659.583 691.659 655.485 691.659H645.945Z" fill="#EC1D23"/>
<path d="M565.364 906.86C565.364 910.958 562.042 914.28 557.944 914.28H548.404C544.306 914.28 540.984 910.958 540.984 906.86V897.319C540.984 893.22 544.306 889.898 548.404 889.898H557.944C562.042 889.898 565.364 893.22 565.364 897.319V906.86Z" fill="#EC1D23"/>
<path d="M565.364 652.435C565.364 656.534 562.042 659.856 557.944 659.856H548.404C544.306 659.856 540.984 656.534 540.984 652.435V642.894C540.984 638.796 544.306 635.474 548.404 635.474H557.944C562.042 635.474 565.364 638.796 565.364 642.894V652.435Z" fill="#EC1D23"/>
<path d="M7.81996 755.265C3.72198 755.265 0.399902 751.943 0.399902 747.844L0.399902 738.303C0.399902 734.205 3.72198 730.883 7.81996 730.883H17.36C21.458 730.883 24.7801 734.205 24.7801 738.303V747.844C24.7801 751.943 21.458 755.265 17.36 755.265H7.81996Z" fill="#EC1D23"/>
<path d="M645.945 755.265C641.847 755.265 638.525 751.943 638.525 747.844V738.303C638.525 734.205 641.847 730.883 645.945 730.883H655.485C659.583 730.883 662.905 734.205 662.905 738.303V747.844C662.905 751.943 659.583 755.265 655.485 755.265H645.945Z" fill="#EC1D23"/>
<path d="M501.769 906.86C501.769 910.958 498.447 914.28 494.349 914.28H484.809C480.711 914.28 477.389 910.958 477.389 906.86V897.319C477.389 893.22 480.711 889.898 484.809 889.898H494.349C498.447 889.898 501.769 893.22 501.769 897.319V906.86Z" fill="#EC1D23"/>
<path d="M501.769 652.435C501.769 656.534 498.447 659.856 494.349 659.856H484.809C480.711 659.856 477.389 656.534 477.389 652.435V642.894C477.389 638.796 480.711 635.474 484.809 635.474H494.349C498.447 635.474 501.769 638.796 501.769 642.894V652.435Z" fill="#EC1D23"/>
<path d="M7.81996 659.856C3.72198 659.856 0.399902 656.534 0.399902 652.435L0.399902 642.894C0.399902 638.796 3.72198 635.474 7.81996 635.474H17.36C21.458 635.474 24.7801 638.796 24.7801 642.894V652.435C24.7801 656.534 21.458 659.856 17.36 659.856H7.81996Z" fill="#EC1D23"/>
<path d="M645.945 659.856C641.847 659.856 638.525 656.534 638.525 652.435V642.894C638.525 638.796 641.847 635.474 645.945 635.474H655.485C659.583 635.474 662.905 638.796 662.905 642.894V652.435C662.905 656.534 659.583 659.856 655.485 659.856H645.945Z" fill="#EC1D23"/>
<path d="M597.16 906.86C597.16 910.958 593.838 914.28 589.74 914.28H580.2C576.102 914.28 572.78 910.958 572.78 906.86V897.319C572.78 893.22 576.102 889.898 580.2 889.898H589.74C593.838 889.898 597.16 893.22 597.16 897.319V906.86Z" fill="#EC1D23"/>
<path d="M597.16 652.435C597.16 656.534 593.838 659.856 589.74 659.856H580.2C576.102 659.856 572.78 656.534 572.78 652.435V642.894C572.78 638.796 576.102 635.474 580.2 635.474H589.74C593.838 635.474 597.16 638.796 597.16 642.894V652.435Z" fill="#EC1D23"/>
<path d="M631.105 906.86C631.105 910.958 627.783 914.28 623.685 914.28H614.145C610.047 914.28 606.725 910.958 606.725 906.86V897.319C606.725 893.22 610.047 889.898 614.145 889.898H623.685C627.783 889.898 631.105 893.22 631.105 897.319V906.86Z" fill="#EC1D23"/>
<path d="M631.105 652.435C631.105 656.534 627.783 659.856 623.685 659.856H614.145C610.047 659.856 606.725 656.534 606.725 652.435V642.894C606.725 638.796 610.047 635.474 614.145 635.474H623.685C627.783 635.474 631.105 638.796 631.105 642.894V652.435Z" fill="#EC1D23"/>
<path d="M13.12 901.559L13.12 647.135H651.245V901.559H13.12Z" fill="#EC1D23"/>
<path d="M7.81996 945.563C3.72198 945.563 0.399902 942.241 0.399902 938.143L0.399902 928.602C0.399902 924.504 3.72198 921.181 7.81996 921.181H17.36C21.458 921.181 24.7801 924.504 24.7801 928.602V938.143C24.7801 942.241 21.458 945.563 17.36 945.563H7.81996Z" fill="#EC1D23"/>
<path d="M645.945 945.563C641.847 945.563 638.525 942.241 638.525 938.143V928.602C638.525 924.504 641.847 921.181 645.945 921.181H655.485C659.583 921.181 662.905 924.504 662.905 928.602V938.143C662.905 942.241 659.583 945.563 655.485 945.563H645.945Z" fill="#EC1D23"/>
<path d="M56.5803 938.143C56.5803 942.241 53.2583 945.563 49.1603 945.563H39.6202C35.5222 945.563 32.2002 942.241 32.2002 938.143V928.602C32.2002 924.504 35.5222 921.181 39.6202 921.181H49.1603C53.2583 921.181 56.5803 924.504 56.5803 928.602V938.143Z" fill="#EC1D23"/>
<path d="M56.5803 683.718C56.5803 687.817 53.2583 691.139 49.1603 691.139H39.6202C35.5222 691.139 32.2002 687.817 32.2002 683.718V674.177C32.2002 670.079 35.5222 666.757 39.6202 666.757H49.1603C53.2583 666.757 56.5803 670.079 56.5803 674.177V683.718Z" fill="#EC1D23"/>
<path d="M342.783 938.143C342.783 942.241 339.461 945.563 335.363 945.563H325.823C321.725 945.563 318.402 942.241 318.402 938.143V928.602C318.402 924.504 321.725 921.181 325.823 921.181H335.363C339.461 921.181 342.783 924.504 342.783 928.602V938.143Z" fill="#EC1D23"/>
<path d="M342.783 683.718C342.783 687.817 339.461 691.139 335.363 691.139H325.823C321.725 691.139 318.402 687.817 318.402 683.718V674.177C318.402 670.079 321.725 666.757 325.823 666.757H335.363C339.461 666.757 342.783 670.079 342.783 674.177V683.718Z" fill="#EC1D23"/>
<path d="M7.81996 913.76C3.72198 913.76 0.399902 910.438 0.399902 906.34L0.399902 896.799C0.399902 892.7 3.72198 889.378 7.81996 889.378H17.36C21.458 889.378 24.7801 892.7 24.7801 896.799V906.34C24.7801 910.438 21.458 913.76 17.36 913.76H7.81996Z" fill="#EC1D23"/>
<path d="M88.3775 938.143C88.3775 942.241 85.0554 945.563 80.9574 945.563H71.4174C67.3194 945.563 63.9973 942.241 63.9973 938.143V928.602C63.9973 924.504 67.3194 921.181 71.4174 921.181H80.9574C85.0554 921.181 88.3775 924.504 88.3775 928.602V938.143Z" fill="#EC1D23"/>
<path d="M88.3775 683.718C88.3775 687.817 85.0554 691.139 80.9574 691.139H71.4174C67.3194 691.139 63.9973 687.817 63.9973 683.718V674.177C63.9973 670.079 67.3194 666.757 71.4174 666.757H80.9574C85.0554 666.757 88.3775 670.079 88.3775 674.177V683.718Z" fill="#EC1D23"/>
<path d="M645.945 913.76C641.847 913.76 638.525 910.438 638.525 906.34V896.799C638.525 892.7 641.847 889.378 645.945 889.378H655.485C659.583 889.378 662.905 892.7 662.905 896.799V906.34C662.905 910.438 659.583 913.76 655.485 913.76H645.945Z" fill="#EC1D23"/>
<path d="M374.58 938.143C374.58 942.241 371.258 945.563 367.16 945.563H357.62C353.522 945.563 350.2 942.241 350.2 938.143V928.602C350.2 924.504 353.522 921.181 357.62 921.181H367.16C371.258 921.181 374.58 924.504 374.58 928.602V938.143Z" fill="#EC1D23"/>
<path d="M374.58 683.718C374.58 687.817 371.258 691.139 367.16 691.139H357.62C353.522 691.139 350.2 687.817 350.2 683.718V674.177C350.2 670.079 353.522 666.757 357.62 666.757H367.16C371.258 666.757 374.58 670.079 374.58 674.177V683.718Z" fill="#EC1D23"/>
<path d="M120.174 938.143C120.174 942.241 116.852 945.563 112.754 945.563H103.214C99.116 945.563 95.7939 942.241 95.7939 938.143V928.602C95.7939 924.504 99.116 921.181 103.214 921.181H112.754C116.852 921.181 120.174 924.504 120.174 928.602V938.143Z" fill="#EC1D23"/>
<path d="M120.174 683.718C120.174 687.817 116.852 691.139 112.754 691.139H103.214C99.116 691.139 95.7939 687.817 95.7939 683.718V674.177C95.7939 670.079 99.116 666.757 103.214 666.757H112.754C116.852 666.757 120.174 670.079 120.174 674.177V683.718Z" fill="#EC1D23"/>
<path d="M7.81996 881.957C3.72198 881.957 0.399902 878.635 0.399902 874.537L0.399902 864.996C0.399902 860.897 3.72198 857.575 7.81996 857.575H17.36C21.458 857.575 24.7801 860.897 24.7801 864.996V874.537C24.7801 878.635 21.458 881.957 17.36 881.957H7.81996Z" fill="#EC1D23"/>
<path d="M645.945 881.957C641.847 881.957 638.525 878.635 638.525 874.537V864.996C638.525 860.897 641.847 857.575 645.945 857.575H655.485C659.583 857.575 662.905 860.897 662.905 864.996V874.537C662.905 878.635 659.583 881.957 655.485 881.957H645.945Z" fill="#EC1D23"/>
<path d="M151.971 938.143C151.971 942.241 148.649 945.563 144.551 945.563H135.011C130.913 945.563 127.591 942.241 127.591 938.143V928.602C127.591 924.504 130.913 921.181 135.011 921.181H144.551C148.649 921.181 151.971 924.504 151.971 928.602V938.143Z" fill="#EC1D23"/>
<path d="M151.971 683.718C151.971 687.817 148.649 691.139 144.551 691.139H135.011C130.913 691.139 127.591 687.817 127.591 683.718V674.177C127.591 670.079 130.913 666.757 135.011 666.757H144.551C148.649 666.757 151.971 670.079 151.971 674.177V683.718Z" fill="#EC1D23"/>
<path d="M406.377 938.143C406.377 942.241 403.055 945.563 398.957 945.563H389.417C385.319 945.563 381.997 942.241 381.997 938.143V928.602C381.997 924.504 385.319 921.181 389.417 921.181H398.957C403.055 921.181 406.377 924.504 406.377 928.602V938.143Z" fill="#EC1D23"/>
<path d="M406.377 683.718C406.377 687.817 403.055 691.139 398.957 691.139H389.417C385.319 691.139 381.997 687.817 381.997 683.718V674.177C381.997 670.079 385.319 666.757 389.417 666.757H398.957C403.055 666.757 406.377 670.079 406.377 674.177V683.718Z" fill="#EC1D23"/>
<path d="M7.81996 850.154C3.72198 850.154 0.399902 846.832 0.399902 842.734L0.399902 833.193C0.399902 829.094 3.72198 825.772 7.81996 825.772H17.36C21.458 825.772 24.7801 829.094 24.7801 833.193V842.734C24.7801 846.832 21.458 850.154 17.36 850.154H7.81996Z" fill="#EC1D23"/>
<path d="M247.363 938.143C247.363 942.241 244.041 945.563 239.943 945.563H230.403C226.305 945.563 222.983 942.241 222.983 938.143V928.602C222.983 924.504 226.305 921.181 230.403 921.181H239.943C244.041 921.181 247.363 924.504 247.363 928.602V938.143Z" fill="#EC1D23"/>
<path d="M247.363 683.718C247.363 687.817 244.041 691.139 239.943 691.139H230.403C226.305 691.139 222.983 687.817 222.983 683.718V674.177C222.983 670.079 226.305 666.757 230.403 666.757H239.943C244.041 666.757 247.363 670.079 247.363 674.177V683.718Z" fill="#EC1D23"/>
<path d="M645.945 850.154C641.847 850.154 638.525 846.832 638.525 842.734V833.193C638.525 829.094 641.847 825.772 645.945 825.772H655.485C659.583 825.772 662.905 829.094 662.905 833.193V842.734C662.905 846.832 659.583 850.154 655.485 850.154H645.945Z" fill="#EC1D23"/>
<path d="M438.173 938.143C438.173 942.241 434.851 945.563 430.753 945.563H421.213C417.115 945.563 413.793 942.241 413.793 938.143V928.602C413.793 924.504 417.115 921.181 421.213 921.181H430.753C434.851 921.181 438.173 924.504 438.173 928.602V938.143Z" fill="#EC1D23"/>
<path d="M438.173 683.718C438.173 687.817 434.851 691.139 430.753 691.139H421.213C417.115 691.139 413.793 687.817 413.793 683.718V674.177C413.793 670.079 417.115 666.757 421.213 666.757H430.753C434.851 666.757 438.173 670.079 438.173 674.177V683.718Z" fill="#EC1D23"/>
<path d="M183.769 938.143C183.769 942.241 180.447 945.563 176.349 945.563H166.809C162.711 945.563 159.389 942.241 159.389 938.143V928.602C159.389 924.504 162.711 921.181 166.809 921.181H176.349C180.447 921.181 183.769 924.504 183.769 928.602V938.143Z" fill="#EC1D23"/>
<path d="M183.769 683.718C183.769 687.817 180.447 691.139 176.349 691.139H166.809C162.711 691.139 159.389 687.817 159.389 683.718V674.177C159.389 670.079 162.711 666.757 166.809 666.757H176.349C180.447 666.757 183.769 670.079 183.769 674.177V683.718Z" fill="#EC1D23"/>
<path d="M7.81996 754.745C3.72198 754.745 0.399902 751.423 0.399902 747.325L0.399902 737.784C0.399902 733.685 3.72198 730.363 7.81996 730.363H17.36C21.458 730.363 24.7801 733.685 24.7801 737.784V747.325C24.7801 751.423 21.458 754.745 17.36 754.745H7.81996Z" fill="#EC1D23"/>
<path d="M645.945 754.745C641.847 754.745 638.525 751.423 638.525 747.325V737.784C638.525 733.685 641.847 730.363 645.945 730.363H655.485C659.583 730.363 662.905 733.685 662.905 737.784V747.325C662.905 751.423 659.583 754.745 655.485 754.745H645.945Z" fill="#EC1D23"/>
<path d="M279.161 938.143C279.161 942.241 275.839 945.563 271.741 945.563H262.201C258.103 945.563 254.781 942.241 254.781 938.143V928.602C254.781 924.504 258.103 921.181 262.201 921.181H271.741C275.839 921.181 279.161 924.504 279.161 928.602V938.143Z" fill="#EC1D23"/>
<path d="M279.161 683.718C279.161 687.817 275.839 691.139 271.741 691.139H262.201C258.103 691.139 254.781 687.817 254.781 683.718V674.177C254.781 670.079 258.103 666.757 262.201 666.757H271.741C275.839 666.757 279.161 670.079 279.161 674.177V683.718Z" fill="#EC1D23"/>
<path d="M533.566 938.143C533.566 942.241 530.243 945.563 526.145 945.563H516.605C512.507 945.563 509.185 942.241 509.185 938.143V928.602C509.185 924.504 512.507 921.181 516.605 921.181H526.145C530.243 921.181 533.566 924.504 533.566 928.602V938.143Z" fill="#EC1D23"/>
<path d="M533.566 683.718C533.566 687.817 530.243 691.139 526.145 691.139H516.605C512.507 691.139 509.185 687.817 509.185 683.718V674.177C509.185 670.079 512.507 666.757 516.605 666.757H526.145C530.243 666.757 533.566 670.079 533.566 674.177V683.718Z" fill="#EC1D23"/>
<path d="M7.81996 818.351C3.72198 818.351 0.399902 815.029 0.399902 810.931L0.399902 801.39C0.399902 797.291 3.72198 793.969 7.81996 793.969H17.36C21.458 793.969 24.7801 797.291 24.7801 801.39V810.931C24.7801 815.029 21.458 818.351 17.36 818.351H7.81996Z" fill="#EC1D23"/>
<path d="M215.567 938.143C215.567 942.241 212.245 945.563 208.147 945.563H198.607C194.509 945.563 191.187 942.241 191.187 938.143V928.602C191.187 924.504 194.509 921.181 198.607 921.181H208.147C212.245 921.181 215.567 924.504 215.567 928.602V938.143Z" fill="#EC1D23"/>
<path d="M215.567 683.718C215.567 687.817 212.245 691.139 208.147 691.139H198.607C194.509 691.139 191.187 687.817 191.187 683.718V674.177C191.187 670.079 194.509 666.757 198.607 666.757H208.147C212.245 666.757 215.567 670.079 215.567 674.177V683.718Z" fill="#EC1D23"/>
<path d="M645.945 818.351C641.847 818.351 638.525 815.029 638.525 810.931V801.39C638.525 797.291 641.847 793.969 645.945 793.969H655.485C659.583 793.969 662.905 797.291 662.905 801.39V810.931C662.905 815.029 659.583 818.351 655.485 818.351H645.945Z" fill="#EC1D23"/>
<path d="M469.971 938.143C469.971 942.241 466.649 945.563 462.551 945.563H453.011C448.913 945.563 445.591 942.241 445.591 938.143V928.602C445.591 924.504 448.913 921.181 453.011 921.181H462.551C466.649 921.181 469.971 924.504 469.971 928.602V938.143Z" fill="#EC1D23"/>
<path d="M469.971 683.718C469.971 687.817 466.649 691.139 462.551 691.139H453.011C448.913 691.139 445.591 687.817 445.591 683.718V674.177C445.591 670.079 448.913 666.757 453.011 666.757H462.551C466.649 666.757 469.971 670.079 469.971 674.177V683.718Z" fill="#EC1D23"/>
<path d="M310.958 938.143C310.958 942.241 307.635 945.563 303.537 945.563H293.997C289.899 945.563 286.577 942.241 286.577 938.143V928.602C286.577 924.504 289.899 921.181 293.997 921.181H303.537C307.635 921.181 310.958 924.504 310.958 928.602V938.143Z" fill="#EC1D23"/>
<path d="M310.958 683.718C310.958 687.817 307.635 691.139 303.537 691.139H293.997C289.899 691.139 286.577 687.817 286.577 683.718V674.177C286.577 670.079 289.899 666.757 293.997 666.757H303.537C307.635 666.757 310.958 670.079 310.958 674.177V683.718Z" fill="#EC1D23"/>
<path d="M7.81996 722.942C3.72198 722.942 0.399902 719.62 0.399902 715.521L0.399902 705.981C0.399902 701.882 3.72198 698.56 7.81996 698.56H17.36C21.458 698.56 24.7801 701.882 24.7801 705.981V715.521C24.7801 719.62 21.458 722.942 17.36 722.942H7.81996Z" fill="#EC1D23"/>
<path d="M645.945 722.942C641.847 722.942 638.525 719.62 638.525 715.521V705.981C638.525 701.882 641.847 698.56 645.945 698.56H655.485C659.583 698.56 662.905 701.882 662.905 705.981V715.521C662.905 719.62 659.583 722.942 655.485 722.942H645.945Z" fill="#EC1D23"/>
<path d="M565.364 938.143C565.364 942.241 562.042 945.563 557.944 945.563H548.404C544.306 945.563 540.984 942.241 540.984 938.143V928.602C540.984 924.504 544.306 921.181 548.404 921.181H557.944C562.042 921.181 565.364 924.504 565.364 928.602V938.143Z" fill="#EC1D23"/>
<path d="M565.364 683.718C565.364 687.817 562.042 691.139 557.944 691.139H548.404C544.306 691.139 540.984 687.817 540.984 683.718V674.177C540.984 670.079 544.306 666.757 548.404 666.757H557.944C562.042 666.757 565.364 670.079 565.364 674.177V683.718Z" fill="#EC1D23"/>
<path d="M7.81996 786.548C3.72198 786.548 0.399902 783.226 0.399902 779.128L0.399902 769.587C0.399902 765.488 3.72198 762.166 7.81996 762.166H17.36C21.458 762.166 24.7801 765.488 24.7801 769.587V779.128C24.7801 783.226 21.458 786.548 17.36 786.548H7.81996Z" fill="#EC1D23"/>
<path d="M645.945 786.548C641.847 786.548 638.525 783.226 638.525 779.128V769.587C638.525 765.488 641.847 762.166 645.945 762.166H655.485C659.583 762.166 662.905 765.488 662.905 769.587V779.128C662.905 783.226 659.583 786.548 655.485 786.548H645.945Z" fill="#EC1D23"/>
<path d="M501.769 938.143C501.769 942.241 498.447 945.563 494.349 945.563H484.809C480.711 945.563 477.389 942.241 477.389 938.143V928.602C477.389 924.504 480.711 921.181 484.809 921.181H494.349C498.447 921.181 501.769 924.504 501.769 928.602V938.143Z" fill="#EC1D23"/>
<path d="M501.769 683.718C501.769 687.817 498.447 691.139 494.349 691.139H484.809C480.711 691.139 477.389 687.817 477.389 683.718V674.177C477.389 670.079 480.711 666.757 484.809 666.757H494.349C498.447 666.757 501.769 670.079 501.769 674.177V683.718Z" fill="#EC1D23"/>
<path d="M7.81996 691.139C3.72198 691.139 0.399902 687.817 0.399902 683.718L0.399902 674.177C0.399902 670.079 3.72198 666.757 7.81996 666.757H17.36C21.458 666.757 24.7801 670.079 24.7801 674.177V683.718C24.7801 687.817 21.458 691.139 17.36 691.139H7.81996Z" fill="#EC1D23"/>
<path d="M645.945 691.139C641.847 691.139 638.525 687.817 638.525 683.718V674.177C638.525 670.079 641.847 666.757 645.945 666.757H655.485C659.583 666.757 662.905 670.079 662.905 674.177V683.718C662.905 687.817 659.583 691.139 655.485 691.139H645.945Z" fill="#EC1D23"/>
<path d="M597.16 938.143C597.16 942.241 593.838 945.563 589.74 945.563H580.2C576.102 945.563 572.78 942.241 572.78 938.143V928.602C572.78 924.504 576.102 921.181 580.2 921.181H589.74C593.838 921.181 597.16 924.504 597.16 928.602V938.143Z" fill="#EC1D23"/>
<path d="M597.16 683.718C597.16 687.817 593.838 691.139 589.74 691.139H580.2C576.102 691.139 572.78 687.817 572.78 683.718V674.177C572.78 670.079 576.102 666.757 580.2 666.757H589.74C593.838 666.757 597.16 670.079 597.16 674.177V683.718Z" fill="#EC1D23"/>
<path d="M631.105 938.143C631.105 942.241 627.783 945.563 623.685 945.563H614.145C610.047 945.563 606.725 942.241 606.725 938.143V928.602C606.725 924.504 610.047 921.181 614.145 921.181H623.685C627.783 921.181 631.105 924.504 631.105 928.602V938.143Z" fill="#EC1D23"/>
<path d="M631.105 683.718C631.105 687.817 627.783 691.139 623.685 691.139H614.145C610.047 691.139 606.725 687.817 606.725 683.718V674.177C606.725 670.079 610.047 666.757 614.145 666.757H623.685C627.783 666.757 631.105 670.079 631.105 674.177V683.718Z" fill="#EC1D23"/>
<path d="M13.12 932.842L13.12 678.418H651.245V932.842H13.12Z" fill="#EC1D23"/>
<rect x="522.556" y="863.688" width="17.513" height="17.4736" fill="#F1EEE7"/>
<rect x="487.836" y="863.688" width="17.513" height="17.4736" fill="#F1EEE7"/>
<rect x="453.116" y="863.688" width="17.513" height="17.4736" fill="#F1EEE7"/>
<rect x="418.396" y="863.688" width="17.513" height="17.4736" fill="#F1EEE7"/>
<rect x="383.677" y="863.688" width="17.513" height="17.4736" fill="#F1EEE7"/>
<rect x="348.957" y="863.688" width="17.513" height="17.4736" fill="#F1EEE7"/>
<rect x="314.237" y="863.688" width="17.513" height="17.4736" fill="#F1EEE7"/>
<rect x="279.516" y="863.688" width="17.513" height="17.4736" fill="#F1EEE7"/>
<rect x="244.798" y="863.688" width="17.513" height="17.4736" fill="#F1EEE7"/>
<rect x="210.079" y="863.688" width="17.513" height="17.4736" fill="#F1EEE7"/>
<rect x="175.358" y="863.688" width="17.513" height="17.4736" fill="#F1EEE7"/>
<rect x="140.639" y="863.688" width="17.513" height="17.4736" fill="#F1EEE7"/>
<rect x="105.919" y="863.688" width="17.513" height="17.4736" fill="#F1EEE7"/>
<rect x="71.2002" y="863.688" width="17.513" height="17.4736" fill="#F1EEE7"/>
<rect x="557.581" y="863.688" width="17.513" height="17.4736" fill="#F1EEE7"/>
<rect x="540.069" y="846.212" width="17.513" height="17.4736" fill="#F1EEE7"/>
<rect x="505.348" y="846.212" width="17.513" height="17.4736" fill="#F1EEE7"/>
<rect x="470.629" y="846.212" width="17.513" height="17.4736" fill="#F1EEE7"/>
<rect x="435.908" y="846.212" width="17.513" height="17.4736" fill="#F1EEE7"/>
<rect x="401.189" y="846.212" width="17.513" height="17.4736" fill="#F1EEE7"/>
<rect x="366.47" y="846.212" width="17.513" height="17.4736" fill="#F1EEE7"/>
<rect x="331.75" y="846.212" width="17.513" height="17.4736" fill="#F1EEE7"/>
<rect x="297.031" y="846.212" width="17.513" height="17.4736" fill="#F1EEE7"/>
<rect x="262.312" y="846.212" width="17.513" height="17.4736" fill="#F1EEE7"/>
<rect x="227.591" y="846.212" width="17.513" height="17.4736" fill="#F1EEE7"/>
<rect x="192.871" y="846.212" width="17.513" height="17.4736" fill="#F1EEE7"/>
<rect x="158.153" y="846.212" width="17.513" height="17.4736" fill="#F1EEE7"/>
<rect x="123.432" y="846.212" width="17.513" height="17.4736" fill="#F1EEE7"/>
<rect x="88.7134" y="846.212" width="17.513" height="17.4736" fill="#F1EEE7"/>
<rect x="575.095" y="846.212" width="17.513" height="17.4736" fill="#F1EEE7"/>
<rect x="25.9937" y="31.9883" width="10.2602" height="10.2602" fill="#F1EEE7"/>
<rect x="36.2549" y="21.7266" width="10.2602" height="10.2602" fill="#F1EEE7"/>
<rect x="46.0005" y="31.9883" width="10.2602" height="10.2602" fill="#F1EEE7"/>
<rect x="56.2612" y="21.7266" width="10.2602" height="10.2602" fill="#F1EEE7"/>
<rect x="623.221" y="31.9883" width="10.2602" height="10.2602" fill="#F1EEE7"/>
<rect x="602.801" y="31.9883" width="10.2602" height="10.2602" fill="#F1EEE7"/>
<rect x="613.142" y="21.7266" width="10.2602" height="10.2602" fill="#F1EEE7"/>
</svg>
