<svg width="662" height="945" viewBox="0 0 662 945" fill="none" xmlns="http://www.w3.org/2000/svg">
<path d="M7.41811 278.605C3.32012 278.605 -0.00195312 275.283 -0.00195312 271.185L-0.00195312 261.644C-0.00195312 257.545 3.32012 254.223 7.41811 254.223H16.9582C21.0562 254.223 24.3782 257.545 24.3782 261.644V271.185C24.3782 275.283 21.0562 278.605 16.9582 278.605H7.41811Z" fill="#EC1D23"/>
<path d="M645.543 278.605C641.445 278.605 638.123 275.283 638.123 271.185V261.644C638.123 257.545 641.445 254.223 645.543 254.223H655.083C659.181 254.223 662.503 257.545 662.503 261.644V271.185C662.503 275.283 659.181 278.605 655.083 278.605H645.543Z" fill="#EC1D23"/>
<path d="M56.1785 271.185C56.1785 275.283 52.8564 278.605 48.7584 278.605H39.2184C35.1204 278.605 31.7983 275.283 31.7983 271.185V261.644C31.7983 257.545 35.1204 254.223 39.2184 254.223H48.7584C52.8564 254.223 56.1785 257.545 56.1785 261.644V271.185Z" fill="#EC1D23"/>
<path d="M56.1785 16.7604C56.1785 20.8587 52.8564 24.1811 48.7584 24.1811H39.2184C35.1204 24.1811 31.7983 20.8587 31.7983 16.7604V7.21948C31.7983 3.12115 35.1204 -0.201233 39.2184 -0.201233H48.7584C52.8564 -0.201233 56.1785 3.12115 56.1785 7.21948V16.7604Z" fill="#EC1D23"/>
<path d="M342.381 271.185C342.381 275.283 339.059 278.605 334.961 278.605H325.421C321.323 278.605 318.001 275.283 318.001 271.185V261.644C318.001 257.545 321.323 254.223 325.421 254.223H334.961C339.059 254.223 342.381 257.545 342.381 261.644V271.185Z" fill="#EC1D23"/>
<path d="M342.381 16.7604C342.381 20.8587 339.059 24.1811 334.961 24.1811H325.421C321.323 24.1811 318.001 20.8587 318.001 16.7604V7.21948C318.001 3.12115 321.323 -0.201233 325.421 -0.201233H334.961C339.059 -0.201233 342.381 3.12115 342.381 7.21948V16.7604Z" fill="#EC1D23"/>
<path d="M7.41811 246.802C3.32012 246.802 -0.00195312 243.48 -0.00195312 239.382L-0.00195312 229.841C-0.00195312 225.742 3.32012 222.42 7.41811 222.42H16.9582C21.0562 222.42 24.3782 225.742 24.3782 229.841V239.382C24.3782 243.48 21.0562 246.802 16.9582 246.802H7.41811Z" fill="#EC1D23"/>
<path d="M87.9756 271.185C87.9756 275.283 84.6536 278.605 80.5556 278.605H71.0155C66.9175 278.605 63.5955 275.283 63.5955 271.185V261.644C63.5955 257.545 66.9175 254.223 71.0155 254.223H80.5556C84.6536 254.223 87.9756 257.545 87.9756 261.644V271.185Z" fill="#EC1D23"/>
<path d="M87.9756 16.7604C87.9756 20.8587 84.6536 24.1811 80.5556 24.1811H71.0155C66.9175 24.1811 63.5955 20.8587 63.5955 16.7604V7.21948C63.5955 3.12115 66.9175 -0.201233 71.0155 -0.201233H80.5556C84.6536 -0.201233 87.9756 3.12115 87.9756 7.21948V16.7604Z" fill="#EC1D23"/>
<path d="M645.543 246.802C641.445 246.802 638.123 243.48 638.123 239.382V229.841C638.123 225.742 641.445 222.42 645.543 222.42H655.083C659.181 222.42 662.503 225.742 662.503 229.841V239.382C662.503 243.48 659.181 246.802 655.083 246.802H645.543Z" fill="#EC1D23"/>
<path d="M374.178 271.185C374.178 275.283 370.856 278.605 366.758 278.605H357.218C353.12 278.605 349.798 275.283 349.798 271.185V261.644C349.798 257.545 353.12 254.223 357.218 254.223H366.758C370.856 254.223 374.178 257.545 374.178 261.644V271.185Z" fill="#EC1D23"/>
<path d="M374.178 16.7604C374.178 20.8587 370.856 24.1811 366.758 24.1811H357.218C353.12 24.1811 349.798 20.8587 349.798 16.7604V7.21948C349.798 3.12115 353.12 -0.201233 357.218 -0.201233H366.758C370.856 -0.201233 374.178 3.12115 374.178 7.21948V16.7604Z" fill="#EC1D23"/>
<path d="M119.772 271.185C119.772 275.283 116.45 278.605 112.352 278.605H102.812C98.7142 278.605 95.3921 275.283 95.3921 271.185V261.644C95.3921 257.545 98.7142 254.223 102.812 254.223H112.352C116.45 254.223 119.772 257.545 119.772 261.644V271.185Z" fill="#EC1D23"/>
<path d="M119.772 16.7604C119.772 20.8587 116.45 24.1811 112.352 24.1811H102.812C98.7142 24.1811 95.3921 20.8587 95.3921 16.7604V7.21948C95.3921 3.12115 98.7142 -0.201233 102.812 -0.201233H112.352C116.45 -0.201233 119.772 3.12115 119.772 7.21948V16.7604Z" fill="#EC1D23"/>
<path d="M7.41811 214.999C3.32012 214.999 -0.00195312 211.677 -0.00195312 207.579L-0.00195312 198.038C-0.00195312 193.939 3.32012 190.617 7.41811 190.617H16.9582C21.0562 190.617 24.3782 193.939 24.3782 198.038V207.579C24.3782 211.677 21.0562 214.999 16.9582 214.999H7.41811Z" fill="#EC1D23"/>
<path d="M645.543 214.999C641.445 214.999 638.123 211.677 638.123 207.579V198.038C638.123 193.939 641.445 190.617 645.543 190.617H655.083C659.181 190.617 662.503 193.939 662.503 198.038V207.579C662.503 211.677 659.181 214.999 655.083 214.999H645.543Z" fill="#EC1D23"/>
<path d="M151.569 271.185C151.569 275.283 148.247 278.605 144.149 278.605H134.609C130.511 278.605 127.189 275.283 127.189 271.185V261.644C127.189 257.545 130.511 254.223 134.609 254.223H144.149C148.247 254.223 151.569 257.545 151.569 261.644V271.185Z" fill="#EC1D23"/>
<path d="M151.569 16.7604C151.569 20.8587 148.247 24.1811 144.149 24.1811H134.609C130.511 24.1811 127.189 20.8587 127.189 16.7604V7.21948C127.189 3.12115 130.511 -0.201233 134.609 -0.201233H144.149C148.247 -0.201233 151.569 3.12115 151.569 7.21948V16.7604Z" fill="#EC1D23"/>
<path d="M405.975 271.185C405.975 275.283 402.653 278.605 398.555 278.605H389.015C384.917 278.605 381.595 275.283 381.595 271.185V261.644C381.595 257.545 384.917 254.223 389.015 254.223H398.555C402.653 254.223 405.975 257.545 405.975 261.644V271.185Z" fill="#EC1D23"/>
<path d="M405.975 16.7604C405.975 20.8587 402.653 24.1811 398.555 24.1811H389.015C384.917 24.1811 381.595 20.8587 381.595 16.7604V7.21948C381.595 3.12115 384.917 -0.201233 389.015 -0.201233H398.555C402.653 -0.201233 405.975 3.12115 405.975 7.21948V16.7604Z" fill="#EC1D23"/>
<path d="M7.41811 183.196C3.32012 183.196 -0.00195312 179.874 -0.00195312 175.776L-0.00195312 166.235C-0.00195312 162.136 3.32012 158.814 7.41811 158.814H16.9582C21.0562 158.814 24.3782 162.136 24.3782 166.235V175.776C24.3782 179.874 21.0562 183.196 16.9582 183.196H7.41811Z" fill="#EC1D23"/>
<path d="M246.961 271.185C246.961 275.283 243.639 278.605 239.541 278.605H230.001C225.903 278.605 222.581 275.283 222.581 271.185V261.644C222.581 257.545 225.903 254.223 230.001 254.223H239.541C243.639 254.223 246.961 257.545 246.961 261.644V271.185Z" fill="#EC1D23"/>
<path d="M246.961 16.7604C246.961 20.8587 243.639 24.1811 239.541 24.1811H230.001C225.903 24.1811 222.581 20.8587 222.581 16.7604V7.21948C222.581 3.12115 225.903 -0.201233 230.001 -0.201233H239.541C243.639 -0.201233 246.961 3.12115 246.961 7.21948V16.7604Z" fill="#EC1D23"/>
<path d="M645.543 183.196C641.445 183.196 638.123 179.874 638.123 175.776V166.235C638.123 162.136 641.445 158.814 645.543 158.814H655.083C659.181 158.814 662.503 162.136 662.503 166.235V175.776C662.503 179.874 659.181 183.196 655.083 183.196H645.543Z" fill="#EC1D23"/>
<path d="M437.771 271.185C437.771 275.283 434.449 278.605 430.351 278.605H420.811C416.713 278.605 413.391 275.283 413.391 271.185V261.644C413.391 257.545 416.713 254.223 420.811 254.223H430.351C434.449 254.223 437.771 257.545 437.771 261.644V271.185Z" fill="#EC1D23"/>
<path d="M437.771 16.7604C437.771 20.8587 434.449 24.1811 430.351 24.1811H420.811C416.713 24.1811 413.391 20.8587 413.391 16.7604V7.21948C413.391 3.12115 416.713 -0.201233 420.811 -0.201233H430.351C434.449 -0.201233 437.771 3.12115 437.771 7.21948V16.7604Z" fill="#EC1D23"/>
<path d="M183.367 271.185C183.367 275.283 180.045 278.605 175.947 278.605H166.407C162.309 278.605 158.987 275.283 158.987 271.185V261.644C158.987 257.545 162.309 254.223 166.407 254.223H175.947C180.045 254.223 183.367 257.545 183.367 261.644V271.185Z" fill="#EC1D23"/>
<path d="M183.367 16.7604C183.367 20.8587 180.045 24.1811 175.947 24.1811H166.407C162.309 24.1811 158.987 20.8587 158.987 16.7604V7.21948C158.987 3.12115 162.309 -0.201233 166.407 -0.201233H175.947C180.045 -0.201233 183.367 3.12115 183.367 7.21948V16.7604Z" fill="#EC1D23"/>
<path d="M7.41811 87.7872C3.32012 87.7872 -0.00195312 84.4648 -0.00195312 80.3665L-0.00195312 70.8256C-0.00195312 66.7272 3.32012 63.4049 7.41811 63.4049H16.9582C21.0562 63.4049 24.3782 66.7272 24.3782 70.8256V80.3665C24.3782 84.4648 21.0562 87.7872 16.9582 87.7872H7.41811Z" fill="#EC1D23"/>
<path d="M645.543 87.7872C641.445 87.7872 638.123 84.4648 638.123 80.3665V70.8256C638.123 66.7272 641.445 63.4049 645.543 63.4049H655.083C659.181 63.4049 662.503 66.7272 662.503 70.8256V80.3665C662.503 84.4648 659.181 87.7872 655.083 87.7872H645.543Z" fill="#EC1D23"/>
<path d="M278.76 271.185C278.76 275.283 275.438 278.605 271.34 278.605H261.799C257.701 278.605 254.379 275.283 254.379 271.185V261.644C254.379 257.545 257.701 254.223 261.799 254.223H271.34C275.438 254.223 278.76 257.545 278.76 261.644V271.185Z" fill="#EC1D23"/>
<path d="M278.76 16.7604C278.76 20.8587 275.438 24.1811 271.34 24.1811H261.799C257.701 24.1811 254.379 20.8587 254.379 16.7604V7.21948C254.379 3.12115 257.701 -0.201233 261.799 -0.201233H271.34C275.438 -0.201233 278.76 3.12115 278.76 7.21948V16.7604Z" fill="#EC1D23"/>
<path d="M533.164 271.185C533.164 275.283 529.842 278.605 525.744 278.605H516.204C512.106 278.605 508.783 275.283 508.783 271.185V261.644C508.783 257.545 512.106 254.223 516.204 254.223H525.744C529.842 254.223 533.164 257.545 533.164 261.644V271.185Z" fill="#EC1D23"/>
<path d="M533.164 16.7604C533.164 20.8587 529.842 24.1811 525.744 24.1811H516.204C512.106 24.1811 508.783 20.8587 508.783 16.7604V7.21948C508.783 3.12115 512.106 -0.201233 516.204 -0.201233H525.744C529.842 -0.201233 533.164 3.12115 533.164 7.21948V16.7604Z" fill="#EC1D23"/>
<path d="M7.41811 151.393C3.32012 151.393 -0.00195312 148.071 -0.00195312 143.973L-0.00195312 134.432C-0.00195312 130.333 3.32012 127.011 7.41811 127.011H16.9582C21.0562 127.011 24.3782 130.333 24.3782 134.432V143.973C24.3782 148.071 21.0562 151.393 16.9582 151.393H7.41811Z" fill="#EC1D23"/>
<path d="M215.165 271.185C215.165 275.283 211.843 278.605 207.745 278.605H198.205C194.107 278.605 190.785 275.283 190.785 271.185V261.644C190.785 257.545 194.107 254.223 198.205 254.223H207.745C211.843 254.223 215.165 257.545 215.165 261.644V271.185Z" fill="#EC1D23"/>
<path d="M215.165 16.7604C215.165 20.8587 211.843 24.1811 207.745 24.1811H198.205C194.107 24.1811 190.785 20.8587 190.785 16.7604V7.21948C190.785 3.12115 194.107 -0.201233 198.205 -0.201233H207.745C211.843 -0.201233 215.165 3.12115 215.165 7.21948V16.7604Z" fill="#EC1D23"/>
<path d="M645.543 151.393C641.445 151.393 638.123 148.071 638.123 143.973V134.432C638.123 130.333 641.445 127.011 645.543 127.011H655.083C659.181 127.011 662.503 130.333 662.503 134.432V143.973C662.503 148.071 659.181 151.393 655.083 151.393H645.543Z" fill="#EC1D23"/>
<path d="M469.569 271.185C469.569 275.283 466.247 278.605 462.149 278.605H452.609C448.511 278.605 445.189 275.283 445.189 271.185V261.644C445.189 257.545 448.511 254.223 452.609 254.223H462.149C466.247 254.223 469.569 257.545 469.569 261.644V271.185Z" fill="#EC1D23"/>
<path d="M469.569 16.7604C469.569 20.8587 466.247 24.1811 462.149 24.1811H452.609C448.511 24.1811 445.189 20.8587 445.189 16.7604V7.21948C445.189 3.12115 448.511 -0.201233 452.609 -0.201233H462.149C466.247 -0.201233 469.569 3.12115 469.569 7.21948V16.7604Z" fill="#EC1D23"/>
<path d="M310.556 271.185C310.556 275.283 307.234 278.605 303.136 278.605H293.596C289.498 278.605 286.176 275.283 286.176 271.185V261.644C286.176 257.545 289.498 254.223 293.596 254.223H303.136C307.234 254.223 310.556 257.545 310.556 261.644V271.185Z" fill="#EC1D23"/>
<path d="M310.556 16.7604C310.556 20.8587 307.234 24.1811 303.136 24.1811H293.596C289.498 24.1811 286.176 20.8587 286.176 16.7604V7.21948C286.176 3.12115 289.498 -0.201233 293.596 -0.201233H303.136C307.234 -0.201233 310.556 3.12115 310.556 7.21948V16.7604Z" fill="#EC1D23"/>
<path d="M7.41811 55.9842C3.32012 55.9842 -0.00195312 52.6618 -0.00195312 48.5634L-0.00195312 39.0225C-0.00195312 34.9242 3.32012 31.6018 7.41811 31.6018H16.9582C21.0562 31.6018 24.3782 34.9242 24.3782 39.0225V48.5634C24.3782 52.6618 21.0562 55.9842 16.9582 55.9842H7.41811Z" fill="#EC1D23"/>
<path d="M645.543 55.9842C641.445 55.9842 638.123 52.6618 638.123 48.5634V39.0225C638.123 34.9242 641.445 31.6018 645.543 31.6018H655.083C659.181 31.6018 662.503 34.9242 662.503 39.0225V48.5634C662.503 52.6618 659.181 55.9842 655.083 55.9842H645.543Z" fill="#EC1D23"/>
<path d="M564.962 271.185C564.962 275.283 561.64 278.605 557.542 278.605H548.002C543.904 278.605 540.582 275.283 540.582 271.185V261.644C540.582 257.545 543.904 254.223 548.002 254.223H557.542C561.64 254.223 564.962 257.545 564.962 261.644V271.185Z" fill="#EC1D23"/>
<path d="M564.962 16.7604C564.962 20.8587 561.64 24.1811 557.542 24.1811H548.002C543.904 24.1811 540.582 20.8587 540.582 16.7604V7.21948C540.582 3.12115 543.904 -0.201233 548.002 -0.201233H557.542C561.64 -0.201233 564.962 3.12115 564.962 7.21948V16.7604Z" fill="#EC1D23"/>
<path d="M7.41811 119.59C3.32012 119.59 -0.00195312 116.268 -0.00195312 112.17L-0.00195312 102.629C-0.00195312 98.5303 3.32012 95.2079 7.41811 95.2079H16.9582C21.0562 95.2079 24.3782 98.5303 24.3782 102.629V112.17C24.3782 116.268 21.0562 119.59 16.9582 119.59H7.41811Z" fill="#EC1D23"/>
<path d="M645.543 119.59C641.445 119.59 638.123 116.268 638.123 112.17V102.629C638.123 98.5303 641.445 95.2079 645.543 95.2079H655.083C659.181 95.2079 662.503 98.5303 662.503 102.629V112.17C662.503 116.268 659.181 119.59 655.083 119.59H645.543Z" fill="#EC1D23"/>
<path d="M501.368 271.185C501.368 275.283 498.045 278.605 493.948 278.605H484.407C480.309 278.605 476.987 275.283 476.987 271.185V261.644C476.987 257.545 480.309 254.223 484.407 254.223H493.948C498.045 254.223 501.368 257.545 501.368 261.644V271.185Z" fill="#EC1D23"/>
<path d="M501.368 16.7604C501.368 20.8587 498.045 24.1811 493.948 24.1811H484.407C480.309 24.1811 476.987 20.8587 476.987 16.7604V7.21948C476.987 3.12115 480.309 -0.201233 484.407 -0.201233H493.948C498.045 -0.201233 501.368 3.12115 501.368 7.21948V16.7604Z" fill="#EC1D23"/>
<path d="M7.41811 24.1811C3.32012 24.1811 -0.00195312 20.8587 -0.00195312 16.7604L-0.00195312 7.21948C-0.00195312 3.12115 3.32012 -0.201233 7.41811 -0.201233H16.9582C21.0562 -0.201233 24.3782 3.12115 24.3782 7.21948V16.7604C24.3782 20.8587 21.0562 24.1811 16.9582 24.1811H7.41811Z" fill="#EC1D23"/>
<path d="M645.543 24.1811C641.445 24.1811 638.123 20.8587 638.123 16.7604V7.21948C638.123 3.12115 641.445 -0.201233 645.543 -0.201233H655.083C659.181 -0.201233 662.503 3.12115 662.503 7.21948V16.7604C662.503 20.8587 659.181 24.1811 655.083 24.1811H645.543Z" fill="#EC1D23"/>
<path d="M596.758 271.185C596.758 275.283 593.436 278.605 589.338 278.605H579.798C575.7 278.605 572.378 275.283 572.378 271.185V261.644C572.378 257.545 575.7 254.223 579.798 254.223H589.338C593.436 254.223 596.758 257.545 596.758 261.644V271.185Z" fill="#EC1D23"/>
<path d="M596.758 16.7604C596.758 20.8587 593.436 24.1811 589.338 24.1811H579.798C575.7 24.1811 572.378 20.8587 572.378 16.7604V7.21948C572.378 3.12115 575.7 -0.201233 579.798 -0.201233H589.338C593.436 -0.201233 596.758 3.12115 596.758 7.21948V16.7604Z" fill="#EC1D23"/>
<path d="M630.703 271.185C630.703 275.283 627.381 278.605 623.283 278.605H613.743C609.645 278.605 606.323 275.283 606.323 271.185V261.644C606.323 257.545 609.645 254.223 613.743 254.223H623.283C627.381 254.223 630.703 257.545 630.703 261.644V271.185Z" fill="#EC1D23"/>
<path d="M630.703 16.7604C630.703 20.8587 627.381 24.1811 623.283 24.1811H613.743C609.645 24.1811 606.323 20.8587 606.323 16.7604V7.21948C606.323 3.12115 609.645 -0.201233 613.743 -0.201233H623.283C627.381 -0.201233 630.703 3.12115 630.703 7.21948V16.7604Z" fill="#EC1D23"/>
<path d="M12.7181 265.884L12.7181 11.4599H650.843V265.884H12.7181Z" fill="#EC1D23"/>
<path d="M7.41811 533.021C3.32012 533.021 -0.00195312 529.698 -0.00195312 525.6L-0.00195312 516.059C-0.00195312 511.961 3.32012 508.638 7.41811 508.638H16.9582C21.0562 508.638 24.3782 511.961 24.3782 516.059V525.6C24.3782 529.698 21.0562 533.021 16.9582 533.021H7.41811Z" fill="#EC1D23"/>
<path d="M645.543 533.021C641.445 533.021 638.123 529.698 638.123 525.6V516.059C638.123 511.961 641.445 508.638 645.543 508.638H655.083C659.181 508.638 662.503 511.961 662.503 516.059V525.6C662.503 529.698 659.181 533.021 655.083 533.021H645.543Z" fill="#EC1D23"/>
<path d="M56.1785 525.6C56.1785 529.698 52.8564 533.021 48.7584 533.021H39.2184C35.1204 533.021 31.7983 529.698 31.7983 525.6V516.059C31.7983 511.961 35.1204 508.638 39.2184 508.638H48.7584C52.8564 508.638 56.1785 511.961 56.1785 516.059V525.6Z" fill="#EC1D23"/>
<path d="M56.1785 271.175C56.1785 275.274 52.8564 278.596 48.7584 278.596H39.2184C35.1204 278.596 31.7983 275.274 31.7983 271.175V261.635C31.7983 257.536 35.1204 254.214 39.2184 254.214H48.7584C52.8564 254.214 56.1785 257.536 56.1785 261.635V271.175Z" fill="#EC1D23"/>
<path d="M342.381 525.6C342.381 529.698 339.059 533.021 334.961 533.021H325.421C321.323 533.021 318.001 529.698 318.001 525.6V516.059C318.001 511.961 321.323 508.638 325.421 508.638H334.961C339.059 508.638 342.381 511.961 342.381 516.059V525.6Z" fill="#EC1D23"/>
<path d="M342.381 271.175C342.381 275.274 339.059 278.596 334.961 278.596H325.421C321.323 278.596 318.001 275.274 318.001 271.175V261.635C318.001 257.536 321.323 254.214 325.421 254.214H334.961C339.059 254.214 342.381 257.536 342.381 261.635V271.175Z" fill="#EC1D23"/>
<path d="M7.41811 501.217C3.32012 501.217 -0.00195312 497.895 -0.00195312 493.797L-0.00195312 484.256C-0.00195312 480.157 3.32012 476.835 7.41811 476.835H16.9582C21.0562 476.835 24.3782 480.157 24.3782 484.256V493.797C24.3782 497.895 21.0562 501.217 16.9582 501.217H7.41811Z" fill="#EC1D23"/>
<path d="M87.9756 525.6C87.9756 529.698 84.6536 533.021 80.5556 533.021H71.0155C66.9175 533.021 63.5955 529.698 63.5955 525.6V516.059C63.5955 511.961 66.9175 508.638 71.0155 508.638H80.5556C84.6536 508.638 87.9756 511.961 87.9756 516.059V525.6Z" fill="#EC1D23"/>
<path d="M87.9756 271.175C87.9756 275.274 84.6536 278.596 80.5556 278.596H71.0155C66.9175 278.596 63.5955 275.274 63.5955 271.175V261.635C63.5955 257.536 66.9175 254.214 71.0155 254.214H80.5556C84.6536 254.214 87.9756 257.536 87.9756 261.635V271.175Z" fill="#EC1D23"/>
<path d="M645.543 501.217C641.445 501.217 638.123 497.895 638.123 493.797V484.256C638.123 480.157 641.445 476.835 645.543 476.835H655.083C659.181 476.835 662.503 480.157 662.503 484.256V493.797C662.503 497.895 659.181 501.217 655.083 501.217H645.543Z" fill="#EC1D23"/>
<path d="M374.178 525.6C374.178 529.698 370.856 533.021 366.758 533.021H357.218C353.12 533.021 349.798 529.698 349.798 525.6V516.059C349.798 511.961 353.12 508.638 357.218 508.638H366.758C370.856 508.638 374.178 511.961 374.178 516.059V525.6Z" fill="#EC1D23"/>
<path d="M374.178 271.175C374.178 275.274 370.856 278.596 366.758 278.596H357.218C353.12 278.596 349.798 275.274 349.798 271.175V261.635C349.798 257.536 353.12 254.214 357.218 254.214H366.758C370.856 254.214 374.178 257.536 374.178 261.635V271.175Z" fill="#EC1D23"/>
<path d="M119.772 525.6C119.772 529.698 116.45 533.021 112.352 533.021H102.812C98.7142 533.021 95.3921 529.698 95.3921 525.6V516.059C95.3921 511.961 98.7142 508.638 102.812 508.638H112.352C116.45 508.638 119.772 511.961 119.772 516.059V525.6Z" fill="#EC1D23"/>
<path d="M119.772 271.175C119.772 275.274 116.45 278.596 112.352 278.596H102.812C98.7142 278.596 95.3921 275.274 95.3921 271.175V261.635C95.3921 257.536 98.7142 254.214 102.812 254.214H112.352C116.45 254.214 119.772 257.536 119.772 261.635V271.175Z" fill="#EC1D23"/>
<path d="M7.41811 469.414C3.32012 469.414 -0.00195312 466.092 -0.00195312 461.994L-0.00195312 452.453C-0.00195312 448.354 3.32012 445.032 7.41811 445.032H16.9582C21.0562 445.032 24.3782 448.354 24.3782 452.453V461.994C24.3782 466.092 21.0562 469.414 16.9582 469.414H7.41811Z" fill="#EC1D23"/>
<path d="M645.543 469.414C641.445 469.414 638.123 466.092 638.123 461.994V452.453C638.123 448.354 641.445 445.032 645.543 445.032H655.083C659.181 445.032 662.503 448.354 662.503 452.453V461.994C662.503 466.092 659.181 469.414 655.083 469.414H645.543Z" fill="#EC1D23"/>
<path d="M151.569 525.6C151.569 529.698 148.247 533.021 144.149 533.021H134.609C130.511 533.021 127.189 529.698 127.189 525.6V516.059C127.189 511.961 130.511 508.638 134.609 508.638H144.149C148.247 508.638 151.569 511.961 151.569 516.059V525.6Z" fill="#EC1D23"/>
<path d="M151.569 271.175C151.569 275.274 148.247 278.596 144.149 278.596H134.609C130.511 278.596 127.189 275.274 127.189 271.175V261.635C127.189 257.536 130.511 254.214 134.609 254.214H144.149C148.247 254.214 151.569 257.536 151.569 261.635V271.175Z" fill="#EC1D23"/>
<path d="M405.975 525.6C405.975 529.698 402.653 533.021 398.555 533.021H389.015C384.917 533.021 381.595 529.698 381.595 525.6V516.059C381.595 511.961 384.917 508.638 389.015 508.638H398.555C402.653 508.638 405.975 511.961 405.975 516.059V525.6Z" fill="#EC1D23"/>
<path d="M405.975 271.175C405.975 275.274 402.653 278.596 398.555 278.596H389.015C384.917 278.596 381.595 275.274 381.595 271.175V261.635C381.595 257.536 384.917 254.214 389.015 254.214H398.555C402.653 254.214 405.975 257.536 405.975 261.635V271.175Z" fill="#EC1D23"/>
<path d="M7.41811 437.611C3.32012 437.611 -0.00195312 434.289 -0.00195312 430.191L-0.00195312 420.65C-0.00195312 416.551 3.32012 413.229 7.41811 413.229H16.9582C21.0562 413.229 24.3782 416.551 24.3782 420.65V430.191C24.3782 434.289 21.0562 437.611 16.9582 437.611H7.41811Z" fill="#EC1D23"/>
<path d="M246.961 525.6C246.961 529.698 243.639 533.021 239.541 533.021H230.001C225.903 533.021 222.581 529.698 222.581 525.6V516.059C222.581 511.961 225.903 508.638 230.001 508.638H239.541C243.639 508.638 246.961 511.961 246.961 516.059V525.6Z" fill="#EC1D23"/>
<path d="M246.961 271.175C246.961 275.274 243.639 278.596 239.541 278.596H230.001C225.903 278.596 222.581 275.274 222.581 271.175V261.635C222.581 257.536 225.903 254.214 230.001 254.214H239.541C243.639 254.214 246.961 257.536 246.961 261.635V271.175Z" fill="#EC1D23"/>
<path d="M645.543 437.611C641.445 437.611 638.123 434.289 638.123 430.191V420.65C638.123 416.551 641.445 413.229 645.543 413.229H655.083C659.181 413.229 662.503 416.551 662.503 420.65V430.191C662.503 434.289 659.181 437.611 655.083 437.611H645.543Z" fill="#EC1D23"/>
<path d="M437.771 525.6C437.771 529.698 434.449 533.021 430.351 533.021H420.811C416.713 533.021 413.391 529.698 413.391 525.6V516.059C413.391 511.961 416.713 508.638 420.811 508.638H430.351C434.449 508.638 437.771 511.961 437.771 516.059V525.6Z" fill="#EC1D23"/>
<path d="M437.771 271.175C437.771 275.274 434.449 278.596 430.351 278.596H420.811C416.713 278.596 413.391 275.274 413.391 271.175V261.635C413.391 257.536 416.713 254.214 420.811 254.214H430.351C434.449 254.214 437.771 257.536 437.771 261.635V271.175Z" fill="#EC1D23"/>
<path d="M183.367 525.6C183.367 529.698 180.045 533.021 175.947 533.021H166.407C162.309 533.021 158.987 529.698 158.987 525.6V516.059C158.987 511.961 162.309 508.638 166.407 508.638H175.947C180.045 508.638 183.367 511.961 183.367 516.059V525.6Z" fill="#EC1D23"/>
<path d="M183.367 271.175C183.367 275.274 180.045 278.596 175.947 278.596H166.407C162.309 278.596 158.987 275.274 158.987 271.175V261.635C158.987 257.536 162.309 254.214 166.407 254.214H175.947C180.045 254.214 183.367 257.536 183.367 261.635V271.175Z" fill="#EC1D23"/>
<path d="M7.41811 342.202C3.32012 342.202 -0.00195312 338.88 -0.00195312 334.782L-0.00195312 325.241C-0.00195312 321.142 3.32012 317.82 7.41811 317.82H16.9582C21.0562 317.82 24.3782 321.142 24.3782 325.241V334.782C24.3782 338.88 21.0562 342.202 16.9582 342.202H7.41811Z" fill="#EC1D23"/>
<path d="M645.543 342.202C641.445 342.202 638.123 338.88 638.123 334.782V325.241C638.123 321.142 641.445 317.82 645.543 317.82H655.083C659.181 317.82 662.503 321.142 662.503 325.241V334.782C662.503 338.88 659.181 342.202 655.083 342.202H645.543Z" fill="#EC1D23"/>
<path d="M278.76 525.6C278.76 529.698 275.438 533.021 271.34 533.021H261.799C257.701 533.021 254.379 529.698 254.379 525.6V516.059C254.379 511.961 257.701 508.638 261.799 508.638H271.34C275.438 508.638 278.76 511.961 278.76 516.059V525.6Z" fill="#EC1D23"/>
<path d="M278.76 271.175C278.76 275.274 275.438 278.596 271.34 278.596H261.799C257.701 278.596 254.379 275.274 254.379 271.175V261.635C254.379 257.536 257.701 254.214 261.799 254.214H271.34C275.438 254.214 278.76 257.536 278.76 261.635V271.175Z" fill="#EC1D23"/>
<path d="M533.164 525.6C533.164 529.698 529.842 533.021 525.744 533.021H516.204C512.106 533.021 508.783 529.698 508.783 525.6V516.059C508.783 511.961 512.106 508.638 516.204 508.638H525.744C529.842 508.638 533.164 511.961 533.164 516.059V525.6Z" fill="#EC1D23"/>
<path d="M533.164 271.175C533.164 275.274 529.842 278.596 525.744 278.596H516.204C512.106 278.596 508.783 275.274 508.783 271.175V261.635C508.783 257.536 512.106 254.214 516.204 254.214H525.744C529.842 254.214 533.164 257.536 533.164 261.635V271.175Z" fill="#EC1D23"/>
<path d="M7.41811 405.808C3.32012 405.808 -0.00195312 402.486 -0.00195312 398.388L-0.00195312 388.847C-0.00195312 384.748 3.32012 381.426 7.41811 381.426H16.9582C21.0562 381.426 24.3782 384.748 24.3782 388.847V398.388C24.3782 402.486 21.0562 405.808 16.9582 405.808H7.41811Z" fill="#EC1D23"/>
<path d="M215.165 525.6C215.165 529.698 211.843 533.021 207.745 533.021H198.205C194.107 533.021 190.785 529.698 190.785 525.6V516.059C190.785 511.961 194.107 508.638 198.205 508.638H207.745C211.843 508.638 215.165 511.961 215.165 516.059V525.6Z" fill="#EC1D23"/>
<path d="M215.165 271.175C215.165 275.274 211.843 278.596 207.745 278.596H198.205C194.107 278.596 190.785 275.274 190.785 271.175V261.635C190.785 257.536 194.107 254.214 198.205 254.214H207.745C211.843 254.214 215.165 257.536 215.165 261.635V271.175Z" fill="#EC1D23"/>
<path d="M645.543 405.808C641.445 405.808 638.123 402.486 638.123 398.388V388.847C638.123 384.748 641.445 381.426 645.543 381.426H655.083C659.181 381.426 662.503 384.748 662.503 388.847V398.388C662.503 402.486 659.181 405.808 655.083 405.808H645.543Z" fill="#EC1D23"/>
<path d="M469.569 525.6C469.569 529.698 466.247 533.021 462.149 533.021H452.609C448.511 533.021 445.189 529.698 445.189 525.6V516.059C445.189 511.961 448.511 508.638 452.609 508.638H462.149C466.247 508.638 469.569 511.961 469.569 516.059V525.6Z" fill="#EC1D23"/>
<path d="M469.569 271.175C469.569 275.274 466.247 278.596 462.149 278.596H452.609C448.511 278.596 445.189 275.274 445.189 271.175V261.635C445.189 257.536 448.511 254.214 452.609 254.214H462.149C466.247 254.214 469.569 257.536 469.569 261.635V271.175Z" fill="#EC1D23"/>
<path d="M310.556 525.6C310.556 529.698 307.234 533.021 303.136 533.021H293.596C289.498 533.021 286.176 529.698 286.176 525.6V516.059C286.176 511.961 289.498 508.638 293.596 508.638H303.136C307.234 508.638 310.556 511.961 310.556 516.059V525.6Z" fill="#EC1D23"/>
<path d="M310.556 271.175C310.556 275.274 307.234 278.596 303.136 278.596H293.596C289.498 278.596 286.176 275.274 286.176 271.175V261.635C286.176 257.536 289.498 254.214 293.596 254.214H303.136C307.234 254.214 310.556 257.536 310.556 261.635V271.175Z" fill="#EC1D23"/>
<path d="M7.41811 310.399C3.32012 310.399 -0.00195312 307.077 -0.00195312 302.978L-0.00195312 293.438C-0.00195312 289.339 3.32012 286.017 7.41811 286.017H16.9582C21.0562 286.017 24.3782 289.339 24.3782 293.438V302.978C24.3782 307.077 21.0562 310.399 16.9582 310.399H7.41811Z" fill="#EC1D23"/>
<path d="M645.543 310.399C641.445 310.399 638.123 307.077 638.123 302.978V293.438C638.123 289.339 641.445 286.017 645.543 286.017H655.083C659.181 286.017 662.503 289.339 662.503 293.438V302.978C662.503 307.077 659.181 310.399 655.083 310.399H645.543Z" fill="#EC1D23"/>
<path d="M564.962 525.6C564.962 529.698 561.64 533.021 557.542 533.021H548.002C543.904 533.021 540.582 529.698 540.582 525.6V516.059C540.582 511.961 543.904 508.638 548.002 508.638H557.542C561.64 508.638 564.962 511.961 564.962 516.059V525.6Z" fill="#EC1D23"/>
<path d="M564.962 271.175C564.962 275.274 561.64 278.596 557.542 278.596H548.002C543.904 278.596 540.582 275.274 540.582 271.175V261.635C540.582 257.536 543.904 254.214 548.002 254.214H557.542C561.64 254.214 564.962 257.536 564.962 261.635V271.175Z" fill="#EC1D23"/>
<path d="M7.41811 374.005C3.32012 374.005 -0.00195312 370.683 -0.00195312 366.585L-0.00195312 357.044C-0.00195312 352.945 3.32012 349.623 7.41811 349.623H16.9582C21.0562 349.623 24.3782 352.945 24.3782 357.044V366.585C24.3782 370.683 21.0562 374.005 16.9582 374.005H7.41811Z" fill="#EC1D23"/>
<path d="M645.543 374.005C641.445 374.005 638.123 370.683 638.123 366.585V357.044C638.123 352.945 641.445 349.623 645.543 349.623H655.083C659.181 349.623 662.503 352.945 662.503 357.044V366.585C662.503 370.683 659.181 374.005 655.083 374.005H645.543Z" fill="#EC1D23"/>
<path d="M501.368 525.6C501.368 529.698 498.045 533.021 493.948 533.021H484.407C480.309 533.021 476.987 529.698 476.987 525.6V516.059C476.987 511.961 480.309 508.638 484.407 508.638H493.948C498.045 508.638 501.368 511.961 501.368 516.059V525.6Z" fill="#EC1D23"/>
<path d="M501.368 271.175C501.368 275.274 498.045 278.596 493.948 278.596H484.407C480.309 278.596 476.987 275.274 476.987 271.175V261.635C476.987 257.536 480.309 254.214 484.407 254.214H493.948C498.045 254.214 501.368 257.536 501.368 261.635V271.175Z" fill="#EC1D23"/>
<path d="M7.41811 278.596C3.32012 278.596 -0.00195312 275.274 -0.00195312 271.175L-0.00195312 261.635C-0.00195312 257.536 3.32012 254.214 7.41811 254.214H16.9582C21.0562 254.214 24.3782 257.536 24.3782 261.635V271.175C24.3782 275.274 21.0562 278.596 16.9582 278.596H7.41811Z" fill="#EC1D23"/>
<path d="M645.543 278.596C641.445 278.596 638.123 275.274 638.123 271.175V261.635C638.123 257.536 641.445 254.214 645.543 254.214H655.083C659.181 254.214 662.503 257.536 662.503 261.635V271.175C662.503 275.274 659.181 278.596 655.083 278.596H645.543Z" fill="#EC1D23"/>
<path d="M596.758 525.6C596.758 529.698 593.436 533.021 589.338 533.021H579.798C575.7 533.021 572.378 529.698 572.378 525.6V516.059C572.378 511.961 575.7 508.638 579.798 508.638H589.338C593.436 508.638 596.758 511.961 596.758 516.059V525.6Z" fill="#EC1D23"/>
<path d="M596.758 271.175C596.758 275.274 593.436 278.596 589.338 278.596H579.798C575.7 278.596 572.378 275.274 572.378 271.175V261.635C572.378 257.536 575.7 254.214 579.798 254.214H589.338C593.436 254.214 596.758 257.536 596.758 261.635V271.175Z" fill="#EC1D23"/>
<path d="M630.703 525.6C630.703 529.698 627.381 533.021 623.283 533.021H613.743C609.645 533.021 606.323 529.698 606.323 525.6V516.059C606.323 511.961 609.645 508.638 613.743 508.638H623.283C627.381 508.638 630.703 511.961 630.703 516.059V525.6Z" fill="#EC1D23"/>
<path d="M630.703 271.175C630.703 275.274 627.381 278.596 623.283 278.596H613.743C609.645 278.596 606.323 275.274 606.323 271.175V261.635C606.323 257.536 609.645 254.214 613.743 254.214H623.283C627.381 254.214 630.703 257.536 630.703 261.635V271.175Z" fill="#EC1D23"/>
<path d="M12.7181 520.299L12.7181 265.875H650.843V520.299H12.7181Z" fill="#EC1D23"/>
<path d="M7.41811 659.612C3.32012 659.612 -0.00195312 656.29 -0.00195312 652.192L-0.00195312 642.651C-0.00195312 638.552 3.32012 635.23 7.41811 635.23H16.9582C21.0562 635.23 24.3782 638.552 24.3782 642.651V652.192C24.3782 656.29 21.0562 659.612 16.9582 659.612H7.41811Z" fill="#EC1D23"/>
<path d="M645.543 659.612C641.445 659.612 638.123 656.29 638.123 652.192V642.651C638.123 638.552 641.445 635.23 645.543 635.23H655.083C659.181 635.23 662.503 638.552 662.503 642.651V652.192C662.503 656.29 659.181 659.612 655.083 659.612H645.543Z" fill="#EC1D23"/>
<path d="M56.1785 652.192C56.1785 656.29 52.8564 659.612 48.7584 659.612H39.2184C35.1204 659.612 31.7983 656.29 31.7983 652.192V642.651C31.7983 638.552 35.1204 635.23 39.2184 635.23H48.7584C52.8564 635.23 56.1785 638.552 56.1785 642.651V652.192Z" fill="#EC1D23"/>
<path d="M56.1785 397.767C56.1785 401.866 52.8564 405.188 48.7584 405.188H39.2184C35.1204 405.188 31.7983 401.866 31.7983 397.767V388.226C31.7983 384.128 35.1204 380.806 39.2184 380.806H48.7584C52.8564 380.806 56.1785 384.128 56.1785 388.226V397.767Z" fill="#EC1D23"/>
<path d="M342.381 652.192C342.381 656.29 339.059 659.612 334.961 659.612H325.421C321.323 659.612 318.001 656.29 318.001 652.192V642.651C318.001 638.552 321.323 635.23 325.421 635.23H334.961C339.059 635.23 342.381 638.552 342.381 642.651V652.192Z" fill="#EC1D23"/>
<path d="M342.381 397.767C342.381 401.866 339.059 405.188 334.961 405.188H325.421C321.323 405.188 318.001 401.866 318.001 397.767V388.226C318.001 384.128 321.323 380.806 325.421 380.806H334.961C339.059 380.806 342.381 384.128 342.381 388.226V397.767Z" fill="#EC1D23"/>
<path d="M7.41811 627.809C3.32012 627.809 -0.00195312 624.487 -0.00195312 620.389L-0.00195312 610.848C-0.00195312 606.749 3.32012 603.427 7.41811 603.427H16.9582C21.0562 603.427 24.3782 606.749 24.3782 610.848V620.389C24.3782 624.487 21.0562 627.809 16.9582 627.809H7.41811Z" fill="#EC1D23"/>
<path d="M87.9756 652.192C87.9756 656.29 84.6536 659.612 80.5556 659.612H71.0155C66.9175 659.612 63.5955 656.29 63.5955 652.192V642.651C63.5955 638.552 66.9175 635.23 71.0155 635.23H80.5556C84.6536 635.23 87.9756 638.552 87.9756 642.651V652.192Z" fill="#EC1D23"/>
<path d="M87.9756 397.767C87.9756 401.866 84.6536 405.188 80.5556 405.188H71.0155C66.9175 405.188 63.5955 401.866 63.5955 397.767V388.226C63.5955 384.128 66.9175 380.806 71.0155 380.806H80.5556C84.6536 380.806 87.9756 384.128 87.9756 388.226V397.767Z" fill="#EC1D23"/>
<path d="M645.543 627.809C641.445 627.809 638.123 624.487 638.123 620.389V610.848C638.123 606.749 641.445 603.427 645.543 603.427H655.083C659.181 603.427 662.503 606.749 662.503 610.848V620.389C662.503 624.487 659.181 627.809 655.083 627.809H645.543Z" fill="#EC1D23"/>
<path d="M374.178 652.192C374.178 656.29 370.856 659.612 366.758 659.612H357.218C353.12 659.612 349.798 656.29 349.798 652.192V642.651C349.798 638.552 353.12 635.23 357.218 635.23H366.758C370.856 635.23 374.178 638.552 374.178 642.651V652.192Z" fill="#EC1D23"/>
<path d="M374.178 397.767C374.178 401.866 370.856 405.188 366.758 405.188H357.218C353.12 405.188 349.798 401.866 349.798 397.767V388.226C349.798 384.128 353.12 380.806 357.218 380.806H366.758C370.856 380.806 374.178 384.128 374.178 388.226V397.767Z" fill="#EC1D23"/>
<path d="M119.772 652.192C119.772 656.29 116.45 659.612 112.352 659.612H102.812C98.7142 659.612 95.3921 656.29 95.3921 652.192V642.651C95.3921 638.552 98.7142 635.23 102.812 635.23H112.352C116.45 635.23 119.772 638.552 119.772 642.651V652.192Z" fill="#EC1D23"/>
<path d="M119.772 397.767C119.772 401.866 116.45 405.188 112.352 405.188H102.812C98.7142 405.188 95.3921 401.866 95.3921 397.767V388.226C95.3921 384.128 98.7142 380.806 102.812 380.806H112.352C116.45 380.806 119.772 384.128 119.772 388.226V397.767Z" fill="#EC1D23"/>
<path d="M7.41811 596.006C3.32012 596.006 -0.00195312 592.684 -0.00195312 588.586L-0.00195312 579.045C-0.00195312 574.946 3.32012 571.624 7.41811 571.624H16.9582C21.0562 571.624 24.3782 574.946 24.3782 579.045V588.586C24.3782 592.684 21.0562 596.006 16.9582 596.006H7.41811Z" fill="#EC1D23"/>
<path d="M645.543 596.006C641.445 596.006 638.123 592.684 638.123 588.586V579.045C638.123 574.946 641.445 571.624 645.543 571.624H655.083C659.181 571.624 662.503 574.946 662.503 579.045V588.586C662.503 592.684 659.181 596.006 655.083 596.006H645.543Z" fill="#EC1D23"/>
<path d="M151.569 652.192C151.569 656.29 148.247 659.612 144.149 659.612H134.609C130.511 659.612 127.189 656.29 127.189 652.192V642.651C127.189 638.552 130.511 635.23 134.609 635.23H144.149C148.247 635.23 151.569 638.552 151.569 642.651V652.192Z" fill="#EC1D23"/>
<path d="M151.569 397.767C151.569 401.866 148.247 405.188 144.149 405.188H134.609C130.511 405.188 127.189 401.866 127.189 397.767V388.226C127.189 384.128 130.511 380.806 134.609 380.806H144.149C148.247 380.806 151.569 384.128 151.569 388.226V397.767Z" fill="#EC1D23"/>
<path d="M405.975 652.192C405.975 656.29 402.653 659.612 398.555 659.612H389.015C384.917 659.612 381.595 656.29 381.595 652.192V642.651C381.595 638.552 384.917 635.23 389.015 635.23H398.555C402.653 635.23 405.975 638.552 405.975 642.651V652.192Z" fill="#EC1D23"/>
<path d="M405.975 397.767C405.975 401.866 402.653 405.188 398.555 405.188H389.015C384.917 405.188 381.595 401.866 381.595 397.767V388.226C381.595 384.128 384.917 380.806 389.015 380.806H398.555C402.653 380.806 405.975 384.128 405.975 388.226V397.767Z" fill="#EC1D23"/>
<path d="M7.41811 564.203C3.32012 564.203 -0.00195312 560.881 -0.00195312 556.782L-0.00195312 547.242C-0.00195312 543.143 3.32012 539.821 7.41811 539.821H16.9582C21.0562 539.821 24.3782 543.143 24.3782 547.242V556.782C24.3782 560.881 21.0562 564.203 16.9582 564.203H7.41811Z" fill="#EC1D23"/>
<path d="M246.961 652.192C246.961 656.29 243.639 659.612 239.541 659.612H230.001C225.903 659.612 222.581 656.29 222.581 652.192V642.651C222.581 638.552 225.903 635.23 230.001 635.23H239.541C243.639 635.23 246.961 638.552 246.961 642.651V652.192Z" fill="#EC1D23"/>
<path d="M246.961 397.767C246.961 401.866 243.639 405.188 239.541 405.188H230.001C225.903 405.188 222.581 401.866 222.581 397.767V388.226C222.581 384.128 225.903 380.806 230.001 380.806H239.541C243.639 380.806 246.961 384.128 246.961 388.226V397.767Z" fill="#EC1D23"/>
<path d="M645.543 564.203C641.445 564.203 638.123 560.881 638.123 556.782V547.242C638.123 543.143 641.445 539.821 645.543 539.821H655.083C659.181 539.821 662.503 543.143 662.503 547.242V556.782C662.503 560.881 659.181 564.203 655.083 564.203H645.543Z" fill="#EC1D23"/>
<path d="M437.771 652.192C437.771 656.29 434.449 659.612 430.351 659.612H420.811C416.713 659.612 413.391 656.29 413.391 652.192V642.651C413.391 638.552 416.713 635.23 420.811 635.23H430.351C434.449 635.23 437.771 638.552 437.771 642.651V652.192Z" fill="#EC1D23"/>
<path d="M437.771 397.767C437.771 401.866 434.449 405.188 430.351 405.188H420.811C416.713 405.188 413.391 401.866 413.391 397.767V388.226C413.391 384.128 416.713 380.806 420.811 380.806H430.351C434.449 380.806 437.771 384.128 437.771 388.226V397.767Z" fill="#EC1D23"/>
<path d="M183.367 652.192C183.367 656.29 180.045 659.612 175.947 659.612H166.407C162.309 659.612 158.987 656.29 158.987 652.192V642.651C158.987 638.552 162.309 635.23 166.407 635.23H175.947C180.045 635.23 183.367 638.552 183.367 642.651V652.192Z" fill="#EC1D23"/>
<path d="M183.367 397.767C183.367 401.866 180.045 405.188 175.947 405.188H166.407C162.309 405.188 158.987 401.866 158.987 397.767V388.226C158.987 384.128 162.309 380.806 166.407 380.806H175.947C180.045 380.806 183.367 384.128 183.367 388.226V397.767Z" fill="#EC1D23"/>
<path d="M7.41811 468.794C3.32012 468.794 -0.00195312 465.472 -0.00195312 461.373L-0.00195312 451.832C-0.00195312 447.734 3.32012 444.412 7.41811 444.412H16.9582C21.0562 444.412 24.3782 447.734 24.3782 451.832V461.373C24.3782 465.472 21.0562 468.794 16.9582 468.794H7.41811Z" fill="#EC1D23"/>
<path d="M645.543 468.794C641.445 468.794 638.123 465.472 638.123 461.373V451.832C638.123 447.734 641.445 444.412 645.543 444.412H655.083C659.181 444.412 662.503 447.734 662.503 451.832V461.373C662.503 465.472 659.181 468.794 655.083 468.794H645.543Z" fill="#EC1D23"/>
<path d="M278.76 652.192C278.76 656.29 275.438 659.612 271.34 659.612H261.799C257.701 659.612 254.379 656.29 254.379 652.192V642.651C254.379 638.552 257.701 635.23 261.799 635.23H271.34C275.438 635.23 278.76 638.552 278.76 642.651V652.192Z" fill="#EC1D23"/>
<path d="M278.76 397.767C278.76 401.866 275.438 405.188 271.34 405.188H261.799C257.701 405.188 254.379 401.866 254.379 397.767V388.226C254.379 384.128 257.701 380.806 261.799 380.806H271.34C275.438 380.806 278.76 384.128 278.76 388.226V397.767Z" fill="#EC1D23"/>
<path d="M533.164 652.192C533.164 656.29 529.842 659.612 525.744 659.612H516.204C512.106 659.612 508.783 656.29 508.783 652.192V642.651C508.783 638.552 512.106 635.23 516.204 635.23H525.744C529.842 635.23 533.164 638.552 533.164 642.651V652.192Z" fill="#EC1D23"/>
<path d="M533.164 397.767C533.164 401.866 529.842 405.188 525.744 405.188H516.204C512.106 405.188 508.783 401.866 508.783 397.767V388.226C508.783 384.128 512.106 380.806 516.204 380.806H525.744C529.842 380.806 533.164 384.128 533.164 388.226V397.767Z" fill="#EC1D23"/>
<path d="M7.41811 532.4C3.32012 532.4 -0.00195312 529.078 -0.00195312 524.979L-0.00195312 515.439C-0.00195312 511.34 3.32012 508.018 7.41811 508.018H16.9582C21.0562 508.018 24.3782 511.34 24.3782 515.439V524.979C24.3782 529.078 21.0562 532.4 16.9582 532.4H7.41811Z" fill="#EC1D23"/>
<path d="M215.165 652.192C215.165 656.29 211.843 659.612 207.745 659.612H198.205C194.107 659.612 190.785 656.29 190.785 652.192V642.651C190.785 638.552 194.107 635.23 198.205 635.23H207.745C211.843 635.23 215.165 638.552 215.165 642.651V652.192Z" fill="#EC1D23"/>
<path d="M215.165 397.767C215.165 401.866 211.843 405.188 207.745 405.188H198.205C194.107 405.188 190.785 401.866 190.785 397.767V388.226C190.785 384.128 194.107 380.806 198.205 380.806H207.745C211.843 380.806 215.165 384.128 215.165 388.226V397.767Z" fill="#EC1D23"/>
<path d="M645.543 532.4C641.445 532.4 638.123 529.078 638.123 524.979V515.439C638.123 511.34 641.445 508.018 645.543 508.018H655.083C659.181 508.018 662.503 511.34 662.503 515.439V524.979C662.503 529.078 659.181 532.4 655.083 532.4H645.543Z" fill="#EC1D23"/>
<path d="M469.569 652.192C469.569 656.29 466.247 659.612 462.149 659.612H452.609C448.511 659.612 445.189 656.29 445.189 652.192V642.651C445.189 638.552 448.511 635.23 452.609 635.23H462.149C466.247 635.23 469.569 638.552 469.569 642.651V652.192Z" fill="#EC1D23"/>
<path d="M469.569 397.767C469.569 401.866 466.247 405.188 462.149 405.188H452.609C448.511 405.188 445.189 401.866 445.189 397.767V388.226C445.189 384.128 448.511 380.806 452.609 380.806H462.149C466.247 380.806 469.569 384.128 469.569 388.226V397.767Z" fill="#EC1D23"/>
<path d="M310.556 652.192C310.556 656.29 307.234 659.612 303.136 659.612H293.596C289.498 659.612 286.176 656.29 286.176 652.192V642.651C286.176 638.552 289.498 635.23 293.596 635.23H303.136C307.234 635.23 310.556 638.552 310.556 642.651V652.192Z" fill="#EC1D23"/>
<path d="M310.556 397.767C310.556 401.866 307.234 405.188 303.136 405.188H293.596C289.498 405.188 286.176 401.866 286.176 397.767V388.226C286.176 384.128 289.498 380.806 293.596 380.806H303.136C307.234 380.806 310.556 384.128 310.556 388.226V397.767Z" fill="#EC1D23"/>
<path d="M7.41811 436.991C3.32012 436.991 -0.00195312 433.669 -0.00195312 429.57L-0.00195312 420.029C-0.00195312 415.931 3.32012 412.609 7.41811 412.609H16.9582C21.0562 412.609 24.3782 415.931 24.3782 420.029V429.57C24.3782 433.669 21.0562 436.991 16.9582 436.991H7.41811Z" fill="#EC1D23"/>
<path d="M645.543 436.991C641.445 436.991 638.123 433.669 638.123 429.57V420.029C638.123 415.931 641.445 412.609 645.543 412.609H655.083C659.181 412.609 662.503 415.931 662.503 420.029V429.57C662.503 433.669 659.181 436.991 655.083 436.991H645.543Z" fill="#EC1D23"/>
<path d="M564.962 652.192C564.962 656.29 561.64 659.612 557.542 659.612H548.002C543.904 659.612 540.582 656.29 540.582 652.192V642.651C540.582 638.552 543.904 635.23 548.002 635.23H557.542C561.64 635.23 564.962 638.552 564.962 642.651V652.192Z" fill="#EC1D23"/>
<path d="M564.962 397.767C564.962 401.866 561.64 405.188 557.542 405.188H548.002C543.904 405.188 540.582 401.866 540.582 397.767V388.226C540.582 384.128 543.904 380.806 548.002 380.806H557.542C561.64 380.806 564.962 384.128 564.962 388.226V397.767Z" fill="#EC1D23"/>
<path d="M7.41811 500.597C3.32012 500.597 -0.00195312 497.275 -0.00195312 493.176L-0.00195312 483.635C-0.00195312 479.537 3.32012 476.215 7.41811 476.215H16.9582C21.0562 476.215 24.3782 479.537 24.3782 483.635V493.176C24.3782 497.275 21.0562 500.597 16.9582 500.597H7.41811Z" fill="#EC1D23"/>
<path d="M645.543 500.597C641.445 500.597 638.123 497.275 638.123 493.176V483.635C638.123 479.537 641.445 476.215 645.543 476.215H655.083C659.181 476.215 662.503 479.537 662.503 483.635V493.176C662.503 497.275 659.181 500.597 655.083 500.597H645.543Z" fill="#EC1D23"/>
<path d="M501.368 652.192C501.368 656.29 498.045 659.612 493.948 659.612H484.407C480.309 659.612 476.987 656.29 476.987 652.192V642.651C476.987 638.552 480.309 635.23 484.407 635.23H493.948C498.045 635.23 501.368 638.552 501.368 642.651V652.192Z" fill="#EC1D23"/>
<path d="M501.368 397.767C501.368 401.866 498.045 405.188 493.948 405.188H484.407C480.309 405.188 476.987 401.866 476.987 397.767V388.226C476.987 384.128 480.309 380.806 484.407 380.806H493.948C498.045 380.806 501.368 384.128 501.368 388.226V397.767Z" fill="#EC1D23"/>
<path d="M7.41811 405.188C3.32012 405.188 -0.00195312 401.866 -0.00195312 397.767L-0.00195312 388.226C-0.00195312 384.128 3.32012 380.806 7.41811 380.806H16.9582C21.0562 380.806 24.3782 384.128 24.3782 388.226V397.767C24.3782 401.866 21.0562 405.188 16.9582 405.188H7.41811Z" fill="#EC1D23"/>
<path d="M645.543 405.188C641.445 405.188 638.123 401.866 638.123 397.767V388.226C638.123 384.128 641.445 380.806 645.543 380.806H655.083C659.181 380.806 662.503 384.128 662.503 388.226V397.767C662.503 401.866 659.181 405.188 655.083 405.188H645.543Z" fill="#EC1D23"/>
<path d="M596.758 652.192C596.758 656.29 593.436 659.612 589.338 659.612H579.798C575.7 659.612 572.378 656.29 572.378 652.192V642.651C572.378 638.552 575.7 635.23 579.798 635.23H589.338C593.436 635.23 596.758 638.552 596.758 642.651V652.192Z" fill="#EC1D23"/>
<path d="M596.758 397.767C596.758 401.866 593.436 405.188 589.338 405.188H579.798C575.7 405.188 572.378 401.866 572.378 397.767V388.226C572.378 384.128 575.7 380.806 579.798 380.806H589.338C593.436 380.806 596.758 384.128 596.758 388.226V397.767Z" fill="#EC1D23"/>
<path d="M630.703 652.192C630.703 656.29 627.381 659.612 623.283 659.612H613.743C609.645 659.612 606.323 656.29 606.323 652.192V642.651C606.323 638.552 609.645 635.23 613.743 635.23H623.283C627.381 635.23 630.703 638.552 630.703 642.651V652.192Z" fill="#EC1D23"/>
<path d="M630.703 397.767C630.703 401.866 627.381 405.188 623.283 405.188H613.743C609.645 405.188 606.323 401.866 606.323 397.767V388.226C606.323 384.128 609.645 380.806 613.743 380.806H623.283C627.381 380.806 630.703 384.128 630.703 388.226V397.767Z" fill="#EC1D23"/>
<path d="M12.7181 646.891L12.7181 392.467H650.843V646.891H12.7181Z" fill="#EC1D23"/>
<path d="M7.41811 914.081C3.32012 914.081 -0.00195312 910.759 -0.00195312 906.66L-0.00195312 897.119C-0.00195312 893.021 3.32012 889.699 7.41811 889.699H16.9582C21.0562 889.699 24.3782 893.021 24.3782 897.119V906.66C24.3782 910.759 21.0562 914.081 16.9582 914.081H7.41811Z" fill="#EC1D23"/>
<path d="M645.543 914.081C641.445 914.081 638.123 910.759 638.123 906.66V897.119C638.123 893.021 641.445 889.699 645.543 889.699H655.083C659.181 889.699 662.503 893.021 662.503 897.119V906.66C662.503 910.759 659.181 914.081 655.083 914.081H645.543Z" fill="#EC1D23"/>
<path d="M56.1785 906.66C56.1785 910.759 52.8564 914.081 48.7584 914.081H39.2184C35.1204 914.081 31.7983 910.759 31.7983 906.66V897.119C31.7983 893.021 35.1204 889.699 39.2184 889.699H48.7584C52.8564 889.699 56.1785 893.021 56.1785 897.119V906.66Z" fill="#EC1D23"/>
<path d="M56.1785 652.236C56.1785 656.334 52.8564 659.657 48.7584 659.657H39.2184C35.1204 659.657 31.7983 656.334 31.7983 652.236V642.695C31.7983 638.597 35.1204 635.274 39.2184 635.274H48.7584C52.8564 635.274 56.1785 638.597 56.1785 642.695V652.236Z" fill="#EC1D23"/>
<path d="M342.381 906.66C342.381 910.759 339.059 914.081 334.961 914.081H325.421C321.323 914.081 318.001 910.759 318.001 906.66V897.119C318.001 893.021 321.323 889.699 325.421 889.699H334.961C339.059 889.699 342.381 893.021 342.381 897.119V906.66Z" fill="#EC1D23"/>
<path d="M342.381 652.236C342.381 656.334 339.059 659.657 334.961 659.657H325.421C321.323 659.657 318.001 656.334 318.001 652.236V642.695C318.001 638.597 321.323 635.274 325.421 635.274H334.961C339.059 635.274 342.381 638.597 342.381 642.695V652.236Z" fill="#EC1D23"/>
<path d="M7.41811 882.278C3.32012 882.278 -0.00195312 878.956 -0.00195312 874.857L-0.00195312 865.316C-0.00195312 861.218 3.32012 857.896 7.41811 857.896H16.9582C21.0562 857.896 24.3782 861.218 24.3782 865.316V874.857C24.3782 878.956 21.0562 882.278 16.9582 882.278H7.41811Z" fill="#EC1D23"/>
<path d="M87.9756 906.66C87.9756 910.759 84.6536 914.081 80.5556 914.081H71.0155C66.9175 914.081 63.5955 910.759 63.5955 906.66V897.119C63.5955 893.021 66.9175 889.699 71.0155 889.699H80.5556C84.6536 889.699 87.9756 893.021 87.9756 897.119V906.66Z" fill="#EC1D23"/>
<path d="M87.9756 652.236C87.9756 656.334 84.6536 659.657 80.5556 659.657H71.0155C66.9175 659.657 63.5955 656.334 63.5955 652.236V642.695C63.5955 638.597 66.9175 635.274 71.0155 635.274H80.5556C84.6536 635.274 87.9756 638.597 87.9756 642.695V652.236Z" fill="#EC1D23"/>
<path d="M645.543 882.278C641.445 882.278 638.123 878.956 638.123 874.857V865.316C638.123 861.218 641.445 857.896 645.543 857.896H655.083C659.181 857.896 662.503 861.218 662.503 865.316V874.857C662.503 878.956 659.181 882.278 655.083 882.278H645.543Z" fill="#EC1D23"/>
<path d="M374.178 906.66C374.178 910.759 370.856 914.081 366.758 914.081H357.218C353.12 914.081 349.798 910.759 349.798 906.66V897.119C349.798 893.021 353.12 889.699 357.218 889.699H366.758C370.856 889.699 374.178 893.021 374.178 897.119V906.66Z" fill="#EC1D23"/>
<path d="M374.178 652.236C374.178 656.334 370.856 659.657 366.758 659.657H357.218C353.12 659.657 349.798 656.334 349.798 652.236V642.695C349.798 638.597 353.12 635.274 357.218 635.274H366.758C370.856 635.274 374.178 638.597 374.178 642.695V652.236Z" fill="#EC1D23"/>
<path d="M119.772 906.66C119.772 910.759 116.45 914.081 112.352 914.081H102.812C98.7142 914.081 95.3921 910.759 95.3921 906.66V897.119C95.3921 893.021 98.7142 889.699 102.812 889.699H112.352C116.45 889.699 119.772 893.021 119.772 897.119V906.66Z" fill="#EC1D23"/>
<path d="M119.772 652.236C119.772 656.334 116.45 659.657 112.352 659.657H102.812C98.7142 659.657 95.3921 656.334 95.3921 652.236V642.695C95.3921 638.597 98.7142 635.274 102.812 635.274H112.352C116.45 635.274 119.772 638.597 119.772 642.695V652.236Z" fill="#EC1D23"/>
<path d="M7.41811 850.475C3.32012 850.475 -0.00195312 847.153 -0.00195312 843.054L-0.00195312 833.513C-0.00195312 829.415 3.32012 826.093 7.41811 826.093H16.9582C21.0562 826.093 24.3782 829.415 24.3782 833.513V843.054C24.3782 847.153 21.0562 850.475 16.9582 850.475H7.41811Z" fill="#EC1D23"/>
<path d="M645.543 850.475C641.445 850.475 638.123 847.153 638.123 843.054V833.513C638.123 829.415 641.445 826.093 645.543 826.093H655.083C659.181 826.093 662.503 829.415 662.503 833.513V843.054C662.503 847.153 659.181 850.475 655.083 850.475H645.543Z" fill="#EC1D23"/>
<path d="M151.569 906.66C151.569 910.759 148.247 914.081 144.149 914.081H134.609C130.511 914.081 127.189 910.759 127.189 906.66V897.119C127.189 893.021 130.511 889.699 134.609 889.699H144.149C148.247 889.699 151.569 893.021 151.569 897.119V906.66Z" fill="#EC1D23"/>
<path d="M151.569 652.236C151.569 656.334 148.247 659.657 144.149 659.657H134.609C130.511 659.657 127.189 656.334 127.189 652.236V642.695C127.189 638.597 130.511 635.274 134.609 635.274H144.149C148.247 635.274 151.569 638.597 151.569 642.695V652.236Z" fill="#EC1D23"/>
<path d="M405.975 906.66C405.975 910.759 402.653 914.081 398.555 914.081H389.015C384.917 914.081 381.595 910.759 381.595 906.66V897.119C381.595 893.021 384.917 889.699 389.015 889.699H398.555C402.653 889.699 405.975 893.021 405.975 897.119V906.66Z" fill="#EC1D23"/>
<path d="M405.975 652.236C405.975 656.334 402.653 659.657 398.555 659.657H389.015C384.917 659.657 381.595 656.334 381.595 652.236V642.695C381.595 638.597 384.917 635.274 389.015 635.274H398.555C402.653 635.274 405.975 638.597 405.975 642.695V652.236Z" fill="#EC1D23"/>
<path d="M7.41811 818.672C3.32012 818.672 -0.00195312 815.35 -0.00195312 811.251L-0.00195312 801.71C-0.00195312 797.612 3.32012 794.29 7.41811 794.29H16.9582C21.0562 794.29 24.3782 797.612 24.3782 801.71V811.251C24.3782 815.35 21.0562 818.672 16.9582 818.672H7.41811Z" fill="#EC1D23"/>
<path d="M246.961 906.66C246.961 910.759 243.639 914.081 239.541 914.081H230.001C225.903 914.081 222.581 910.759 222.581 906.66V897.119C222.581 893.021 225.903 889.699 230.001 889.699H239.541C243.639 889.699 246.961 893.021 246.961 897.119V906.66Z" fill="#EC1D23"/>
<path d="M246.961 652.236C246.961 656.334 243.639 659.657 239.541 659.657H230.001C225.903 659.657 222.581 656.334 222.581 652.236V642.695C222.581 638.597 225.903 635.274 230.001 635.274H239.541C243.639 635.274 246.961 638.597 246.961 642.695V652.236Z" fill="#EC1D23"/>
<path d="M645.543 818.672C641.445 818.672 638.123 815.35 638.123 811.251V801.71C638.123 797.612 641.445 794.29 645.543 794.29H655.083C659.181 794.29 662.503 797.612 662.503 801.71V811.251C662.503 815.35 659.181 818.672 655.083 818.672H645.543Z" fill="#EC1D23"/>
<path d="M437.771 906.66C437.771 910.759 434.449 914.081 430.351 914.081H420.811C416.713 914.081 413.391 910.759 413.391 906.66V897.119C413.391 893.021 416.713 889.699 420.811 889.699H430.351C434.449 889.699 437.771 893.021 437.771 897.119V906.66Z" fill="#EC1D23"/>
<path d="M437.771 652.236C437.771 656.334 434.449 659.657 430.351 659.657H420.811C416.713 659.657 413.391 656.334 413.391 652.236V642.695C413.391 638.597 416.713 635.274 420.811 635.274H430.351C434.449 635.274 437.771 638.597 437.771 642.695V652.236Z" fill="#EC1D23"/>
<path d="M183.367 906.66C183.367 910.759 180.045 914.081 175.947 914.081H166.407C162.309 914.081 158.987 910.759 158.987 906.66V897.119C158.987 893.021 162.309 889.699 166.407 889.699H175.947C180.045 889.699 183.367 893.021 183.367 897.119V906.66Z" fill="#EC1D23"/>
<path d="M183.367 652.236C183.367 656.334 180.045 659.657 175.947 659.657H166.407C162.309 659.657 158.987 656.334 158.987 652.236V642.695C158.987 638.597 162.309 635.274 166.407 635.274H175.947C180.045 635.274 183.367 638.597 183.367 642.695V652.236Z" fill="#EC1D23"/>
<path d="M7.41811 723.263C3.32012 723.263 -0.00195312 719.94 -0.00195312 715.842L-0.00195312 706.301C-0.00195312 702.203 3.32012 698.88 7.41811 698.88H16.9582C21.0562 698.88 24.3782 702.203 24.3782 706.301V715.842C24.3782 719.94 21.0562 723.263 16.9582 723.263H7.41811Z" fill="#EC1D23"/>
<path d="M645.543 723.263C641.445 723.263 638.123 719.94 638.123 715.842V706.301C638.123 702.203 641.445 698.88 645.543 698.88H655.083C659.181 698.88 662.503 702.203 662.503 706.301V715.842C662.503 719.94 659.181 723.263 655.083 723.263H645.543Z" fill="#EC1D23"/>
<path d="M278.76 906.66C278.76 910.759 275.438 914.081 271.34 914.081H261.799C257.701 914.081 254.379 910.759 254.379 906.66V897.119C254.379 893.021 257.701 889.699 261.799 889.699H271.34C275.438 889.699 278.76 893.021 278.76 897.119V906.66Z" fill="#EC1D23"/>
<path d="M278.76 652.236C278.76 656.334 275.438 659.657 271.34 659.657H261.799C257.701 659.657 254.379 656.334 254.379 652.236V642.695C254.379 638.597 257.701 635.274 261.799 635.274H271.34C275.438 635.274 278.76 638.597 278.76 642.695V652.236Z" fill="#EC1D23"/>
<path d="M533.164 906.66C533.164 910.759 529.842 914.081 525.744 914.081H516.204C512.106 914.081 508.783 910.759 508.783 906.66V897.119C508.783 893.021 512.106 889.699 516.204 889.699H525.744C529.842 889.699 533.164 893.021 533.164 897.119V906.66Z" fill="#EC1D23"/>
<path d="M533.164 652.236C533.164 656.334 529.842 659.657 525.744 659.657H516.204C512.106 659.657 508.783 656.334 508.783 652.236V642.695C508.783 638.597 512.106 635.274 516.204 635.274H525.744C529.842 635.274 533.164 638.597 533.164 642.695V652.236Z" fill="#EC1D23"/>
<path d="M7.41811 786.869C3.32012 786.869 -0.00195312 783.547 -0.00195312 779.448L-0.00195312 769.907C-0.00195312 765.809 3.32012 762.487 7.41811 762.487H16.9582C21.0562 762.487 24.3782 765.809 24.3782 769.907V779.448C24.3782 783.547 21.0562 786.869 16.9582 786.869H7.41811Z" fill="#EC1D23"/>
<path d="M215.165 906.66C215.165 910.759 211.843 914.081 207.745 914.081H198.205C194.107 914.081 190.785 910.759 190.785 906.66V897.119C190.785 893.021 194.107 889.699 198.205 889.699H207.745C211.843 889.699 215.165 893.021 215.165 897.119V906.66Z" fill="#EC1D23"/>
<path d="M215.165 652.236C215.165 656.334 211.843 659.657 207.745 659.657H198.205C194.107 659.657 190.785 656.334 190.785 652.236V642.695C190.785 638.597 194.107 635.274 198.205 635.274H207.745C211.843 635.274 215.165 638.597 215.165 642.695V652.236Z" fill="#EC1D23"/>
<path d="M645.543 786.869C641.445 786.869 638.123 783.547 638.123 779.448V769.907C638.123 765.809 641.445 762.487 645.543 762.487H655.083C659.181 762.487 662.503 765.809 662.503 769.907V779.448C662.503 783.547 659.181 786.869 655.083 786.869H645.543Z" fill="#EC1D23"/>
<path d="M469.569 906.66C469.569 910.759 466.247 914.081 462.149 914.081H452.609C448.511 914.081 445.189 910.759 445.189 906.66V897.119C445.189 893.021 448.511 889.699 452.609 889.699H462.149C466.247 889.699 469.569 893.021 469.569 897.119V906.66Z" fill="#EC1D23"/>
<path d="M469.569 652.236C469.569 656.334 466.247 659.657 462.149 659.657H452.609C448.511 659.657 445.189 656.334 445.189 652.236V642.695C445.189 638.597 448.511 635.274 452.609 635.274H462.149C466.247 635.274 469.569 638.597 469.569 642.695V652.236Z" fill="#EC1D23"/>
<path d="M310.556 906.66C310.556 910.759 307.234 914.081 303.136 914.081H293.596C289.498 914.081 286.176 910.759 286.176 906.66V897.119C286.176 893.021 289.498 889.699 293.596 889.699H303.136C307.234 889.699 310.556 893.021 310.556 897.119V906.66Z" fill="#EC1D23"/>
<path d="M310.556 652.236C310.556 656.334 307.234 659.657 303.136 659.657H293.596C289.498 659.657 286.176 656.334 286.176 652.236V642.695C286.176 638.597 289.498 635.274 293.596 635.274H303.136C307.234 635.274 310.556 638.597 310.556 642.695V652.236Z" fill="#EC1D23"/>
<path d="M7.41811 691.46C3.32012 691.46 -0.00195312 688.137 -0.00195312 684.039L-0.00195312 674.498C-0.00195312 670.4 3.32012 667.077 7.41811 667.077H16.9582C21.0562 667.077 24.3782 670.4 24.3782 674.498V684.039C24.3782 688.137 21.0562 691.46 16.9582 691.46H7.41811Z" fill="#EC1D23"/>
<path d="M645.543 691.46C641.445 691.46 638.123 688.137 638.123 684.039V674.498C638.123 670.4 641.445 667.077 645.543 667.077H655.083C659.181 667.077 662.503 670.4 662.503 674.498V684.039C662.503 688.137 659.181 691.46 655.083 691.46H645.543Z" fill="#EC1D23"/>
<path d="M564.962 906.66C564.962 910.759 561.64 914.081 557.542 914.081H548.002C543.904 914.081 540.582 910.759 540.582 906.66V897.119C540.582 893.021 543.904 889.699 548.002 889.699H557.542C561.64 889.699 564.962 893.021 564.962 897.119V906.66Z" fill="#EC1D23"/>
<path d="M564.962 652.236C564.962 656.334 561.64 659.657 557.542 659.657H548.002C543.904 659.657 540.582 656.334 540.582 652.236V642.695C540.582 638.597 543.904 635.274 548.002 635.274H557.542C561.64 635.274 564.962 638.597 564.962 642.695V652.236Z" fill="#EC1D23"/>
<path d="M7.41811 755.066C3.32012 755.066 -0.00195312 751.743 -0.00195312 747.645L-0.00195312 738.104C-0.00195312 734.006 3.32012 730.684 7.41811 730.684H16.9582C21.0562 730.684 24.3782 734.006 24.3782 738.104V747.645C24.3782 751.743 21.0562 755.066 16.9582 755.066H7.41811Z" fill="#EC1D23"/>
<path d="M645.543 755.066C641.445 755.066 638.123 751.743 638.123 747.645V738.104C638.123 734.006 641.445 730.684 645.543 730.684H655.083C659.181 730.684 662.503 734.006 662.503 738.104V747.645C662.503 751.743 659.181 755.066 655.083 755.066H645.543Z" fill="#EC1D23"/>
<path d="M501.368 906.66C501.368 910.759 498.045 914.081 493.948 914.081H484.407C480.309 914.081 476.987 910.759 476.987 906.66V897.119C476.987 893.021 480.309 889.699 484.407 889.699H493.948C498.045 889.699 501.368 893.021 501.368 897.119V906.66Z" fill="#EC1D23"/>
<path d="M501.368 652.236C501.368 656.334 498.045 659.657 493.948 659.657H484.407C480.309 659.657 476.987 656.334 476.987 652.236V642.695C476.987 638.597 480.309 635.274 484.407 635.274H493.948C498.045 635.274 501.368 638.597 501.368 642.695V652.236Z" fill="#EC1D23"/>
<path d="M7.41811 659.657C3.32012 659.657 -0.00195312 656.334 -0.00195312 652.236L-0.00195312 642.695C-0.00195312 638.597 3.32012 635.274 7.41811 635.274H16.9582C21.0562 635.274 24.3782 638.597 24.3782 642.695V652.236C24.3782 656.334 21.0562 659.657 16.9582 659.657H7.41811Z" fill="#EC1D23"/>
<path d="M645.543 659.657C641.445 659.657 638.123 656.334 638.123 652.236V642.695C638.123 638.597 641.445 635.274 645.543 635.274H655.083C659.181 635.274 662.503 638.597 662.503 642.695V652.236C662.503 656.334 659.181 659.657 655.083 659.657H645.543Z" fill="#EC1D23"/>
<path d="M596.758 906.66C596.758 910.759 593.436 914.081 589.338 914.081H579.798C575.7 914.081 572.378 910.759 572.378 906.66V897.119C572.378 893.021 575.7 889.699 579.798 889.699H589.338C593.436 889.699 596.758 893.021 596.758 897.119V906.66Z" fill="#EC1D23"/>
<path d="M596.758 652.236C596.758 656.334 593.436 659.657 589.338 659.657H579.798C575.7 659.657 572.378 656.334 572.378 652.236V642.695C572.378 638.597 575.7 635.274 579.798 635.274H589.338C593.436 635.274 596.758 638.597 596.758 642.695V652.236Z" fill="#EC1D23"/>
<path d="M630.703 906.66C630.703 910.759 627.381 914.081 623.283 914.081H613.743C609.645 914.081 606.323 910.759 606.323 906.66V897.119C606.323 893.021 609.645 889.699 613.743 889.699H623.283C627.381 889.699 630.703 893.021 630.703 897.119V906.66Z" fill="#EC1D23"/>
<path d="M630.703 652.236C630.703 656.334 627.381 659.657 623.283 659.657H613.743C609.645 659.657 606.323 656.334 606.323 652.236V642.695C606.323 638.597 609.645 635.274 613.743 635.274H623.283C627.381 635.274 630.703 638.597 630.703 642.695V652.236Z" fill="#EC1D23"/>
<path d="M12.7181 901.36L12.7181 646.935H650.843V901.36H12.7181Z" fill="#EC1D23"/>
<path d="M7.41811 945.363C3.32012 945.363 -0.00195312 942.041 -0.00195312 937.943L-0.00195312 928.402C-0.00195312 924.303 3.32012 920.981 7.41811 920.981H16.9582C21.0562 920.981 24.3782 924.303 24.3782 928.402V937.943C24.3782 942.041 21.0562 945.363 16.9582 945.363H7.41811Z" fill="#EC1D23"/>
<path d="M645.543 945.363C641.445 945.363 638.123 942.041 638.123 937.943V928.402C638.123 924.303 641.445 920.981 645.543 920.981H655.083C659.181 920.981 662.503 924.303 662.503 928.402V937.943C662.503 942.041 659.181 945.363 655.083 945.363H645.543Z" fill="#EC1D23"/>
<path d="M56.1785 937.943C56.1785 942.041 52.8564 945.363 48.7584 945.363H39.2184C35.1204 945.363 31.7983 942.041 31.7983 937.943V928.402C31.7983 924.303 35.1204 920.981 39.2184 920.981H48.7584C52.8564 920.981 56.1785 924.303 56.1785 928.402V937.943Z" fill="#EC1D23"/>
<path d="M56.1785 683.518C56.1785 687.617 52.8564 690.939 48.7584 690.939H39.2184C35.1204 690.939 31.7983 687.617 31.7983 683.518V673.977C31.7983 669.879 35.1204 666.557 39.2184 666.557H48.7584C52.8564 666.557 56.1785 669.879 56.1785 673.977V683.518Z" fill="#EC1D23"/>
<path d="M342.381 937.943C342.381 942.041 339.059 945.363 334.961 945.363H325.421C321.323 945.363 318.001 942.041 318.001 937.943V928.402C318.001 924.303 321.323 920.981 325.421 920.981H334.961C339.059 920.981 342.381 924.303 342.381 928.402V937.943Z" fill="#EC1D23"/>
<path d="M342.381 683.518C342.381 687.617 339.059 690.939 334.961 690.939H325.421C321.323 690.939 318.001 687.617 318.001 683.518V673.977C318.001 669.879 321.323 666.557 325.421 666.557H334.961C339.059 666.557 342.381 669.879 342.381 673.977V683.518Z" fill="#EC1D23"/>
<path d="M7.41811 913.56C3.32012 913.56 -0.00195312 910.238 -0.00195312 906.14L-0.00195312 896.599C-0.00195312 892.5 3.32012 889.178 7.41811 889.178H16.9582C21.0562 889.178 24.3782 892.5 24.3782 896.599V906.14C24.3782 910.238 21.0562 913.56 16.9582 913.56H7.41811Z" fill="#EC1D23"/>
<path d="M87.9756 937.943C87.9756 942.041 84.6536 945.363 80.5556 945.363H71.0155C66.9175 945.363 63.5955 942.041 63.5955 937.943V928.402C63.5955 924.303 66.9175 920.981 71.0155 920.981H80.5556C84.6536 920.981 87.9756 924.303 87.9756 928.402V937.943Z" fill="#EC1D23"/>
<path d="M87.9756 683.518C87.9756 687.617 84.6536 690.939 80.5556 690.939H71.0155C66.9175 690.939 63.5955 687.617 63.5955 683.518V673.977C63.5955 669.879 66.9175 666.557 71.0155 666.557H80.5556C84.6536 666.557 87.9756 669.879 87.9756 673.977V683.518Z" fill="#EC1D23"/>
<path d="M645.543 913.56C641.445 913.56 638.123 910.238 638.123 906.14V896.599C638.123 892.5 641.445 889.178 645.543 889.178H655.083C659.181 889.178 662.503 892.5 662.503 896.599V906.14C662.503 910.238 659.181 913.56 655.083 913.56H645.543Z" fill="#EC1D23"/>
<path d="M374.178 937.943C374.178 942.041 370.856 945.363 366.758 945.363H357.218C353.12 945.363 349.798 942.041 349.798 937.943V928.402C349.798 924.303 353.12 920.981 357.218 920.981H366.758C370.856 920.981 374.178 924.303 374.178 928.402V937.943Z" fill="#EC1D23"/>
<path d="M374.178 683.518C374.178 687.617 370.856 690.939 366.758 690.939H357.218C353.12 690.939 349.798 687.617 349.798 683.518V673.977C349.798 669.879 353.12 666.557 357.218 666.557H366.758C370.856 666.557 374.178 669.879 374.178 673.977V683.518Z" fill="#EC1D23"/>
<path d="M119.772 937.943C119.772 942.041 116.45 945.363 112.352 945.363H102.812C98.7142 945.363 95.3921 942.041 95.3921 937.943V928.402C95.3921 924.303 98.7142 920.981 102.812 920.981H112.352C116.45 920.981 119.772 924.303 119.772 928.402V937.943Z" fill="#EC1D23"/>
<path d="M119.772 683.518C119.772 687.617 116.45 690.939 112.352 690.939H102.812C98.7142 690.939 95.3921 687.617 95.3921 683.518V673.977C95.3921 669.879 98.7142 666.557 102.812 666.557H112.352C116.45 666.557 119.772 669.879 119.772 673.977V683.518Z" fill="#EC1D23"/>
<path d="M7.41811 881.757C3.32012 881.757 -0.00195312 878.435 -0.00195312 874.336L-0.00195312 864.796C-0.00195312 860.697 3.32012 857.375 7.41811 857.375H16.9582C21.0562 857.375 24.3782 860.697 24.3782 864.796V874.336C24.3782 878.435 21.0562 881.757 16.9582 881.757H7.41811Z" fill="#EC1D23"/>
<path d="M645.543 881.757C641.445 881.757 638.123 878.435 638.123 874.336V864.796C638.123 860.697 641.445 857.375 645.543 857.375H655.083C659.181 857.375 662.503 860.697 662.503 864.796V874.336C662.503 878.435 659.181 881.757 655.083 881.757H645.543Z" fill="#EC1D23"/>
<path d="M151.569 937.943C151.569 942.041 148.247 945.363 144.149 945.363H134.609C130.511 945.363 127.189 942.041 127.189 937.943V928.402C127.189 924.303 130.511 920.981 134.609 920.981H144.149C148.247 920.981 151.569 924.303 151.569 928.402V937.943Z" fill="#EC1D23"/>
<path d="M151.569 683.518C151.569 687.617 148.247 690.939 144.149 690.939H134.609C130.511 690.939 127.189 687.617 127.189 683.518V673.977C127.189 669.879 130.511 666.557 134.609 666.557H144.149C148.247 666.557 151.569 669.879 151.569 673.977V683.518Z" fill="#EC1D23"/>
<path d="M405.975 937.943C405.975 942.041 402.653 945.363 398.555 945.363H389.015C384.917 945.363 381.595 942.041 381.595 937.943V928.402C381.595 924.303 384.917 920.981 389.015 920.981H398.555C402.653 920.981 405.975 924.303 405.975 928.402V937.943Z" fill="#EC1D23"/>
<path d="M405.975 683.518C405.975 687.617 402.653 690.939 398.555 690.939H389.015C384.917 690.939 381.595 687.617 381.595 683.518V673.977C381.595 669.879 384.917 666.557 389.015 666.557H398.555C402.653 666.557 405.975 669.879 405.975 673.977V683.518Z" fill="#EC1D23"/>
<path d="M7.41811 849.954C3.32012 849.954 -0.00195312 846.632 -0.00195312 842.533L-0.00195312 832.993C-0.00195312 828.894 3.32012 825.572 7.41811 825.572H16.9582C21.0562 825.572 24.3782 828.894 24.3782 832.993V842.533C24.3782 846.632 21.0562 849.954 16.9582 849.954H7.41811Z" fill="#EC1D23"/>
<path d="M246.961 937.943C246.961 942.041 243.639 945.363 239.541 945.363H230.001C225.903 945.363 222.581 942.041 222.581 937.943V928.402C222.581 924.303 225.903 920.981 230.001 920.981H239.541C243.639 920.981 246.961 924.303 246.961 928.402V937.943Z" fill="#EC1D23"/>
<path d="M246.961 683.518C246.961 687.617 243.639 690.939 239.541 690.939H230.001C225.903 690.939 222.581 687.617 222.581 683.518V673.977C222.581 669.879 225.903 666.557 230.001 666.557H239.541C243.639 666.557 246.961 669.879 246.961 673.977V683.518Z" fill="#EC1D23"/>
<path d="M645.543 849.954C641.445 849.954 638.123 846.632 638.123 842.533V832.993C638.123 828.894 641.445 825.572 645.543 825.572H655.083C659.181 825.572 662.503 828.894 662.503 832.993V842.533C662.503 846.632 659.181 849.954 655.083 849.954H645.543Z" fill="#EC1D23"/>
<path d="M437.771 937.943C437.771 942.041 434.449 945.363 430.351 945.363H420.811C416.713 945.363 413.391 942.041 413.391 937.943V928.402C413.391 924.303 416.713 920.981 420.811 920.981H430.351C434.449 920.981 437.771 924.303 437.771 928.402V937.943Z" fill="#EC1D23"/>
<path d="M437.771 683.518C437.771 687.617 434.449 690.939 430.351 690.939H420.811C416.713 690.939 413.391 687.617 413.391 683.518V673.977C413.391 669.879 416.713 666.557 420.811 666.557H430.351C434.449 666.557 437.771 669.879 437.771 673.977V683.518Z" fill="#EC1D23"/>
<path d="M183.367 937.943C183.367 942.041 180.045 945.363 175.947 945.363H166.407C162.309 945.363 158.987 942.041 158.987 937.943V928.402C158.987 924.303 162.309 920.981 166.407 920.981H175.947C180.045 920.981 183.367 924.303 183.367 928.402V937.943Z" fill="#EC1D23"/>
<path d="M183.367 683.518C183.367 687.617 180.045 690.939 175.947 690.939H166.407C162.309 690.939 158.987 687.617 158.987 683.518V673.977C158.987 669.879 162.309 666.557 166.407 666.557H175.947C180.045 666.557 183.367 669.879 183.367 673.977V683.518Z" fill="#EC1D23"/>
<path d="M7.41811 754.545C3.32012 754.545 -0.00195312 751.223 -0.00195312 747.124L-0.00195312 737.583C-0.00195312 733.485 3.32012 730.163 7.41811 730.163H16.9582C21.0562 730.163 24.3782 733.485 24.3782 737.583V747.124C24.3782 751.223 21.0562 754.545 16.9582 754.545H7.41811Z" fill="#EC1D23"/>
<path d="M645.543 754.545C641.445 754.545 638.123 751.223 638.123 747.124V737.583C638.123 733.485 641.445 730.163 645.543 730.163H655.083C659.181 730.163 662.503 733.485 662.503 737.583V747.124C662.503 751.223 659.181 754.545 655.083 754.545H645.543Z" fill="#EC1D23"/>
<path d="M278.76 937.943C278.76 942.041 275.438 945.363 271.34 945.363H261.799C257.701 945.363 254.379 942.041 254.379 937.943V928.402C254.379 924.303 257.701 920.981 261.799 920.981H271.34C275.438 920.981 278.76 924.303 278.76 928.402V937.943Z" fill="#EC1D23"/>
<path d="M278.76 683.518C278.76 687.617 275.438 690.939 271.34 690.939H261.799C257.701 690.939 254.379 687.617 254.379 683.518V673.977C254.379 669.879 257.701 666.557 261.799 666.557H271.34C275.438 666.557 278.76 669.879 278.76 673.977V683.518Z" fill="#EC1D23"/>
<path d="M533.164 937.943C533.164 942.041 529.842 945.363 525.744 945.363H516.204C512.106 945.363 508.783 942.041 508.783 937.943V928.402C508.783 924.303 512.106 920.981 516.204 920.981H525.744C529.842 920.981 533.164 924.303 533.164 928.402V937.943Z" fill="#EC1D23"/>
<path d="M533.164 683.518C533.164 687.617 529.842 690.939 525.744 690.939H516.204C512.106 690.939 508.783 687.617 508.783 683.518V673.977C508.783 669.879 512.106 666.557 516.204 666.557H525.744C529.842 666.557 533.164 669.879 533.164 673.977V683.518Z" fill="#EC1D23"/>
<path d="M7.41811 818.151C3.32012 818.151 -0.00195312 814.829 -0.00195312 810.73L-0.00195312 801.189C-0.00195312 797.091 3.32012 793.769 7.41811 793.769H16.9582C21.0562 793.769 24.3782 797.091 24.3782 801.189V810.73C24.3782 814.829 21.0562 818.151 16.9582 818.151H7.41811Z" fill="#EC1D23"/>
<path d="M215.165 937.943C215.165 942.041 211.843 945.363 207.745 945.363H198.205C194.107 945.363 190.785 942.041 190.785 937.943V928.402C190.785 924.303 194.107 920.981 198.205 920.981H207.745C211.843 920.981 215.165 924.303 215.165 928.402V937.943Z" fill="#EC1D23"/>
<path d="M215.165 683.518C215.165 687.617 211.843 690.939 207.745 690.939H198.205C194.107 690.939 190.785 687.617 190.785 683.518V673.977C190.785 669.879 194.107 666.557 198.205 666.557H207.745C211.843 666.557 215.165 669.879 215.165 673.977V683.518Z" fill="#EC1D23"/>
<path d="M645.543 818.151C641.445 818.151 638.123 814.829 638.123 810.73V801.189C638.123 797.091 641.445 793.769 645.543 793.769H655.083C659.181 793.769 662.503 797.091 662.503 801.189V810.73C662.503 814.829 659.181 818.151 655.083 818.151H645.543Z" fill="#EC1D23"/>
<path d="M469.569 937.943C469.569 942.041 466.247 945.363 462.149 945.363H452.609C448.511 945.363 445.189 942.041 445.189 937.943V928.402C445.189 924.303 448.511 920.981 452.609 920.981H462.149C466.247 920.981 469.569 924.303 469.569 928.402V937.943Z" fill="#EC1D23"/>
<path d="M469.569 683.518C469.569 687.617 466.247 690.939 462.149 690.939H452.609C448.511 690.939 445.189 687.617 445.189 683.518V673.977C445.189 669.879 448.511 666.557 452.609 666.557H462.149C466.247 666.557 469.569 669.879 469.569 673.977V683.518Z" fill="#EC1D23"/>
<path d="M310.556 937.943C310.556 942.041 307.234 945.363 303.136 945.363H293.596C289.498 945.363 286.176 942.041 286.176 937.943V928.402C286.176 924.303 289.498 920.981 293.596 920.981H303.136C307.234 920.981 310.556 924.303 310.556 928.402V937.943Z" fill="#EC1D23"/>
<path d="M310.556 683.518C310.556 687.617 307.234 690.939 303.136 690.939H293.596C289.498 690.939 286.176 687.617 286.176 683.518V673.977C286.176 669.879 289.498 666.557 293.596 666.557H303.136C307.234 666.557 310.556 669.879 310.556 673.977V683.518Z" fill="#EC1D23"/>
<path d="M7.41811 722.742C3.32012 722.742 -0.00195312 719.42 -0.00195312 715.321L-0.00195312 705.78C-0.00195312 701.682 3.32012 698.36 7.41811 698.36H16.9582C21.0562 698.36 24.3782 701.682 24.3782 705.78V715.321C24.3782 719.42 21.0562 722.742 16.9582 722.742H7.41811Z" fill="#EC1D23"/>
<path d="M645.543 722.742C641.445 722.742 638.123 719.42 638.123 715.321V705.78C638.123 701.682 641.445 698.36 645.543 698.36H655.083C659.181 698.36 662.503 701.682 662.503 705.78V715.321C662.503 719.42 659.181 722.742 655.083 722.742H645.543Z" fill="#EC1D23"/>
<path d="M564.962 937.943C564.962 942.041 561.64 945.363 557.542 945.363H548.002C543.904 945.363 540.582 942.041 540.582 937.943V928.402C540.582 924.303 543.904 920.981 548.002 920.981H557.542C561.64 920.981 564.962 924.303 564.962 928.402V937.943Z" fill="#EC1D23"/>
<path d="M564.962 683.518C564.962 687.617 561.64 690.939 557.542 690.939H548.002C543.904 690.939 540.582 687.617 540.582 683.518V673.977C540.582 669.879 543.904 666.557 548.002 666.557H557.542C561.64 666.557 564.962 669.879 564.962 673.977V683.518Z" fill="#EC1D23"/>
<path d="M7.41811 786.348C3.32012 786.348 -0.00195312 783.026 -0.00195312 778.927L-0.00195312 769.386C-0.00195312 765.288 3.32012 761.966 7.41811 761.966H16.9582C21.0562 761.966 24.3782 765.288 24.3782 769.386V778.927C24.3782 783.026 21.0562 786.348 16.9582 786.348H7.41811Z" fill="#EC1D23"/>
<path d="M645.543 786.348C641.445 786.348 638.123 783.026 638.123 778.927V769.386C638.123 765.288 641.445 761.966 645.543 761.966H655.083C659.181 761.966 662.503 765.288 662.503 769.386V778.927C662.503 783.026 659.181 786.348 655.083 786.348H645.543Z" fill="#EC1D23"/>
<path d="M501.368 937.943C501.368 942.041 498.045 945.363 493.948 945.363H484.407C480.309 945.363 476.987 942.041 476.987 937.943V928.402C476.987 924.303 480.309 920.981 484.407 920.981H493.948C498.045 920.981 501.368 924.303 501.368 928.402V937.943Z" fill="#EC1D23"/>
<path d="M501.368 683.518C501.368 687.617 498.045 690.939 493.948 690.939H484.407C480.309 690.939 476.987 687.617 476.987 683.518V673.977C476.987 669.879 480.309 666.557 484.407 666.557H493.948C498.045 666.557 501.368 669.879 501.368 673.977V683.518Z" fill="#EC1D23"/>
<path d="M7.41811 690.939C3.32012 690.939 -0.00195312 687.617 -0.00195312 683.518L-0.00195312 673.977C-0.00195312 669.879 3.32012 666.557 7.41811 666.557H16.9582C21.0562 666.557 24.3782 669.879 24.3782 673.977V683.518C24.3782 687.617 21.0562 690.939 16.9582 690.939H7.41811Z" fill="#EC1D23"/>
<path d="M645.543 690.939C641.445 690.939 638.123 687.617 638.123 683.518V673.977C638.123 669.879 641.445 666.557 645.543 666.557H655.083C659.181 666.557 662.503 669.879 662.503 673.977V683.518C662.503 687.617 659.181 690.939 655.083 690.939H645.543Z" fill="#EC1D23"/>
<path d="M596.758 937.943C596.758 942.041 593.436 945.363 589.338 945.363H579.798C575.7 945.363 572.378 942.041 572.378 937.943V928.402C572.378 924.303 575.7 920.981 579.798 920.981H589.338C593.436 920.981 596.758 924.303 596.758 928.402V937.943Z" fill="#EC1D23"/>
<path d="M596.758 683.518C596.758 687.617 593.436 690.939 589.338 690.939H579.798C575.7 690.939 572.378 687.617 572.378 683.518V673.977C572.378 669.879 575.7 666.557 579.798 666.557H589.338C593.436 666.557 596.758 669.879 596.758 673.977V683.518Z" fill="#EC1D23"/>
<path d="M630.703 937.943C630.703 942.041 627.381 945.363 623.283 945.363H613.743C609.645 945.363 606.323 942.041 606.323 937.943V928.402C606.323 924.303 609.645 920.981 613.743 920.981H623.283C627.381 920.981 630.703 924.303 630.703 928.402V937.943Z" fill="#EC1D23"/>
<path d="M630.703 683.518C630.703 687.617 627.381 690.939 623.283 690.939H613.743C609.645 690.939 606.323 687.617 606.323 683.518V673.977C606.323 669.879 609.645 666.557 613.743 666.557H623.283C627.381 666.557 630.703 669.879 630.703 673.977V683.518Z" fill="#EC1D23"/>
<path d="M12.7181 932.642L12.7181 678.218H650.843V932.642H12.7181Z" fill="#EC1D23"/>
<rect x="45.9341" y="31.7881" width="10.2602" height="10.2602" fill="#F1EEE7"/>
<rect x="25.5933" y="31.7881" width="10.2602" height="10.2602" fill="#F1EEE7"/>
<rect x="35.855" y="21.5264" width="10.2602" height="10.2602" fill="#F1EEE7"/>
<rect x="622.819" y="31.7881" width="10.2602" height="10.2602" fill="#F1EEE7"/>
<rect x="612.74" y="21.5264" width="10.2602" height="10.2602" fill="#F1EEE7"/>
<rect x="522.155" y="863.487" width="17.513" height="17.4736" fill="#F1EEE7"/>
<rect x="487.436" y="863.487" width="17.513" height="17.4736" fill="#F1EEE7"/>
<rect x="452.714" y="863.487" width="17.513" height="17.4736" fill="#F1EEE7"/>
<rect x="417.996" y="863.487" width="17.513" height="17.4736" fill="#F1EEE7"/>
<rect x="383.277" y="863.487" width="17.513" height="17.4736" fill="#F1EEE7"/>
<rect x="348.557" y="863.487" width="17.513" height="17.4736" fill="#F1EEE7"/>
<rect x="313.836" y="863.487" width="17.513" height="17.4736" fill="#F1EEE7"/>
<rect x="279.116" y="863.487" width="17.513" height="17.4736" fill="#F1EEE7"/>
<rect x="244.398" y="863.487" width="17.513" height="17.4736" fill="#F1EEE7"/>
<rect x="209.678" y="863.487" width="17.513" height="17.4736" fill="#F1EEE7"/>
<rect x="174.958" y="863.487" width="17.513" height="17.4736" fill="#F1EEE7"/>
<rect x="140.239" y="863.487" width="17.513" height="17.4736" fill="#F1EEE7"/>
<rect x="105.519" y="863.487" width="17.513" height="17.4736" fill="#F1EEE7"/>
<rect x="70.7993" y="863.487" width="17.513" height="17.4736" fill="#F1EEE7"/>
<rect x="557.18" y="863.487" width="17.513" height="17.4736" fill="#F1EEE7"/>
<rect x="539.667" y="846.012" width="17.513" height="17.4736" fill="#F1EEE7"/>
<rect x="504.948" y="846.012" width="17.513" height="17.4736" fill="#F1EEE7"/>
<rect x="470.228" y="846.012" width="17.513" height="17.4736" fill="#F1EEE7"/>
<rect x="435.507" y="846.012" width="17.513" height="17.4736" fill="#F1EEE7"/>
<rect x="400.789" y="846.012" width="17.513" height="17.4736" fill="#F1EEE7"/>
<rect x="366.069" y="846.012" width="17.513" height="17.4736" fill="#F1EEE7"/>
<rect x="331.349" y="846.012" width="17.513" height="17.4736" fill="#F1EEE7"/>
<rect x="296.631" y="846.012" width="17.513" height="17.4736" fill="#F1EEE7"/>
<rect x="261.911" y="846.012" width="17.513" height="17.4736" fill="#F1EEE7"/>
<rect x="227.191" y="846.012" width="17.513" height="17.4736" fill="#F1EEE7"/>
<rect x="192.471" y="846.012" width="17.513" height="17.4736" fill="#F1EEE7"/>
<rect x="157.752" y="846.012" width="17.513" height="17.4736" fill="#F1EEE7"/>
<rect x="123.032" y="846.012" width="17.513" height="17.4736" fill="#F1EEE7"/>
<rect x="88.3125" y="846.012" width="17.513" height="17.4736" fill="#F1EEE7"/>
<rect x="574.694" y="846.012" width="17.513" height="17.4736" fill="#F1EEE7"/>
</svg>
