<svg width="762" height="168" viewBox="0 0 762 168" fill="none" xmlns="http://www.w3.org/2000/svg">
<rect x="1" y="1" width="760" height="166" fill="#F1EEE7" stroke="#EC1D23" stroke-width="2"/>
<rect x="1" y="1" width="166" height="166" fill="#F1EEE7" stroke="#EC1D23" stroke-width="2"/>
<rect x="595" y="1" width="166" height="166" fill="#F1EEE7" stroke="#EC1D23" stroke-width="2"/>
<rect x="166.6" y="1" width="428.8" height="62.8" fill="#F1EEE7" stroke="#EC1D23" stroke-width="2"/>
<path d="M735.123 101.383V106.345H740.079V111.299H745.025V116.277H735.159V126.223H730.2V131.177H735.091V136.13H715.311V151.042H720.17V155.992H695.429V151.112H710.242V146.134H705.36V141.126H700.346L700.366 141.147V131.191H685.442L685.462 131.211V126.223L685.442 126.243H690.451V121.302H695.399V126.181H700.373V121.257H705.273V111.319H695.377L695.396 111.339V106.333H700.321V101.389H695.433V96.3936H700.365V81.5107L700.345 81.5306H705.348V91.4455H710.301C710.301 94.7442 710.301 98.043 710.301 101.418H705.357V106.36H725.203V111.278H730.152V101.382C731.815 101.389 733.477 101.394 735.141 101.401L735.12 101.382L735.123 101.383ZM710.325 131.15H725.141V116.334H710.325V131.15Z" fill="#EC1D23"/>
<path d="M690.431 141.127H685.478V151.062H680.476L680.496 151.082V136.22H675.525V141.103H665.612V136.159H660.602L660.622 136.18V131.168H675.478V116.343H665.549V126.196H655.63V121.32H650.715V131.216H655.634V136.179L655.654 136.157H650.692V141.099H645.764V116.314H650.638V106.395H635.82V101.418H645.673V96.4343H650.685L650.665 96.413V101.426H655.673V106.38H660.627V111.282H665.526V101.368H660.658V96.4102H675.525C675.525 98.0553 675.525 99.699 675.525 101.419H670.607V111.285H675.535V106.346H680.493C680.493 107.99 680.493 109.634 680.493 111.275H685.443V106.346H690.445V111.336H695.397L695.377 111.316V116.321H685.441V126.24L685.461 126.22H680.533V131.208H685.461L685.441 131.188V136.192H690.409V141.144L690.429 141.123L690.431 141.127Z" fill="#EC1D23"/>
<path d="M650.669 46.7567H655.628V41.8156H660.576V46.6957H665.572V36.8447H670.518V46.7581H675.525L675.505 46.7383C675.514 48.399 675.521 50.0612 675.53 51.7219C673.887 51.7219 672.244 51.7219 670.597 51.7219V56.6304H675.51V51.7021H685.432V41.8213H690.403V51.6822H695.381V56.6914L695.402 56.6716H685.508V61.6666H690.431V66.6375H700.35V71.5942L700.37 71.5743H690.475V76.5623H700.37L700.35 76.5424V81.5303L700.37 81.5104H695.366V86.4998H690.414C690.414 84.8561 690.414 83.2124 690.414 81.5715H685.464V86.4998H680.465V61.7007H675.503V66.5765H670.532V61.6609H665.574V51.7035H650.669L650.691 51.7234C650.691 50.0612 650.691 48.399 650.692 46.7368L650.672 46.7567H650.669Z" fill="#EC1D23"/>
<path d="M606.015 11.998H640.702V46.6865H606.015V11.998ZM635.464 41.487V17.2372H611.252V41.487H635.465H635.464Z" fill="#EC1D23"/>
<path d="M715.292 46.6934V12.0078H749.981V46.6948H715.292V46.6934ZM744.767 41.4926V17.2583H720.546V41.4926H744.767Z" fill="#EC1D23"/>
<path d="M640.71 121.318V156.005H606.021V121.318H640.71ZM611.241 126.525V150.772H635.451V126.525H611.241Z" fill="#EC1D23"/>
<path d="M695.377 56.6883H710.273V51.75H715.223V71.5598H720.198V76.4924H745.041V66.6584H750.001V91.3994H745.085V81.557H740.134V91.4434H735.123L735.143 91.4647V81.4988H715.233V76.5406H700.347L700.367 76.5605V71.5726L700.347 71.5924H705.356V66.5932H710.249V61.6237H695.399V56.6684L695.377 56.6883Z" fill="#EC1D23"/>
<path d="M620.856 96.4146V101.377H615.937V106.329H620.821V111.307H615.928V116.251H606V96.4557H610.886V76.5764H606.019V61.658C607.65 61.658 609.296 61.658 610.942 61.658L610.922 61.6367V71.5714C614.31 71.5714 617.593 71.5714 620.878 71.5714C620.871 74.8901 620.865 78.2088 620.858 81.5288L620.878 81.509H615.948V96.433H620.878L620.856 96.4132V96.4146Z" fill="#EC1D23"/>
<path d="M685.441 21.8972V26.8582H700.332V31.8092H705.279V36.7716H695.422V31.8305H680.477L680.497 31.8518V26.9235H675.509V31.8518L675.529 31.8305H665.638V26.8979H670.562V21.8958L670.541 21.9157H675.529V16.9277L675.509 16.949H680.461V21.9185H685.464L685.444 21.8986L685.441 21.8972Z" fill="#EC1D23"/>
<path d="M735.122 66.6079V71.5376H725.217V66.6419H720.273V56.6945H725.174V51.752H730.128V66.6278H735.142L735.122 66.6079Z" fill="#EC1D23"/>
<path d="M730.177 151.081V146.097L730.157 146.117H735.116V141.163H745.054C745.054 139.471 745.054 137.829 745.054 136.187L745.034 136.209H749.978V151.023H745.078V146.143H740.128V151.062H730.154L730.174 151.082L730.177 151.081Z" fill="#EC1D23"/>
<path d="M735.142 66.6265V51.7578H749.998V56.6421H745.09V61.6201H740.138V66.6066C738.416 66.6066 736.769 66.6066 735.124 66.6066L735.144 66.6265H735.142Z" fill="#EC1D23"/>
<path d="M620.88 56.6911V51.723H650.688L650.667 51.7031V56.6712H620.858L620.88 56.6911Z" fill="#EC1D23"/>
<path d="M650.643 26.9099H655.609V31.8197H660.573V36.7495H645.757V31.8652H650.662C650.662 30.1718 650.662 28.5295 650.662 26.8857L650.643 26.9085V26.9099Z" fill="#EC1D23"/>
<path d="M670.56 21.8959H660.625V16.9292L660.605 16.9491H665.556V12.0137H675.508C675.508 13.6616 675.508 15.3054 675.508 16.9477L675.528 16.9264H670.54V21.9143L670.561 21.8944L670.56 21.8959Z" fill="#EC1D23"/>
<path d="M655.605 16.9026V21.8792H650.644C650.644 23.5868 650.644 25.2475 650.644 26.9097C650.644 26.9097 650.664 26.887 650.663 26.8884C649.037 26.8884 647.414 26.8884 645.749 26.8884V12.0098H650.654V16.9225C652.343 16.9225 653.984 16.9225 655.626 16.9225L655.604 16.9026H655.605Z" fill="#EC1D23"/>
<path d="M640.693 116.262H625.872V111.381H640.693V116.262Z" fill="#EC1D23"/>
<path d="M625.846 96.413C624.184 96.413 622.52 96.413 620.858 96.413L620.879 96.4328V81.5088L620.859 81.5287H625.827V96.4328L625.847 96.4116L625.846 96.413Z" fill="#EC1D23"/>
<path d="M635.761 86.4795V91.4305H640.695V96.4142H630.794L630.814 96.4355V86.4994H635.782L635.761 86.4795Z" fill="#EC1D23"/>
<path d="M610.924 56.6907C614.243 56.6907 617.56 56.6893 620.879 56.6878L620.858 56.668V61.636H610.921L610.941 61.6573C610.941 59.9952 610.943 58.333 610.944 56.6694L610.924 56.6893V56.6907Z" fill="#EC1D23"/>
<path d="M660.602 136.159V146.056H655.653C655.653 142.757 655.653 139.458 655.653 136.159L655.633 136.18H660.621L660.601 136.159H660.602Z" fill="#EC1D23"/>
<path d="M700.384 21.8481V16.9766H710.256V21.8481H700.384Z" fill="#EC1D23"/>
<path d="M700.347 141.127V146.057H690.43C690.43 144.414 690.43 142.771 690.43 141.127L690.41 141.148H700.366L700.346 141.127H700.347Z" fill="#EC1D23"/>
<path d="M730.178 146.097H720.283V141.185H730.158C730.158 142.83 730.158 144.473 730.158 146.117L730.178 146.097Z" fill="#EC1D23"/>
<path d="M745.079 101.379C741.76 101.379 738.443 101.381 735.124 101.382L735.145 101.402V96.4141L735.125 96.4354H745.059V101.401L745.079 101.381V101.379Z" fill="#EC1D23"/>
<path d="M645.718 86.4769C642.4 86.4769 639.081 86.4769 635.762 86.4769L635.784 86.4967C635.776 84.8345 635.769 83.1724 635.762 81.5088H645.72C645.713 83.171 645.705 84.8331 645.698 86.4967L645.718 86.4754V86.4769Z" fill="#EC1D23"/>
<path d="M680.476 151.062V155.992H670.595V151.082C673.901 151.082 677.198 151.082 680.496 151.082L680.476 151.062Z" fill="#EC1D23"/>
<path d="M650.686 96.4332C650.686 94.7711 650.686 93.1075 650.686 91.4453L650.665 91.4652H655.593V96.4134H650.665L650.685 96.4347L650.686 96.4332Z" fill="#EC1D23"/>
<path d="M650.688 91.447H645.719C645.719 89.7692 645.719 88.1227 645.719 86.4775L645.699 86.4988H650.667V91.4669L650.688 91.447Z" fill="#EC1D23"/>
<path d="M735.123 91.4448C735.123 93.1084 735.123 94.772 735.123 96.4341L735.143 96.4128C733.48 96.4199 731.817 96.4256 730.154 96.4327V91.4646H735.143L735.123 91.4434V91.4448Z" fill="#EC1D23"/>
<path d="M630.794 96.4141V101.342H625.845C625.845 99.7001 625.845 98.0564 625.845 96.4141L625.825 96.4353H630.813L630.793 96.4141H630.794Z" fill="#EC1D23"/>
<path d="M745.057 101.401H749.985V106.313H745.077C745.077 104.667 745.077 103.023 745.077 101.381L745.057 101.401Z" fill="#EC1D23"/>
<path d="M610.944 56.6686H606.016V51.7559H610.925C610.925 53.4024 610.925 55.0461 610.925 56.6884L610.944 56.6686Z" fill="#EC1D23"/>
<path d="M710.261 41.8252V46.7067H705.381V41.8252H710.261Z" fill="#EC1D23"/>
<path d="M745.081 131.208V126.282H749.991V131.186H745.061L745.081 131.206V131.208Z" fill="#EC1D23"/>
<path d="M695.427 41.8057H700.307V46.6985H695.427V41.8057Z" fill="#EC1D23"/>
<path d="M675.525 46.7574V41.8291H680.438V46.7375C678.791 46.7375 677.148 46.7375 675.505 46.7375L675.525 46.7574Z" fill="#EC1D23"/>
<path d="M650.689 46.7359H645.761V41.8232H650.669C650.669 43.4698 650.669 45.1135 650.669 46.7558L650.689 46.7359Z" fill="#EC1D23"/>
<path d="M745.061 131.188C745.054 132.861 745.045 134.534 745.037 136.208C745.037 136.208 745.057 136.185 745.055 136.186C743.433 136.186 741.811 136.186 740.146 136.186V131.208C741.798 131.208 743.439 131.208 745.081 131.208L745.061 131.188Z" fill="#EC1D23"/>
<path d="M680.475 31.8291V36.7574H675.525V31.8291L675.505 31.8504H680.493L680.473 31.8291H680.475Z" fill="#EC1D23"/>
<path d="M685.462 21.9157V16.9476H690.43L690.41 16.9277V21.8958C688.732 21.8958 687.087 21.8958 685.442 21.8958L685.462 21.9157Z" fill="#EC1D23"/>
<path d="M690.43 16.9478V12.0195H695.342V16.928C693.696 16.928 692.052 16.928 690.41 16.928L690.43 16.9478Z" fill="#EC1D23"/>
<path d="M645.741 155.993V151.111H650.621V155.993H645.741Z" fill="#EC1D23"/>
<path d="M660.625 16.9273C658.953 16.9202 657.279 16.9116 655.606 16.9031C655.606 16.9031 655.629 16.923 655.627 16.9216C655.627 15.2992 655.627 13.6767 655.627 12.0117H660.605C660.605 13.664 660.605 15.3063 660.605 16.9471L660.625 16.9273Z" fill="#EC1D23"/>
<path d="M730.157 151.062V155.991H725.244V151.082C726.891 151.082 728.534 151.082 730.177 151.082L730.157 151.062Z" fill="#EC1D23"/>
<path d="M725.207 96.4339H720.252V91.4659H710.283V86.5361H725.207V96.4339Z" fill="#EC1D23"/>
<path d="M730.175 96.4141V101.402H725.188V96.4141H730.175Z" fill="#EC1D23"/>
<path d="M685.463 106.369H680.475V96.4332H675.507V91.4453H685.463V106.369Z" fill="#EC1D23"/>
<path d="M685.442 86.4775H690.43V91.4655H685.442V86.4775Z" fill="#EC1D23"/>
<path d="M720.201 121.318V126.193H715.295V121.318H720.201Z" fill="#EC1D23"/>
<path d="M645.699 81.5288V76.5679H655.606V71.6168H645.699V66.6048H650.653V61.6907H655.619V66.5579H660.586V61.6367H665.591C665.584 64.9554 665.577 68.2741 665.57 71.5927L665.591 71.5728H660.663V76.5608H665.591L665.571 76.5409V81.5288H670.559L670.538 81.509V86.4373H660.628V81.5274H645.699V81.5288Z" fill="#EC1D23"/>
<path d="M670.538 76.5599H675.466V81.5081C673.824 81.5081 672.18 81.5081 670.537 81.5081L670.558 81.528V76.54L670.538 76.5613V76.5599Z" fill="#EC1D23"/>
<path d="M665.569 71.5931H670.539C670.539 73.2723 670.539 74.9175 670.539 76.5626L670.559 76.5413H665.571L665.591 76.5612V71.5732L665.569 71.5931Z" fill="#EC1D23"/>
<path d="M645.718 66.6252H635.782V71.5933H620.858V66.6309H630.78V61.7012H645.718V66.6238V66.6252Z" fill="#EC1D23"/>
<path d="M630.773 21.9551V36.7727H615.957V21.9551H630.773Z" fill="#EC1D23"/>
<path d="M740.067 21.9453V36.7572H725.242V21.9453H740.067Z" fill="#EC1D23"/>
<path d="M630.773 131.253V146.069H615.957V131.253H630.773Z" fill="#EC1D23"/>
<path d="M635.782 76.54V81.528H630.854V76.54H635.782Z" fill="#EC1D23"/>
<path d="M635.762 71.5732H640.691V76.5612H635.762V71.5732Z" fill="#EC1D23"/>
</svg>
