<svg width="663" height="947" viewBox="0 0 663 947" fill="none" xmlns="http://www.w3.org/2000/svg">
<g clip-path="url(#clip0_279_6319)">
<path d="M7.41981 279.605C3.32183 279.605 -0.000244141 276.283 -0.000244141 272.185L-0.000244141 262.644C-0.000244141 258.546 3.32183 255.223 7.41981 255.223H16.9599C21.0579 255.223 24.38 258.546 24.38 262.644V272.185C24.38 276.283 21.0579 279.605 16.9599 279.605H7.41981Z" fill="#EC1D23"/>
<path d="M645.545 279.605C641.447 279.605 638.125 276.283 638.125 272.185V262.644C638.125 258.546 641.447 255.223 645.545 255.223H655.085C659.183 255.223 662.505 258.546 662.505 262.644V272.185C662.505 276.283 659.183 279.605 655.085 279.605H645.545Z" fill="#EC1D23"/>
<path d="M56.1802 272.185C56.1802 276.283 52.8581 279.605 48.7601 279.605H39.2201C35.1221 279.605 31.8 276.283 31.8 272.185V262.644C31.8 258.546 35.1221 255.223 39.2201 255.223H48.7601C52.8581 255.223 56.1802 258.546 56.1802 262.644V272.185Z" fill="#EC1D23"/>
<path d="M56.1802 17.7604C56.1802 21.8587 52.8581 25.1811 48.7601 25.1811H39.2201C35.1221 25.1811 31.8 21.8587 31.8 17.7604V8.21949C31.8 4.12115 35.1221 0.798776 39.2201 0.798776H48.7601C52.8581 0.798776 56.1802 4.12115 56.1802 8.21949V17.7604Z" fill="#EC1D23"/>
<path d="M342.382 272.185C342.382 276.283 339.06 279.605 334.962 279.605H325.422C321.324 279.605 318.002 276.283 318.002 272.185V262.644C318.002 258.546 321.324 255.223 325.422 255.223H334.962C339.06 255.223 342.382 258.546 342.382 262.644V272.185Z" fill="#EC1D23"/>
<path d="M342.382 17.7604C342.382 21.8587 339.06 25.1811 334.962 25.1811H325.422C321.324 25.1811 318.002 21.8587 318.002 17.7604V8.21949C318.002 4.12115 321.324 0.798776 325.422 0.798776H334.962C339.06 0.798776 342.382 4.12115 342.382 8.21949V17.7604Z" fill="#EC1D23"/>
<path d="M7.41981 247.802C3.32183 247.802 -0.000244141 244.48 -0.000244141 240.382L-0.000244141 230.841C-0.000244141 226.742 3.32183 223.42 7.41981 223.42H16.9599C21.0579 223.42 24.38 226.742 24.38 230.841V240.382C24.38 244.48 21.0579 247.802 16.9599 247.802H7.41981Z" fill="#EC1D23"/>
<path d="M87.9774 272.185C87.9774 276.283 84.6553 279.605 80.5573 279.605H71.0172C66.9192 279.605 63.5972 276.283 63.5972 272.185V262.644C63.5972 258.546 66.9192 255.223 71.0172 255.223H80.5573C84.6553 255.223 87.9774 258.546 87.9774 262.644V272.185Z" fill="#EC1D23"/>
<path d="M87.9774 17.7604C87.9774 21.8587 84.6553 25.1811 80.5573 25.1811H71.0172C66.9192 25.1811 63.5972 21.8587 63.5972 17.7604V8.21949C63.5972 4.12115 66.9192 0.798776 71.0172 0.798776H80.5573C84.6553 0.798776 87.9774 4.12115 87.9774 8.21949V17.7604Z" fill="#EC1D23"/>
<path d="M645.545 247.802C641.447 247.802 638.125 244.48 638.125 240.382V230.841C638.125 226.742 641.447 223.42 645.545 223.42H655.085C659.183 223.42 662.505 226.742 662.505 230.841V240.382C662.505 244.48 659.183 247.802 655.085 247.802H645.545Z" fill="#EC1D23"/>
<path d="M374.18 272.185C374.18 276.283 370.858 279.605 366.76 279.605H357.22C353.122 279.605 349.799 276.283 349.799 272.185V262.644C349.799 258.546 353.122 255.223 357.22 255.223H366.76C370.858 255.223 374.18 258.546 374.18 262.644V272.185Z" fill="#EC1D23"/>
<path d="M374.18 17.7604C374.18 21.8587 370.858 25.1811 366.76 25.1811H357.22C353.122 25.1811 349.799 21.8587 349.799 17.7604V8.21949C349.799 4.12115 353.122 0.798776 357.22 0.798776H366.76C370.858 0.798776 374.18 4.12115 374.18 8.21949V17.7604Z" fill="#EC1D23"/>
<path d="M119.774 272.185C119.774 276.283 116.452 279.605 112.354 279.605H102.814C98.7159 279.605 95.3938 276.283 95.3938 272.185V262.644C95.3938 258.546 98.7159 255.223 102.814 255.223H112.354C116.452 255.223 119.774 258.546 119.774 262.644V272.185Z" fill="#EC1D23"/>
<path d="M119.774 17.7604C119.774 21.8587 116.452 25.1811 112.354 25.1811H102.814C98.7159 25.1811 95.3938 21.8587 95.3938 17.7604V8.21949C95.3938 4.12115 98.7159 0.798776 102.814 0.798776H112.354C116.452 0.798776 119.774 4.12115 119.774 8.21949V17.7604Z" fill="#EC1D23"/>
<path d="M7.41981 215.999C3.32183 215.999 -0.000244141 212.677 -0.000244141 208.579L-0.000244141 199.038C-0.000244141 194.939 3.32183 191.617 7.41981 191.617H16.9599C21.0579 191.617 24.38 194.939 24.38 199.038V208.579C24.38 212.677 21.0579 215.999 16.9599 215.999H7.41981Z" fill="#EC1D23"/>
<path d="M645.545 215.999C641.447 215.999 638.125 212.677 638.125 208.579V199.038C638.125 194.939 641.447 191.617 645.545 191.617H655.085C659.183 191.617 662.505 194.939 662.505 199.038V208.579C662.505 212.677 659.183 215.999 655.085 215.999H645.545Z" fill="#EC1D23"/>
<path d="M151.571 272.185C151.571 276.283 148.249 279.605 144.151 279.605H134.611C130.513 279.605 127.191 276.283 127.191 272.185V262.644C127.191 258.546 130.513 255.223 134.611 255.223H144.151C148.249 255.223 151.571 258.546 151.571 262.644V272.185Z" fill="#EC1D23"/>
<path d="M151.571 17.7604C151.571 21.8587 148.249 25.1811 144.151 25.1811H134.611C130.513 25.1811 127.191 21.8587 127.191 17.7604V8.21949C127.191 4.12115 130.513 0.798776 134.611 0.798776H144.151C148.249 0.798776 151.571 4.12115 151.571 8.21949V17.7604Z" fill="#EC1D23"/>
<path d="M405.977 272.185C405.977 276.283 402.655 279.605 398.557 279.605H389.017C384.919 279.605 381.597 276.283 381.597 272.185V262.644C381.597 258.546 384.919 255.223 389.017 255.223H398.557C402.655 255.223 405.977 258.546 405.977 262.644V272.185Z" fill="#EC1D23"/>
<path d="M405.977 17.7604C405.977 21.8587 402.655 25.1811 398.557 25.1811H389.017C384.919 25.1811 381.597 21.8587 381.597 17.7604V8.21949C381.597 4.12115 384.919 0.798776 389.017 0.798776H398.557C402.655 0.798776 405.977 4.12115 405.977 8.21949V17.7604Z" fill="#EC1D23"/>
<path d="M7.41981 184.196C3.32183 184.196 -0.000244141 180.874 -0.000244141 176.776L-0.000244141 167.235C-0.000244141 163.136 3.32183 159.814 7.41981 159.814H16.9599C21.0579 159.814 24.38 163.136 24.38 167.235V176.776C24.38 180.874 21.0579 184.196 16.9599 184.196H7.41981Z" fill="#EC1D23"/>
<path d="M246.963 272.185C246.963 276.283 243.641 279.605 239.543 279.605H230.003C225.905 279.605 222.583 276.283 222.583 272.185V262.644C222.583 258.546 225.905 255.223 230.003 255.223H239.543C243.641 255.223 246.963 258.546 246.963 262.644V272.185Z" fill="#EC1D23"/>
<path d="M246.963 17.7604C246.963 21.8587 243.641 25.1811 239.543 25.1811H230.003C225.905 25.1811 222.583 21.8587 222.583 17.7604V8.21949C222.583 4.12115 225.905 0.798776 230.003 0.798776H239.543C243.641 0.798776 246.963 4.12115 246.963 8.21949V17.7604Z" fill="#EC1D23"/>
<path d="M645.545 184.196C641.447 184.196 638.125 180.874 638.125 176.776V167.235C638.125 163.136 641.447 159.814 645.545 159.814H655.085C659.183 159.814 662.505 163.136 662.505 167.235V176.776C662.505 180.874 659.183 184.196 655.085 184.196H645.545Z" fill="#EC1D23"/>
<path d="M437.773 272.185C437.773 276.283 434.451 279.605 430.353 279.605H420.813C416.715 279.605 413.393 276.283 413.393 272.185V262.644C413.393 258.546 416.715 255.223 420.813 255.223H430.353C434.451 255.223 437.773 258.546 437.773 262.644V272.185Z" fill="#EC1D23"/>
<path d="M437.773 17.7604C437.773 21.8587 434.451 25.1811 430.353 25.1811H420.813C416.715 25.1811 413.393 21.8587 413.393 17.7604V8.21949C413.393 4.12115 416.715 0.798776 420.813 0.798776H430.353C434.451 0.798776 437.773 4.12115 437.773 8.21949V17.7604Z" fill="#EC1D23"/>
<path d="M183.369 272.185C183.369 276.283 180.047 279.605 175.949 279.605H166.409C162.311 279.605 158.989 276.283 158.989 272.185V262.644C158.989 258.546 162.311 255.223 166.409 255.223H175.949C180.047 255.223 183.369 258.546 183.369 262.644V272.185Z" fill="#EC1D23"/>
<path d="M183.369 17.7604C183.369 21.8587 180.047 25.1811 175.949 25.1811H166.409C162.311 25.1811 158.989 21.8587 158.989 17.7604V8.21949C158.989 4.12115 162.311 0.798776 166.409 0.798776H175.949C180.047 0.798776 183.369 4.12115 183.369 8.21949V17.7604Z" fill="#EC1D23"/>
<path d="M7.41981 88.7872C3.32183 88.7872 -0.000244141 85.4648 -0.000244141 81.3665L-0.000244141 71.8256C-0.000244141 67.7272 3.32183 64.4049 7.41981 64.4049H16.9599C21.0579 64.4049 24.38 67.7272 24.38 71.8256V81.3665C24.38 85.4648 21.0579 88.7872 16.9599 88.7872H7.41981Z" fill="#EC1D23"/>
<path d="M645.545 88.7872C641.447 88.7872 638.125 85.4648 638.125 81.3665V71.8256C638.125 67.7272 641.447 64.4049 645.545 64.4049H655.085C659.183 64.4049 662.505 67.7272 662.505 71.8256V81.3665C662.505 85.4648 659.183 88.7872 655.085 88.7872H645.545Z" fill="#EC1D23"/>
<path d="M278.761 272.185C278.761 276.283 275.439 279.605 271.341 279.605H261.801C257.703 279.605 254.381 276.283 254.381 272.185V262.644C254.381 258.546 257.703 255.223 261.801 255.223H271.341C275.439 255.223 278.761 258.546 278.761 262.644V272.185Z" fill="#EC1D23"/>
<path d="M278.761 17.7604C278.761 21.8587 275.439 25.1811 271.341 25.1811H261.801C257.703 25.1811 254.381 21.8587 254.381 17.7604V8.21949C254.381 4.12115 257.703 0.798776 261.801 0.798776H271.341C275.439 0.798776 278.761 4.12115 278.761 8.21949V17.7604Z" fill="#EC1D23"/>
<path d="M533.165 272.185C533.165 276.283 529.843 279.605 525.745 279.605H516.205C512.107 279.605 508.785 276.283 508.785 272.185V262.644C508.785 258.546 512.107 255.223 516.205 255.223H525.745C529.843 255.223 533.165 258.546 533.165 262.644V272.185Z" fill="#EC1D23"/>
<path d="M533.165 17.7604C533.165 21.8587 529.843 25.1811 525.745 25.1811H516.205C512.107 25.1811 508.785 21.8587 508.785 17.7604V8.21949C508.785 4.12115 512.107 0.798776 516.205 0.798776H525.745C529.843 0.798776 533.165 4.12115 533.165 8.21949V17.7604Z" fill="#EC1D23"/>
<path d="M7.41981 152.393C3.32183 152.393 -0.000244141 149.071 -0.000244141 144.973L-0.000244141 135.432C-0.000244141 131.333 3.32183 128.011 7.41981 128.011H16.9599C21.0579 128.011 24.38 131.333 24.38 135.432V144.973C24.38 149.071 21.0579 152.393 16.9599 152.393H7.41981Z" fill="#EC1D23"/>
<path d="M215.167 272.185C215.167 276.283 211.845 279.605 207.747 279.605H198.207C194.109 279.605 190.787 276.283 190.787 272.185V262.644C190.787 258.546 194.109 255.223 198.207 255.223H207.747C211.845 255.223 215.167 258.546 215.167 262.644V272.185Z" fill="#EC1D23"/>
<path d="M215.167 17.7604C215.167 21.8587 211.845 25.1811 207.747 25.1811H198.207C194.109 25.1811 190.787 21.8587 190.787 17.7604V8.21949C190.787 4.12115 194.109 0.798776 198.207 0.798776H207.747C211.845 0.798776 215.167 4.12115 215.167 8.21949V17.7604Z" fill="#EC1D23"/>
<path d="M645.545 152.393C641.447 152.393 638.125 149.071 638.125 144.973V135.432C638.125 131.333 641.447 128.011 645.545 128.011H655.085C659.183 128.011 662.505 131.333 662.505 135.432V144.973C662.505 149.071 659.183 152.393 655.085 152.393H645.545Z" fill="#EC1D23"/>
<path d="M469.571 272.185C469.571 276.283 466.249 279.605 462.151 279.605H452.611C448.513 279.605 445.191 276.283 445.191 272.185V262.644C445.191 258.546 448.513 255.223 452.611 255.223H462.151C466.249 255.223 469.571 258.546 469.571 262.644V272.185Z" fill="#EC1D23"/>
<path d="M469.571 17.7604C469.571 21.8587 466.249 25.1811 462.151 25.1811H452.611C448.513 25.1811 445.191 21.8587 445.191 17.7604V8.21949C445.191 4.12115 448.513 0.798776 452.611 0.798776H462.151C466.249 0.798776 469.571 4.12115 469.571 8.21949V17.7604Z" fill="#EC1D23"/>
<path d="M310.557 272.185C310.557 276.283 307.235 279.605 303.137 279.605H293.597C289.499 279.605 286.177 276.283 286.177 272.185V262.644C286.177 258.546 289.499 255.223 293.597 255.223H303.137C307.235 255.223 310.557 258.546 310.557 262.644V272.185Z" fill="#EC1D23"/>
<path d="M310.557 17.7604C310.557 21.8587 307.235 25.1811 303.137 25.1811H293.597C289.499 25.1811 286.177 21.8587 286.177 17.7604V8.21949C286.177 4.12115 289.499 0.798776 293.597 0.798776H303.137C307.235 0.798776 310.557 4.12115 310.557 8.21949V17.7604Z" fill="#EC1D23"/>
<path d="M7.41981 56.9842C3.32183 56.9842 -0.000244141 53.6618 -0.000244141 49.5635L-0.000244141 40.0225C-0.000244141 35.9242 3.32183 32.6018 7.41981 32.6018H16.9599C21.0579 32.6018 24.38 35.9242 24.38 40.0225V49.5635C24.38 53.6618 21.0579 56.9842 16.9599 56.9842H7.41981Z" fill="#EC1D23"/>
<path d="M645.545 56.9842C641.447 56.9842 638.125 53.6618 638.125 49.5635V40.0225C638.125 35.9242 641.447 32.6018 645.545 32.6018H655.085C659.183 32.6018 662.505 35.9242 662.505 40.0225V49.5635C662.505 53.6618 659.183 56.9842 655.085 56.9842H645.545Z" fill="#EC1D23"/>
<path d="M564.964 272.185C564.964 276.283 561.642 279.605 557.544 279.605H548.003C543.905 279.605 540.583 276.283 540.583 272.185V262.644C540.583 258.546 543.905 255.223 548.003 255.223H557.544C561.642 255.223 564.964 258.546 564.964 262.644V272.185Z" fill="#EC1D23"/>
<path d="M564.964 17.7604C564.964 21.8587 561.642 25.1811 557.544 25.1811H548.003C543.905 25.1811 540.583 21.8587 540.583 17.7604V8.21949C540.583 4.12115 543.905 0.798776 548.003 0.798776H557.544C561.642 0.798776 564.964 4.12115 564.964 8.21949V17.7604Z" fill="#EC1D23"/>
<path d="M7.41981 120.59C3.32183 120.59 -0.000244141 117.268 -0.000244141 113.17L-0.000244141 103.629C-0.000244141 99.5303 3.32183 96.2079 7.41981 96.2079H16.9599C21.0579 96.2079 24.38 99.5303 24.38 103.629V113.17C24.38 117.268 21.0579 120.59 16.9599 120.59H7.41981Z" fill="#EC1D23"/>
<path d="M645.545 120.59C641.447 120.59 638.125 117.268 638.125 113.17V103.629C638.125 99.5303 641.447 96.2079 645.545 96.2079H655.085C659.183 96.2079 662.505 99.5303 662.505 103.629V113.17C662.505 117.268 659.183 120.59 655.085 120.59H645.545Z" fill="#EC1D23"/>
<path d="M501.369 272.185C501.369 276.283 498.047 279.605 493.949 279.605H484.409C480.311 279.605 476.989 276.283 476.989 272.185V262.644C476.989 258.546 480.311 255.223 484.409 255.223H493.949C498.047 255.223 501.369 258.546 501.369 262.644V272.185Z" fill="#EC1D23"/>
<path d="M501.369 17.7604C501.369 21.8587 498.047 25.1811 493.949 25.1811H484.409C480.311 25.1811 476.989 21.8587 476.989 17.7604V8.21949C476.989 4.12115 480.311 0.798776 484.409 0.798776H493.949C498.047 0.798776 501.369 4.12115 501.369 8.21949V17.7604Z" fill="#EC1D23"/>
<path d="M7.41981 25.1811C3.32183 25.1811 -0.000244141 21.8587 -0.000244141 17.7604L-0.000244141 8.21949C-0.000244141 4.12115 3.32183 0.798776 7.41981 0.798776H16.9599C21.0579 0.798776 24.38 4.12115 24.38 8.21949V17.7604C24.38 21.8587 21.0579 25.1811 16.9599 25.1811H7.41981Z" fill="#EC1D23"/>
<path d="M645.545 25.1811C641.447 25.1811 638.125 21.8587 638.125 17.7604V8.21949C638.125 4.12115 641.447 0.798776 645.545 0.798776H655.085C659.183 0.798776 662.505 4.12115 662.505 8.21949V17.7604C662.505 21.8587 659.183 25.1811 655.085 25.1811H645.545Z" fill="#EC1D23"/>
<path d="M596.76 272.185C596.76 276.283 593.438 279.605 589.34 279.605H579.8C575.702 279.605 572.379 276.283 572.379 272.185V262.644C572.379 258.546 575.702 255.223 579.8 255.223H589.34C593.438 255.223 596.76 258.546 596.76 262.644V272.185Z" fill="#EC1D23"/>
<path d="M596.76 17.7604C596.76 21.8587 593.438 25.1811 589.34 25.1811H579.8C575.702 25.1811 572.379 21.8587 572.379 17.7604V8.21949C572.379 4.12115 575.702 0.798776 579.8 0.798776H589.34C593.438 0.798776 596.76 4.12115 596.76 8.21949V17.7604Z" fill="#EC1D23"/>
<path d="M630.705 272.185C630.705 276.283 627.383 279.605 623.285 279.605H613.745C609.647 279.605 606.325 276.283 606.325 272.185V262.644C606.325 258.546 609.647 255.223 613.745 255.223H623.285C627.383 255.223 630.705 258.546 630.705 262.644V272.185Z" fill="#EC1D23"/>
<path d="M630.705 17.7604C630.705 21.8587 627.383 25.1811 623.285 25.1811H613.745C609.647 25.1811 606.325 21.8587 606.325 17.7604V8.21949C606.325 4.12115 609.647 0.798776 613.745 0.798776H623.285C627.383 0.798776 630.705 4.12115 630.705 8.21949V17.7604Z" fill="#EC1D23"/>
<path d="M12.7199 266.884L12.7199 12.4599H650.845V266.884H12.7199Z" fill="#EC1D23"/>
<path d="M7.41981 534.021C3.32183 534.021 -0.000244141 530.698 -0.000244141 526.6L-0.000244141 517.059C-0.000244141 512.961 3.32183 509.638 7.41981 509.638H16.9599C21.0579 509.638 24.38 512.961 24.38 517.059V526.6C24.38 530.698 21.0579 534.021 16.9599 534.021H7.41981Z" fill="#EC1D23"/>
<path d="M645.545 534.021C641.447 534.021 638.125 530.698 638.125 526.6V517.059C638.125 512.961 641.447 509.638 645.545 509.638H655.085C659.183 509.638 662.505 512.961 662.505 517.059V526.6C662.505 530.698 659.183 534.021 655.085 534.021H645.545Z" fill="#EC1D23"/>
<path d="M56.1802 526.6C56.1802 530.698 52.8581 534.021 48.7601 534.021H39.2201C35.1221 534.021 31.8 530.698 31.8 526.6V517.059C31.8 512.961 35.1221 509.638 39.2201 509.638H48.7601C52.8581 509.638 56.1802 512.961 56.1802 517.059V526.6Z" fill="#EC1D23"/>
<path d="M56.1802 272.175C56.1802 276.274 52.8581 279.596 48.7601 279.596H39.2201C35.1221 279.596 31.8 276.274 31.8 272.175V262.635C31.8 258.536 35.1221 255.214 39.2201 255.214H48.7601C52.8581 255.214 56.1802 258.536 56.1802 262.635V272.175Z" fill="#EC1D23"/>
<path d="M342.382 526.6C342.382 530.698 339.06 534.021 334.962 534.021H325.422C321.324 534.021 318.002 530.698 318.002 526.6V517.059C318.002 512.961 321.324 509.638 325.422 509.638H334.962C339.06 509.638 342.382 512.961 342.382 517.059V526.6Z" fill="#EC1D23"/>
<path d="M342.382 272.175C342.382 276.274 339.06 279.596 334.962 279.596H325.422C321.324 279.596 318.002 276.274 318.002 272.175V262.635C318.002 258.536 321.324 255.214 325.422 255.214H334.962C339.06 255.214 342.382 258.536 342.382 262.635V272.175Z" fill="#EC1D23"/>
<path d="M7.41981 502.217C3.32183 502.217 -0.000244141 498.895 -0.000244141 494.797L-0.000244141 485.256C-0.000244141 481.157 3.32183 477.835 7.41981 477.835H16.9599C21.0579 477.835 24.38 481.157 24.38 485.256V494.797C24.38 498.895 21.0579 502.217 16.9599 502.217H7.41981Z" fill="#EC1D23"/>
<path d="M87.9774 526.6C87.9774 530.698 84.6553 534.021 80.5573 534.021H71.0172C66.9192 534.021 63.5972 530.698 63.5972 526.6V517.059C63.5972 512.961 66.9192 509.638 71.0172 509.638H80.5573C84.6553 509.638 87.9774 512.961 87.9774 517.059V526.6Z" fill="#EC1D23"/>
<path d="M87.9774 272.175C87.9774 276.274 84.6553 279.596 80.5573 279.596H71.0172C66.9192 279.596 63.5972 276.274 63.5972 272.175V262.635C63.5972 258.536 66.9192 255.214 71.0172 255.214H80.5573C84.6553 255.214 87.9774 258.536 87.9774 262.635V272.175Z" fill="#EC1D23"/>
<path d="M645.545 502.217C641.447 502.217 638.125 498.895 638.125 494.797V485.256C638.125 481.157 641.447 477.835 645.545 477.835H655.085C659.183 477.835 662.505 481.157 662.505 485.256V494.797C662.505 498.895 659.183 502.217 655.085 502.217H645.545Z" fill="#EC1D23"/>
<path d="M374.18 526.6C374.18 530.698 370.858 534.021 366.76 534.021H357.22C353.122 534.021 349.799 530.698 349.799 526.6V517.059C349.799 512.961 353.122 509.638 357.22 509.638H366.76C370.858 509.638 374.18 512.961 374.18 517.059V526.6Z" fill="#EC1D23"/>
<path d="M374.18 272.175C374.18 276.274 370.858 279.596 366.76 279.596H357.22C353.122 279.596 349.799 276.274 349.799 272.175V262.635C349.799 258.536 353.122 255.214 357.22 255.214H366.76C370.858 255.214 374.18 258.536 374.18 262.635V272.175Z" fill="#EC1D23"/>
<path d="M119.774 526.6C119.774 530.698 116.452 534.021 112.354 534.021H102.814C98.7159 534.021 95.3938 530.698 95.3938 526.6V517.059C95.3938 512.961 98.7159 509.638 102.814 509.638H112.354C116.452 509.638 119.774 512.961 119.774 517.059V526.6Z" fill="#EC1D23"/>
<path d="M119.774 272.175C119.774 276.274 116.452 279.596 112.354 279.596H102.814C98.7159 279.596 95.3938 276.274 95.3938 272.175V262.635C95.3938 258.536 98.7159 255.214 102.814 255.214H112.354C116.452 255.214 119.774 258.536 119.774 262.635V272.175Z" fill="#EC1D23"/>
<path d="M7.41981 470.414C3.32183 470.414 -0.000244141 467.092 -0.000244141 462.994L-0.000244141 453.453C-0.000244141 449.354 3.32183 446.032 7.41981 446.032H16.9599C21.0579 446.032 24.38 449.354 24.38 453.453V462.994C24.38 467.092 21.0579 470.414 16.9599 470.414H7.41981Z" fill="#EC1D23"/>
<path d="M645.545 470.414C641.447 470.414 638.125 467.092 638.125 462.994V453.453C638.125 449.354 641.447 446.032 645.545 446.032H655.085C659.183 446.032 662.505 449.354 662.505 453.453V462.994C662.505 467.092 659.183 470.414 655.085 470.414H645.545Z" fill="#EC1D23"/>
<path d="M151.571 526.6C151.571 530.698 148.249 534.021 144.151 534.021H134.611C130.513 534.021 127.191 530.698 127.191 526.6V517.059C127.191 512.961 130.513 509.638 134.611 509.638H144.151C148.249 509.638 151.571 512.961 151.571 517.059V526.6Z" fill="#EC1D23"/>
<path d="M151.571 272.175C151.571 276.274 148.249 279.596 144.151 279.596H134.611C130.513 279.596 127.191 276.274 127.191 272.175V262.635C127.191 258.536 130.513 255.214 134.611 255.214H144.151C148.249 255.214 151.571 258.536 151.571 262.635V272.175Z" fill="#EC1D23"/>
<path d="M405.977 526.6C405.977 530.698 402.655 534.021 398.557 534.021H389.017C384.919 534.021 381.597 530.698 381.597 526.6V517.059C381.597 512.961 384.919 509.638 389.017 509.638H398.557C402.655 509.638 405.977 512.961 405.977 517.059V526.6Z" fill="#EC1D23"/>
<path d="M405.977 272.175C405.977 276.274 402.655 279.596 398.557 279.596H389.017C384.919 279.596 381.597 276.274 381.597 272.175V262.635C381.597 258.536 384.919 255.214 389.017 255.214H398.557C402.655 255.214 405.977 258.536 405.977 262.635V272.175Z" fill="#EC1D23"/>
<path d="M7.41981 438.611C3.32183 438.611 -0.000244141 435.289 -0.000244141 431.191L-0.000244141 421.65C-0.000244141 417.551 3.32183 414.229 7.41981 414.229H16.9599C21.0579 414.229 24.38 417.551 24.38 421.65V431.191C24.38 435.289 21.0579 438.611 16.9599 438.611H7.41981Z" fill="#EC1D23"/>
<path d="M246.963 526.6C246.963 530.698 243.641 534.021 239.543 534.021H230.003C225.905 534.021 222.583 530.698 222.583 526.6V517.059C222.583 512.961 225.905 509.638 230.003 509.638H239.543C243.641 509.638 246.963 512.961 246.963 517.059V526.6Z" fill="#EC1D23"/>
<path d="M246.963 272.175C246.963 276.274 243.641 279.596 239.543 279.596H230.003C225.905 279.596 222.583 276.274 222.583 272.175V262.635C222.583 258.536 225.905 255.214 230.003 255.214H239.543C243.641 255.214 246.963 258.536 246.963 262.635V272.175Z" fill="#EC1D23"/>
<path d="M645.545 438.611C641.447 438.611 638.125 435.289 638.125 431.191V421.65C638.125 417.551 641.447 414.229 645.545 414.229H655.085C659.183 414.229 662.505 417.551 662.505 421.65V431.191C662.505 435.289 659.183 438.611 655.085 438.611H645.545Z" fill="#EC1D23"/>
<path d="M437.773 526.6C437.773 530.698 434.451 534.021 430.353 534.021H420.813C416.715 534.021 413.393 530.698 413.393 526.6V517.059C413.393 512.961 416.715 509.638 420.813 509.638H430.353C434.451 509.638 437.773 512.961 437.773 517.059V526.6Z" fill="#EC1D23"/>
<path d="M437.773 272.175C437.773 276.274 434.451 279.596 430.353 279.596H420.813C416.715 279.596 413.393 276.274 413.393 272.175V262.635C413.393 258.536 416.715 255.214 420.813 255.214H430.353C434.451 255.214 437.773 258.536 437.773 262.635V272.175Z" fill="#EC1D23"/>
<path d="M183.369 526.6C183.369 530.698 180.047 534.021 175.949 534.021H166.409C162.311 534.021 158.989 530.698 158.989 526.6V517.059C158.989 512.961 162.311 509.638 166.409 509.638H175.949C180.047 509.638 183.369 512.961 183.369 517.059V526.6Z" fill="#EC1D23"/>
<path d="M183.369 272.175C183.369 276.274 180.047 279.596 175.949 279.596H166.409C162.311 279.596 158.989 276.274 158.989 272.175V262.635C158.989 258.536 162.311 255.214 166.409 255.214H175.949C180.047 255.214 183.369 258.536 183.369 262.635V272.175Z" fill="#EC1D23"/>
<path d="M7.41981 343.202C3.32183 343.202 -0.000244141 339.88 -0.000244141 335.782L-0.000244141 326.241C-0.000244141 322.142 3.32183 318.82 7.41981 318.82H16.9599C21.0579 318.82 24.38 322.142 24.38 326.241V335.782C24.38 339.88 21.0579 343.202 16.9599 343.202H7.41981Z" fill="#EC1D23"/>
<path d="M645.545 343.202C641.447 343.202 638.125 339.88 638.125 335.782V326.241C638.125 322.142 641.447 318.82 645.545 318.82H655.085C659.183 318.82 662.505 322.142 662.505 326.241V335.782C662.505 339.88 659.183 343.202 655.085 343.202H645.545Z" fill="#EC1D23"/>
<path d="M278.761 526.6C278.761 530.698 275.439 534.021 271.341 534.021H261.801C257.703 534.021 254.381 530.698 254.381 526.6V517.059C254.381 512.961 257.703 509.638 261.801 509.638H271.341C275.439 509.638 278.761 512.961 278.761 517.059V526.6Z" fill="#EC1D23"/>
<path d="M278.761 272.175C278.761 276.274 275.439 279.596 271.341 279.596H261.801C257.703 279.596 254.381 276.274 254.381 272.175V262.635C254.381 258.536 257.703 255.214 261.801 255.214H271.341C275.439 255.214 278.761 258.536 278.761 262.635V272.175Z" fill="#EC1D23"/>
<path d="M533.165 526.6C533.165 530.698 529.843 534.021 525.745 534.021H516.205C512.107 534.021 508.785 530.698 508.785 526.6V517.059C508.785 512.961 512.107 509.638 516.205 509.638H525.745C529.843 509.638 533.165 512.961 533.165 517.059V526.6Z" fill="#EC1D23"/>
<path d="M533.165 272.175C533.165 276.274 529.843 279.596 525.745 279.596H516.205C512.107 279.596 508.785 276.274 508.785 272.175V262.635C508.785 258.536 512.107 255.214 516.205 255.214H525.745C529.843 255.214 533.165 258.536 533.165 262.635V272.175Z" fill="#EC1D23"/>
<path d="M7.41981 406.808C3.32183 406.808 -0.000244141 403.486 -0.000244141 399.388L-0.000244141 389.847C-0.000244141 385.748 3.32183 382.426 7.41981 382.426H16.9599C21.0579 382.426 24.38 385.748 24.38 389.847V399.388C24.38 403.486 21.0579 406.808 16.9599 406.808H7.41981Z" fill="#EC1D23"/>
<path d="M215.167 526.6C215.167 530.698 211.845 534.021 207.747 534.021H198.207C194.109 534.021 190.787 530.698 190.787 526.6V517.059C190.787 512.961 194.109 509.638 198.207 509.638H207.747C211.845 509.638 215.167 512.961 215.167 517.059V526.6Z" fill="#EC1D23"/>
<path d="M215.167 272.175C215.167 276.274 211.845 279.596 207.747 279.596H198.207C194.109 279.596 190.787 276.274 190.787 272.175V262.635C190.787 258.536 194.109 255.214 198.207 255.214H207.747C211.845 255.214 215.167 258.536 215.167 262.635V272.175Z" fill="#EC1D23"/>
<path d="M645.545 406.808C641.447 406.808 638.125 403.486 638.125 399.388V389.847C638.125 385.748 641.447 382.426 645.545 382.426H655.085C659.183 382.426 662.505 385.748 662.505 389.847V399.388C662.505 403.486 659.183 406.808 655.085 406.808H645.545Z" fill="#EC1D23"/>
<path d="M469.571 526.6C469.571 530.698 466.249 534.021 462.151 534.021H452.611C448.513 534.021 445.191 530.698 445.191 526.6V517.059C445.191 512.961 448.513 509.638 452.611 509.638H462.151C466.249 509.638 469.571 512.961 469.571 517.059V526.6Z" fill="#EC1D23"/>
<path d="M469.571 272.175C469.571 276.274 466.249 279.596 462.151 279.596H452.611C448.513 279.596 445.191 276.274 445.191 272.175V262.635C445.191 258.536 448.513 255.214 452.611 255.214H462.151C466.249 255.214 469.571 258.536 469.571 262.635V272.175Z" fill="#EC1D23"/>
<path d="M310.557 526.6C310.557 530.698 307.235 534.021 303.137 534.021H293.597C289.499 534.021 286.177 530.698 286.177 526.6V517.059C286.177 512.961 289.499 509.638 293.597 509.638H303.137C307.235 509.638 310.557 512.961 310.557 517.059V526.6Z" fill="#EC1D23"/>
<path d="M310.557 272.175C310.557 276.274 307.235 279.596 303.137 279.596H293.597C289.499 279.596 286.177 276.274 286.177 272.175V262.635C286.177 258.536 289.499 255.214 293.597 255.214H303.137C307.235 255.214 310.557 258.536 310.557 262.635V272.175Z" fill="#EC1D23"/>
<path d="M7.41981 311.399C3.32183 311.399 -0.000244141 308.077 -0.000244141 303.978L-0.000244141 294.438C-0.000244141 290.339 3.32183 287.017 7.41981 287.017H16.9599C21.0579 287.017 24.38 290.339 24.38 294.438V303.978C24.38 308.077 21.0579 311.399 16.9599 311.399H7.41981Z" fill="#EC1D23"/>
<path d="M645.545 311.399C641.447 311.399 638.125 308.077 638.125 303.978V294.438C638.125 290.339 641.447 287.017 645.545 287.017H655.085C659.183 287.017 662.505 290.339 662.505 294.438V303.978C662.505 308.077 659.183 311.399 655.085 311.399H645.545Z" fill="#EC1D23"/>
<path d="M564.964 526.6C564.964 530.698 561.642 534.021 557.544 534.021H548.003C543.905 534.021 540.583 530.698 540.583 526.6V517.059C540.583 512.961 543.905 509.638 548.003 509.638H557.544C561.642 509.638 564.964 512.961 564.964 517.059V526.6Z" fill="#EC1D23"/>
<path d="M564.964 272.175C564.964 276.274 561.642 279.596 557.544 279.596H548.003C543.905 279.596 540.583 276.274 540.583 272.175V262.635C540.583 258.536 543.905 255.214 548.003 255.214H557.544C561.642 255.214 564.964 258.536 564.964 262.635V272.175Z" fill="#EC1D23"/>
<path d="M7.41981 375.005C3.32183 375.005 -0.000244141 371.683 -0.000244141 367.585L-0.000244141 358.044C-0.000244141 353.945 3.32183 350.623 7.41981 350.623H16.9599C21.0579 350.623 24.38 353.945 24.38 358.044V367.585C24.38 371.683 21.0579 375.005 16.9599 375.005H7.41981Z" fill="#EC1D23"/>
<path d="M645.545 375.005C641.447 375.005 638.125 371.683 638.125 367.585V358.044C638.125 353.945 641.447 350.623 645.545 350.623H655.085C659.183 350.623 662.505 353.945 662.505 358.044V367.585C662.505 371.683 659.183 375.005 655.085 375.005H645.545Z" fill="#EC1D23"/>
<path d="M501.369 526.6C501.369 530.698 498.047 534.021 493.949 534.021H484.409C480.311 534.021 476.989 530.698 476.989 526.6V517.059C476.989 512.961 480.311 509.638 484.409 509.638H493.949C498.047 509.638 501.369 512.961 501.369 517.059V526.6Z" fill="#EC1D23"/>
<path d="M501.369 272.175C501.369 276.274 498.047 279.596 493.949 279.596H484.409C480.311 279.596 476.989 276.274 476.989 272.175V262.635C476.989 258.536 480.311 255.214 484.409 255.214H493.949C498.047 255.214 501.369 258.536 501.369 262.635V272.175Z" fill="#EC1D23"/>
<path d="M7.41981 279.596C3.32183 279.596 -0.000244141 276.274 -0.000244141 272.175L-0.000244141 262.635C-0.000244141 258.536 3.32183 255.214 7.41981 255.214H16.9599C21.0579 255.214 24.38 258.536 24.38 262.635V272.175C24.38 276.274 21.0579 279.596 16.9599 279.596H7.41981Z" fill="#EC1D23"/>
<path d="M645.545 279.596C641.447 279.596 638.125 276.274 638.125 272.175V262.635C638.125 258.536 641.447 255.214 645.545 255.214H655.085C659.183 255.214 662.505 258.536 662.505 262.635V272.175C662.505 276.274 659.183 279.596 655.085 279.596H645.545Z" fill="#EC1D23"/>
<path d="M596.76 526.6C596.76 530.698 593.438 534.021 589.34 534.021H579.8C575.702 534.021 572.379 530.698 572.379 526.6V517.059C572.379 512.961 575.702 509.638 579.8 509.638H589.34C593.438 509.638 596.76 512.961 596.76 517.059V526.6Z" fill="#EC1D23"/>
<path d="M596.76 272.175C596.76 276.274 593.438 279.596 589.34 279.596H579.8C575.702 279.596 572.379 276.274 572.379 272.175V262.635C572.379 258.536 575.702 255.214 579.8 255.214H589.34C593.438 255.214 596.76 258.536 596.76 262.635V272.175Z" fill="#EC1D23"/>
<path d="M630.705 526.6C630.705 530.698 627.383 534.021 623.285 534.021H613.745C609.647 534.021 606.325 530.698 606.325 526.6V517.059C606.325 512.961 609.647 509.638 613.745 509.638H623.285C627.383 509.638 630.705 512.961 630.705 517.059V526.6Z" fill="#EC1D23"/>
<path d="M630.705 272.175C630.705 276.274 627.383 279.596 623.285 279.596H613.745C609.647 279.596 606.325 276.274 606.325 272.175V262.635C606.325 258.536 609.647 255.214 613.745 255.214H623.285C627.383 255.214 630.705 258.536 630.705 262.635V272.175Z" fill="#EC1D23"/>
<path d="M12.7199 521.299L12.7199 266.875H650.845V521.299H12.7199Z" fill="#EC1D23"/>
<path d="M7.41981 660.612C3.32183 660.612 -0.000244141 657.29 -0.000244141 653.192L-0.000244141 643.651C-0.000244141 639.552 3.32183 636.23 7.41981 636.23H16.9599C21.0579 636.23 24.38 639.552 24.38 643.651V653.192C24.38 657.29 21.0579 660.612 16.9599 660.612H7.41981Z" fill="#EC1D23"/>
<path d="M645.545 660.612C641.447 660.612 638.125 657.29 638.125 653.192V643.651C638.125 639.552 641.447 636.23 645.545 636.23H655.085C659.183 636.23 662.505 639.552 662.505 643.651V653.192C662.505 657.29 659.183 660.612 655.085 660.612H645.545Z" fill="#EC1D23"/>
<path d="M56.1802 653.192C56.1802 657.29 52.8581 660.612 48.7601 660.612H39.2201C35.1221 660.612 31.8 657.29 31.8 653.192V643.651C31.8 639.552 35.1221 636.23 39.2201 636.23H48.7601C52.8581 636.23 56.1802 639.552 56.1802 643.651V653.192Z" fill="#EC1D23"/>
<path d="M56.1802 398.767C56.1802 402.866 52.8581 406.188 48.7601 406.188H39.2201C35.1221 406.188 31.8 402.866 31.8 398.767V389.226C31.8 385.128 35.1221 381.806 39.2201 381.806H48.7601C52.8581 381.806 56.1802 385.128 56.1802 389.226V398.767Z" fill="#EC1D23"/>
<path d="M342.382 653.192C342.382 657.29 339.06 660.612 334.962 660.612H325.422C321.324 660.612 318.002 657.29 318.002 653.192V643.651C318.002 639.552 321.324 636.23 325.422 636.23H334.962C339.06 636.23 342.382 639.552 342.382 643.651V653.192Z" fill="#EC1D23"/>
<path d="M342.382 398.767C342.382 402.866 339.06 406.188 334.962 406.188H325.422C321.324 406.188 318.002 402.866 318.002 398.767V389.226C318.002 385.128 321.324 381.806 325.422 381.806H334.962C339.06 381.806 342.382 385.128 342.382 389.226V398.767Z" fill="#EC1D23"/>
<path d="M7.41981 628.809C3.32183 628.809 -0.000244141 625.487 -0.000244141 621.389L-0.000244141 611.848C-0.000244141 607.749 3.32183 604.427 7.41981 604.427H16.9599C21.0579 604.427 24.38 607.749 24.38 611.848V621.389C24.38 625.487 21.0579 628.809 16.9599 628.809H7.41981Z" fill="#EC1D23"/>
<path d="M87.9774 653.192C87.9774 657.29 84.6553 660.612 80.5573 660.612H71.0172C66.9192 660.612 63.5972 657.29 63.5972 653.192V643.651C63.5972 639.552 66.9192 636.23 71.0172 636.23H80.5573C84.6553 636.23 87.9774 639.552 87.9774 643.651V653.192Z" fill="#EC1D23"/>
<path d="M87.9774 398.767C87.9774 402.866 84.6553 406.188 80.5573 406.188H71.0172C66.9192 406.188 63.5972 402.866 63.5972 398.767V389.226C63.5972 385.128 66.9192 381.806 71.0172 381.806H80.5573C84.6553 381.806 87.9774 385.128 87.9774 389.226V398.767Z" fill="#EC1D23"/>
<path d="M645.545 628.809C641.447 628.809 638.125 625.487 638.125 621.389V611.848C638.125 607.749 641.447 604.427 645.545 604.427H655.085C659.183 604.427 662.505 607.749 662.505 611.848V621.389C662.505 625.487 659.183 628.809 655.085 628.809H645.545Z" fill="#EC1D23"/>
<path d="M374.18 653.192C374.18 657.29 370.858 660.612 366.76 660.612H357.22C353.122 660.612 349.799 657.29 349.799 653.192V643.651C349.799 639.552 353.122 636.23 357.22 636.23H366.76C370.858 636.23 374.18 639.552 374.18 643.651V653.192Z" fill="#EC1D23"/>
<path d="M374.18 398.767C374.18 402.866 370.858 406.188 366.76 406.188H357.22C353.122 406.188 349.799 402.866 349.799 398.767V389.226C349.799 385.128 353.122 381.806 357.22 381.806H366.76C370.858 381.806 374.18 385.128 374.18 389.226V398.767Z" fill="#EC1D23"/>
<path d="M119.774 653.192C119.774 657.29 116.452 660.612 112.354 660.612H102.814C98.7159 660.612 95.3938 657.29 95.3938 653.192V643.651C95.3938 639.552 98.7159 636.23 102.814 636.23H112.354C116.452 636.23 119.774 639.552 119.774 643.651V653.192Z" fill="#EC1D23"/>
<path d="M119.774 398.767C119.774 402.866 116.452 406.188 112.354 406.188H102.814C98.7159 406.188 95.3938 402.866 95.3938 398.767V389.226C95.3938 385.128 98.7159 381.806 102.814 381.806H112.354C116.452 381.806 119.774 385.128 119.774 389.226V398.767Z" fill="#EC1D23"/>
<path d="M7.41981 597.006C3.32183 597.006 -0.000244141 593.684 -0.000244141 589.586L-0.000244141 580.045C-0.000244141 575.946 3.32183 572.624 7.41981 572.624H16.9599C21.0579 572.624 24.38 575.946 24.38 580.045V589.586C24.38 593.684 21.0579 597.006 16.9599 597.006H7.41981Z" fill="#EC1D23"/>
<path d="M645.545 597.006C641.447 597.006 638.125 593.684 638.125 589.586V580.045C638.125 575.946 641.447 572.624 645.545 572.624H655.085C659.183 572.624 662.505 575.946 662.505 580.045V589.586C662.505 593.684 659.183 597.006 655.085 597.006H645.545Z" fill="#EC1D23"/>
<path d="M151.571 653.192C151.571 657.29 148.249 660.612 144.151 660.612H134.611C130.513 660.612 127.191 657.29 127.191 653.192V643.651C127.191 639.552 130.513 636.23 134.611 636.23H144.151C148.249 636.23 151.571 639.552 151.571 643.651V653.192Z" fill="#EC1D23"/>
<path d="M151.571 398.767C151.571 402.866 148.249 406.188 144.151 406.188H134.611C130.513 406.188 127.191 402.866 127.191 398.767V389.226C127.191 385.128 130.513 381.806 134.611 381.806H144.151C148.249 381.806 151.571 385.128 151.571 389.226V398.767Z" fill="#EC1D23"/>
<path d="M405.977 653.192C405.977 657.29 402.655 660.612 398.557 660.612H389.017C384.919 660.612 381.597 657.29 381.597 653.192V643.651C381.597 639.552 384.919 636.23 389.017 636.23H398.557C402.655 636.23 405.977 639.552 405.977 643.651V653.192Z" fill="#EC1D23"/>
<path d="M405.977 398.767C405.977 402.866 402.655 406.188 398.557 406.188H389.017C384.919 406.188 381.597 402.866 381.597 398.767V389.226C381.597 385.128 384.919 381.806 389.017 381.806H398.557C402.655 381.806 405.977 385.128 405.977 389.226V398.767Z" fill="#EC1D23"/>
<path d="M7.41981 565.203C3.32183 565.203 -0.000244141 561.881 -0.000244141 557.782L-0.000244141 548.242C-0.000244141 544.143 3.32183 540.821 7.41981 540.821H16.9599C21.0579 540.821 24.38 544.143 24.38 548.242V557.782C24.38 561.881 21.0579 565.203 16.9599 565.203H7.41981Z" fill="#EC1D23"/>
<path d="M246.963 653.192C246.963 657.29 243.641 660.612 239.543 660.612H230.003C225.905 660.612 222.583 657.29 222.583 653.192V643.651C222.583 639.552 225.905 636.23 230.003 636.23H239.543C243.641 636.23 246.963 639.552 246.963 643.651V653.192Z" fill="#EC1D23"/>
<path d="M246.963 398.767C246.963 402.866 243.641 406.188 239.543 406.188H230.003C225.905 406.188 222.583 402.866 222.583 398.767V389.226C222.583 385.128 225.905 381.806 230.003 381.806H239.543C243.641 381.806 246.963 385.128 246.963 389.226V398.767Z" fill="#EC1D23"/>
<path d="M645.545 565.203C641.447 565.203 638.125 561.881 638.125 557.782V548.242C638.125 544.143 641.447 540.821 645.545 540.821H655.085C659.183 540.821 662.505 544.143 662.505 548.242V557.782C662.505 561.881 659.183 565.203 655.085 565.203H645.545Z" fill="#EC1D23"/>
<path d="M437.773 653.192C437.773 657.29 434.451 660.612 430.353 660.612H420.813C416.715 660.612 413.393 657.29 413.393 653.192V643.651C413.393 639.552 416.715 636.23 420.813 636.23H430.353C434.451 636.23 437.773 639.552 437.773 643.651V653.192Z" fill="#EC1D23"/>
<path d="M437.773 398.767C437.773 402.866 434.451 406.188 430.353 406.188H420.813C416.715 406.188 413.393 402.866 413.393 398.767V389.226C413.393 385.128 416.715 381.806 420.813 381.806H430.353C434.451 381.806 437.773 385.128 437.773 389.226V398.767Z" fill="#EC1D23"/>
<path d="M183.369 653.192C183.369 657.29 180.047 660.612 175.949 660.612H166.409C162.311 660.612 158.989 657.29 158.989 653.192V643.651C158.989 639.552 162.311 636.23 166.409 636.23H175.949C180.047 636.23 183.369 639.552 183.369 643.651V653.192Z" fill="#EC1D23"/>
<path d="M183.369 398.767C183.369 402.866 180.047 406.188 175.949 406.188H166.409C162.311 406.188 158.989 402.866 158.989 398.767V389.226C158.989 385.128 162.311 381.806 166.409 381.806H175.949C180.047 381.806 183.369 385.128 183.369 389.226V398.767Z" fill="#EC1D23"/>
<path d="M7.41981 469.794C3.32183 469.794 -0.000244141 466.472 -0.000244141 462.373L-0.000244141 452.832C-0.000244141 448.734 3.32183 445.412 7.41981 445.412H16.9599C21.0579 445.412 24.38 448.734 24.38 452.832V462.373C24.38 466.472 21.0579 469.794 16.9599 469.794H7.41981Z" fill="#EC1D23"/>
<path d="M645.545 469.794C641.447 469.794 638.125 466.472 638.125 462.373V452.832C638.125 448.734 641.447 445.412 645.545 445.412H655.085C659.183 445.412 662.505 448.734 662.505 452.832V462.373C662.505 466.472 659.183 469.794 655.085 469.794H645.545Z" fill="#EC1D23"/>
<path d="M278.761 653.192C278.761 657.29 275.439 660.612 271.341 660.612H261.801C257.703 660.612 254.381 657.29 254.381 653.192V643.651C254.381 639.552 257.703 636.23 261.801 636.23H271.341C275.439 636.23 278.761 639.552 278.761 643.651V653.192Z" fill="#EC1D23"/>
<path d="M278.761 398.767C278.761 402.866 275.439 406.188 271.341 406.188H261.801C257.703 406.188 254.381 402.866 254.381 398.767V389.226C254.381 385.128 257.703 381.806 261.801 381.806H271.341C275.439 381.806 278.761 385.128 278.761 389.226V398.767Z" fill="#EC1D23"/>
<path d="M533.165 653.192C533.165 657.29 529.843 660.612 525.745 660.612H516.205C512.107 660.612 508.785 657.29 508.785 653.192V643.651C508.785 639.552 512.107 636.23 516.205 636.23H525.745C529.843 636.23 533.165 639.552 533.165 643.651V653.192Z" fill="#EC1D23"/>
<path d="M533.165 398.767C533.165 402.866 529.843 406.188 525.745 406.188H516.205C512.107 406.188 508.785 402.866 508.785 398.767V389.226C508.785 385.128 512.107 381.806 516.205 381.806H525.745C529.843 381.806 533.165 385.128 533.165 389.226V398.767Z" fill="#EC1D23"/>
<path d="M7.41981 533.4C3.32183 533.4 -0.000244141 530.078 -0.000244141 525.979L-0.000244141 516.439C-0.000244141 512.34 3.32183 509.018 7.41981 509.018H16.9599C21.0579 509.018 24.38 512.34 24.38 516.439V525.979C24.38 530.078 21.0579 533.4 16.9599 533.4H7.41981Z" fill="#EC1D23"/>
<path d="M215.167 653.192C215.167 657.29 211.845 660.612 207.747 660.612H198.207C194.109 660.612 190.787 657.29 190.787 653.192V643.651C190.787 639.552 194.109 636.23 198.207 636.23H207.747C211.845 636.23 215.167 639.552 215.167 643.651V653.192Z" fill="#EC1D23"/>
<path d="M215.167 398.767C215.167 402.866 211.845 406.188 207.747 406.188H198.207C194.109 406.188 190.787 402.866 190.787 398.767V389.226C190.787 385.128 194.109 381.806 198.207 381.806H207.747C211.845 381.806 215.167 385.128 215.167 389.226V398.767Z" fill="#EC1D23"/>
<path d="M645.545 533.4C641.447 533.4 638.125 530.078 638.125 525.979V516.439C638.125 512.34 641.447 509.018 645.545 509.018H655.085C659.183 509.018 662.505 512.34 662.505 516.439V525.979C662.505 530.078 659.183 533.4 655.085 533.4H645.545Z" fill="#EC1D23"/>
<path d="M469.571 653.192C469.571 657.29 466.249 660.612 462.151 660.612H452.611C448.513 660.612 445.191 657.29 445.191 653.192V643.651C445.191 639.552 448.513 636.23 452.611 636.23H462.151C466.249 636.23 469.571 639.552 469.571 643.651V653.192Z" fill="#EC1D23"/>
<path d="M469.571 398.767C469.571 402.866 466.249 406.188 462.151 406.188H452.611C448.513 406.188 445.191 402.866 445.191 398.767V389.226C445.191 385.128 448.513 381.806 452.611 381.806H462.151C466.249 381.806 469.571 385.128 469.571 389.226V398.767Z" fill="#EC1D23"/>
<path d="M310.557 653.192C310.557 657.29 307.235 660.612 303.137 660.612H293.597C289.499 660.612 286.177 657.29 286.177 653.192V643.651C286.177 639.552 289.499 636.23 293.597 636.23H303.137C307.235 636.23 310.557 639.552 310.557 643.651V653.192Z" fill="#EC1D23"/>
<path d="M310.557 398.767C310.557 402.866 307.235 406.188 303.137 406.188H293.597C289.499 406.188 286.177 402.866 286.177 398.767V389.226C286.177 385.128 289.499 381.806 293.597 381.806H303.137C307.235 381.806 310.557 385.128 310.557 389.226V398.767Z" fill="#EC1D23"/>
<path d="M7.41981 437.991C3.32183 437.991 -0.000244141 434.669 -0.000244141 430.57L-0.000244141 421.029C-0.000244141 416.931 3.32183 413.609 7.41981 413.609H16.9599C21.0579 413.609 24.38 416.931 24.38 421.029V430.57C24.38 434.669 21.0579 437.991 16.9599 437.991H7.41981Z" fill="#EC1D23"/>
<path d="M645.545 437.991C641.447 437.991 638.125 434.669 638.125 430.57V421.029C638.125 416.931 641.447 413.609 645.545 413.609H655.085C659.183 413.609 662.505 416.931 662.505 421.029V430.57C662.505 434.669 659.183 437.991 655.085 437.991H645.545Z" fill="#EC1D23"/>
<path d="M564.964 653.192C564.964 657.29 561.642 660.612 557.544 660.612H548.003C543.905 660.612 540.583 657.29 540.583 653.192V643.651C540.583 639.552 543.905 636.23 548.003 636.23H557.544C561.642 636.23 564.964 639.552 564.964 643.651V653.192Z" fill="#EC1D23"/>
<path d="M564.964 398.767C564.964 402.866 561.642 406.188 557.544 406.188H548.003C543.905 406.188 540.583 402.866 540.583 398.767V389.226C540.583 385.128 543.905 381.806 548.003 381.806H557.544C561.642 381.806 564.964 385.128 564.964 389.226V398.767Z" fill="#EC1D23"/>
<path d="M7.41981 501.597C3.32183 501.597 -0.000244141 498.275 -0.000244141 494.176L-0.000244141 484.635C-0.000244141 480.537 3.32183 477.215 7.41981 477.215H16.9599C21.0579 477.215 24.38 480.537 24.38 484.635V494.176C24.38 498.275 21.0579 501.597 16.9599 501.597H7.41981Z" fill="#EC1D23"/>
<path d="M645.545 501.597C641.447 501.597 638.125 498.275 638.125 494.176V484.635C638.125 480.537 641.447 477.215 645.545 477.215H655.085C659.183 477.215 662.505 480.537 662.505 484.635V494.176C662.505 498.275 659.183 501.597 655.085 501.597H645.545Z" fill="#EC1D23"/>
<path d="M501.369 653.192C501.369 657.29 498.047 660.612 493.949 660.612H484.409C480.311 660.612 476.989 657.29 476.989 653.192V643.651C476.989 639.552 480.311 636.23 484.409 636.23H493.949C498.047 636.23 501.369 639.552 501.369 643.651V653.192Z" fill="#EC1D23"/>
<path d="M501.369 398.767C501.369 402.866 498.047 406.188 493.949 406.188H484.409C480.311 406.188 476.989 402.866 476.989 398.767V389.226C476.989 385.128 480.311 381.806 484.409 381.806H493.949C498.047 381.806 501.369 385.128 501.369 389.226V398.767Z" fill="#EC1D23"/>
<path d="M7.41981 406.188C3.32183 406.188 -0.000244141 402.866 -0.000244141 398.767L-0.000244141 389.226C-0.000244141 385.128 3.32183 381.806 7.41981 381.806H16.9599C21.0579 381.806 24.38 385.128 24.38 389.226V398.767C24.38 402.866 21.0579 406.188 16.9599 406.188H7.41981Z" fill="#EC1D23"/>
<path d="M645.545 406.188C641.447 406.188 638.125 402.866 638.125 398.767V389.226C638.125 385.128 641.447 381.806 645.545 381.806H655.085C659.183 381.806 662.505 385.128 662.505 389.226V398.767C662.505 402.866 659.183 406.188 655.085 406.188H645.545Z" fill="#EC1D23"/>
<path d="M596.76 653.192C596.76 657.29 593.438 660.612 589.34 660.612H579.8C575.702 660.612 572.379 657.29 572.379 653.192V643.651C572.379 639.552 575.702 636.23 579.8 636.23H589.34C593.438 636.23 596.76 639.552 596.76 643.651V653.192Z" fill="#EC1D23"/>
<path d="M596.76 398.767C596.76 402.866 593.438 406.188 589.34 406.188H579.8C575.702 406.188 572.379 402.866 572.379 398.767V389.226C572.379 385.128 575.702 381.806 579.8 381.806H589.34C593.438 381.806 596.76 385.128 596.76 389.226V398.767Z" fill="#EC1D23"/>
<path d="M630.705 653.192C630.705 657.29 627.383 660.612 623.285 660.612H613.745C609.647 660.612 606.325 657.29 606.325 653.192V643.651C606.325 639.552 609.647 636.23 613.745 636.23H623.285C627.383 636.23 630.705 639.552 630.705 643.651V653.192Z" fill="#EC1D23"/>
<path d="M630.705 398.767C630.705 402.866 627.383 406.188 623.285 406.188H613.745C609.647 406.188 606.325 402.866 606.325 398.767V389.226C606.325 385.128 609.647 381.806 613.745 381.806H623.285C627.383 381.806 630.705 385.128 630.705 389.226V398.767Z" fill="#EC1D23"/>
<path d="M12.7199 647.891L12.7199 393.467H650.845V647.891H12.7199Z" fill="#EC1D23"/>
<path d="M7.41981 915.08C3.32183 915.08 -0.000244141 911.758 -0.000244141 907.659L-0.000244141 898.118C-0.000244141 894.02 3.32183 890.698 7.41981 890.698H16.9599C21.0579 890.698 24.38 894.02 24.38 898.118V907.659C24.38 911.758 21.0579 915.08 16.9599 915.08H7.41981Z" fill="#EC1D23"/>
<path d="M645.545 915.08C641.447 915.08 638.125 911.758 638.125 907.659V898.118C638.125 894.02 641.447 890.698 645.545 890.698H655.085C659.183 890.698 662.505 894.02 662.505 898.118V907.659C662.505 911.758 659.183 915.08 655.085 915.08H645.545Z" fill="#EC1D23"/>
<path d="M56.1802 907.659C56.1802 911.758 52.8581 915.08 48.7601 915.08H39.2201C35.1221 915.08 31.8 911.758 31.8 907.659V898.118C31.8 894.02 35.1221 890.698 39.2201 890.698H48.7601C52.8581 890.698 56.1802 894.02 56.1802 898.118V907.659Z" fill="#EC1D23"/>
<path d="M56.1802 653.235C56.1802 657.333 52.8581 660.656 48.7601 660.656H39.2201C35.1221 660.656 31.8 657.333 31.8 653.235V643.694C31.8 639.596 35.1221 636.273 39.2201 636.273H48.7601C52.8581 636.273 56.1802 639.596 56.1802 643.694V653.235Z" fill="#EC1D23"/>
<path d="M342.382 907.659C342.382 911.758 339.06 915.08 334.962 915.08H325.422C321.324 915.08 318.002 911.758 318.002 907.659V898.118C318.002 894.02 321.324 890.698 325.422 890.698H334.962C339.06 890.698 342.382 894.02 342.382 898.118V907.659Z" fill="#EC1D23"/>
<path d="M342.382 653.235C342.382 657.333 339.06 660.656 334.962 660.656H325.422C321.324 660.656 318.002 657.333 318.002 653.235V643.694C318.002 639.596 321.324 636.273 325.422 636.273H334.962C339.06 636.273 342.382 639.596 342.382 643.694V653.235Z" fill="#EC1D23"/>
<path d="M7.41981 883.277C3.32183 883.277 -0.000244141 879.955 -0.000244141 875.856L-0.000244141 866.315C-0.000244141 862.217 3.32183 858.895 7.41981 858.895H16.9599C21.0579 858.895 24.38 862.217 24.38 866.315V875.856C24.38 879.955 21.0579 883.277 16.9599 883.277H7.41981Z" fill="#EC1D23"/>
<path d="M87.9774 907.659C87.9774 911.758 84.6553 915.08 80.5573 915.08H71.0172C66.9192 915.08 63.5972 911.758 63.5972 907.659V898.118C63.5972 894.02 66.9192 890.698 71.0172 890.698H80.5573C84.6553 890.698 87.9774 894.02 87.9774 898.118V907.659Z" fill="#EC1D23"/>
<path d="M87.9774 653.235C87.9774 657.333 84.6553 660.656 80.5573 660.656H71.0172C66.9192 660.656 63.5972 657.333 63.5972 653.235V643.694C63.5972 639.596 66.9192 636.273 71.0172 636.273H80.5573C84.6553 636.273 87.9774 639.596 87.9774 643.694V653.235Z" fill="#EC1D23"/>
<path d="M645.545 883.277C641.447 883.277 638.125 879.955 638.125 875.856V866.315C638.125 862.217 641.447 858.895 645.545 858.895H655.085C659.183 858.895 662.505 862.217 662.505 866.315V875.856C662.505 879.955 659.183 883.277 655.085 883.277H645.545Z" fill="#EC1D23"/>
<path d="M374.18 907.659C374.18 911.758 370.858 915.08 366.76 915.08H357.22C353.122 915.08 349.799 911.758 349.799 907.659V898.118C349.799 894.02 353.122 890.698 357.22 890.698H366.76C370.858 890.698 374.18 894.02 374.18 898.118V907.659Z" fill="#EC1D23"/>
<path d="M374.18 653.235C374.18 657.333 370.858 660.656 366.76 660.656H357.22C353.122 660.656 349.799 657.333 349.799 653.235V643.694C349.799 639.596 353.122 636.273 357.22 636.273H366.76C370.858 636.273 374.18 639.596 374.18 643.694V653.235Z" fill="#EC1D23"/>
<path d="M119.774 907.659C119.774 911.758 116.452 915.08 112.354 915.08H102.814C98.7159 915.08 95.3938 911.758 95.3938 907.659V898.118C95.3938 894.02 98.7159 890.698 102.814 890.698H112.354C116.452 890.698 119.774 894.02 119.774 898.118V907.659Z" fill="#EC1D23"/>
<path d="M119.774 653.235C119.774 657.333 116.452 660.656 112.354 660.656H102.814C98.7159 660.656 95.3938 657.333 95.3938 653.235V643.694C95.3938 639.596 98.7159 636.273 102.814 636.273H112.354C116.452 636.273 119.774 639.596 119.774 643.694V653.235Z" fill="#EC1D23"/>
<path d="M7.41981 851.474C3.32183 851.474 -0.000244141 848.152 -0.000244141 844.053L-0.000244141 834.512C-0.000244141 830.414 3.32183 827.092 7.41981 827.092H16.9599C21.0579 827.092 24.38 830.414 24.38 834.512V844.053C24.38 848.152 21.0579 851.474 16.9599 851.474H7.41981Z" fill="#EC1D23"/>
<path d="M645.545 851.474C641.447 851.474 638.125 848.152 638.125 844.053V834.512C638.125 830.414 641.447 827.092 645.545 827.092H655.085C659.183 827.092 662.505 830.414 662.505 834.512V844.053C662.505 848.152 659.183 851.474 655.085 851.474H645.545Z" fill="#EC1D23"/>
<path d="M151.571 907.659C151.571 911.758 148.249 915.08 144.151 915.08H134.611C130.513 915.08 127.191 911.758 127.191 907.659V898.118C127.191 894.02 130.513 890.698 134.611 890.698H144.151C148.249 890.698 151.571 894.02 151.571 898.118V907.659Z" fill="#EC1D23"/>
<path d="M151.571 653.235C151.571 657.333 148.249 660.656 144.151 660.656H134.611C130.513 660.656 127.191 657.333 127.191 653.235V643.694C127.191 639.596 130.513 636.273 134.611 636.273H144.151C148.249 636.273 151.571 639.596 151.571 643.694V653.235Z" fill="#EC1D23"/>
<path d="M405.977 907.659C405.977 911.758 402.655 915.08 398.557 915.08H389.017C384.919 915.08 381.597 911.758 381.597 907.659V898.118C381.597 894.02 384.919 890.698 389.017 890.698H398.557C402.655 890.698 405.977 894.02 405.977 898.118V907.659Z" fill="#EC1D23"/>
<path d="M405.977 653.235C405.977 657.333 402.655 660.656 398.557 660.656H389.017C384.919 660.656 381.597 657.333 381.597 653.235V643.694C381.597 639.596 384.919 636.273 389.017 636.273H398.557C402.655 636.273 405.977 639.596 405.977 643.694V653.235Z" fill="#EC1D23"/>
<path d="M7.41981 819.671C3.32183 819.671 -0.000244141 816.349 -0.000244141 812.25L-0.000244141 802.709C-0.000244141 798.611 3.32183 795.289 7.41981 795.289H16.9599C21.0579 795.289 24.38 798.611 24.38 802.709V812.25C24.38 816.349 21.0579 819.671 16.9599 819.671H7.41981Z" fill="#EC1D23"/>
<path d="M246.963 907.659C246.963 911.758 243.641 915.08 239.543 915.08H230.003C225.905 915.08 222.583 911.758 222.583 907.659V898.118C222.583 894.02 225.905 890.698 230.003 890.698H239.543C243.641 890.698 246.963 894.02 246.963 898.118V907.659Z" fill="#EC1D23"/>
<path d="M246.963 653.235C246.963 657.333 243.641 660.656 239.543 660.656H230.003C225.905 660.656 222.583 657.333 222.583 653.235V643.694C222.583 639.596 225.905 636.273 230.003 636.273H239.543C243.641 636.273 246.963 639.596 246.963 643.694V653.235Z" fill="#EC1D23"/>
<path d="M645.545 819.671C641.447 819.671 638.125 816.349 638.125 812.25V802.709C638.125 798.611 641.447 795.289 645.545 795.289H655.085C659.183 795.289 662.505 798.611 662.505 802.709V812.25C662.505 816.349 659.183 819.671 655.085 819.671H645.545Z" fill="#EC1D23"/>
<path d="M437.773 907.659C437.773 911.758 434.451 915.08 430.353 915.08H420.813C416.715 915.08 413.393 911.758 413.393 907.659V898.118C413.393 894.02 416.715 890.698 420.813 890.698H430.353C434.451 890.698 437.773 894.02 437.773 898.118V907.659Z" fill="#EC1D23"/>
<path d="M437.773 653.235C437.773 657.333 434.451 660.656 430.353 660.656H420.813C416.715 660.656 413.393 657.333 413.393 653.235V643.694C413.393 639.596 416.715 636.273 420.813 636.273H430.353C434.451 636.273 437.773 639.596 437.773 643.694V653.235Z" fill="#EC1D23"/>
<path d="M183.369 907.659C183.369 911.758 180.047 915.08 175.949 915.08H166.409C162.311 915.08 158.989 911.758 158.989 907.659V898.118C158.989 894.02 162.311 890.698 166.409 890.698H175.949C180.047 890.698 183.369 894.02 183.369 898.118V907.659Z" fill="#EC1D23"/>
<path d="M183.369 653.235C183.369 657.333 180.047 660.656 175.949 660.656H166.409C162.311 660.656 158.989 657.333 158.989 653.235V643.694C158.989 639.596 162.311 636.273 166.409 636.273H175.949C180.047 636.273 183.369 639.596 183.369 643.694V653.235Z" fill="#EC1D23"/>
<path d="M7.41981 724.262C3.32183 724.262 -0.000244141 720.939 -0.000244141 716.841L-0.000244141 707.3C-0.000244141 703.202 3.32183 699.879 7.41981 699.879H16.9599C21.0579 699.879 24.38 703.202 24.38 707.3V716.841C24.38 720.939 21.0579 724.262 16.9599 724.262H7.41981Z" fill="#EC1D23"/>
<path d="M645.545 724.262C641.447 724.262 638.125 720.939 638.125 716.841V707.3C638.125 703.202 641.447 699.879 645.545 699.879H655.085C659.183 699.879 662.505 703.202 662.505 707.3V716.841C662.505 720.939 659.183 724.262 655.085 724.262H645.545Z" fill="#EC1D23"/>
<path d="M278.761 907.659C278.761 911.758 275.439 915.08 271.341 915.08H261.801C257.703 915.08 254.381 911.758 254.381 907.659V898.118C254.381 894.02 257.703 890.698 261.801 890.698H271.341C275.439 890.698 278.761 894.02 278.761 898.118V907.659Z" fill="#EC1D23"/>
<path d="M278.761 653.235C278.761 657.333 275.439 660.656 271.341 660.656H261.801C257.703 660.656 254.381 657.333 254.381 653.235V643.694C254.381 639.596 257.703 636.273 261.801 636.273H271.341C275.439 636.273 278.761 639.596 278.761 643.694V653.235Z" fill="#EC1D23"/>
<path d="M533.165 907.659C533.165 911.758 529.843 915.08 525.745 915.08H516.205C512.107 915.08 508.785 911.758 508.785 907.659V898.118C508.785 894.02 512.107 890.698 516.205 890.698H525.745C529.843 890.698 533.165 894.02 533.165 898.118V907.659Z" fill="#EC1D23"/>
<path d="M533.165 653.235C533.165 657.333 529.843 660.656 525.745 660.656H516.205C512.107 660.656 508.785 657.333 508.785 653.235V643.694C508.785 639.596 512.107 636.273 516.205 636.273H525.745C529.843 636.273 533.165 639.596 533.165 643.694V653.235Z" fill="#EC1D23"/>
<path d="M7.41981 787.868C3.32183 787.868 -0.000244141 784.546 -0.000244141 780.447L-0.000244141 770.906C-0.000244141 766.808 3.32183 763.486 7.41981 763.486H16.9599C21.0579 763.486 24.38 766.808 24.38 770.906V780.447C24.38 784.546 21.0579 787.868 16.9599 787.868H7.41981Z" fill="#EC1D23"/>
<path d="M215.167 907.659C215.167 911.758 211.845 915.08 207.747 915.08H198.207C194.109 915.08 190.787 911.758 190.787 907.659V898.118C190.787 894.02 194.109 890.698 198.207 890.698H207.747C211.845 890.698 215.167 894.02 215.167 898.118V907.659Z" fill="#EC1D23"/>
<path d="M215.167 653.235C215.167 657.333 211.845 660.656 207.747 660.656H198.207C194.109 660.656 190.787 657.333 190.787 653.235V643.694C190.787 639.596 194.109 636.273 198.207 636.273H207.747C211.845 636.273 215.167 639.596 215.167 643.694V653.235Z" fill="#EC1D23"/>
<path d="M645.545 787.868C641.447 787.868 638.125 784.546 638.125 780.447V770.906C638.125 766.808 641.447 763.486 645.545 763.486H655.085C659.183 763.486 662.505 766.808 662.505 770.906V780.447C662.505 784.546 659.183 787.868 655.085 787.868H645.545Z" fill="#EC1D23"/>
<path d="M469.571 907.659C469.571 911.758 466.249 915.08 462.151 915.08H452.611C448.513 915.08 445.191 911.758 445.191 907.659V898.118C445.191 894.02 448.513 890.698 452.611 890.698H462.151C466.249 890.698 469.571 894.02 469.571 898.118V907.659Z" fill="#EC1D23"/>
<path d="M469.571 653.235C469.571 657.333 466.249 660.656 462.151 660.656H452.611C448.513 660.656 445.191 657.333 445.191 653.235V643.694C445.191 639.596 448.513 636.273 452.611 636.273H462.151C466.249 636.273 469.571 639.596 469.571 643.694V653.235Z" fill="#EC1D23"/>
<path d="M310.557 907.659C310.557 911.758 307.235 915.08 303.137 915.08H293.597C289.499 915.08 286.177 911.758 286.177 907.659V898.118C286.177 894.02 289.499 890.698 293.597 890.698H303.137C307.235 890.698 310.557 894.02 310.557 898.118V907.659Z" fill="#EC1D23"/>
<path d="M310.557 653.235C310.557 657.333 307.235 660.656 303.137 660.656H293.597C289.499 660.656 286.177 657.333 286.177 653.235V643.694C286.177 639.596 289.499 636.273 293.597 636.273H303.137C307.235 636.273 310.557 639.596 310.557 643.694V653.235Z" fill="#EC1D23"/>
<path d="M7.41981 692.459C3.32183 692.459 -0.000244141 689.136 -0.000244141 685.038L-0.000244141 675.497C-0.000244141 671.399 3.32183 668.076 7.41981 668.076H16.9599C21.0579 668.076 24.38 671.399 24.38 675.497V685.038C24.38 689.136 21.0579 692.459 16.9599 692.459H7.41981Z" fill="#EC1D23"/>
<path d="M645.545 692.459C641.447 692.459 638.125 689.136 638.125 685.038V675.497C638.125 671.399 641.447 668.076 645.545 668.076H655.085C659.183 668.076 662.505 671.399 662.505 675.497V685.038C662.505 689.136 659.183 692.459 655.085 692.459H645.545Z" fill="#EC1D23"/>
<path d="M564.964 907.659C564.964 911.758 561.642 915.08 557.544 915.08H548.003C543.905 915.08 540.583 911.758 540.583 907.659V898.118C540.583 894.02 543.905 890.698 548.003 890.698H557.544C561.642 890.698 564.964 894.02 564.964 898.118V907.659Z" fill="#EC1D23"/>
<path d="M564.964 653.235C564.964 657.333 561.642 660.656 557.544 660.656H548.003C543.905 660.656 540.583 657.333 540.583 653.235V643.694C540.583 639.596 543.905 636.273 548.003 636.273H557.544C561.642 636.273 564.964 639.596 564.964 643.694V653.235Z" fill="#EC1D23"/>
<path d="M7.41981 756.065C3.32183 756.065 -0.000244141 752.742 -0.000244141 748.644L-0.000244141 739.103C-0.000244141 735.005 3.32183 731.683 7.41981 731.683H16.9599C21.0579 731.683 24.38 735.005 24.38 739.103V748.644C24.38 752.742 21.0579 756.065 16.9599 756.065H7.41981Z" fill="#EC1D23"/>
<path d="M645.545 756.065C641.447 756.065 638.125 752.742 638.125 748.644V739.103C638.125 735.005 641.447 731.683 645.545 731.683H655.085C659.183 731.683 662.505 735.005 662.505 739.103V748.644C662.505 752.742 659.183 756.065 655.085 756.065H645.545Z" fill="#EC1D23"/>
<path d="M501.369 907.659C501.369 911.758 498.047 915.08 493.949 915.08H484.409C480.311 915.08 476.989 911.758 476.989 907.659V898.118C476.989 894.02 480.311 890.698 484.409 890.698H493.949C498.047 890.698 501.369 894.02 501.369 898.118V907.659Z" fill="#EC1D23"/>
<path d="M501.369 653.235C501.369 657.333 498.047 660.656 493.949 660.656H484.409C480.311 660.656 476.989 657.333 476.989 653.235V643.694C476.989 639.596 480.311 636.273 484.409 636.273H493.949C498.047 636.273 501.369 639.596 501.369 643.694V653.235Z" fill="#EC1D23"/>
<path d="M7.41981 660.656C3.32183 660.656 -0.000244141 657.333 -0.000244141 653.235L-0.000244141 643.694C-0.000244141 639.596 3.32183 636.273 7.41981 636.273H16.9599C21.0579 636.273 24.38 639.596 24.38 643.694V653.235C24.38 657.333 21.0579 660.656 16.9599 660.656H7.41981Z" fill="#EC1D23"/>
<path d="M645.545 660.656C641.447 660.656 638.125 657.333 638.125 653.235V643.694C638.125 639.596 641.447 636.273 645.545 636.273H655.085C659.183 636.273 662.505 639.596 662.505 643.694V653.235C662.505 657.333 659.183 660.656 655.085 660.656H645.545Z" fill="#EC1D23"/>
<path d="M596.76 907.659C596.76 911.758 593.438 915.08 589.34 915.08H579.8C575.702 915.08 572.379 911.758 572.379 907.659V898.118C572.379 894.02 575.702 890.698 579.8 890.698H589.34C593.438 890.698 596.76 894.02 596.76 898.118V907.659Z" fill="#EC1D23"/>
<path d="M596.76 653.235C596.76 657.333 593.438 660.656 589.34 660.656H579.8C575.702 660.656 572.379 657.333 572.379 653.235V643.694C572.379 639.596 575.702 636.273 579.8 636.273H589.34C593.438 636.273 596.76 639.596 596.76 643.694V653.235Z" fill="#EC1D23"/>
<path d="M630.705 907.659C630.705 911.758 627.383 915.08 623.285 915.08H613.745C609.647 915.08 606.325 911.758 606.325 907.659V898.118C606.325 894.02 609.647 890.698 613.745 890.698H623.285C627.383 890.698 630.705 894.02 630.705 898.118V907.659Z" fill="#EC1D23"/>
<path d="M630.705 653.235C630.705 657.333 627.383 660.656 623.285 660.656H613.745C609.647 660.656 606.325 657.333 606.325 653.235V643.694C606.325 639.596 609.647 636.273 613.745 636.273H623.285C627.383 636.273 630.705 639.596 630.705 643.694V653.235Z" fill="#EC1D23"/>
<path d="M12.7199 902.359L12.7199 647.935H650.845V902.359H12.7199Z" fill="#EC1D23"/>
<path d="M7.41981 946.363C3.32183 946.363 -0.000244141 943.041 -0.000244141 938.943L-0.000244141 929.402C-0.000244141 925.303 3.32183 921.981 7.41981 921.981H16.9599C21.0579 921.981 24.38 925.303 24.38 929.402V938.943C24.38 943.041 21.0579 946.363 16.9599 946.363H7.41981Z" fill="#EC1D23"/>
<path d="M645.545 946.363C641.447 946.363 638.125 943.041 638.125 938.943V929.402C638.125 925.303 641.447 921.981 645.545 921.981H655.085C659.183 921.981 662.505 925.303 662.505 929.402V938.943C662.505 943.041 659.183 946.363 655.085 946.363H645.545Z" fill="#EC1D23"/>
<path d="M56.1802 938.943C56.1802 943.041 52.8581 946.363 48.7601 946.363H39.2201C35.1221 946.363 31.8 943.041 31.8 938.943V929.402C31.8 925.303 35.1221 921.981 39.2201 921.981H48.7601C52.8581 921.981 56.1802 925.303 56.1802 929.402V938.943Z" fill="#EC1D23"/>
<path d="M56.1802 684.518C56.1802 688.617 52.8581 691.939 48.7601 691.939H39.2201C35.1221 691.939 31.8 688.617 31.8 684.518V674.977C31.8 670.879 35.1221 667.557 39.2201 667.557H48.7601C52.8581 667.557 56.1802 670.879 56.1802 674.977V684.518Z" fill="#EC1D23"/>
<path d="M342.382 938.943C342.382 943.041 339.06 946.363 334.962 946.363H325.422C321.324 946.363 318.002 943.041 318.002 938.943V929.402C318.002 925.303 321.324 921.981 325.422 921.981H334.962C339.06 921.981 342.382 925.303 342.382 929.402V938.943Z" fill="#EC1D23"/>
<path d="M342.382 684.518C342.382 688.617 339.06 691.939 334.962 691.939H325.422C321.324 691.939 318.002 688.617 318.002 684.518V674.977C318.002 670.879 321.324 667.557 325.422 667.557H334.962C339.06 667.557 342.382 670.879 342.382 674.977V684.518Z" fill="#EC1D23"/>
<path d="M7.41981 914.56C3.32183 914.56 -0.000244141 911.238 -0.000244141 907.14L-0.000244141 897.599C-0.000244141 893.5 3.32183 890.178 7.41981 890.178H16.9599C21.0579 890.178 24.38 893.5 24.38 897.599V907.14C24.38 911.238 21.0579 914.56 16.9599 914.56H7.41981Z" fill="#EC1D23"/>
<path d="M87.9774 938.943C87.9774 943.041 84.6553 946.363 80.5573 946.363H71.0172C66.9192 946.363 63.5972 943.041 63.5972 938.943V929.402C63.5972 925.303 66.9192 921.981 71.0172 921.981H80.5573C84.6553 921.981 87.9774 925.303 87.9774 929.402V938.943Z" fill="#EC1D23"/>
<path d="M87.9774 684.518C87.9774 688.617 84.6553 691.939 80.5573 691.939H71.0172C66.9192 691.939 63.5972 688.617 63.5972 684.518V674.977C63.5972 670.879 66.9192 667.557 71.0172 667.557H80.5573C84.6553 667.557 87.9774 670.879 87.9774 674.977V684.518Z" fill="#EC1D23"/>
<path d="M645.545 914.56C641.447 914.56 638.125 911.238 638.125 907.14V897.599C638.125 893.5 641.447 890.178 645.545 890.178H655.085C659.183 890.178 662.505 893.5 662.505 897.599V907.14C662.505 911.238 659.183 914.56 655.085 914.56H645.545Z" fill="#EC1D23"/>
<path d="M374.18 938.943C374.18 943.041 370.858 946.363 366.76 946.363H357.22C353.122 946.363 349.799 943.041 349.799 938.943V929.402C349.799 925.303 353.122 921.981 357.22 921.981H366.76C370.858 921.981 374.18 925.303 374.18 929.402V938.943Z" fill="#EC1D23"/>
<path d="M374.18 684.518C374.18 688.617 370.858 691.939 366.76 691.939H357.22C353.122 691.939 349.799 688.617 349.799 684.518V674.977C349.799 670.879 353.122 667.557 357.22 667.557H366.76C370.858 667.557 374.18 670.879 374.18 674.977V684.518Z" fill="#EC1D23"/>
<path d="M119.774 938.943C119.774 943.041 116.452 946.363 112.354 946.363H102.814C98.7159 946.363 95.3938 943.041 95.3938 938.943V929.402C95.3938 925.303 98.7159 921.981 102.814 921.981H112.354C116.452 921.981 119.774 925.303 119.774 929.402V938.943Z" fill="#EC1D23"/>
<path d="M119.774 684.518C119.774 688.617 116.452 691.939 112.354 691.939H102.814C98.7159 691.939 95.3938 688.617 95.3938 684.518V674.977C95.3938 670.879 98.7159 667.557 102.814 667.557H112.354C116.452 667.557 119.774 670.879 119.774 674.977V684.518Z" fill="#EC1D23"/>
<path d="M7.41981 882.757C3.32183 882.757 -0.000244141 879.435 -0.000244141 875.336L-0.000244141 865.796C-0.000244141 861.697 3.32183 858.375 7.41981 858.375H16.9599C21.0579 858.375 24.38 861.697 24.38 865.796V875.336C24.38 879.435 21.0579 882.757 16.9599 882.757H7.41981Z" fill="#EC1D23"/>
<path d="M645.545 882.757C641.447 882.757 638.125 879.435 638.125 875.336V865.796C638.125 861.697 641.447 858.375 645.545 858.375H655.085C659.183 858.375 662.505 861.697 662.505 865.796V875.336C662.505 879.435 659.183 882.757 655.085 882.757H645.545Z" fill="#EC1D23"/>
<path d="M151.571 938.943C151.571 943.041 148.249 946.363 144.151 946.363H134.611C130.513 946.363 127.191 943.041 127.191 938.943V929.402C127.191 925.303 130.513 921.981 134.611 921.981H144.151C148.249 921.981 151.571 925.303 151.571 929.402V938.943Z" fill="#EC1D23"/>
<path d="M151.571 684.518C151.571 688.617 148.249 691.939 144.151 691.939H134.611C130.513 691.939 127.191 688.617 127.191 684.518V674.977C127.191 670.879 130.513 667.557 134.611 667.557H144.151C148.249 667.557 151.571 670.879 151.571 674.977V684.518Z" fill="#EC1D23"/>
<path d="M405.977 938.943C405.977 943.041 402.655 946.363 398.557 946.363H389.017C384.919 946.363 381.597 943.041 381.597 938.943V929.402C381.597 925.303 384.919 921.981 389.017 921.981H398.557C402.655 921.981 405.977 925.303 405.977 929.402V938.943Z" fill="#EC1D23"/>
<path d="M405.977 684.518C405.977 688.617 402.655 691.939 398.557 691.939H389.017C384.919 691.939 381.597 688.617 381.597 684.518V674.977C381.597 670.879 384.919 667.557 389.017 667.557H398.557C402.655 667.557 405.977 670.879 405.977 674.977V684.518Z" fill="#EC1D23"/>
<path d="M7.41981 850.954C3.32183 850.954 -0.000244141 847.632 -0.000244141 843.533L-0.000244141 833.993C-0.000244141 829.894 3.32183 826.572 7.41981 826.572H16.9599C21.0579 826.572 24.38 829.894 24.38 833.993V843.533C24.38 847.632 21.0579 850.954 16.9599 850.954H7.41981Z" fill="#EC1D23"/>
<path d="M246.963 938.943C246.963 943.041 243.641 946.363 239.543 946.363H230.003C225.905 946.363 222.583 943.041 222.583 938.943V929.402C222.583 925.303 225.905 921.981 230.003 921.981H239.543C243.641 921.981 246.963 925.303 246.963 929.402V938.943Z" fill="#EC1D23"/>
<path d="M246.963 684.518C246.963 688.617 243.641 691.939 239.543 691.939H230.003C225.905 691.939 222.583 688.617 222.583 684.518V674.977C222.583 670.879 225.905 667.557 230.003 667.557H239.543C243.641 667.557 246.963 670.879 246.963 674.977V684.518Z" fill="#EC1D23"/>
<path d="M645.545 850.954C641.447 850.954 638.125 847.632 638.125 843.533V833.993C638.125 829.894 641.447 826.572 645.545 826.572H655.085C659.183 826.572 662.505 829.894 662.505 833.993V843.533C662.505 847.632 659.183 850.954 655.085 850.954H645.545Z" fill="#EC1D23"/>
<path d="M437.773 938.943C437.773 943.041 434.451 946.363 430.353 946.363H420.813C416.715 946.363 413.393 943.041 413.393 938.943V929.402C413.393 925.303 416.715 921.981 420.813 921.981H430.353C434.451 921.981 437.773 925.303 437.773 929.402V938.943Z" fill="#EC1D23"/>
<path d="M437.773 684.518C437.773 688.617 434.451 691.939 430.353 691.939H420.813C416.715 691.939 413.393 688.617 413.393 684.518V674.977C413.393 670.879 416.715 667.557 420.813 667.557H430.353C434.451 667.557 437.773 670.879 437.773 674.977V684.518Z" fill="#EC1D23"/>
<path d="M183.369 938.943C183.369 943.041 180.047 946.363 175.949 946.363H166.409C162.311 946.363 158.989 943.041 158.989 938.943V929.402C158.989 925.303 162.311 921.981 166.409 921.981H175.949C180.047 921.981 183.369 925.303 183.369 929.402V938.943Z" fill="#EC1D23"/>
<path d="M183.369 684.518C183.369 688.617 180.047 691.939 175.949 691.939H166.409C162.311 691.939 158.989 688.617 158.989 684.518V674.977C158.989 670.879 162.311 667.557 166.409 667.557H175.949C180.047 667.557 183.369 670.879 183.369 674.977V684.518Z" fill="#EC1D23"/>
<path d="M7.41981 755.545C3.32183 755.545 -0.000244141 752.223 -0.000244141 748.124L-0.000244141 738.583C-0.000244141 734.485 3.32183 731.163 7.41981 731.163H16.9599C21.0579 731.163 24.38 734.485 24.38 738.583V748.124C24.38 752.223 21.0579 755.545 16.9599 755.545H7.41981Z" fill="#EC1D23"/>
<path d="M645.545 755.545C641.447 755.545 638.125 752.223 638.125 748.124V738.583C638.125 734.485 641.447 731.163 645.545 731.163H655.085C659.183 731.163 662.505 734.485 662.505 738.583V748.124C662.505 752.223 659.183 755.545 655.085 755.545H645.545Z" fill="#EC1D23"/>
<path d="M278.761 938.943C278.761 943.041 275.439 946.363 271.341 946.363H261.801C257.703 946.363 254.381 943.041 254.381 938.943V929.402C254.381 925.303 257.703 921.981 261.801 921.981H271.341C275.439 921.981 278.761 925.303 278.761 929.402V938.943Z" fill="#EC1D23"/>
<path d="M278.761 684.518C278.761 688.617 275.439 691.939 271.341 691.939H261.801C257.703 691.939 254.381 688.617 254.381 684.518V674.977C254.381 670.879 257.703 667.557 261.801 667.557H271.341C275.439 667.557 278.761 670.879 278.761 674.977V684.518Z" fill="#EC1D23"/>
<path d="M533.165 938.943C533.165 943.041 529.843 946.363 525.745 946.363H516.205C512.107 946.363 508.785 943.041 508.785 938.943V929.402C508.785 925.303 512.107 921.981 516.205 921.981H525.745C529.843 921.981 533.165 925.303 533.165 929.402V938.943Z" fill="#EC1D23"/>
<path d="M533.165 684.518C533.165 688.617 529.843 691.939 525.745 691.939H516.205C512.107 691.939 508.785 688.617 508.785 684.518V674.977C508.785 670.879 512.107 667.557 516.205 667.557H525.745C529.843 667.557 533.165 670.879 533.165 674.977V684.518Z" fill="#EC1D23"/>
<path d="M7.41981 819.151C3.32183 819.151 -0.000244141 815.829 -0.000244141 811.73L-0.000244141 802.189C-0.000244141 798.091 3.32183 794.769 7.41981 794.769H16.9599C21.0579 794.769 24.38 798.091 24.38 802.189V811.73C24.38 815.829 21.0579 819.151 16.9599 819.151H7.41981Z" fill="#EC1D23"/>
<path d="M215.167 938.943C215.167 943.041 211.845 946.363 207.747 946.363H198.207C194.109 946.363 190.787 943.041 190.787 938.943V929.402C190.787 925.303 194.109 921.981 198.207 921.981H207.747C211.845 921.981 215.167 925.303 215.167 929.402V938.943Z" fill="#EC1D23"/>
<path d="M215.167 684.518C215.167 688.617 211.845 691.939 207.747 691.939H198.207C194.109 691.939 190.787 688.617 190.787 684.518V674.977C190.787 670.879 194.109 667.557 198.207 667.557H207.747C211.845 667.557 215.167 670.879 215.167 674.977V684.518Z" fill="#EC1D23"/>
<path d="M645.545 819.151C641.447 819.151 638.125 815.829 638.125 811.73V802.189C638.125 798.091 641.447 794.769 645.545 794.769H655.085C659.183 794.769 662.505 798.091 662.505 802.189V811.73C662.505 815.829 659.183 819.151 655.085 819.151H645.545Z" fill="#EC1D23"/>
<path d="M469.571 938.943C469.571 943.041 466.249 946.363 462.151 946.363H452.611C448.513 946.363 445.191 943.041 445.191 938.943V929.402C445.191 925.303 448.513 921.981 452.611 921.981H462.151C466.249 921.981 469.571 925.303 469.571 929.402V938.943Z" fill="#EC1D23"/>
<path d="M469.571 684.518C469.571 688.617 466.249 691.939 462.151 691.939H452.611C448.513 691.939 445.191 688.617 445.191 684.518V674.977C445.191 670.879 448.513 667.557 452.611 667.557H462.151C466.249 667.557 469.571 670.879 469.571 674.977V684.518Z" fill="#EC1D23"/>
<path d="M310.557 938.943C310.557 943.041 307.235 946.363 303.137 946.363H293.597C289.499 946.363 286.177 943.041 286.177 938.943V929.402C286.177 925.303 289.499 921.981 293.597 921.981H303.137C307.235 921.981 310.557 925.303 310.557 929.402V938.943Z" fill="#EC1D23"/>
<path d="M310.557 684.518C310.557 688.617 307.235 691.939 303.137 691.939H293.597C289.499 691.939 286.177 688.617 286.177 684.518V674.977C286.177 670.879 289.499 667.557 293.597 667.557H303.137C307.235 667.557 310.557 670.879 310.557 674.977V684.518Z" fill="#EC1D23"/>
<path d="M7.41981 723.742C3.32183 723.742 -0.000244141 720.42 -0.000244141 716.321L-0.000244141 706.78C-0.000244141 702.682 3.32183 699.36 7.41981 699.36H16.9599C21.0579 699.36 24.38 702.682 24.38 706.78V716.321C24.38 720.42 21.0579 723.742 16.9599 723.742H7.41981Z" fill="#EC1D23"/>
<path d="M645.545 723.742C641.447 723.742 638.125 720.42 638.125 716.321V706.78C638.125 702.682 641.447 699.36 645.545 699.36H655.085C659.183 699.36 662.505 702.682 662.505 706.78V716.321C662.505 720.42 659.183 723.742 655.085 723.742H645.545Z" fill="#EC1D23"/>
<path d="M564.964 938.943C564.964 943.041 561.642 946.363 557.544 946.363H548.003C543.905 946.363 540.583 943.041 540.583 938.943V929.402C540.583 925.303 543.905 921.981 548.003 921.981H557.544C561.642 921.981 564.964 925.303 564.964 929.402V938.943Z" fill="#EC1D23"/>
<path d="M564.964 684.518C564.964 688.617 561.642 691.939 557.544 691.939H548.003C543.905 691.939 540.583 688.617 540.583 684.518V674.977C540.583 670.879 543.905 667.557 548.003 667.557H557.544C561.642 667.557 564.964 670.879 564.964 674.977V684.518Z" fill="#EC1D23"/>
<path d="M7.41981 787.348C3.32183 787.348 -0.000244141 784.026 -0.000244141 779.927L-0.000244141 770.386C-0.000244141 766.288 3.32183 762.966 7.41981 762.966H16.9599C21.0579 762.966 24.38 766.288 24.38 770.386V779.927C24.38 784.026 21.0579 787.348 16.9599 787.348H7.41981Z" fill="#EC1D23"/>
<path d="M645.545 787.348C641.447 787.348 638.125 784.026 638.125 779.927V770.386C638.125 766.288 641.447 762.966 645.545 762.966H655.085C659.183 762.966 662.505 766.288 662.505 770.386V779.927C662.505 784.026 659.183 787.348 655.085 787.348H645.545Z" fill="#EC1D23"/>
<path d="M501.369 938.943C501.369 943.041 498.047 946.363 493.949 946.363H484.409C480.311 946.363 476.989 943.041 476.989 938.943V929.402C476.989 925.303 480.311 921.981 484.409 921.981H493.949C498.047 921.981 501.369 925.303 501.369 929.402V938.943Z" fill="#EC1D23"/>
<path d="M501.369 684.518C501.369 688.617 498.047 691.939 493.949 691.939H484.409C480.311 691.939 476.989 688.617 476.989 684.518V674.977C476.989 670.879 480.311 667.557 484.409 667.557H493.949C498.047 667.557 501.369 670.879 501.369 674.977V684.518Z" fill="#EC1D23"/>
<path d="M7.41981 691.939C3.32183 691.939 -0.000244141 688.617 -0.000244141 684.518L-0.000244141 674.977C-0.000244141 670.879 3.32183 667.557 7.41981 667.557H16.9599C21.0579 667.557 24.38 670.879 24.38 674.977V684.518C24.38 688.617 21.0579 691.939 16.9599 691.939H7.41981Z" fill="#EC1D23"/>
<path d="M645.545 691.939C641.447 691.939 638.125 688.617 638.125 684.518V674.977C638.125 670.879 641.447 667.557 645.545 667.557H655.085C659.183 667.557 662.505 670.879 662.505 674.977V684.518C662.505 688.617 659.183 691.939 655.085 691.939H645.545Z" fill="#EC1D23"/>
<path d="M596.76 938.943C596.76 943.041 593.438 946.363 589.34 946.363H579.8C575.702 946.363 572.379 943.041 572.379 938.943V929.402C572.379 925.303 575.702 921.981 579.8 921.981H589.34C593.438 921.981 596.76 925.303 596.76 929.402V938.943Z" fill="#EC1D23"/>
<path d="M596.76 684.518C596.76 688.617 593.438 691.939 589.34 691.939H579.8C575.702 691.939 572.379 688.617 572.379 684.518V674.977C572.379 670.879 575.702 667.557 579.8 667.557H589.34C593.438 667.557 596.76 670.879 596.76 674.977V684.518Z" fill="#EC1D23"/>
<path d="M630.705 938.943C630.705 943.041 627.383 946.363 623.285 946.363H613.745C609.647 946.363 606.325 943.041 606.325 938.943V929.402C606.325 925.303 609.647 921.981 613.745 921.981H623.285C627.383 921.981 630.705 925.303 630.705 929.402V938.943Z" fill="#EC1D23"/>
<path d="M630.705 684.518C630.705 688.617 627.383 691.939 623.285 691.939H613.745C609.647 691.939 606.325 688.617 606.325 684.518V674.977C606.325 670.879 609.647 667.557 613.745 667.557H623.285C627.383 667.557 630.705 670.879 630.705 674.977V684.518Z" fill="#EC1D23"/>
<path d="M12.7199 933.642L12.7199 679.218H650.845V933.642H12.7199Z" fill="#EC1D23"/>
<rect x="25.5938" y="32.7881" width="10.2602" height="10.2602" fill="#F1EEE7"/>
<rect x="35.8552" y="22.5264" width="10.2602" height="10.2602" fill="#F1EEE7"/>
<rect x="45.6006" y="32.7881" width="10.2602" height="10.2602" fill="#F1EEE7"/>
<rect x="55.8616" y="22.5264" width="10.2602" height="10.2602" fill="#F1EEE7"/>
<rect x="622.821" y="32.7881" width="10.2602" height="10.2602" fill="#F1EEE7"/>
<rect x="602.401" y="32.7881" width="10.2602" height="10.2602" fill="#F1EEE7"/>
<rect x="612.742" y="22.5264" width="10.2602" height="10.2602" fill="#F1EEE7"/>
<rect x="522.156" y="864.487" width="17.513" height="17.4736" fill="#F1EEE7"/>
<rect x="487.437" y="864.487" width="17.513" height="17.4736" fill="#F1EEE7"/>
<rect x="452.716" y="864.487" width="17.513" height="17.4736" fill="#F1EEE7"/>
<rect x="417.997" y="864.487" width="17.513" height="17.4736" fill="#F1EEE7"/>
<rect x="383.277" y="864.487" width="17.513" height="17.4736" fill="#F1EEE7"/>
<rect x="348.557" y="864.487" width="17.513" height="17.4736" fill="#F1EEE7"/>
<rect x="313.837" y="864.487" width="17.513" height="17.4736" fill="#F1EEE7"/>
<rect x="279.116" y="864.487" width="17.513" height="17.4736" fill="#F1EEE7"/>
<rect x="244.398" y="864.487" width="17.513" height="17.4736" fill="#F1EEE7"/>
<rect x="209.679" y="864.487" width="17.513" height="17.4736" fill="#F1EEE7"/>
<rect x="174.958" y="864.487" width="17.513" height="17.4736" fill="#F1EEE7"/>
<rect x="140.239" y="864.487" width="17.513" height="17.4736" fill="#F1EEE7"/>
<rect x="105.519" y="864.487" width="17.513" height="17.4736" fill="#F1EEE7"/>
<rect x="70.8003" y="864.487" width="17.513" height="17.4736" fill="#F1EEE7"/>
<rect x="557.181" y="864.487" width="17.513" height="17.4736" fill="#F1EEE7"/>
<rect x="539.669" y="847.012" width="17.513" height="17.4736" fill="#F1EEE7"/>
<rect x="504.948" y="847.012" width="17.513" height="17.4736" fill="#F1EEE7"/>
<rect x="470.229" y="847.012" width="17.513" height="17.4736" fill="#F1EEE7"/>
<rect x="435.508" y="847.012" width="17.513" height="17.4736" fill="#F1EEE7"/>
<rect x="400.79" y="847.012" width="17.513" height="17.4736" fill="#F1EEE7"/>
<rect x="366.07" y="847.012" width="17.513" height="17.4736" fill="#F1EEE7"/>
<rect x="331.35" y="847.012" width="17.513" height="17.4736" fill="#F1EEE7"/>
<rect x="296.631" y="847.012" width="17.513" height="17.4736" fill="#F1EEE7"/>
<rect x="261.912" y="847.012" width="17.513" height="17.4736" fill="#F1EEE7"/>
<rect x="227.191" y="847.012" width="17.513" height="17.4736" fill="#F1EEE7"/>
<rect x="192.471" y="847.012" width="17.513" height="17.4736" fill="#F1EEE7"/>
<rect x="157.753" y="847.012" width="17.513" height="17.4736" fill="#F1EEE7"/>
<rect x="123.032" y="847.012" width="17.513" height="17.4736" fill="#F1EEE7"/>
<rect x="88.3135" y="847.012" width="17.513" height="17.4736" fill="#F1EEE7"/>
<rect x="574.695" y="847.012" width="17.513" height="17.4736" fill="#F1EEE7"/>
</g>
<defs>
<clipPath id="clip0_279_6319">
<rect width="662.4" height="945.6" fill="white" transform="translate(0 0.799805)"/>
</clipPath>
</defs>
</svg>
