<svg width="187" height="185" viewBox="0 0 187 185" fill="none" xmlns="http://www.w3.org/2000/svg">
<path d="M105.764 17.5616L120.474 6.02732L126.094 23.7951L126.456 24.9396L127.577 24.5093L145.049 17.8008L145.155 36.4221L145.161 37.6261L146.363 37.5433L165.043 36.2558L159.627 54.0763L159.275 55.2318L160.452 55.5058L178.679 59.7511L168.223 75.1899L167.545 76.192L168.591 76.8006L184.747 86.1991L170.181 97.8869L169.236 98.6447L170.057 99.5347L182.709 113.251L165.324 120.15L164.2 120.596L164.72 121.687L172.746 138.505L154.084 140.001L152.882 140.097L153.056 141.29L155.742 159.717L137.461 155.674L136.287 155.414L136.1 156.602L133.205 175.002L116.932 165.777L115.889 165.186L115.36 166.262L107.139 183L94.3221 169.414L93.5 168.543L92.6779 169.414L79.8607 183L71.64 166.262L71.1114 165.186L70.0682 165.777L53.7947 175.002L50.9 156.602L50.7132 155.414L49.5395 155.674L31.2584 159.717L33.9444 141.29L34.1183 140.097L32.9163 140.001L14.254 138.505L22.2796 121.687L22.8004 120.596L21.6764 120.15L4.2909 113.251L16.9428 99.5347L17.7638 98.6447L16.8193 97.8869L2.25306 86.1991L18.409 76.8006L19.4552 76.192L18.7765 75.1899L8.32117 59.751L26.5485 55.5058L27.7247 55.2318L27.3735 54.0763L21.957 36.2558L40.6375 37.5433L41.8386 37.6261L41.8454 36.4221L41.9506 17.8008L59.4233 24.5093L60.544 24.9396L60.9061 23.7951L66.5262 6.02732L81.2362 17.5616L82.1792 18.301L82.8622 17.3164L93.5 1.9828L104.138 17.3164L104.821 18.301L105.764 17.5616Z" fill="#F1EEE7" stroke="#EC1D23" stroke-width="2.26045"/>
</svg>
