<svg width="653" height="349" viewBox="0 0 653 349" fill="none" xmlns="http://www.w3.org/2000/svg">
<path d="M635.206 8.39355L550.594 174.5L644.607 340.607H475.384L450.314 259.121L425.244 340.607H256.021L350.033 174.5L265.422 8.39355H425.244L450.314 89.88L475.384 8.39355H635.206Z" fill="#F1EEE7"/>
<path fill-rule="evenodd" clip-rule="evenodd" d="M258.267 4.00748C259.792 1.51774 262.502 0 265.422 0H425.244C428.928 0 432.182 2.40315 433.265 5.92484L450.314 61.3397L467.363 5.92484C468.447 2.40315 471.7 0 475.384 0H635.206C638.126 0 640.836 1.51774 642.362 4.00748C643.887 6.49723 644.009 9.60109 642.684 12.203L560.12 174.291L651.911 336.472C653.382 339.071 653.361 342.255 651.858 344.834C650.354 347.414 647.593 349 644.608 349H475.384C471.7 349 468.447 346.597 467.363 343.075L450.314 287.66L433.265 343.075C432.182 346.597 428.928 349 425.244 349H256.021C253.035 349 250.274 347.414 248.771 344.834C247.267 342.255 247.247 339.071 248.717 336.472L340.509 174.291L257.944 12.203C256.619 9.60109 256.741 6.49723 258.267 4.00748ZM279.116 16.7863L357.511 170.69C358.79 173.2 358.724 176.183 357.337 178.634L270.414 332.214H419.046L442.293 256.652C443.376 253.13 446.63 250.727 450.314 250.727C453.998 250.727 457.252 253.13 458.335 256.652L481.583 332.214H630.214L543.291 178.634C541.904 176.183 541.838 173.2 543.117 170.69L621.512 16.7863H481.583L458.335 92.3478C457.252 95.8695 453.998 98.2727 450.314 98.2727C446.63 98.2727 443.376 95.8695 442.293 92.3478L419.046 16.7863H279.116Z" fill="#F1EEE7"/>
<path d="M635.206 8.39355L550.594 174.5L644.607 340.607H475.384L450.314 259.121L425.244 340.607H256.021L350.033 174.5L265.422 8.39355H425.244L450.314 89.88L475.384 8.39355H635.206Z" fill="#F1EEE7"/>
<path fill-rule="evenodd" clip-rule="evenodd" d="M263.889 7.4525C264.216 6.91898 264.797 6.59375 265.422 6.59375H425.244C426.034 6.59375 426.731 7.10871 426.963 7.86336L450.314 83.763L473.666 7.86336C473.898 7.10871 474.595 6.59375 475.385 6.59375H635.207C635.832 6.59375 636.413 6.91898 636.74 7.4525C637.067 7.98602 637.093 8.65113 636.809 9.20869L552.636 174.454L646.173 339.72C646.488 340.277 646.484 340.959 646.161 341.512C645.839 342.065 645.248 342.405 644.608 342.405H475.385C474.595 342.405 473.898 341.89 473.666 341.135L450.314 265.235L426.963 341.135C426.731 341.89 426.034 342.405 425.244 342.405H256.021C255.381 342.405 254.79 342.065 254.467 341.512C254.145 340.959 254.141 340.277 254.456 339.72L347.993 174.454L263.82 9.20869C263.536 8.65113 263.562 7.98602 263.889 7.4525ZM268.357 10.1908L351.636 173.683C351.91 174.221 351.896 174.86 351.599 175.385L259.105 338.808H423.916L448.596 258.591C448.828 257.836 449.525 257.321 450.314 257.321C451.104 257.321 451.801 257.836 452.033 258.591L476.713 338.808H641.524L549.03 175.385C548.733 174.86 548.719 174.221 548.993 173.683L632.272 10.1908H476.713L452.033 90.4076C451.801 91.1622 451.104 91.6772 450.314 91.6772C449.525 91.6772 448.828 91.1622 448.596 90.4076L423.916 10.1908H268.357Z" fill="#EC1D23"/>
<path d="M130.907 175.587C155.433 175.587 175.871 183.568 192.221 199.531C208.766 215.299 217.039 234.571 217.039 257.347V334.728H149.885L144.046 317.208C143.656 317.792 143.17 318.57 142.586 319.544C142.002 320.517 140.542 322.269 138.206 324.8C135.871 327.33 133.34 329.569 130.615 331.516C128.085 333.462 124.581 335.215 120.104 336.772C115.627 338.329 110.956 339.108 106.09 339.108C90.3231 339.108 77.5736 334.631 67.8413 325.676C58.3035 316.526 53.5347 304.944 53.5347 290.928C53.5347 276.328 59.2768 264.647 70.761 255.887C82.2452 247.127 99.8608 242.747 123.608 242.747H146.965C146.965 242.358 146.771 241.774 146.382 240.995C146.187 240.217 145.506 238.951 144.338 237.199C143.17 235.253 141.71 233.598 139.958 232.235C138.401 230.873 135.871 229.607 132.367 228.439C128.863 227.271 124.97 226.687 120.688 226.687C116.406 226.687 112.026 227.661 107.549 229.607C103.267 231.554 100.055 233.501 97.9143 235.447L94.4107 238.367L69.5931 198.947C70.177 198.363 71.0529 197.584 72.2208 196.611C73.3887 195.443 75.9191 193.496 79.8121 190.771C83.705 188.046 87.7926 185.71 92.0749 183.763C96.5518 181.622 102.294 179.772 109.301 178.215C116.308 176.463 123.51 175.587 130.907 175.587ZM132.367 292.388C136.455 292.388 139.861 290.344 142.586 286.256C145.506 281.973 146.965 275.744 146.965 267.567C139.374 267.567 133.535 269.125 129.447 272.239C125.554 275.16 123.608 278.956 123.608 283.628C123.608 285.769 124.484 287.813 126.236 289.76C128.182 291.512 130.226 292.388 132.367 292.388Z" fill="#F1EEE7"/>
<path fill-rule="evenodd" clip-rule="evenodd" d="M130.907 177.509C123.664 177.509 116.619 178.366 109.767 180.079C109.751 180.083 109.735 180.087 109.718 180.091C102.796 181.629 97.2054 183.439 92.904 185.497C92.8928 185.502 92.8815 185.507 92.8701 185.513C88.6964 187.41 84.7114 189.687 80.9141 192.346C77.002 195.084 74.6099 196.94 73.5796 197.97C73.5385 198.011 73.4956 198.05 73.451 198.088C72.9209 198.529 72.4606 198.923 72.0671 199.271L94.8672 235.486L96.6537 233.998C99.0047 231.869 102.409 229.834 106.755 227.859L106.784 227.846C111.468 225.809 116.108 224.766 120.688 224.766C125.145 224.766 129.247 225.374 132.975 226.617C136.533 227.803 139.335 229.154 141.181 230.752C143.093 232.248 144.688 234.059 145.961 236.171C147.029 237.776 147.85 239.2 148.184 240.307C148.55 241.063 148.887 241.931 148.887 242.748C148.887 243.809 148.027 244.669 146.966 244.669H123.608C100.033 244.669 82.9209 249.029 71.9263 257.416C60.9246 265.808 55.4561 276.92 55.4561 290.928C55.4561 304.449 60.0313 315.515 69.1569 324.276C78.4667 332.834 90.7152 337.187 106.09 337.187C110.747 337.187 115.205 336.442 119.473 334.958C123.841 333.438 127.135 331.769 129.444 329.993C129.462 329.98 129.48 329.966 129.499 329.953C132.114 328.085 134.546 325.934 136.795 323.497C139.155 320.94 140.474 319.331 140.939 318.556C141.53 317.57 142.034 316.762 142.448 316.142C142.855 315.532 143.574 315.206 144.301 315.304C145.028 315.401 145.637 315.904 145.869 316.601L151.27 332.807H215.118V257.348C215.118 235.099 207.062 216.329 190.896 200.922L190.879 200.906C174.916 185.321 154.972 177.509 130.907 177.509ZM144.266 240.826C144 240.273 143.52 239.436 142.74 238.266C142.723 238.24 142.706 238.214 142.691 238.188C141.642 236.44 140.339 234.966 138.779 233.752C138.75 233.73 138.721 233.706 138.693 233.682C137.424 232.571 135.181 231.403 131.76 230.262C128.48 229.169 124.796 228.609 120.688 228.609C116.709 228.609 112.594 229.511 108.33 231.364C104.138 233.27 101.135 235.117 99.2069 236.869C99.1865 236.888 99.1657 236.906 99.1445 236.924L95.6408 239.844C95.2153 240.198 94.6575 240.352 94.1104 240.265C93.5633 240.179 93.0803 239.86 92.7852 239.391L67.9676 199.971C67.4897 199.212 67.6006 198.223 68.2349 197.589C68.8689 196.955 69.7754 196.151 70.9269 195.189C72.2545 193.881 74.8993 191.866 78.7106 189.197C82.6941 186.409 86.8787 184.016 91.2633 182.022C95.9077 179.803 101.787 177.918 108.86 176.345C116.016 174.558 123.366 173.666 130.907 173.666C155.89 173.666 176.82 181.814 193.555 198.149C210.474 214.277 218.96 234.048 218.96 257.348V334.728C218.96 335.789 218.1 336.65 217.039 336.65H149.885C149.059 336.65 148.324 336.12 148.063 335.336L143.489 321.614C142.633 322.751 141.318 324.262 139.618 326.103C137.204 328.72 134.584 331.04 131.759 333.06C129.01 335.169 125.307 336.997 120.736 338.587C116.05 340.217 111.165 341.03 106.09 341.03C89.9396 341.03 76.6939 336.432 66.5408 327.09C66.5347 327.085 66.5287 327.079 66.5226 327.073C66.519 327.07 66.5153 327.066 66.5117 327.063C56.5714 317.527 51.6138 305.432 51.6138 290.928C51.6138 275.736 57.6295 263.488 69.5962 254.36C81.57 245.227 99.6888 240.826 123.608 240.826H144.266ZM128.289 270.707C132.837 267.244 139.15 265.647 146.966 265.647C148.027 265.647 148.887 266.507 148.887 267.568C148.887 275.919 147.405 282.593 144.18 287.33C141.181 291.823 137.23 294.309 132.367 294.309C129.651 294.309 127.167 293.184 124.951 291.188C124.901 291.143 124.853 291.095 124.808 291.045C122.813 288.828 121.687 286.344 121.687 283.628C121.687 278.324 123.94 273.972 128.289 270.707ZM145.015 269.526C138.646 269.774 133.91 271.255 130.612 273.768L130.6 273.777C127.167 276.352 125.529 279.59 125.529 283.628C125.529 285.171 126.137 286.75 127.596 288.399C129.245 289.859 130.824 290.467 132.367 290.467C135.677 290.467 138.536 288.868 140.988 285.19L140.999 285.174C143.39 281.666 144.796 276.516 145.015 269.526Z" fill="#EC1D23"/>
<path fill-rule="evenodd" clip-rule="evenodd" d="M262.874 216.059C263.691 216.877 263.691 218.202 262.873 219.02C261.319 220.574 259.676 222.063 258.075 223.515C257.739 223.82 257.405 224.123 257.073 224.425C255.142 226.185 253.288 227.918 251.602 229.779C249.686 231.892 247.602 233.833 245.596 235.702L245.591 235.707C243.565 237.594 241.618 239.408 239.85 241.352C235.567 246.062 231.411 251.243 228.238 256.617C227.489 257.885 226.566 259.008 225.713 260.007C225.549 260.2 225.388 260.386 225.231 260.569C224.538 261.375 223.912 262.102 223.355 262.874C222.751 263.712 221.863 264.615 221.099 265.392C220.862 265.633 220.637 265.862 220.436 266.073C219.432 267.127 218.839 267.907 218.633 268.524C218.267 269.621 217.082 270.213 215.985 269.848C214.888 269.482 214.296 268.296 214.661 267.199C215.196 265.594 216.428 264.211 217.404 263.186C217.735 262.838 218.042 262.525 218.326 262.236C219.011 261.539 219.557 260.982 219.96 260.424C220.632 259.492 221.4 258.6 222.099 257.789C222.246 257.618 222.389 257.452 222.529 257.289C223.366 256.308 224.083 255.42 224.633 254.488C228.005 248.775 232.366 243.359 236.753 238.535C238.638 236.461 240.692 234.548 242.676 232.7L242.743 232.638C244.769 230.75 246.722 228.928 248.5 226.966C250.33 224.947 252.311 223.1 254.254 221.33C254.6 221.014 254.945 220.702 255.287 220.391C256.886 218.941 258.437 217.533 259.913 216.058C260.731 215.241 262.056 215.241 262.874 216.059Z" fill="#EC1D23"/>
<path fill-rule="evenodd" clip-rule="evenodd" d="M277.584 204.863C277.751 204.562 277.846 204.216 277.846 203.848C277.846 202.691 276.909 201.754 275.753 201.754C275.119 201.754 274.614 201.938 274.215 202.207C274.09 202.145 273.969 202.098 273.858 202.063C273.211 201.86 272.564 201.958 272.314 201.997L272.313 201.997C271.976 202.048 271.597 202.134 271.273 202.206L271.247 202.212C270.055 202.48 269.099 202.968 268.289 203.465C267.957 203.669 267.637 203.882 267.343 204.081C266.964 204.263 266.596 204.454 266.239 204.648C265.849 204.86 265.531 205.049 265.295 205.211C265.198 205.277 265.017 205.405 264.848 205.574C264.846 205.576 264.845 205.577 264.843 205.579C264.827 205.595 264.79 205.631 264.743 205.686C264.471 205.582 264.215 205.549 264.012 205.545C263.492 205.536 263.099 205.718 262.969 205.78C262.788 205.867 262.633 205.966 262.52 206.045C262.399 206.128 262.289 206.196 262.134 206.291C262.076 206.326 262.012 206.366 261.938 206.411C261.709 206.553 261.38 206.761 261.066 207.035C260.32 207.684 259.749 208.624 259.749 209.943C259.749 211.344 259.815 212.737 259.877 214.07L259.878 214.083C259.941 215.437 260.002 216.729 260.002 218.005C260.002 219.162 260.939 220.099 262.095 220.099C262.235 220.099 262.372 220.085 262.505 220.059C262.846 220.177 263.177 220.244 263.464 220.283C264.365 220.404 265.323 220.317 266.149 220.179C267.81 219.902 269.486 219.321 270.289 218.96C270.483 218.872 271.068 218.605 271.457 217.996C271.517 217.902 271.574 217.797 271.623 217.684C272.128 217.833 272.557 217.757 272.756 217.71C276.431 216.828 277.911 213.391 278.226 210.691C278.287 210.164 278.408 208.676 278.246 207.242C278.167 206.543 278.001 205.667 277.601 204.896C277.596 204.885 277.59 204.874 277.584 204.863ZM270.28 214.657C270.399 214.357 270.558 214.075 270.658 213.904C270.702 213.828 270.747 213.752 270.792 213.68C270.607 213.627 270.403 213.543 270.201 213.408C270.156 213.515 270.113 213.623 270.072 213.733C269.967 214.016 269.826 214.266 269.698 214.464C269.851 214.504 270.016 214.554 270.179 214.617C270.206 214.627 270.24 214.64 270.28 214.657ZM267.65 208.673C267.649 208.673 267.653 208.67 267.662 208.664C267.654 208.67 267.65 208.673 267.65 208.673ZM268.245 208.492C267.976 208.653 267.725 208.788 267.508 208.891C267.428 208.929 267.336 208.97 267.239 209.009C267.437 209.012 267.653 209.032 267.854 209.064C267.984 208.869 268.115 208.678 268.245 208.492ZM266.499 209.192C266.23 209.344 265.952 209.545 265.833 209.666C265.565 209.972 265.457 210.282 265.434 210.349C265.433 210.35 265.432 210.352 265.432 210.354C265.393 210.465 265.372 210.557 265.362 210.601C265.33 210.751 265.321 210.875 265.321 210.876C265.318 210.91 265.317 210.938 265.316 210.952C265.315 210.982 265.314 211.007 265.314 211.02C265.313 211.051 265.313 211.081 265.313 211.109C265.313 211.168 265.306 211.234 265.29 211.307C265.207 211.457 265.129 211.603 265.063 211.73C265.039 211.775 265.017 211.818 264.994 211.861C264.945 211.954 264.899 212.042 264.854 212.127C264.773 212.23 264.679 212.339 264.569 212.454C264.447 212.583 264.316 212.71 264.178 212.834C264.138 212.838 264.099 212.84 264.059 212.842C264.07 212.701 264.09 212.543 264.122 212.371C264.236 211.751 264.45 211.173 264.604 210.884C264.592 210.907 264.617 210.869 264.721 210.71C264.76 210.651 264.81 210.574 264.874 210.478C265.052 210.207 265.287 209.847 265.487 209.511C265.562 209.386 265.64 209.25 265.713 209.112C266.013 209.201 266.261 209.202 266.375 209.199C266.418 209.198 266.46 209.195 266.499 209.192ZM262.054 207.07C262.054 207.07 262.051 207.077 262.043 207.093C262.049 207.078 262.053 207.07 262.054 207.07ZM264.902 209.488C264.907 209.485 264.907 209.485 264.902 209.488C264.902 209.488 264.902 209.488 264.902 209.488Z" fill="#EC1D23"/>
<path fill-rule="evenodd" clip-rule="evenodd" d="M339.209 174.988C342.033 173.498 344.464 172.935 347.576 172.935C348.732 172.935 349.669 173.872 349.669 175.028C349.669 176.184 348.732 177.122 347.576 177.122C345.116 177.122 343.359 177.533 341.162 178.692C340.361 179.115 339.56 179.535 338.761 179.954C334.902 181.978 331.084 183.982 327.406 186.18C325.145 187.531 322.824 188.722 320.542 189.862C320.064 190.101 319.588 190.338 319.115 190.573C317.311 191.469 315.542 192.348 313.796 193.29C308.843 195.962 303.72 198.169 298.674 200.342C298.494 200.42 298.313 200.498 298.133 200.575C297.449 200.87 296.748 201.182 296.034 201.499C294.091 202.362 292.053 203.267 289.996 203.997C289.087 204.319 288.114 204.603 287.206 204.868C286.875 204.964 286.553 205.058 286.247 205.15C285.04 205.513 283.964 205.878 283.011 206.354C282.388 206.665 281.763 206.894 281.244 207.078C281.173 207.104 281.104 207.128 281.037 207.152C280.583 207.313 280.227 207.439 279.89 207.589C279.508 207.758 279.11 207.87 278.688 207.901C278.267 207.933 277.917 207.877 277.666 207.821C277.554 207.795 277.451 207.767 277.389 207.75L277.384 207.749C277.311 207.729 277.281 207.721 277.254 207.715C277.25 207.714 277.247 207.713 277.245 207.713C276.1 207.699 275.176 206.767 275.176 205.619C275.176 204.463 276.114 203.525 277.27 203.525C277.656 203.525 277.974 203.583 278.215 203.639C278.274 203.653 278.33 203.668 278.379 203.68C278.818 203.495 279.268 203.336 279.653 203.2C279.717 203.177 279.78 203.155 279.841 203.133C280.351 202.952 280.765 202.796 281.139 202.609C282.426 201.965 283.785 201.518 285.041 201.14C285.424 201.025 285.791 200.918 286.146 200.815C287.011 200.562 287.809 200.33 288.597 200.05C290.49 199.379 292.302 198.574 294.194 197.734C294.939 197.402 295.697 197.066 296.477 196.73C296.637 196.661 296.796 196.592 296.956 196.523C302.048 194.33 307.021 192.187 311.808 189.605C313.623 188.626 315.472 187.707 317.283 186.807C317.749 186.576 318.212 186.346 318.671 186.116C320.937 184.984 323.139 183.852 325.258 182.585C329.045 180.322 332.987 178.255 336.848 176.229C337.639 175.814 338.426 175.401 339.209 174.988Z" fill="#EC1D23"/>
<path fill-rule="evenodd" clip-rule="evenodd" d="M548.797 175.447C548.797 174.291 549.735 173.354 550.891 173.354C553.928 173.354 556.404 173.954 559.112 175.646C563.076 178.123 566.837 180.936 570.517 183.688C571.804 184.65 573.08 185.605 574.352 186.535C575.637 187.475 576.99 188.272 578.45 189.131C578.632 189.238 578.816 189.346 579.001 189.456C580.636 190.422 582.38 191.48 584.024 192.826C587.455 195.636 591.391 197.953 595.41 200.301C597.173 201.332 598.948 202.36 600.728 203.39C606.656 206.824 612.64 210.289 618.436 213.991C619.696 214.795 620.971 215.837 622.142 216.792C622.545 217.121 622.936 217.441 623.31 217.736C624.874 218.975 626.263 219.922 627.652 220.385C628.748 220.751 629.341 221.936 628.976 223.033C628.61 224.13 627.425 224.723 626.328 224.358C624.195 223.647 622.319 222.293 620.711 221.019C620.219 220.63 619.756 220.252 619.312 219.89C618.209 218.989 617.221 218.183 616.183 217.52C610.471 213.872 604.595 210.469 598.682 207.044C596.889 206.006 595.093 204.966 593.297 203.916C589.323 201.594 585.099 199.118 581.371 196.066C579.998 194.941 578.499 194.022 576.872 193.061C576.692 192.955 576.51 192.848 576.327 192.74C574.887 191.893 573.345 190.986 571.88 189.915C570.529 188.926 569.203 187.935 567.889 186.952C564.252 184.232 560.697 181.574 556.894 179.198C554.922 177.966 553.233 177.541 550.891 177.541C549.735 177.541 548.797 176.603 548.797 175.447Z" fill="#EC1D23"/>
<path fill-rule="evenodd" clip-rule="evenodd" d="M629.703 220.955C629.704 220.955 629.709 220.961 629.717 220.973C629.707 220.961 629.703 220.955 629.703 220.955ZM625.987 220.624C626.08 220.436 626.197 220.259 626.335 220.096C626.74 219.621 627.242 219.376 627.52 219.255C627.832 219.119 628.165 219.014 628.427 218.935C630.193 218.403 632.127 218.143 633.946 218.143C635.102 218.143 636.039 219.08 636.039 220.236C636.039 221.393 635.102 222.33 633.946 222.33C633.325 222.33 632.688 222.369 632.058 222.445C632.612 222.681 633.167 222.969 633.713 223.328C633.781 223.373 633.843 223.41 633.928 223.46C634.021 223.515 634.142 223.586 634.328 223.702C634.332 223.705 634.336 223.707 634.34 223.71C634.423 223.761 634.66 223.909 634.849 224.076C634.85 224.077 634.851 224.078 634.852 224.079C634.897 224.119 635.085 224.285 635.25 224.545C635.327 224.666 635.536 225.016 635.573 225.522C635.621 226.181 635.354 226.881 634.761 227.337C634.308 227.686 633.85 227.748 633.691 227.764C633.488 227.785 633.325 227.773 633.242 227.764C633.071 227.746 632.934 227.711 632.873 227.694C632.08 227.483 631.385 227.096 630.87 226.785C630.681 226.67 630.526 226.574 630.391 226.488C630.544 226.943 630.693 227.391 630.84 227.833C631.294 229.2 631.732 230.517 632.247 231.862C632.287 231.965 632.331 232.087 632.367 232.206C632.384 232.263 632.413 232.363 632.435 232.483C632.446 232.543 632.463 232.645 632.47 232.77C632.475 232.867 632.485 233.133 632.395 233.457C632.307 233.773 631.996 234.541 631.085 234.869C630.264 235.165 629.598 234.857 629.407 234.759C629.021 234.559 628.787 234.277 628.761 234.245C628.76 234.244 628.759 234.243 628.759 234.243C628.635 234.098 628.541 233.952 628.505 233.894C628.324 233.61 628.064 233.127 627.812 232.643C627.297 231.65 626.611 230.245 626.297 229.455C625.346 227.07 624.971 224.909 624.971 222.42C624.971 221.658 625.378 220.99 625.987 220.624ZM632.039 231.65C632.039 231.65 632.039 231.65 632.039 231.649C632.049 231.664 632.05 231.666 632.039 231.65Z" fill="#EC1D23"/>
<path fill-rule="evenodd" clip-rule="evenodd" d="M0.932078 209.263C1.89394 208.622 3.19373 208.881 3.83525 209.843C4.66133 211.082 5.31551 212.521 5.80005 213.914C5.93298 213.99 6.05096 214.065 6.10375 214.106C6.24019 214.218 6.33279 214.325 6.35106 214.346C6.35177 214.347 6.35236 214.347 6.35284 214.348C6.38561 214.386 6.41018 214.417 6.42229 214.432C6.46155 214.482 6.49141 214.525 6.49457 214.53L6.49482 214.53C6.50407 214.544 6.51164 214.555 6.51589 214.561C6.53122 214.584 6.54825 214.61 6.56039 214.629C6.58846 214.672 6.62892 214.734 6.67624 214.808C6.74423 214.913 6.83178 215.049 6.92762 215.199C6.96624 215.259 7.00621 215.321 7.04678 215.384C7.33677 215.835 7.64721 216.317 7.7696 216.5C7.89739 216.692 8.02451 216.853 8.1889 217.061C8.22719 217.11 8.2675 217.161 8.31032 217.216C8.31673 217.224 8.32351 217.232 8.33062 217.241C8.49626 217.452 8.84443 217.895 9.04178 218.413C9.12205 218.624 9.19683 218.892 9.21821 219.203C10.1804 220.862 11.2295 222.426 12.3255 224.059C13.0526 225.143 13.8004 226.258 14.5572 227.452C15.5254 228.979 16.6223 230.432 17.7794 231.964C17.8269 232.027 17.8745 232.09 17.9222 232.153C19.1126 233.731 20.3605 235.395 21.4531 237.182C22.0855 238.217 22.8479 239.186 23.704 240.275L23.7084 240.281C24.5396 241.338 25.4618 242.511 26.2414 243.81C27.0442 245.148 27.873 246.35 28.741 247.609C29.3461 248.487 29.9702 249.392 30.6178 250.39C32.8841 253.883 35.412 257.173 37.9889 260.528C39.19 262.091 40.4017 263.668 41.6026 265.286C41.94 265.741 42.3684 266.182 42.9163 266.726C42.9634 266.772 43.0115 266.82 43.0606 266.869C43.5459 267.349 44.1233 267.921 44.6334 268.547C45.0158 269.016 45.3517 269.449 45.6695 269.859C46.2265 270.577 46.7279 271.224 47.3259 271.866C47.6429 272.207 47.9637 272.566 48.294 272.935C49.0004 273.726 49.7501 274.566 50.5992 275.374C51.8797 276.593 52.911 277.253 53.6144 277.38C54.752 277.587 55.5065 278.677 55.2998 279.815C55.0931 280.952 54.0033 281.707 52.8658 281.5C50.8435 281.133 49.0328 279.664 47.7121 278.407C46.737 277.478 45.776 276.403 45.028 275.567C44.7364 275.241 44.4772 274.951 44.2621 274.72C43.5442 273.949 42.8304 273.032 42.1975 272.218C41.9084 271.847 41.6362 271.497 41.3882 271.193C41.026 270.748 40.6057 270.331 40.0897 269.82C40.0492 269.779 40.0081 269.739 39.9664 269.697C39.4293 269.164 38.7893 268.521 38.2407 267.782C37.1298 266.285 35.968 264.773 34.7923 263.242C32.1631 259.818 29.4637 256.304 27.1057 252.67C26.5999 251.89 26.0253 251.054 25.4323 250.19C24.484 248.809 23.4886 247.36 22.6517 245.965C22.0288 244.927 21.2705 243.954 20.4172 242.869L20.3455 242.778C19.5374 241.75 18.6434 240.614 17.881 239.366C16.9102 237.778 15.7819 236.268 14.5805 234.676C14.5223 234.599 14.464 234.522 14.4055 234.444C13.2748 232.947 12.0837 231.37 11.0213 229.694C10.7929 229.334 10.5586 228.972 10.3198 228.607C10.0344 229.061 9.64804 229.286 9.46021 229.379C9.20872 229.503 8.98735 229.55 8.8795 229.569C8.06637 229.717 7.07453 229.688 6.36553 229.579C5.17206 229.395 3.87671 228.848 2.84207 227.998C1.80446 227.146 0.816234 225.796 0.816234 224.013C0.816234 222.451 1.73193 221.117 2.49895 220.28C2.68311 220.08 2.88129 219.883 3.08989 219.694C3.01535 219.115 2.86293 218.631 2.66003 217.985C2.53382 217.584 2.38807 217.12 2.22939 216.533C1.81435 214.998 1.15934 213.377 0.352042 212.167C-0.289474 211.205 -0.0297831 209.905 0.932078 209.263ZM7.50646 229.27C7.50748 229.271 7.50849 229.271 7.50948 229.271C7.57015 229.297 7.5592 229.297 7.50646 229.27ZM7.06954 223.7C6.98574 223.874 6.88044 224.05 6.74759 224.221C6.64411 224.354 6.63128 224.492 6.64811 224.572C6.64909 224.577 6.6501 224.581 6.6511 224.585C6.675 224.592 6.71391 224.605 6.77201 224.624C6.87428 224.657 7.00201 224.696 7.15256 224.743C7.17425 224.75 7.19637 224.757 7.21886 224.764C7.42562 224.828 7.6643 224.902 7.90297 224.979C7.62396 224.556 7.34547 224.13 7.06954 223.7Z" fill="#EC1D23"/>
<path d="M460.046 86.523C460.046 111.674 439.65 132.064 414.491 132.064C389.331 132.064 368.936 111.674 368.936 86.523C368.936 61.3716 389.331 40.9824 414.491 40.9824C439.65 40.9824 460.046 61.3716 460.046 86.523Z" fill="#F1EEE7"/>
<path fill-rule="evenodd" clip-rule="evenodd" d="M463.643 86.5234C463.643 113.663 441.635 135.661 414.491 135.661C387.346 135.661 365.339 113.663 365.339 86.5234C365.339 59.384 387.346 37.3857 414.491 37.3857C441.635 37.3857 463.643 59.384 463.643 86.5234ZM414.491 132.064C439.65 132.064 460.046 111.675 460.046 86.5234C460.046 61.372 439.65 40.9828 414.491 40.9828C389.331 40.9828 368.936 61.372 368.936 86.5234C368.936 111.675 389.331 132.064 414.491 132.064Z" fill="#EC1D23"/>
<path d="M530.777 86.523C530.777 111.674 510.381 132.064 485.221 132.064C460.062 132.064 439.666 111.674 439.666 86.523C439.666 61.3716 460.062 40.9824 485.221 40.9824C510.381 40.9824 530.777 61.3716 530.777 86.523Z" fill="#F1EEE7"/>
<path fill-rule="evenodd" clip-rule="evenodd" d="M534.373 86.5234C534.373 113.663 512.366 135.661 485.221 135.661C458.077 135.661 436.069 113.663 436.069 86.5234C436.069 59.384 458.077 37.3857 485.221 37.3857C512.366 37.3857 534.373 59.384 534.373 86.5234ZM485.221 132.064C510.381 132.064 530.777 111.675 530.777 86.5234C530.777 61.372 510.381 40.9828 485.221 40.9828C460.062 40.9828 439.666 61.372 439.666 86.5234C439.666 111.675 460.062 132.064 485.221 132.064Z" fill="#EC1D23"/>
<path d="M412.94 66.7561C412.94 76.4207 405.504 84.2554 396.332 84.2554C387.16 84.2554 379.725 76.4207 379.725 66.7561C379.725 57.0915 387.16 49.2568 396.332 49.2568C405.504 49.2568 412.94 57.0915 412.94 66.7561Z" fill="#EC1D23"/>
<path d="M481.409 68.8479C481.409 78.5125 473.974 86.3472 464.802 86.3472C455.63 86.3472 448.195 78.5125 448.195 68.8479C448.195 59.1833 455.63 51.3486 464.802 51.3486C473.974 51.3486 481.409 59.1833 481.409 68.8479Z" fill="#EC1D23"/>
<path d="M132.9 263.893C132.9 283.455 117.037 299.314 97.4681 299.314C77.8996 299.314 62.0361 283.455 62.0361 263.893C62.0361 244.331 77.8996 228.473 97.4681 228.473C117.037 228.473 132.9 244.331 132.9 263.893Z" fill="#F1EEE7"/>
<path fill-rule="evenodd" clip-rule="evenodd" d="M136.497 263.893C136.497 285.444 119.022 302.911 97.4681 302.911C75.9146 302.911 58.4395 285.444 58.4395 263.893C58.4395 242.343 75.9146 224.876 97.4681 224.876C119.022 224.876 136.497 242.343 136.497 263.893ZM97.4681 299.314C117.037 299.314 132.9 283.456 132.9 263.893C132.9 244.331 117.037 228.473 97.4681 228.473C77.8996 228.473 62.0361 244.331 62.0361 263.893C62.0361 283.456 77.8996 299.314 97.4681 299.314Z" fill="#EC1D23"/>
<path d="M187.912 263.893C187.912 283.455 172.049 299.314 152.48 299.314C132.912 299.314 117.048 283.455 117.048 263.893C117.048 244.331 132.912 228.473 152.48 228.473C172.049 228.473 187.912 244.331 187.912 263.893Z" fill="#F1EEE7"/>
<path fill-rule="evenodd" clip-rule="evenodd" d="M191.509 263.893C191.509 285.444 174.034 302.911 152.48 302.911C130.927 302.911 113.452 285.444 113.452 263.893C113.452 242.343 130.927 224.876 152.48 224.876C174.034 224.876 191.509 242.343 191.509 263.893ZM152.48 299.314C172.049 299.314 187.912 283.456 187.912 263.893C187.912 244.331 172.049 228.473 152.48 228.473C132.912 228.473 117.048 244.331 117.048 263.893C117.048 283.456 132.912 299.314 152.48 299.314Z" fill="#EC1D23"/>
<path d="M97.1939 247.585C97.1939 255.102 91.4109 261.196 84.2771 261.196C77.1434 261.196 71.3604 255.102 71.3604 247.585C71.3604 240.068 77.1434 233.975 84.2771 233.975C91.4109 233.975 97.1939 240.068 97.1939 247.585Z" fill="#EC1D23"/>
<path d="M150.449 249.214C150.449 256.731 144.666 262.825 137.532 262.825C130.398 262.825 124.615 256.731 124.615 249.214C124.615 241.697 130.398 235.604 137.532 235.604C144.666 235.604 150.449 241.697 150.449 249.214Z" fill="#EC1D23"/>
</svg>
