<svg width="646" height="461" viewBox="0 0 646 461" fill="none" xmlns="http://www.w3.org/2000/svg">
<path d="M635.922 106.515L551.232 272.758L645.332 439H475.953L450.859 357.447L425.766 439H256.387L350.487 272.758L265.797 106.515H425.766L450.859 188.068L475.953 106.515H635.922Z" fill="#F1EEE7"/>
<path d="M635.922 106.515L643.406 110.328C644.733 107.724 644.611 104.618 643.084 102.126C641.557 99.634 638.844 98.115 635.922 98.115V106.515ZM551.232 272.758L543.747 268.945C542.468 271.456 542.533 274.442 543.922 276.895L551.232 272.758ZM645.332 439V447.4C648.32 447.4 651.083 445.812 652.588 443.231C654.093 440.649 654.114 437.463 652.642 434.862L645.332 439ZM475.953 439L467.924 441.47C469.008 444.995 472.265 447.4 475.953 447.4V439ZM450.859 357.447L458.888 354.977C457.803 351.452 454.547 349.047 450.859 349.047C447.172 349.047 443.915 351.452 442.831 354.977L450.859 357.447ZM425.766 439V447.4C429.454 447.4 432.71 444.995 433.795 441.47L425.766 439ZM256.387 439L249.077 434.862C247.605 437.463 247.625 440.649 249.13 443.231C250.635 445.812 253.399 447.4 256.387 447.4V439ZM350.487 272.758L357.797 276.895C359.185 274.442 359.251 271.456 357.971 268.945L350.487 272.758ZM265.797 106.515V98.115C262.874 98.115 260.162 99.634 258.635 102.126C257.108 104.618 256.986 107.724 258.312 110.328L265.797 106.515ZM425.766 106.515L433.795 104.045C432.71 100.52 429.454 98.115 425.766 98.115V106.515ZM450.859 188.068L442.831 190.538C443.915 194.063 447.172 196.468 450.859 196.468C454.547 196.468 457.803 194.063 458.888 190.538L450.859 188.068ZM475.953 106.515V98.115C472.265 98.115 469.008 100.52 467.924 104.045L475.953 106.515ZM628.437 102.702L543.747 268.945L558.717 276.57L643.406 110.328L628.437 102.702ZM543.922 276.895L638.022 443.138L652.642 434.862L558.542 268.62L543.922 276.895ZM645.332 430.6H475.953V447.4H645.332V430.6ZM483.981 436.53L458.888 354.977L442.831 359.917L467.924 441.47L483.981 436.53ZM442.831 354.977L417.738 436.53L433.795 441.47L458.888 359.917L442.831 354.977ZM425.766 430.6H256.387V447.4H425.766V430.6ZM263.697 443.138L357.797 276.895L343.176 268.62L249.077 434.862L263.697 443.138ZM357.971 268.945L273.282 102.702L258.312 110.328L343.002 276.57L357.971 268.945ZM265.797 114.915H425.766V98.115H265.797V114.915ZM417.738 108.985L442.831 190.538L458.888 185.598L433.795 104.045L417.738 108.985ZM458.888 190.538L483.981 108.985L467.924 104.045L442.831 185.598L458.888 190.538ZM475.953 114.915H635.922V98.115H475.953V114.915Z" fill="#F1EEE7"/>
<path d="M635.922 106.515L551.232 272.758L645.332 439H475.953L450.859 357.447L425.766 439H256.387L350.487 272.758L265.797 106.515H425.766L450.859 188.068L475.953 106.515H635.922Z" fill="#F1EEE7"/>
<path d="M635.922 106.515L637.526 107.332C637.81 106.774 637.784 106.108 637.456 105.574C637.129 105.041 636.548 104.715 635.922 104.715V106.515ZM551.232 272.758L549.628 271.94C549.354 272.479 549.368 273.119 549.666 273.644L551.232 272.758ZM645.332 439V440.8C645.972 440.8 646.564 440.46 646.887 439.907C647.209 439.353 647.214 438.671 646.898 438.113L645.332 439ZM475.953 439L474.232 439.529C474.465 440.285 475.162 440.8 475.953 440.8V439ZM450.859 357.447L452.58 356.918C452.347 356.162 451.65 355.647 450.859 355.647C450.069 355.647 449.371 356.162 449.139 356.918L450.859 357.447ZM425.766 439V440.8C426.556 440.8 427.254 440.285 427.487 439.529L425.766 439ZM256.387 439L254.821 438.113C254.505 438.671 254.509 439.353 254.832 439.907C255.155 440.46 255.747 440.8 256.387 440.8V439ZM350.487 272.758L352.053 273.644C352.351 273.119 352.365 272.479 352.09 271.94L350.487 272.758ZM265.797 106.515V104.715C265.171 104.715 264.589 105.041 264.262 105.574C263.935 106.108 263.909 106.774 264.193 107.332L265.797 106.515ZM425.766 106.515L427.487 105.986C427.254 105.23 426.556 104.715 425.766 104.715V106.515ZM450.859 188.068L449.139 188.597C449.371 189.353 450.069 189.868 450.859 189.868C451.65 189.868 452.347 189.353 452.58 188.597L450.859 188.068ZM475.953 106.515V104.715C475.162 104.715 474.465 105.23 474.232 105.986L475.953 106.515ZM634.318 105.698L549.628 271.94L552.836 273.575L637.526 107.332L634.318 105.698ZM549.666 273.644L643.765 439.887L646.898 438.113L552.799 271.871L549.666 273.644ZM645.332 437.2H475.953V440.8H645.332V437.2ZM477.673 438.471L452.58 356.918L449.139 357.976L474.232 439.529L477.673 438.471ZM449.139 356.918L424.046 438.471L427.487 439.529L452.58 357.976L449.139 356.918ZM425.766 437.2H256.387V440.8H425.766V437.2ZM257.953 439.887L352.053 273.644L348.92 271.871L254.821 438.113L257.953 439.887ZM352.09 271.94L267.401 105.698L264.193 107.332L348.883 273.575L352.09 271.94ZM265.797 108.315H425.766V104.715H265.797V108.315ZM424.046 107.044L449.139 188.597L452.58 187.539L427.487 105.986L424.046 107.044ZM452.58 188.597L477.673 107.044L474.232 105.986L449.139 187.539L452.58 188.597ZM475.953 108.315H635.922V104.715H475.953V108.315Z" fill="#EC1D23"/>
<path d="M131.14 273.954C155.688 273.954 176.145 281.942 192.51 297.917C209.07 313.698 217.351 332.986 217.351 355.781V433.225H150.135L144.291 415.69C143.901 416.275 143.414 417.054 142.829 418.028C142.245 419.002 140.784 420.756 138.446 423.288C136.108 425.821 133.575 428.062 130.848 430.01C128.315 431.958 124.808 433.712 120.327 435.27C115.846 436.829 111.17 437.608 106.299 437.608C90.5184 437.608 77.7572 433.127 68.0159 424.165C58.4694 415.008 53.6961 403.416 53.6961 389.389C53.6961 374.777 59.4435 363.087 70.9383 354.32C82.4331 345.553 100.065 341.169 123.834 341.169H147.213C147.213 340.779 147.018 340.195 146.629 339.416C146.434 338.636 145.752 337.37 144.583 335.616C143.414 333.668 141.953 332.012 140.199 330.648C138.641 329.285 136.108 328.018 132.601 326.849C129.094 325.68 125.198 325.096 120.911 325.096C116.625 325.096 112.242 326.07 107.761 328.018C103.474 329.966 100.26 331.915 98.1166 333.863L94.6098 336.785L69.7693 297.333C70.3538 296.748 71.2305 295.969 72.3995 294.995C73.5685 293.826 76.1012 291.878 79.9977 289.15C83.8943 286.423 87.9856 284.085 92.2718 282.136C96.7528 279.993 102.5 278.143 109.514 276.584C116.528 274.83 123.736 273.954 131.14 273.954ZM132.601 390.85C136.692 390.85 140.102 388.804 142.829 384.713C145.752 380.427 147.213 374.192 147.213 366.009C139.615 366.009 133.77 367.568 129.679 370.685C125.782 373.608 123.834 377.407 123.834 382.083C123.834 384.226 124.71 386.271 126.464 388.22C128.412 389.973 130.458 390.85 132.601 390.85Z" fill="#F1EEE7"/>
<path d="M192.51 297.917L191.167 299.293C191.172 299.299 191.178 299.304 191.184 299.31L192.51 297.917ZM217.351 433.225V435.148C218.413 435.148 219.274 434.287 219.274 433.225H217.351ZM150.135 433.225L148.311 433.833C148.573 434.618 149.308 435.148 150.135 435.148V433.225ZM144.291 415.69L146.115 415.082C145.883 414.385 145.274 413.882 144.546 413.784C143.818 413.687 143.098 414.012 142.691 414.624L144.291 415.69ZM142.829 418.028L144.478 419.017L142.829 418.028ZM138.446 423.288L137.033 421.984L138.446 423.288ZM130.848 430.01L129.73 428.445C129.711 428.458 129.693 428.472 129.675 428.486L130.848 430.01ZM120.327 435.27L119.695 433.454L120.327 435.27ZM68.0159 424.165L66.6848 425.553C66.6944 425.562 66.7041 425.571 66.714 425.58L68.0159 424.165ZM70.9383 354.32L72.1045 355.849L70.9383 354.32ZM147.213 341.169V343.092C148.275 343.092 149.136 342.231 149.136 341.169H147.213ZM146.629 339.416L144.763 339.882C144.797 340.018 144.846 340.15 144.909 340.275L146.629 339.416ZM144.583 335.616L142.934 336.606C142.95 336.632 142.966 336.658 142.983 336.683L144.583 335.616ZM140.199 330.648L138.933 332.095C138.961 332.12 138.989 332.143 139.019 332.166L140.199 330.648ZM132.601 326.849L133.209 325.025L132.601 326.849ZM107.761 328.018L106.994 326.255C106.984 326.259 106.974 326.263 106.965 326.268L107.761 328.018ZM98.1166 333.863L99.3477 335.34C99.3689 335.323 99.3897 335.304 99.4101 335.286L98.1166 333.863ZM94.6098 336.785L92.9825 337.81C93.2779 338.279 93.7614 338.598 94.309 338.685C94.8565 338.771 95.4149 338.618 95.8408 338.263L94.6098 336.785ZM69.7693 297.333L68.4096 295.973C67.7748 296.608 67.6637 297.598 68.1421 298.358L69.7693 297.333ZM72.3995 294.995L73.6305 296.472C73.6752 296.435 73.7181 296.396 73.7592 296.355L72.3995 294.995ZM79.9977 289.15L81.1005 290.726L79.9977 289.15ZM92.2718 282.136L93.0676 283.887C93.0789 283.882 93.0902 283.877 93.1015 283.871L92.2718 282.136ZM109.514 276.584L109.931 278.461C109.948 278.457 109.964 278.454 109.98 278.449L109.514 276.584ZM142.829 384.713L141.241 383.629C141.237 383.635 141.233 383.641 141.229 383.646L142.829 384.713ZM147.213 366.009H149.136C149.136 364.947 148.275 364.086 147.213 364.086V366.009ZM129.679 370.685L130.832 372.224C130.836 372.221 130.84 372.218 130.844 372.215L129.679 370.685ZM126.464 388.22L125.035 389.506C125.08 389.556 125.127 389.604 125.178 389.649L126.464 388.22ZM131.14 275.877C155.227 275.877 175.189 283.696 191.167 299.293L193.853 296.541C177.101 280.188 156.149 272.031 131.14 272.031V275.877ZM191.184 299.31C207.365 314.729 215.428 333.514 215.428 355.781H219.274C219.274 332.458 210.776 312.668 193.837 296.525L191.184 299.31ZM215.428 355.781V433.225H219.274V355.781H215.428ZM217.351 431.302H150.135V435.148H217.351V431.302ZM151.96 432.617L146.115 415.082L142.466 416.298L148.311 433.833L151.96 432.617ZM142.691 414.624C142.277 415.244 141.772 416.052 141.18 417.039L144.478 419.017C145.055 418.056 145.525 417.305 145.891 416.757L142.691 414.624ZM141.18 417.039C140.715 417.814 139.395 419.425 137.033 421.984L139.859 424.593C142.173 422.086 143.775 420.19 144.478 419.017L141.18 417.039ZM137.033 421.984C134.782 424.423 132.347 426.576 129.73 428.445L131.965 431.575C134.803 429.548 137.434 427.219 139.859 424.593L137.033 421.984ZM129.675 428.486C127.364 430.263 124.066 431.934 119.695 433.454L120.959 437.087C125.549 435.49 129.265 433.653 132.02 431.534L129.675 428.486ZM119.695 433.454C115.423 434.94 110.961 435.685 106.299 435.685V439.531C111.379 439.531 116.269 438.718 120.959 437.087L119.695 433.454ZM106.299 435.685C90.9025 435.685 78.6381 431.325 69.3178 422.75L66.714 425.58C76.8764 434.93 90.1343 439.531 106.299 439.531V435.685ZM69.347 422.777C60.2034 414.007 55.6191 402.928 55.6191 389.389H51.7732C51.7732 403.905 56.7354 416.01 66.6848 425.553L69.347 422.777ZM55.6191 389.389C55.6191 375.369 61.0926 364.248 72.1045 355.849L69.7721 352.791C57.7945 361.926 51.7732 374.184 51.7732 389.389H55.6191ZM72.1045 355.849C83.1092 347.455 100.237 343.092 123.834 343.092V339.246C99.8925 339.246 81.757 343.65 69.7721 352.791L72.1045 355.849ZM123.834 343.092H147.213V339.246H123.834V343.092ZM149.136 341.169C149.136 340.289 148.746 339.35 148.348 338.556L144.909 340.275C145.078 340.614 145.183 340.868 145.243 341.046C145.308 341.243 145.29 341.265 145.29 341.169H149.136ZM148.494 338.949C148.208 337.804 147.337 336.282 146.183 334.55L142.983 336.683C144.166 338.458 144.66 339.468 144.763 339.882L148.494 338.949ZM146.232 334.627C144.943 332.48 143.325 330.643 141.38 329.13L139.019 332.166C140.58 333.381 141.884 334.856 142.934 336.606L146.232 334.627ZM141.465 329.201C139.619 327.585 136.798 326.221 133.209 325.025L131.993 328.673C135.418 329.815 137.662 330.984 138.933 332.095L141.465 329.201ZM133.209 325.025C129.478 323.781 125.372 323.173 120.911 323.173V327.019C125.023 327.019 128.711 327.579 131.993 328.673L133.209 325.025ZM120.911 323.173C116.327 323.173 111.683 324.216 106.994 326.255L108.527 329.782C112.8 327.924 116.923 327.019 120.911 327.019V323.173ZM106.965 326.268C102.595 328.254 99.1773 330.3 96.8231 332.44L99.4101 335.286C101.342 333.529 104.353 331.679 108.556 329.769L106.965 326.268ZM96.8856 332.386L93.3787 335.308L95.8408 338.263L99.3477 335.34L96.8856 332.386ZM96.237 335.761L71.3966 296.308L68.1421 298.358L92.9825 337.81L96.237 335.761ZM71.1291 298.693C71.6517 298.17 72.4758 297.435 73.6305 296.472L71.1685 293.518C69.9852 294.504 69.056 295.327 68.4096 295.973L71.1291 298.693ZM73.7592 296.355C74.7905 295.323 77.1848 293.467 81.1005 290.726L78.895 287.575C75.0176 290.289 72.3464 292.329 71.0398 293.635L73.7592 296.355ZM81.1005 290.726C84.9013 288.065 88.89 285.786 93.0676 283.887L91.4761 280.386C87.0813 282.384 82.8873 284.78 78.895 287.575L81.1005 290.726ZM93.1015 283.871C97.4068 281.812 103.003 280.001 109.931 278.461L109.097 274.707C101.998 276.284 96.0989 278.175 91.4422 280.402L93.1015 283.871ZM109.98 278.449C116.838 276.735 123.89 275.877 131.14 275.877V272.031C123.583 272.031 116.218 272.926 109.048 274.718L109.98 278.449ZM132.601 392.773C137.471 392.773 141.428 390.282 144.429 385.779L141.229 383.646C138.776 387.326 135.913 388.927 132.601 388.927V392.773ZM144.418 385.796C147.651 381.055 149.136 374.373 149.136 366.009H145.29C145.29 374.011 143.853 379.798 141.241 383.629L144.418 385.796ZM147.213 364.086C139.386 364.086 133.066 365.687 128.513 369.156L130.844 372.215C134.474 369.449 139.843 367.932 147.213 367.932V364.086ZM128.525 369.147C124.168 372.415 121.911 376.773 121.911 382.083H125.757C125.757 378.041 127.396 374.801 130.832 372.224L128.525 369.147ZM121.911 382.083C121.911 384.801 123.038 387.287 125.035 389.506L127.893 386.933C126.383 385.256 125.757 383.65 125.757 382.083H121.911ZM125.178 389.649C127.396 391.646 129.882 392.773 132.601 392.773V388.927C131.033 388.927 129.428 388.3 127.75 386.79L125.178 389.649Z" fill="#EC1D23"/>
<path d="M216.964 366.374C217.706 364.148 220.616 362.043 221.979 360.153C223.477 358.077 225.462 356.251 226.762 354.049C230.037 348.498 234.3 343.192 238.639 338.419C242.32 334.371 246.702 330.914 250.4 326.833C253.92 322.949 258.078 319.661 261.753 315.985" stroke="#EC1D23" stroke-width="4.1907" stroke-linecap="round"/>
<path d="M262.456 316.453C262.456 313.782 262.203 311.079 262.203 308.38C262.203 307.116 263.174 306.823 264.073 306.2C265.111 305.481 263.293 308.005 263.117 308.338C262.582 309.345 262.005 311.486 262.512 312.627C262.962 313.64 265.21 313.487 265.972 313.021C266.652 312.605 267.19 311.211 267.631 310.518C267.807 310.242 267.772 309.22 267.772 309.547C267.772 311.654 265.529 313.29 263.947 314.315C263.497 314.606 262.286 315.162 262.765 315.946C263.774 317.597 268.487 316.086 269.797 315.496C270.941 314.981 268.317 314.699 267.659 314.681C265.144 314.609 268.073 312.531 268.475 311.446C269.129 309.68 270.314 308.15 271.443 306.58C272.138 305.613 272.836 304.553 273.454 303.542C274.277 302.195 273.48 302.368 272.075 302.684C270.303 303.083 269.128 304.149 267.645 305.061C266.557 305.731 266.153 305.708 267.603 304.92C269.302 303.997 270.998 303.289 272.933 303.289C273.729 303.289 273.568 304.642 273.608 305.188C273.753 307.139 273.573 308.654 271.935 309.955C270.946 310.741 273.963 308.267 274.41 307.086C274.582 306.63 274.804 303.525 275.113 303.542C276.935 303.643 276.625 307.978 276.52 308.886C276.249 311.213 275.06 313.537 272.638 314.118C272.232 314.216 273.335 312.62 273.355 312.585C274.15 311.208 274.759 309.676 275.001 308.099C275.122 307.308 274.509 302.276 276.126 302.276" stroke="#EC1D23" stroke-width="4.1907" stroke-linecap="round"/>
<path d="M348.02 273.42C345.232 273.42 343.136 273.908 340.622 275.234C335.981 277.684 331.261 280.093 326.756 282.786C322.371 285.408 317.702 287.437 313.212 289.86C308.174 292.579 302.945 294.814 297.7 297.075C295.044 298.22 292.412 299.482 289.684 300.45C287.33 301.286 284.698 301.79 282.455 302.912C281.457 303.411 280.375 303.681 279.417 304.107C278.632 304.456 278.353 304.051 277.645 304.051" stroke="#EC1D23" stroke-width="4.1907" stroke-linecap="round"/>
<path d="M551.534 273.839C554.226 273.839 556.311 274.353 558.653 275.816C563.922 279.11 568.776 282.971 573.781 286.633C576.881 288.901 580.352 290.389 583.372 292.862C586.955 295.797 591.039 298.197 595.039 300.535C602.724 305.028 610.521 309.41 618.018 314.2C621.171 316.214 624.183 319.65 627.708 320.824" stroke="#EC1D23" stroke-width="4.1907" stroke-linecap="round"/>
<path d="M627.782 320.872C627.782 323.117 628.114 325.017 628.961 327.141C629.508 328.515 631.543 332.458 631.014 331.077C630.183 328.909 629.506 326.685 628.742 324.492C628.464 323.695 628.28 322.894 628.056 322.087C627.916 321.586 629.353 322.039 629.562 322.087C630.897 322.395 632.134 322.775 633.285 323.533C633.574 323.723 634.47 324.217 634.136 324.128C633.145 323.864 632.18 323.091 631.293 322.597C630.382 322.09 629.589 321.624 628.894 320.842C628.118 319.969 628.728 319.698 629.75 319.39C631.306 318.921 633.037 318.686 634.67 318.686" stroke="#EC1D23" stroke-width="4.1907" stroke-linecap="round"/>
<path d="M53.3963 377.969C50.6679 377.473 47.7065 373.708 45.9429 371.814C44.9493 370.747 44.0795 369.518 43.157 368.386C42.2036 367.216 40.9517 366.241 40.0647 365.046C36.3749 360.073 32.3649 355.219 28.994 350.022C27.547 347.791 25.9372 345.642 24.5745 343.371C23.1706 341.031 21.2102 339.073 19.7903 336.749C17.7249 333.369 15.0332 330.392 12.9058 327.035C10.696 323.548 8.27954 320.357 6.40045 316.65C5.95731 315.775 5.35488 315.008 4.88352 314.17C4.84512 314.102 5.86808 315.705 6.1379 316.11C6.99886 317.402 8.06089 317.973 6.25459 318.633C4.95917 319.107 3.01652 320.922 3.01652 322.47C3.01652 324.38 5.12306 325.713 6.79427 325.97C7.331 326.053 8.08312 326.067 8.61751 325.97C9.04108 325.893 6.41693 325.153 5.99205 324.993C4.58988 324.465 4.23331 322.639 5.20441 321.39C5.65331 320.813 5.36135 319.246 5.33568 318.604C5.27279 317.032 4.74972 315.881 4.35842 314.433C3.90446 312.753 3.17124 310.902 2.19971 309.444" stroke="#EC1D23" stroke-width="4.1907" stroke-linecap="round"/>
<circle cx="415.001" cy="184.799" r="47.4" fill="#F1EEE7" stroke="#EC1D23" stroke-width="3.6"/>
<circle cx="485.801" cy="184.799" r="47.4" fill="#F1EEE7" stroke="#EC1D23" stroke-width="3.6"/>
<ellipse cx="396.824" cy="165.007" rx="16.6235" ry="17.5221" fill="#EC1D23"/>
<ellipse cx="465.361" cy="167.101" rx="16.6235" ry="17.5221" fill="#EC1D23"/>
<circle cx="97.6674" cy="362.401" r="37.2667" fill="#F1EEE7" stroke="#EC1D23" stroke-width="3.6"/>
<circle cx="152.734" cy="362.401" r="37.2667" fill="#F1EEE7" stroke="#EC1D23" stroke-width="3.6"/>
<ellipse cx="84.4636" cy="346.072" rx="12.9294" ry="13.6283" fill="#EC1D23"/>
<ellipse cx="137.771" cy="347.704" rx="12.9294" ry="13.6283" fill="#EC1D23"/>
</svg>
